<svg xmlns="http://www.w3.org/2000/svg" width="1200" height="1200" viewBox="0 0 1200 1200"><g fill-rule="evenodd" clip-rule="evenodd"><path d="M1201 1201H1V1h1200v1200zm-599.44-30.467c163.987 0 327.977-.057 491.965.062 24.997.018 44.716-10.17 60.02-29.362 16.124-20.222 22.462-43.722 22.457-69.286-.037-172.988-.02-345.977-.02-518.964 0-139.157-.024-278.314.027-417.472.007-19.306-3.587-37.77-13.026-54.678-14.876-26.645-36.46-43.645-68.243-43.653-328.643-.1-657.287-.065-985.93-.054-22.71 0-41.317 9.152-56.043 26.11-18.09 20.835-25.118 45.556-25.113 72.796.056 311.98.04 623.957.022 935.935 0 12.552 1.446 24.842 5.23 36.87 12.786 40.657 41.246 61.697 83.687 61.697H601.56z"/><path fill="#FFF" d="M601.56 1170.533H116.592c-42.44 0-70.9-21.04-83.688-61.695-3.783-12.03-5.23-24.32-5.23-36.87.018-311.98.035-623.957-.02-935.936-.006-27.24 7.022-51.96 25.112-72.795 14.727-16.96 33.335-26.11 56.042-26.11 328.643-.013 657.287-.047 985.93.052 31.784.008 53.368 17.008 68.244 43.652 9.44 16.908 13.033 35.372 13.025 54.68-.053 139.156-.028 278.313-.027 417.47 0 172.988-.02 345.977.02 518.965.004 25.564-6.334 49.064-22.458 69.286-15.304 19.193-35.022 29.38-60.02 29.362-163.99-.118-327.978-.062-491.966-.062zM709.71 320.8c9.194-7.073 18.208-13.683 26.856-20.74 12.91-10.53 17.462-25.31 19.3-41.03.957-8.188-1.04-16.146-3.385-24.172-2.547-8.715-6.836-16.274-13.265-21.94-7.508-6.616-16.225-11.954-24.77-17.28-11.56-7.204-23.313-14.134-35.26-20.676-7.982-4.37-16.67-7.078-24.588-12.05-8.137-5.11-13.225-12.198-18.798-19.244-1.066-1.347-1.695-3.29-1.89-5.028-.622-5.548-.85-11.138-1.41-16.693-.535-5.31-1.38-11.723-6.86-13.1-6.166-1.55-13.02-.356-20.035-.356.735 2.537 1.4 4.202 1.68 5.93.485 2.996 2.14 7.153.803 8.83-3.377 4.232-7.623 8.77-12.488 10.565-6.01 2.22-12.998 1.766-19.56 2.516-3.064.35-5.556-.238-6.846-3.436-1.854-4.592-3.777-9.155-5.94-14.382-4.544-.92-10.563-3.668-15.092.92-8.618 8.73-4.175 16.56 2.76 22.41-8.08-.147-16.72-1.56-24.853-.116-8.882 1.576-17.256 5.91-25.93 8.81-3.913 1.31-7.755 3.313-12.228 1.335-15.812-6.992-29.694-16.96-43.462-27.23-10.21-7.618-21.526-12.985-34.477-14.516-8.568-1.013-17.253-2.065-24.74-7.007-2.576-1.7-4.786-4.05-7.51-5.414-9.408-4.717-15.724-12.88-22.696-20.216-5.798-6.102-11.12-12.685-19.15-15.866-2.274-.9-6.592-1.344-7.525-.125-4.307 5.626-8.034 11.764-11.344 18.048-1.104 2.096-1.272 5.63-.25 7.707 2.2 4.462 5.576 8.328 8.227 12.59 1.59 2.553 2.718 5.393 4.054 8.104l-1.21.74c1-.06 2-.12 3.692-.225.802 6.084 1.024 11.997 2.504 17.577 1.07 4.043 1.923 8.41 6.167 11.31 5.97 4.078 11.322 9.057 16.954 13.63 7.9 6.416 15.82 12.813 23.727 19.22 5.513 4.47 10.626 9.588 16.63 13.245 6.96 4.238 12.28 9.748 17.1 16.097 5.254 6.923 10.532 13.868 16.34 20.318 4.85 5.39 10.498 10.06 15.758 15.083 3.99 3.81 7.93 7.67 11.878 11.525 1.773 1.73 3.46 3.553 5.27 5.247 3.483 3.265 6.405 6.448 3.554 11.848-.852 1.613-.326 4.274.24 6.265 3.007 10.578 11.81 16.04 19.992 21.93 6.044 4.352 12.867 7.765 18.374 12.682 7.185 6.415 13.426 13.89 20.032 20.946.89.95 2.426 2.49 2.16 3.137-2.428 5.88 3.387 9.14 4.3 14.065 1.426 7.68 4.656 15.025 7.446 23.5-3.613 0-5.78.29-7.843-.05-8.12-1.338-16.04-.433-23.732 2.15-9.735 3.27-20.06 5.12-28.097 12.518-2.407 2.217-5.624 3.34-9.795 2.687-7.687-1.206-15.778-2.047-23.382-.907-6.602.99-12.722 5.03-19.128 7.534-6.646 2.598-12.372 5.98-14.766 13.357-.39 1.206-2.336 2.49-3.708 2.678-3.02.414-6.148-.068-9.198.202-10.934.97-17.934 8.296-15.667 18.55 1.288 5.818 6.586 10.657 9.528 16.228 3.235 6.126 8.69 12.84 8.156 18.85-1.315 14.81-6.242 29.023-17.575 39.91-1.18 1.135-2.543 2.266-3.234 3.685-2.19 4.49-3.902 9.215-6.16 13.666-4.776 9.42-1.647 19.86 7.485 25.098 4.247 2.436 8.846 4.763 12.133 8.23 4.008 4.23 6.804 9.605 10.124 14.486l1.202-1.482c2.148.64 4.395 1.06 6.428 1.96 4.32 1.912 8.452 4.263 12.808 6.082 4.827 2.016 9.86 3.53 14.72 5.477 2.72 1.09 5.133 3.137 7.915 3.84 11.924 3.008 23.91 5.777 35.915 8.442 11.672 2.592 23.396 4.95 36.042 7.607 0 3.113-.105 6.978.04 10.833.087 2.25-.22 5.18 1.022 6.604 5.418 6.21 8.775 14.2 16.92 18.142 6.37 3.083 6.614 6.74 1.83 11.533-8.455 8.47-17.167 16.69-25.405 25.362-3.175 3.34-6.18 7.308-7.82 11.547-3.974 10.27-6.935 20.925-10.627 31.31-2.406 6.77-6.167 13.142-7.872 20.05-1.645 6.66-7.76 12.107-5.464 19.79-6.153 15.527-12.515 30.918-21.62 45.07-3.592 5.58-6.607 11.718-8.767 17.987-2.9 8.427-4 17.5-7.168 25.802-5.23 13.703-11.677 26.937-17.273 40.507-4.892 11.862-9.406 23.885-13.92 35.9-2.446 6.516-4.302 13.26-6.854 19.73-3.702 9.383-7.896 18.57-11.677 27.925-1.89 4.672-3.563 9.46-4.92 14.31-2.745 9.808-4.374 20.015-8.003 29.466-4.268 11.114-10.197 21.586-15.352 32.362-2.6 5.438-5.024 10.96-7.634 16.393-2.528 5.266-4.354 11.164-7.993 15.53-5.356 6.428-7.344 14.21-10.827 21.37-2.413 4.962-3.712 10.544-6.584 15.182-4.452 7.186-9.82 13.803-14.385 20.09 3.615.998 7.41 3.074 11.09 2.892 23.355-1.158 44.974 8.3 67.746 10.608 14.366 1.456 28.6 4.65 42.98 5.418 18.01.96 36.11.387 54.168.144 6.072-.08 12.117-1.43 18.197-1.737 6.193-.314 12.63-1.09 18.58.148 13.83 2.877 27.435 6.823 41.12 10.377 8.256 2.144 16.494 4.36 24.736 6.56.85.226 1.667.56 2.5.846-.045-.836-.036-1.678-.14-2.506-.92-7.303-2.244-14.58-2.685-21.908-.468-7.806-.02-15.662-.154-23.493-.04-2.423-.884-4.827-.98-7.255-.23-5.83 1.027-12.043-.577-17.43-4.114-13.803-3.37-27.788-3.19-41.764.07-5.396 1.68-10.77 2.698-16.818 3.62 2.517 6.468 4.514 9.336 6.48 1.23.845 3.634 1.72 3.577 2.425-.42 5.274 2.6 8.783 4.803 13.146 4.478 8.87 6.84 18.81 10.02 28.325.25.753.267 1.68.097 2.46-1.533 7.037.955 11.188 7.938 13.232 2.377.695 4.705 1.554 7.07 2.29 3.83 1.196 4.327 3.957 2.657 6.932-5.947 10.59-1.46 18.84 5.503 25.688 6.6 6.492 13.777 12.452 21.07 18.174 9.25 7.254 19.508 10.424 30.726 4.57 4.656-2.43 9.114-5.375 13.283-8.58 10.28-7.9 19.8-16.46 25.34-28.708 2.952-6.53 2.684-12.476-2.223-17.988-.617-.694-1.367-1.27-2.312-2.134 3.246-2.697 6.904-4.653 8.88-7.7 1.788-2.76 3.508-8.368 2.156-9.807-3.463-3.685-2.647-6.612-1.35-10.397.73-2.128.49-4.567.99-6.8 1.813-8.093 1.596-16.77 7.633-23.63 2.194-2.493 4.657-5.962 4.59-8.93-.09-3.828 1.68-4.525 4.164-6.092 3.772-2.378 9.358-3.063 10.345-8.453.53-2.893.38-6.304-.667-9.016-2.945-7.625-3.193-17.4-14.036-19.516-.752-.145-1.902-2.625-1.59-3.026.953-1.227 2.59-2.818 3.853-2.73 3.205.225 6.042.328 5.7-3.836-.256-3.14-1.39-6.205-2.09-9.313-.946-4.187-3.624-6.926-7.41-8.57-3.448-1.5-6.923-3.11-10.552-3.967-2.756-.65-3.437-1.896-3.433-4.434.047-31.744.03-63.488.03-94.61 6.782-4.056 12.123-7.65 17.82-10.545 5.56-2.824 11.483-4.93 17.91-7.63.192-.36.764-1.897 1.716-3.144 2.396-3.135 4.304-6.48 3.297-10.51-1.525-6.106-3.01-12.27-5.205-18.153-3.738-10.014-3.363-11.645 5.35-17.4 1.5-.99 3.187-2.864 3.373-4.493 1.12-9.778 2.285-19.597 2.47-29.42.083-4.548-1.476-9.36-3.255-13.654-2.613-6.307-5.68-12.518-9.34-18.27-2.688-4.226-2.093-6.422 1.697-9.41 2.698-2.13 4.61-5.527 6.205-8.695 1.276-2.532 2.797-5.99 2.022-8.306-2.054-6.137-4.813-12.17-8.188-17.696-3.734-6.11-8.366-11.69-12.82-17.33-1.342-1.703-3.19-3.322-5.157-4.16-6.535-2.78-13.23-5.19-19.312-7.532.1-2.124.657-3.78.157-5.01-2.702-6.64 1.406-11.395 4.77-15.888 3.29-4.4 7.844-7.836 11.688-11.844 3.456-3.6 6.966-7.205 9.957-11.18 2.334-3.102 4.238-6.734 2.095-10.875-2.622-5.067-5.3-10.105-7.996-15.232 1.273-.186 3.838-.36 6.3-.957 9.9-2.4 20.046-4.17 29.58-7.615 11.38-4.114 22.054-10.155 33.35-14.548 14.463-5.623 26.317-14.61 36.804-25.762 3.644-3.873 7-8.422 11.453-10.985 2.91-1.676 5.594-3.283 7.568-5.815 4.738-6.08 10.206-12.064 8.686-20.656-.714-4.043-2.75-7.843-3.574-11.88-1.365-6.682-4.76-11.82-10.163-15.852-6.997-5.222-15.45-8.774-19.765-17.11-1.203-2.323-2.182-4.864-3.827-6.835-3.427-4.104-7.215-7.908-10.886-11.808-4.874-5.176-5.957-11.22-3.524-17.707 2.175-5.795 3.916-11.228 12.2-12.438 8.096-1.183 15.73-5.525 23.56-8.48-2.856-7.91-21.942-9.825-35.805-3.557-.805-4.725-1.15-9.48-2.562-13.893-.716-2.24-3.05-5.026-5.17-5.574-9.916-2.564-19.547-1.305-28.706 3.6-1.163.623-3.72.17-4.74-.763-2.93-2.673-5.224-6.035-8.093-8.787-6.17-5.916-13.22-9.312-22.207-9.506-10.134-.22-19.086 3.016-28.264 6.41-6.01 2.22-12.694 7.974-18.22-1.087-.064-.103-.32-.072-.47-.14-6.373-2.816-12.743-5.638-20.093-8.892-.337-1.882-1.276-5.077-1.386-8.3-.114-3.386-.204-9.36 1.04-9.734 4.447-1.337 4.75-5.7 7.462-7.72 3.643-2.705.96-4.035-.035-5.675z"/><path d="M709.71 320.8c.997 1.642 3.68 2.972.04 5.677-2.713 2.018-3.015 6.382-7.463 7.72-1.243.373-1.153 6.348-1.04 9.732.11 3.223 1.05 6.418 1.387 8.3 7.35 3.255 13.72 6.076 20.093 8.894.15.066.406.036.47.14 5.525 9.06 12.21 3.307 18.22 1.085 9.178-3.395 18.13-6.63 28.264-6.41 8.987.194 16.038 3.59 22.208 9.506 2.87 2.752 5.162 6.114 8.092 8.787 1.02.932 3.578 1.386 4.74.764 9.16-4.905 18.79-6.165 28.708-3.6 2.118.547 4.453 3.333 5.17 5.573 1.41 4.414 1.756 9.168 2.56 13.893 13.863-6.27 32.95-4.354 35.805 3.558-7.83 2.955-15.463 7.298-23.558 8.48-8.285 1.21-10.026 6.644-12.2 12.438-2.434 6.486-1.35 12.53 3.523 17.707 3.67 3.9 7.46 7.704 10.887 11.808 1.646 1.97 2.624 4.512 3.827 6.835 4.314 8.336 12.768 11.89 19.765 17.11 5.402 4.032 8.798 9.17 10.163 15.853.824 4.037 2.86 7.837 3.575 11.88 1.52 8.59-3.947 14.574-8.686 20.655-1.976 2.532-4.66 4.14-7.57 5.815-4.452 2.563-7.81 7.112-11.452 10.985-10.486 11.15-22.34 20.14-36.803 25.762-11.297 4.393-21.97 10.434-33.352 14.548-9.533 3.446-19.68 5.215-29.58 7.616-2.46.6-5.025.772-6.298.958 2.695 5.128 5.374 10.165 7.996 15.23 2.145 4.142.24 7.774-2.094 10.876-2.99 3.975-6.5 7.58-9.957 11.18-3.846 4.008-8.4 7.444-11.69 11.844-3.362 4.493-7.47 9.248-4.77 15.888.5 1.23-.056 2.886-.155 5.01 6.082 2.34 12.776 4.75 19.312 7.533 1.967.836 3.815 2.455 5.158 4.157 4.453 5.642 9.085 11.22 12.818 17.33 3.376 5.526 6.135 11.56 8.188 17.697.775 2.315-.745 5.773-2.02 8.307-1.597 3.17-3.508 6.566-6.206 8.695-3.79 2.99-4.386 5.186-1.697 9.41 3.66 5.753 6.727 11.964 9.34 18.27 1.78 4.294 3.338 9.107 3.254 13.656-.183 9.823-1.348 19.642-2.468 29.42-.187 1.63-1.873 3.502-3.374 4.494-8.712 5.755-9.087 7.386-5.35 17.4 2.196 5.88 3.68 12.046 5.206 18.153 1.007 4.03-.9 7.374-3.297 10.51-.952 1.245-1.523 2.78-1.716 3.143-6.426 2.7-12.35 4.806-17.908 7.63-5.698 2.893-11.04 6.488-17.82 10.544 0 31.122.016 62.866-.03 94.61-.005 2.538.676 3.782 3.433 4.434 3.63.857 7.104 2.468 10.552 3.966 3.786 1.646 6.464 4.385 7.41 8.57.7 3.108 1.834 6.174 2.09 9.314.342 4.164-2.495 4.06-5.7 3.836-1.263-.088-2.9 1.504-3.853 2.73-.313.4.838 2.88 1.59 3.027 10.842 2.117 11.09 11.892 14.035 19.517 1.047 2.712 1.195 6.123.666 9.016-.986 5.39-6.572 6.075-10.345 8.453-2.484 1.566-4.253 2.264-4.164 6.092.068 2.968-2.395 6.437-4.59 8.93-6.036 6.86-5.818 15.537-7.632 23.63-.5 2.232-.26 4.672-.99 6.8-1.298 3.785-2.113 6.713 1.35 10.397 1.353 1.438-.367 7.048-2.155 9.806-1.977 3.05-5.635 5.005-8.88 7.702.943.863 1.693 1.44 2.31 2.134 4.907 5.513 5.176 11.457 2.223 17.988-5.538 12.248-15.06 20.807-25.34 28.708-4.17 3.205-8.627 6.15-13.283 8.58-11.218 5.854-21.477 2.684-30.725-4.57-7.294-5.722-14.47-11.682-21.07-18.174-6.965-6.85-11.45-15.098-5.504-25.69 1.67-2.974 1.175-5.734-2.657-6.93-2.364-.737-4.692-1.596-7.068-2.29-6.983-2.046-9.472-6.196-7.938-13.232.17-.78.154-1.708-.098-2.46-3.18-9.517-5.542-19.456-10.02-28.325-2.203-4.362-5.224-7.87-4.803-13.145.057-.706-2.347-1.58-3.577-2.425-2.868-1.967-5.716-3.964-9.335-6.48-1.02 6.047-2.628 11.423-2.697 16.818-.18 13.976-.925 27.96 3.19 41.765 1.603 5.386.347 11.6.577 17.43.096 2.427.94 4.83.98 7.254.133 7.83-.313 15.688.154 23.492.44 7.328 1.765 14.604 2.683 21.907.104.828.096 1.67.14 2.506-.832-.285-1.65-.62-2.498-.847-8.242-2.2-16.48-4.415-24.736-6.56-13.687-3.553-27.292-7.5-41.12-10.375-5.952-1.237-12.388-.462-18.58-.147-6.08.31-12.126 1.656-18.198 1.737-18.057.243-36.158.816-54.168-.144-14.38-.768-28.614-3.962-42.98-5.418-22.77-2.31-44.39-11.767-67.744-10.61-3.682.184-7.476-1.893-11.09-2.89 4.563-6.288 9.932-12.905 14.383-20.09 2.872-4.64 4.17-10.22 6.584-15.182 3.483-7.16 5.47-14.943 10.828-21.37 3.64-4.367 5.465-10.266 7.993-15.53 2.61-5.435 5.033-10.956 7.634-16.394 5.154-10.776 11.084-21.248 15.352-32.36 3.63-9.452 5.258-19.66 8.002-29.467 1.357-4.85 3.032-9.638 4.92-14.31 3.782-9.354 7.976-18.542 11.678-27.925 2.553-6.472 4.408-13.215 6.855-19.73 4.512-12.016 9.026-24.038 13.918-35.9 5.597-13.57 12.043-26.805 17.273-40.508 3.17-8.3 4.268-17.375 7.17-25.8 2.158-6.27 5.174-12.408 8.765-17.988 9.106-14.152 15.468-29.543 21.62-45.07-2.296-7.683 3.82-13.13 5.465-19.79 1.705-6.908 5.466-13.28 7.872-20.05 3.692-10.385 6.653-21.04 10.627-31.31 1.64-4.24 4.645-8.206 7.82-11.547 8.237-8.672 16.95-16.893 25.403-25.362 4.785-4.792 4.542-8.45-1.828-11.533-8.146-3.942-11.503-11.932-16.922-18.143-1.243-1.426-.936-4.356-1.02-6.605-.147-3.855-.042-7.72-.042-10.833-12.645-2.658-24.37-5.016-36.04-7.607-12.007-2.665-23.992-5.435-35.915-8.443-2.782-.702-5.196-2.75-7.915-3.84-4.86-1.944-9.893-3.46-14.72-5.476-4.355-1.82-8.487-4.17-12.808-6.082-2.033-.9-4.28-1.32-6.43-1.96l-1.2 1.482c-3.32-4.88-6.117-10.258-10.125-14.486-3.287-3.468-7.886-5.795-12.132-8.23-9.133-5.236-12.262-15.678-7.485-25.097 2.258-4.45 3.97-9.177 6.16-13.666.69-1.42 2.054-2.55 3.233-3.684 11.333-10.888 16.26-25.103 17.575-39.91.534-6.012-4.92-12.725-8.156-18.85-2.942-5.572-8.24-10.41-9.527-16.23-2.267-10.253 4.733-17.578 15.667-18.55 3.05-.27 6.18.213 9.198-.2 1.372-.19 3.317-1.473 3.708-2.68 2.394-7.377 8.12-10.76 14.766-13.356 6.406-2.504 12.526-6.544 19.128-7.534 7.604-1.14 15.695-.3 23.383.907 4.17.653 7.388-.47 9.795-2.687 8.036-7.397 18.36-9.25 28.097-12.52 7.69-2.58 15.613-3.486 23.732-2.148 2.062.34 4.228.05 7.842.05-2.79-8.475-6.02-15.82-7.445-23.5-.914-4.925-6.73-8.187-4.302-14.065.267-.646-1.27-2.187-2.16-3.137-6.605-7.057-12.847-14.53-20.03-20.946-5.508-4.917-12.33-8.33-18.375-12.68-8.184-5.892-16.985-11.354-19.992-21.932-.566-1.99-1.092-4.65-.24-6.265 2.852-5.4-.07-8.583-3.554-11.848-1.81-1.694-3.496-3.516-5.27-5.247-3.947-3.854-7.89-7.715-11.878-11.524-5.26-5.023-10.908-9.693-15.76-15.082-5.806-6.45-11.084-13.396-16.338-20.32-4.818-6.348-10.14-11.857-17.1-16.096-6.004-3.657-11.117-8.776-16.63-13.244-7.907-6.408-15.825-12.805-23.727-19.22-5.63-4.574-10.983-9.553-16.953-13.63-4.244-2.9-5.096-7.268-6.167-11.31-1.48-5.58-1.702-11.494-2.504-17.58l-3.69.227 1.207-.74c-1.336-2.713-2.465-5.553-4.054-8.106-2.65-4.262-6.027-8.128-8.227-12.59-1.023-2.078-.855-5.61.25-7.707 3.31-6.284 7.036-12.422 11.343-18.048.934-1.22 5.25-.775 7.525.126 8.032 3.183 13.354 9.766 19.15 15.867 6.974 7.336 13.29 15.5 22.698 20.216 2.723 1.365 4.933 3.714 7.508 5.414 7.488 4.94 16.173 5.994 24.74 7.007 12.95 1.53 24.268 6.897 34.478 14.515 13.768 10.27 27.65 20.238 43.462 27.23 4.473 1.98 8.314-.024 12.23-1.334 8.672-2.9 17.046-7.233 25.927-8.81 8.133-1.443 16.77-.03 24.854.117-6.936-5.852-11.38-13.68-2.76-22.41 4.528-4.59 10.547-1.84 15.09-.92 2.164 5.226 4.087 9.79 5.94 14.38 1.29 3.198 3.782 3.787 6.848 3.438 6.56-.75 13.55-.296 19.56-2.515 4.864-1.796 9.11-6.333 12.487-10.566 1.337-1.677-.317-5.834-.803-8.83-.28-1.728-.945-3.393-1.68-5.93 7.014 0 13.868-1.192 20.033.357 5.48 1.377 6.326 7.79 6.86 13.1.562 5.556.79 11.146 1.41 16.693.195 1.74.824 3.682 1.89 5.028 5.573 7.046 10.66 14.134 18.798 19.244 7.918 4.972 16.606 7.68 24.588 12.05 11.947 6.542 23.7 13.472 35.26 20.677 8.546 5.324 17.263 10.662 24.77 17.278 6.43 5.666 10.72 13.226 13.267 21.94 2.346 8.025 4.342 15.983 3.385 24.173-1.838 15.72-6.39 30.5-19.3 41.03-8.652 7.057-17.666 13.667-26.86 20.74zM601.023 594.605l-1.25-.804c-3.54 3.92-7.064 7.85-10.62 11.752-6.81 7.47-15.398 13.057-20.14 22.768-3.285 6.73-9.156 12.334-14.414 17.932-6.685 7.117-13.618 14.065-21.01 20.432-5.63 4.85-11.383 9-9.906 17.742.255 1.507-1.213 3.328-1.947 4.977-7.37 16.528-14.985 32.953-22.07 49.603-7.1 16.676-13.17 33.802-20.62 50.31-7.215 15.987-11.22 32.663-13.45 49.87-.785 6.047-1.314 11.737-4.3 17.55-8.94 17.404-17.073 35.242-25 53.14-5.444 12.29-10.26 24.876-14.92 37.49-4.395 11.898-7.975 24.1-12.398 35.987-2.27 6.103-5.92 11.682-8.387 17.726-5.53 13.556-10.504 27.34-16.115 40.863-2.926 7.05-6.658 13.77-10.14 20.585-5.38 10.53-10.878 21-16.26 31.528-.608 1.19-.79 2.597-1.17 3.903.283.108.567.22.85.328l3.36-5.355.696.398c-3.86 11.02-7.723 22.04-11.772 33.596 9.89.614 19.296 1.768 28.688 1.654 15.906-.192 31.835-.766 47.694-1.97a458.803 458.803 0 0 0 40.7-4.938c19.646-3.275 39.173-7.334 57.843-14.563 6.14-2.38 13.324-4.036 12.826-13.07-.008-.13.22-.257.272-.408 2.937-8.483 6.167-16.88 8.71-25.48 2.422-8.197 4.834-16.218 9.473-23.607 3.467-5.522 7.054-11.66 3.718-17.45 1.386-2.855 2.555-4.78 3.288-6.857 2.536-7.19 4.866-14.45 7.38-21.647 2.027-5.81 5.927-11.552 5.97-17.347.102-13.15 4.9-25 7.942-37.33 1.996-8.09 6.33-14.424 13.36-19.662 10.885-8.11 21.688-16.574 29.748-27.843 2.09-2.922 4.47-5.636 6.717-8.445 5.236-6.552 10.993-12.76 15.59-19.735 7.298-11.075 14.258-22.43 20.51-34.12 3.807-7.12 6.3-15 8.805-22.728 1.008-3.114.464-6.73.676-11.165 4.858 1.162 9.502 2.372 14.19 3.378 16.06 3.443 32.147 6.754 48.184 10.3 1.763.392 3.563 1.7 4.825 3.065 4.11 4.44 7.624 9.502 12.093 13.516 2.23 2.002 5.974 2.667 9.153 3.164 2.95.463 4.504-1.587 3.282-4.424-2.637-6.123-5.91-11.986-8.326-18.188-1.61-4.125-2.848-8.62-3.043-13.005-.19-4.31 1.378-8.67 1.733-13.045.27-3.308-4.968-10.422-7.95-11.15-3.664-.897-7.437-1.35-11.092-2.272-4.764-1.203-10.008-1.772-14.07-4.227-9.522-5.75-19.584-8.657-30.575-9.413-2.906-.2-6.263-1.68-8.393-3.664-4.098-3.82-7.564-8.236-14.21-7.11 5.316-1.518 10.558-3.436 15.83-3.522 21.49-.357 42.993-.247 64.487-.005 2.02.023 5.184 1.74 5.824 3.427 3.63 9.552 6.98 19.243 9.676 29.093.804 2.936-.872 6.526-1.293 9.83-.172 1.36-.028 2.758-.028 5.174 5.948-5.38 7.784-10.853 8.035-17.45.352-9.215-3.133-16.96-7.55-24.574-.7-1.208-1.744-2.855-1.414-3.924 2.317-7.496 3.326-14.717-1.977-21.513-.504-.645-.068-2.02-.068-3.535-4.99 2.64-9.812 1.976-14.65 1.18-3.976-.655-7.968-1.196-11.94-1.862-6.116-1.026-12.19-2.38-18.342-3.127-14.54-1.764-29.092-3.487-43.684-4.69-3.937-.326-8.65-3.844-11.57.862-3.554-1.145-6.837-3.266-9.82-2.905-4.178.504-4.332-1.485-4.758-4.284-.546-3.596 2.206-3.413 4.34-4.016 5.704-1.61 11.394-3.272 17.106-4.85 6.504-1.798 12.983-3.708 19.55-5.24 10.233-2.39 20.526-4.522 30.804-6.72 3.146-.674 6.726-2.452 9.412-1.58 10.294 3.335 20.378 7.37 30.39 11.507 4.295 1.774 8.222 4.437 12.315 6.695.42-.308.842-.614 1.263-.922-1.16-3.487-1.662-7.413-3.622-10.37-3.977-6.002-8.954-11.33-13.116-17.22-3.505-4.96-7.325-8.924-13.512-10.618-4.527-1.24-8.756-3.633-13.04-5.676-5.322-2.538-10.56-5.26-15.846-7.874-4.907-2.427-9.595-.713-14.387.64-12.656 3.57-25.38 6.898-38.038 10.46-4.732 1.33-9.267 3.47-14.05 4.496-12.208 2.62-24.664 4.226-36.702 7.43-6.564 1.748-11.47 2.045-15.58-3.964-.876-1.283-2.544-2.026-4.464-3.486 1.593-2.802 3.173-5.734 4.896-8.58 2.842-4.695 5.83-9.284 6.45-14.964.153-1.395.698-2.996 1.607-4.02 6.098-6.86 12.384-13.553 18.498-20.398 1.056-1.18 1.583-2.833 2.354-4.268l-1.174-.776-5.527 2.567c-2.104-1.5-3.486-3.272-4.928-3.322-2.042-.07-4.128 1.128-6.02 1.73l-2.316-6.353c6.554 1.714 12.853 1.855 18.92-.813 15.347-6.753 28.84-16.533 42.447-26.138 7.48-5.28 14.903-10.72 22.822-15.268 3.752-2.155 8.608-2.39 12.97-3.484-2.778-5.138-2.216-7.348 1.86-8.145 1.88-.368 3.648-1.302 5.646-2.045l2.813 3.997c3.024-3.44 4.562-1.653 6.015 1.132.698 1.34 1.81 2.463 2.428 3.28.403-3.163.736-5.97 1.126-8.768.68-4.88-2.5-7.632-7.056-6.252-1.404.426-2.986.263-4.972.404.698-1.813 1.1-2.85 1.786-4.636-2.29 0-3.972-.302-5.504.052-6.75 1.554-13.595 2.878-20.146 5.063-12.02 4.008-23.882 8.5-35.76 12.926-3.95 1.474-8.052 2.895-11.55 5.163-5.615 3.644-10.61 8.236-16.185 11.954-9.063 6.042-18.38 11.702-27.605 17.533.873 1.468 1.334 2.246 1.794 3.024zm-44.218-421.81c-5.84-3.25-10.794-5.784-15.518-8.69-5.537-3.407-10.143-8.135-17.155-9.22-7.246-1.12-14.388-4.37-20.28 3.11-.92 1.168-2.836 2.087-4.345 2.17-9.263.515-18.503 1.003-27.112-3.82-13.877-7.775-26.708-16.83-38.22-27.91-4.878-4.694-9.903-8.867-18.317-8.8-7.84.062-15.78-4.03-23.553-6.66-7.93-2.683-16.204-4.923-23.438-8.953-11.302-6.295-19.114-16.384-25.13-27.793-2.67-5.062-5.256-10.206-11.42-11.92-7.016 8.337-6.43 14.04 1.766 20.748 3.396 2.776 6.708 5.792 9.457 9.185 4.233 5.227 3.594 6.366-3.27 7.02-3.55.336-4.86 2.535-3.777 5.438 1.52 4.07 3.958 7.79 5.688 11.797 1.104 2.557 1.95 2.998 4.777 1.773 10.48-4.54 21.402-6.523 32.48-2.306 5.944 2.264 11.7 5.102 17.343 8.062 14.02 7.357 28.068 14.69 41.823 22.527 6.67 3.8 12.706 8.71 19.028 13.12-.273.53-.548 1.06-.82 1.592-.906 0-1.933.283-2.696-.045-6.146-2.642-12.553-2.14-18.95-1.722-5.75.375-12.888 8.233-10.892 12.442 2.242 4.727 5.146 9.208 8.252 13.437 2.98 4.055 6.434 7.797 9.975 11.385 1.805 1.827 4.08 3.444 6.447 4.418 9.26 3.807 18.564 7.535 28.008 10.853 4.92 1.73 10.116 2.85 15.28 3.578 1.667.235 4.79-1.28 5.236-2.65 1.148-3.518 1.912-7.488 1.498-11.126-1.07-9.414-2.6-18.786-8.116-26.976-1.2-1.784-1.316-4.3-1.932-6.48l1.16-.437c.69 1.06 1.362 2.136 2.076 3.183 8.1 11.872 15.453 24.36 24.575 35.388 5.958 7.206 13.27 14.235 23.086 16.512 9.915 2.3 19.956 4.17 30.028 5.637 7.312 1.065 14.024 2.902 19.79 7.793 2.335 1.98 3.25 4.226 1.417 6.36-3.08 3.592-6.204 7.864-10.28 9.757-15.52 7.203-31.54 12.74-49.202 11.436-10.91-.806-21.882-.77-32.826-1.072-2.874-.08-5.752-.012-8.615-.012 4.33 4.25 8.23 8.147 12.222 11.946 1.188 1.132 2.62 2.017 3.978 2.965 8.532 5.965 18.593 6.762 28.316 6.857 9.458.093 19.016-1.557 28.37-3.29 4.5-.833 7.142.19 9.69 3.604 1.567 2.1 3.486 4.16 5.693 5.51 4.096 2.5 8.518 4.467 13.092 6.803-12.493 4.487-26.577 2.59-37.598 13.5 2.343 1.048 4.2 2.652 5.85 2.46 3.697-.434 7.345-1.593 10.917-2.752 14.486-4.702 29.132-8.08 44.554-7.675 4.953.13 9.566-1.07 12.994-6.31 3.27-5 6.043-9.6 5.584-15.672-.433-5.728-.148-11.63-1.483-17.14-1.738-7.173-3.795-14.272-11.076-18.782-7.22-4.472-13.586-10.307-20.415-15.427-2.707-2.03-5.42-4.482-8.532-5.455-8.89-2.778-18.013-4.79-26.985-7.313-5.505-1.548-11.437-2.582-16.228-5.438-8.154-4.862-15.786-10.7-23.192-16.68-4.062-3.276-7.346-7.57-10.738-11.607-3.235-3.85-6.156-7.963-9.216-11.96 3.402-.633 5.664-.394 7.915-.08 8.505 1.182 16 4.66 23.04 9.533 3.433 2.377 7.632 3.798 11.278.156 2.963-2.96 5.54-6.305 8.64-9.883zm-149.632 368.5c.853-7.627 6.396-8.773 11.513-10.522.918-.313 1.688-1.035 2.57-1.474 11.066-5.495 21.684-12.404 33.32-16.116 17.045-5.438 34.807-8.644 52.29-12.682 13.78-3.183 27.52-6.653 41.43-9.138 13.92-2.487 28.023-3.956 42.06-5.78 7.523-.976 15.074-1.752 22.61-2.628 15.556-1.81 31.07-4.525 46.675-5.19 17.243-.738 34.576.142 51.85.828 9.052.36 18.066 1.764 27.087 2.792 8.677.988 17.33 2.174 26.01 3.14 10.346 1.15 21.045.87 30.992 3.483 23.79 6.252 48.644 9.253 67.478 19.8 3.314-1.578 5.567-2.726 7.882-3.733 3.32-1.448 3.577-3.932 2.74-7.032-2.39-8.833-8.568-14.252-16.573-17.527-8.98-3.675-18.095-7.18-27.417-9.823-7.868-2.23-16.1-3.218-24.2-4.588-11.684-1.978-23.34-4.34-35.108-5.536-10.71-1.088-21.556-.835-32.34-1.184-1.66-.054-3.35.008-4.975-.27-13.67-2.325-27.165-4.38-41.31-3.02-21.26 2.04-42.69 2.347-64.055 3.27-17.9.776-35.81 1.35-53.71 2.076-6.286.255-12.716-.043-18.82 1.193-21.63 4.378-43.212 9.033-64.68 14.143-11.395 2.71-22.658 6.16-33.723 10.02-14.15 4.934-28.193 10.255-41.96 16.16-5.242 2.247-10.952 5.645-14.038 10.166-4.953 7.252-1.423 21.267 6.4 29.17zm228.285-236.648l11.915 1.093c1.41-1.936 2.426-4.023 4.046-5.4 2.973-2.522 6.912-4.11 9.354-7.012 4.95-5.88 11.212-11.44 10.014-20.372-.434-3.226-1.404-6.38-2.098-9.42l27.732-1.228 1.76-6.482 1.157.243-1.354 11.81c7.688-7.256 9.753-19.775 5.085-28.695-2.49-4.763-5.14-9.46-8.013-14-2.372-3.747-5.762-6.933-7.682-10.864-4.56-9.338-12.686-12.438-22.015-13.64-7.116-.918-16.085-5.788-15.563-16.06.075-1.478-.472-2.99-.8-4.888 2.127 1.423 3.782 2.793 5.653 3.734 8.22 4.134 16.384 8.42 24.806 12.108 6.318 2.768 12.883 5.144 19.544 6.923 11.825 3.157 22.938 7.275 30.114 17.984 5.64 8.42 10.313 17.242 9.653 27.88-.267 4.29-.49 8.58-.732 12.87 1.448-2.086 2.485-4.387 3.047-6.8 1.476-6.332 1.774-13.14 4.347-18.963 3.067-6.94-.104-11.41-3.257-16.502-4.452 2.407-4.568 2.54-8.02-.515-12.242-10.837-25.44-20.233-40.582-26.578-11.405-4.778-22.868-9.283-32.426-17.54-5.26-4.544-11.004-8.53-16.266-12.565-2.64 3.847-6.05 6.957-6.993 10.69-1.007 3.988.314 8.563.693 13.92-6.224-4.46-8.7-9.12-8.646-15.467.047-5.582-.268-11.25-1.27-16.726-.564-3.076-1.22-6.916-5.747-7.7-6.744-1.164-7.837-3.46-5.944-10.036 1.047-3.64 1.44-7.47 2.315-12.233-1.7 1.567-2.592 2.266-3.326 3.102-.652.74-1.122 1.64-1.684 2.46-6.976 10.2-14.067 20.242-28.984 14.704-5.764-2.14-12.18-2.61-16.97-7.326-1.642-1.616-4.466-2.03-6.93-3.07-1.43 12.398-1.43 12.522-9.07 12.722-1.87.05-4.03-.54-5.607-1.54-9.384-5.953-18.002-1.14-26.798 1.587 3.402.54 6.77.327 10.138.105 1.64-.108 3.33-.543 4.912-.29 5.535.878 11.002 2.21 16.55 2.972 12.42 1.7 24.85 3.41 37.32 4.63 8.144.798 13.528 4.72 16.455 12.034 1.457 3.644 3.87 7.228 6.714 9.928 6.674 6.335 13.862 12.13 20.857 18.126 1.854 1.59 3.61 3.36 5.668 4.637 8.47 5.263 17.036 10.367 25.458 15.465l-1.79 3.77c-1.386-1.27-2.398-2.73-3.79-3.386-15.186-7.144-30.313-14.435-45.703-21.117-10.043-4.36-19.937-8.588-27.51-16.954-8.995-9.937-20.383-16.635-32.946-20.52-9.807-3.032-20.25-4.05-30.444-5.752-2.578-.43-5.29-.063-7.94-.063 4.42 1.934 8.78 2.668 13.032 3.81 5.614 1.508 12.16.26 16.718 4.86 3.802 3.84 8.673 3.967 13.314 4.29 6.04.423 11.198 2.098 15.804 6.174 6.82 6.037 5.997 13.415-2.244 17.136-1.66.75-3.4 1.325-5.06 2.077-3.66 1.658-4.305 4.15-2.253 7.625 2.826 4.787 6.682 7.958 12.192 9.298 5.756 1.4 11.456 3.072 17.108 4.855 13.32 4.204 26.293 8.924 38.755 15.676 8.72 4.725 16.415 10.124 23.29 16.923 6.397 6.32 9.975 14.253 8.52 23.225-1.003 6.188-3.188 12.438-6.136 17.974-2.188 4.107-5.854 8.485-9.94 10.262-5.078 2.206-8.196 5.566-11.51 10.024zm45.753 19.402c-5.043-.64-10.537-1.36-16.038-2.03-7.827-.952-15.728-1.49-23.475-2.883-11.783-2.12-23.492-2.588-35.236-.167-5.93 1.222-11.86 2.505-17.695 4.11a995.74 995.74 0 0 0-32.63 9.55c-1.156.36-2.478 2.56-2.46 3.89.06 4.393.587 8.792 1.145 13.162.703 5.507 1.612 10.987 2.443 16.557 4.09-1.584 7.044-3.076 10.174-3.876 9.968-2.547 19.888-5.752 30.036-7.013 15.513-1.927 29.853 3.183 43.572 10.112.803.404 2.225.14 3.123-.296 3.952-1.92 7.614-4.775 11.758-5.895 9.148-2.47 18.524-4.098 27.646-6.034l-2.362-29.188zm34.93 499.43c-5.41-1.854-10.168-.157-11.728 5.21-1.028 3.535-.297 7.592-.3 11.415-.01 21.307-.002 42.613-.002 63.92 0 10.318-.133 20.64.043 30.954.133 7.755 7.77 13.56 15.244 11.903 5.09-1.13 8.296-5.008 8.875-11.52 1.107-12.448 2.27-24.902 2.868-37.38.745-15.528.904-31.083 1.415-46.623.1-3.047 1.51-6.287.83-9.076-2.062-8.48-7.494-14.657-15.03-19.116-.45 1.92-.865 3.676-1.278 5.432l-.938-.277v-4.842zm-117.2 194.77c6.036-2.512 11.312-5.442 16.967-6.89 8.552-2.192 17.33-3.63 26.084-4.875 9.62-1.37 19.306-2.832 28.99-3.064 19.63-.473 39.277-.22 58.917-.085 4.767.032 9.62.32 14.27 1.283 5.846 1.21 11.522 3.237 17.36 4.938 1.573-10.464-1.437-16.14-10.133-19.184-3.52-1.23-7.286-1.88-10.994-2.424-9.408-1.38-18.846-3.587-28.272-3.594-20.865-.015-41.758.682-62.585 1.966-10.577.65-21.27 2.367-31.457 5.225-5.763 1.616-11.883 5.545-15.463 10.245-2.987 3.92-2.51 10.48-3.682 16.46zm26.733-579.23c.653.105 1.3.33 1.933.298 13.558-.678 27.144-1.037 40.66-2.21 8.81-.763 13.737-5.896 12.292-12.994-2.918-14.32-8.966-26.934-23.07-33.836-.867-.425-1.71-.95-2.46-1.556-5.66-4.585-11.618-4.898-15.965 1.052-2.875 3.937-5.627 8.038-7.842 12.368-5.85 11.443-8.785 23.464-5.547 36.877zm64.186 412.226c-.557-.156-1.112-.313-1.67-.468-3.57 3.385-7.602 6.404-10.63 10.22-11.508 14.51-13.604 31.887-14.196 49.582-.237 7.108.19 14.24-.115 21.344-.225 5.166 2.51 8.745 5.643 12.043 4.177 4.397 9.652 3.676 14.324 1.523 5.037-2.32 8.805-6.484 8.58-12.707-.31-8.563-1.168-17.122-1.15-25.68.022-9.612 1.126-19.225 1.036-28.83-.05-5.227 1.438-10.52-1.54-15.896-1.594-2.88-.284-7.368-.284-11.13zM577.59 444.402c.318-.42 1.024-1.71 2.05-2.646 4.482-4.09 5.807-9.625 3.046-15.013-4.07-7.942-8.124-15.915-12.703-23.563-2.256-3.768-5.675-6.838-7.802-9.33-24.06 12.543-28.503 34.09-30.67 56.62l46.08-6.068zm-96.008-40.557c-12.595 19.385-24.686 37.71-23.614 60.265 11.565-2.44 23.746-4.926 35.877-7.63 2.906-.648 6.765-1.23 8.204-3.252 2.035-2.86 2.706-6.976 3.126-10.65 1.31-11.458-4.08-20.85-10.796-29.24-3.11-3.886-8.2-6.185-12.798-9.493zm244.696-16.656c-3.378 4.84-7.06 9.17-9.643 14.076-2.8 5.316-6.735 10.932-3.67 17.376 2.373 4.99 5.592 9.586 8.515 14.307 2.133 3.444 5.376 4.395 9.327 4.442 6.444.078 12.887.575 19.323 1.003 2.66.177 5.3.633 8.03.972.382-19.078-10.54-37.644-31.882-52.178zm29.085 590.782c1.212-6.144.886-8.042-4.023-9.6-10.004-3.176-20.108-7.053-30.42-8.03-21.464-2.034-43.096-2.73-64.58.743-12.29 1.987-24.68 3.522-36.827 6.166-12.693 2.764-14.32 4.937-14.967 15.082 49.913-17.103 100.183-18.32 150.817-4.36zM424.106 471.87c.614-.147 1.23-.292 1.844-.438 2.125-4.548 3.552-9.635 6.546-13.51 4.058-5.252 3.79-10.325 2.537-16.21-2.33-10.944-8.242-17.917-19.604-19.726-4.724-.75-10.95 3.255-10.044 6.897 1.798 7.23 3.39 14.648 6.39 21.403 3.344 7.535 8.157 14.417 12.33 21.583zm394.418-25.716c.164-.607.394-1.073.403-1.544.394-17.97-8.783-31.892-19.29-45.204-.455-.578-2.117-.698-2.978-.382-5.118 1.88-9.126 8.707-9.9 14.166-1.27 8.94 3.58 15.325 8.576 21.295 3.682 4.4 7.363 9.62 13.917 10.55 3.065.435 6.148.746 9.27 1.12zM641.078 1091.52c.797.02 1.594.04 2.39.062 1.223-1.643 2.808-3.127 3.603-4.955 3.62-8.316 3.277-16.775.743-25.366-2.06-6.98-3.836-14.052-5.488-21.142-1.144-4.905-5.648-7.995-11.117-7.172-4.827.726-7.026 3.9-6.044 9.525 1.033 5.92 1.927 11.956 3.866 17.604 3.642 10.61 7.99 20.977 12.048 31.445zm17.335-49.565c1.007 6.494 2.587 15.172 3.636 23.912.88 7.333 3.718 13.767 7.62 19.853 1.454 2.267 3.13 2.316 4.67.074.933-1.36 2.163-2.75 2.46-4.28 2.155-11.145 5.747-22.128 2.663-33.792-1.78-6.74-4.357-12.49-11.4-14.922-7.29-2.516-9.65-.76-9.65 9.155zm2.306 83.41l-.663 1.87c7.5 7.522 14.967 15.076 22.556 22.506.596.584 2.293.77 3.038.352 3.727-2.087 7.483-4.196 10.894-6.747 5.196-3.89 10.3-7.944 15.086-12.322 2.896-2.65 5.115-6.04 7.64-9.1-19.692 4.742-38.942 6.234-58.55 3.442zm2.744-748.387c12.448 6.158 21.533 15.773 29.605 26.838 3.804-12.762 13.69-19.215 22.142-27.634-17.773-4.944-34.763-7.46-51.748.796zm-62.898 32.534c4.13-5.347 8.078-10.52 12.094-15.638 3.964-5.052 7.995-10.05 11.983-15.056-11.205-4.64-34.917-4.98-45.004 4.284 3.15 2.866 5.984 6.126 9.447 8.442 6.59 4.41 11.31 9.735 11.48 17.968zm187.432-28.404c-14.326-5.66-28.63-9.513-44.527-5.283 8.108 9.753 15.87 19.093 23.747 28.567 4.66-10.065 10.277-18.67 20.78-23.284zm-269.424 37.827c2.703-6.5 4.7-13.174 8.123-19.013 3.452-5.892 8.316-10.956 12.536-16.35-14.826-3.89-27.626-.645-38.6 9.53 8.21 6.94 13.807 15.698 17.94 25.833zm175.024 647.155c.602 11.05.95 12.968 3.356 15.754 2.072 2.402 4.04 2.255 5.456-.503 1.564-3.047 3.305-6.142 4.096-9.426 2.71-11.26 3.75-22.61 1.164-34.14-.752-3.35-2.002-4.448-5.454-4.67-3.57-.228-4.99 1.59-5.34 4.228-1.275 9.562-2.213 19.168-3.278 28.758zm52.376-511.854c.7-.863 1.22-2.174 2.085-2.466 5.27-1.78 10.644-3.266 15.93-5.007 1.108-.366 2.552-1.196 2.89-2.15 1.32-3.716-5.617-13.16-9.592-12.77-8 .785-15.978 1.913-23.908 3.232-2.883.48-4.44 3.193-3.06 5.664 1.742 3.11 4.444 5.73 6.96 8.344 1.56 1.618 3.54 2.83 6.038 4.77-2.788-.41-4.525-.67-6.263-.926l-.125 1.308h9.044zm-103.41 543.74c1.34 4.836 4.497 6.685 8.813 6.577 4.123-.103 8.24-.892 12.354-.855 5.787.05 11.583 1.008 17.35.822 11.577-.37 23.145-1.156 34.7-1.98 3.588-.256 7.147-1.098 10.672-1.88.886-.196 2.356-1.446 2.246-1.786-.418-1.287-1.244-3.284-2.153-3.418-3.52-.52-7.16-.783-10.7-.487-8.687.727-17.326 2.36-26.017 2.64-14.203.454-28.432.115-42.65.132-1.448 0-2.894.143-4.614.235zm94.107-46.825c-.56-4.378-1.62-8.765-1.55-13.134.084-5.112-2.902-4.867-5.54-3.293-2.01 1.198-3.314 3.938-4.37 6.248-.708 1.55-.413 3.553-.603 5.35-1.105 10.433-4.744 20.722-1.865 31.376.427 1.577 1.294 3.034 1.957 4.547 1.6-1.253 3.833-2.174 4.696-3.814 4.458-8.48 7.714-17.352 7.275-27.28zm-92.907-130.853l-28.93 26.392c1.784 0 3.418-.435 3.786.064 4.46 6.05 10.335 4.298 16.25 3.41 6.963-1.043 11.875-6.54 11.154-13.47-.618-5.938-1.62-11.838-2.26-16.397zm-91.21-308.623c-9.202-10.24-2.994-20.313 1.83-30.56-10.946.868-15.653 3.346-19.478 12.838-2.204 5.47-1.81 10.663 2.17 15.186 4.125 4.69 8.762 7.72 15.478 2.536zm28.123-35.284c-2.25.137-5.264-.053-8.065.632-1.633.398-3.24 1.964-4.298 3.415-1.616 2.22-2.88 4.73-4.026 7.24-.575 1.26-1.22 3.112-.707 4.132 2.376 4.736 5.146 9.276 8.21 14.644 3.742-4.008 7.33-7.422 10.333-11.29 1.1-1.414 1.302-3.963 1.063-5.89-.517-4.185-1.582-8.302-2.51-12.884zM449.96 427.147l10.077-26.782c-9.474 1.007-18.073 4.625-24.314 10.39l14.238 16.392zm241.564 166.878l-.896-1.468c-1.33.44-2.754.7-3.973 1.35-9.775 5.2-19.566 10.377-29.23 15.78-3.046 1.7-5.75 4.03-8.55 6.15-.622.47-1.074 1.228-1.472 1.93-2.09 3.687-3.766 7.68-6.307 11.018-2.254 2.96-2.64 4.983 1.444 7.855 4.753-6.91 9.322-13.733 14.11-20.4 1.386-1.928 3.132-3.915 5.177-4.993 6.878-3.625 14.09-6.626 20.92-10.333 3.224-1.75 5.87-4.56 8.777-6.89zm36.125 3.222c3.606 1.895 6.75 3.58 9.934 5.185.532.27 1.59.486 1.814.224 3.13-3.663 6.272-7.33 9.1-11.224.485-.67-.066-2.946-.848-3.526-2.676-1.988-5.517-3.974-8.61-5.075-1.292-.46-4.11.825-4.96 2.14-2.452 3.79-4.255 8-6.43 12.277zm-77.318 58.426c-2.777-6.195-5.162-11.52-7.548-16.84-.52.14-1.04.282-1.56.425L637.262 647c-6.64 1.66-10.444 6.74-8.833 12.998l21.905-4.325zm27.488-11.095c3.453 4.35 7.38 4.052 15.697-.47-4.202-4.167-6-11.832-14.233-9.892-7.95 1.873-6.82 9.693-10.063 15.266l8.6-.63v-4.274zM835.227 391.04c-5.926-5.443-14.286-6.534-21.057-1.617 3.694 4.69 7.38 9.37 10.07 12.783l10.987-11.166zM782.57 545.672c-.3-.544-.598-1.088-.896-1.632l-4.485.548c-.173-.438-.336-.894-.528-1.337-.943-2.168-1.895-4.334-2.843-6.5-.627 2.707-1.285 5.407-1.844 8.13-.086.418.155 1.058.468 1.38 2.285 2.353.528 3.935-1.107 5.335-4.276 3.663-8.748 7.102-12.92 10.876-.907.822-.886 2.67-1.292 4.047 1.5-.26 3.343-.054 4.44-.86 3.728-2.742 7.378-5.648 10.71-8.855 3.634-3.5 6.88-7.403 10.294-11.13zm-75.653 95.626l18.046 7.896c2.25-3.05 2.54-6.937.13-10.953-2.643-4.4-7.017-4.245-11.337-4.153-4.892.103-5.806 3.823-6.84 7.21zm11.297-57.73c-14.367-1.494-17.49 11.908-26.616 16.8.26.607.52 1.217.778 1.825l13.964-1.535.152-1.328-4.945-2.12c9.274-.242 10.633-9.164 16.667-13.642zm-105.452-11.12l-18.24 1.645v10.235c6.07-3.95 11.573-7.537 18.24-11.88zm86.62 133.94c9.068 1.047 17.242 1.99 25.415 2.937-7.618-5.305-15.158-11.13-25.416-2.938zm34.87-129.38c6.203 2.09 18.717-3.846 21.598-10.02l-21.6 10.02zm7.462 262.363c1.364-7.2-3.063-11.342-10.214-9.885a4954.04 4954.04 0 0 0 3.276-3.207c2.288 4.32 4.578 8.64 6.938 13.093zM737.72 608.98c-5.76-6.476-8.632-7.9-12.61-6.9l12.61 6.9z"/><path fill="#FFF" d="M601.022 594.604l-1.794-3.028c9.226-5.83 18.543-11.49 27.605-17.533 5.574-3.718 10.57-8.31 16.186-11.954 3.496-2.27 7.597-3.69 11.55-5.163 11.876-4.425 23.737-8.918 35.758-12.926 6.552-2.184 13.396-3.508 20.146-5.062 1.532-.354 3.215-.052 5.504-.052l-1.786 4.636c1.985-.142 3.567.02 4.972-.404 4.557-1.38 7.734 1.37 7.055 6.252-.39 2.798-.724 5.604-1.127 8.767-.618-.816-1.73-1.94-2.428-3.28-1.453-2.784-2.99-4.57-6.016-1.132l-2.814-3.997c-1.997.743-3.766 1.677-5.645 2.045-4.076.797-4.64 3.007-1.863 8.14-4.358 1.1-9.215 1.334-12.968 3.49-7.92 4.548-15.343 9.987-22.823 15.267-13.607 9.604-27.1 19.385-42.447 26.138-6.067 2.67-12.366 2.527-18.92.813l2.316 6.353c1.89-.6 3.977-1.8 6.02-1.73 1.44.05 2.822 1.823 4.927 3.322l5.527-2.567 1.174.776c-.77 1.435-1.298 3.087-2.353 4.268-6.113 6.846-12.4 13.538-18.497 20.4-.91 1.02-1.454 2.623-1.606 4.018-.62 5.68-3.61 10.27-6.45 14.963-1.724 2.847-3.304 5.78-4.896 8.58 1.92 1.46 3.59 2.204 4.466 3.487 4.108 6.01 9.015 5.712 15.58 3.965 12.037-3.205 24.493-4.81 36.7-7.43 4.784-1.028 9.318-3.166 14.05-4.497 12.66-3.562 25.383-6.89 38.04-10.46 4.79-1.353 9.478-3.066 14.386-.64 5.287 2.614 10.523 5.336 15.847 7.874 4.282 2.043 8.51 4.437 13.038 5.676 6.187 1.694 10.007 5.66 13.512 10.62 4.162 5.89 9.14 11.216 13.116 17.217 1.96 2.958 2.46 6.884 3.622 10.37-.42.31-.842.615-1.263.923-4.094-2.26-8.02-4.92-12.314-6.695-10.012-4.137-20.096-8.172-30.39-11.508-2.687-.87-6.267.907-9.412 1.58-10.277 2.198-20.57 4.33-30.803 6.72-6.567 1.533-13.047 3.443-19.55 5.24-5.714 1.578-11.403 3.24-17.107 4.85-2.134.604-4.886.42-4.34 4.017.426 2.8.58 4.788 4.758 4.284 2.983-.36 6.267 1.76 9.82 2.905 2.92-4.705 7.634-1.187 11.57-.862 14.592 1.204 29.145 2.928 43.684 4.69 6.15.747 12.226 2.102 18.343 3.128 3.972.666 7.964 1.207 11.938 1.86 4.84.798 9.662 1.46 14.652-1.178 0 1.514-.436 2.89.067 3.535 5.302 6.796 4.293 14.017 1.976 21.512-.33 1.068.713 2.716 1.415 3.924 4.417 7.612 7.9 15.358 7.55 24.573-.25 6.598-2.087 12.07-8.035 17.45 0-2.416-.144-3.814.028-5.173.42-3.305 2.097-6.896 1.293-9.83-2.694-9.85-6.046-19.542-9.675-29.094-.64-1.687-3.805-3.403-5.823-3.427-21.494-.243-42.996-.354-64.487.004-5.272.087-10.514 2.005-15.83 3.52 6.645-1.124 10.112 3.29 14.21 7.11 2.13 1.986 5.486 3.465 8.393 3.665 10.99.755 21.054 3.662 30.574 9.412 4.063 2.454 9.308 3.023 14.07 4.227 3.656.923 7.43 1.374 11.093 2.27 2.982.73 8.22 7.844 7.95 11.15-.355 4.376-1.924 8.735-1.733 13.047.195 4.384 1.434 8.88 3.042 13.005 2.416 6.2 5.688 12.064 8.325 18.188 1.222 2.837-.332 4.887-3.282 4.424-3.18-.497-6.923-1.162-9.153-3.164-4.47-4.014-7.982-9.074-12.093-13.516-1.263-1.364-3.063-2.674-4.825-3.064-16.036-3.547-32.125-6.857-48.185-10.3-4.688-1.007-9.33-2.217-14.19-3.38-.21 4.437.333 8.052-.675 11.165-2.504 7.728-4.998 15.608-8.806 22.73-6.25 11.69-13.21 23.043-20.51 34.118-4.596 6.975-10.353 13.184-15.59 19.735-2.245 2.81-4.626 5.523-6.716 8.445-8.06 11.27-18.863 19.732-29.748 27.844-7.03 5.238-11.364 11.573-13.36 19.662-3.043 12.33-7.84 24.18-7.94 37.33-.045 5.794-3.944 11.537-5.973 17.347-2.514 7.197-4.844 14.458-7.38 21.647-.732 2.078-1.9 4.003-3.287 6.856 3.336 5.792-.25 11.93-3.718 17.45-4.64 7.39-7.05 15.41-9.474 23.608-2.54 8.6-5.77 16.997-8.708 25.48-.053.15-.28.277-.273.407.497 9.035-6.688 10.692-12.827 13.07-18.67 7.23-38.196 11.288-57.844 14.563a459.594 459.594 0 0 1-40.7 4.938c-15.86 1.204-31.788 1.777-47.694 1.97-9.392.113-18.798-1.04-28.688-1.654 4.05-11.557 7.91-22.576 11.773-33.595-.23-.133-.463-.266-.695-.398l-3.36 5.354-.85-.33c.38-1.306.562-2.713 1.17-3.902 5.382-10.53 10.88-21 16.26-31.528 3.48-6.813 7.214-13.535 10.14-20.585 5.61-13.523 10.586-27.31 16.115-40.865 2.466-6.044 6.116-11.623 8.387-17.726 4.424-11.89 8.004-24.09 12.4-35.988 4.66-12.614 9.474-25.2 14.917-37.49 7.928-17.897 16.06-35.735 25-53.14 2.986-5.813 3.516-11.503 4.3-17.55 2.23-17.207 6.236-33.883 13.45-49.87 7.452-16.508 13.522-33.634 20.62-50.31 7.086-16.65 14.7-33.074 22.07-49.603.735-1.65 2.203-3.47 1.948-4.978-1.477-8.74 4.276-12.893 9.907-17.742 7.39-6.366 14.323-13.314 21.008-20.432 5.258-5.598 11.13-11.2 14.415-17.932 4.74-9.71 13.33-15.298 20.138-22.768 3.558-3.902 7.083-7.833 10.623-11.752.416.272.832.54 1.25.808zM556.804 172.793c-3.1 3.578-5.678 6.922-8.64 9.88-3.647 3.643-7.847 2.222-11.28-.155-7.04-4.874-14.534-8.352-23.04-9.534-2.25-.313-4.512-.552-7.915.08 3.06 3.998 5.98 8.11 9.215 11.96 3.393 4.04 6.677 8.332 10.738 11.61 7.406 5.978 15.038 11.815 23.192 16.678 4.79 2.856 10.723 3.89 16.228 5.438 8.973 2.522 18.097 4.535 26.985 7.313 3.112.973 5.825 3.426 8.53 5.454 6.83 5.12 13.197 10.955 20.416 15.427 7.28 4.51 9.338 11.61 11.075 18.783 1.334 5.51 1.05 11.41 1.482 17.14.46 6.072-2.314 10.67-5.584 15.67-3.428 5.24-8.04 6.44-12.994 6.31-15.422-.403-30.067 2.974-44.555 7.676-3.573 1.16-7.22 2.318-10.92 2.75-1.646.194-3.505-1.41-5.848-2.46 11.02-10.91 25.104-9.01 37.597-13.498-4.575-2.336-8.997-4.302-13.093-6.803-2.207-1.35-4.126-3.41-5.694-5.51-2.548-3.413-5.188-4.437-9.688-3.604-9.355 1.733-18.913 3.383-28.37 3.29-9.725-.096-19.785-.893-28.317-6.857-1.356-.947-2.79-1.832-3.98-2.964-3.99-3.8-7.89-7.697-12.22-11.946 2.862 0 5.74-.067 8.614.012 10.944.303 21.917.267 32.826 1.072 17.662 1.306 33.684-4.232 49.2-11.436 4.078-1.893 7.2-6.165 10.283-9.756 1.833-2.136.92-4.38-1.416-6.36-5.766-4.892-12.48-6.73-19.79-7.795a367.654 367.654 0 0 1-30.028-5.637c-9.815-2.276-17.128-9.306-23.087-16.51-9.123-11.027-16.478-23.517-24.576-35.39-.714-1.046-1.386-2.12-2.077-3.183l-1.16.438c.616 2.18.73 4.695 1.933 6.48 5.517 8.188 7.045 17.56 8.116 26.975.414 3.638-.35 7.608-1.498 11.126-.447 1.37-3.57 2.886-5.235 2.65-5.165-.73-10.362-1.85-15.28-3.577-9.444-3.318-18.75-7.047-28.01-10.854-2.366-.974-4.642-2.59-6.446-4.42-3.54-3.587-6.996-7.33-9.975-11.384-3.105-4.23-6.01-8.71-8.252-13.437-1.996-4.21 5.143-12.067 10.892-12.442 6.397-.418 12.805-.92 18.95 1.722.764.328 1.79.045 2.695.045.273-.53.548-1.062.82-1.593-6.32-4.408-12.357-9.318-19.026-13.118-13.754-7.84-27.8-15.17-41.822-22.528-5.642-2.96-11.398-5.798-17.343-8.062-11.078-4.218-22-2.234-32.48 2.306-2.826 1.225-3.674.783-4.777-1.773-1.73-4.007-4.17-7.726-5.688-11.797-1.083-2.903.23-5.103 3.778-5.44 6.862-.65 7.502-1.79 3.27-7.018-2.75-3.393-6.063-6.408-9.457-9.185-8.195-6.707-8.78-12.41-1.766-20.747 6.165 1.713 8.752 6.857 11.42 11.92 6.017 11.408 13.83 21.497 25.13 27.793 7.234 4.03 15.51 6.27 23.44 8.953 7.77 2.63 15.712 6.72 23.552 6.66 8.414-.068 13.44 4.104 18.316 8.8 11.513 11.08 24.344 20.134 38.22 27.91 8.61 4.822 17.85 4.334 27.113 3.82 1.51-.084 3.425-1.003 4.346-2.172 5.893-7.478 13.034-4.228 20.28-3.107 7.014 1.084 11.62 5.812 17.156 9.218 4.724 2.91 9.677 5.444 15.518 8.693zM407.172 541.293c-7.823-7.904-11.353-21.92-6.4-29.17 3.086-4.522 8.796-7.92 14.038-10.168 13.767-5.904 27.81-11.226 41.96-16.16 11.063-3.857 22.327-7.308 33.722-10.02 21.468-5.108 43.05-9.764 64.68-14.142 6.104-1.236 12.534-.938 18.82-1.193 17.9-.727 35.81-1.3 53.71-2.075 21.363-.925 42.794-1.23 64.054-3.272 14.146-1.358 27.64.696 41.31 3.022 1.627.276 3.314.215 4.975.27 10.786.348 21.632.095 32.342 1.183 11.77 1.196 23.425 3.56 35.108 5.536 8.1 1.37 16.332 2.356 24.2 4.588 9.322 2.643 18.436 6.148 27.417 9.823 8.005 3.275 14.184 8.694 16.572 17.527.837 3.1.58 5.584-2.74 7.032-2.314 1.008-4.567 2.155-7.882 3.732-18.834-10.546-43.687-13.547-67.48-19.8-9.946-2.613-20.645-2.333-30.99-3.482-8.68-.966-17.334-2.15-26.01-3.14-9.022-1.028-18.036-2.432-27.088-2.792-17.273-.687-34.606-1.566-51.85-.83-15.604.667-31.12 3.384-46.674 5.192-7.537.876-15.088 1.652-22.612 2.63-14.035 1.822-28.14 3.29-42.06 5.778-13.91 2.484-27.648 5.955-41.43 9.138-17.482 4.038-35.244 7.244-52.29 12.682-11.636 3.712-22.253 10.62-33.318 16.116-.884.438-1.653 1.16-2.57 1.474-5.118 1.75-10.662 2.895-11.514 10.52z"/><path fill="#FFF" d="M635.457 304.646c3.314-4.458 6.432-7.818 11.512-10.026 4.085-1.776 7.75-6.154 9.94-10.263 2.946-5.535 5.132-11.786 6.135-17.974 1.455-8.972-2.123-16.903-8.52-23.226-6.875-6.8-14.57-12.198-23.29-16.923-12.462-6.752-25.434-11.472-38.755-15.675-5.652-1.784-11.353-3.457-17.11-4.856-5.51-1.34-9.365-4.51-12.19-9.298-2.053-3.476-1.407-5.967 2.253-7.625 1.66-.75 3.398-1.327 5.06-2.076 8.24-3.72 9.062-11.1 2.243-17.135-4.605-4.077-9.763-5.752-15.804-6.174-4.642-.324-9.513-.45-13.314-4.29-4.56-4.603-11.104-3.354-16.718-4.86-4.25-1.143-8.612-1.877-13.033-3.81 2.65 0 5.363-.367 7.94.063 10.195 1.702 20.64 2.72 30.444 5.75 12.564 3.886 23.952 10.584 32.947 20.52 7.573 8.367 17.467 12.594 27.51 16.955 15.39 6.683 30.518 13.974 45.703 21.117 1.392.655 2.404 2.117 3.79 3.385.576-1.212 1.042-2.192 1.79-3.77-8.422-5.097-16.988-10.2-25.457-15.464-2.057-1.277-3.813-3.047-5.668-4.637-6.995-5.997-14.184-11.79-20.857-18.126-2.845-2.7-5.257-6.284-6.714-9.928-2.927-7.315-8.312-11.236-16.454-12.034-12.473-1.22-24.9-2.93-37.32-4.63-5.55-.76-11.016-2.094-16.55-2.973-1.583-.252-3.272.183-4.913.29-3.367.223-6.735.436-10.138-.104 8.795-2.726 17.413-7.54 26.797-1.586 1.578 1 3.737 1.59 5.606 1.54 7.64-.2 7.643-.323 9.07-12.723 2.465 1.04 5.29 1.456 6.93 3.072 4.792 4.717 11.207 5.187 16.97 7.327 14.918 5.537 22.01-4.506 28.985-14.705.562-.82 1.03-1.72 1.683-2.46.735-.836 1.626-1.534 3.327-3.102-.876 4.764-1.27 8.593-2.316 12.233-1.892 6.577-.8 8.872 5.945 10.037 4.526.783 5.183 4.623 5.746 7.7 1.004 5.474 1.318 11.143 1.272 16.725-.055 6.346 2.423 11.006 8.646 15.466-.38-5.355-1.7-9.93-.693-13.92.943-3.732 4.353-6.843 6.993-10.69 5.262 4.036 11.005 8.022 16.266 12.566 9.558 8.257 21.02 12.762 32.426 17.54 15.143 6.345 28.34 15.74 40.583 26.578 3.45 3.054 3.566 2.922 8.02.515 3.152 5.092 6.323 9.56 3.256 16.502-2.573 5.822-2.872 12.63-4.348 18.964-.562 2.41-1.6 4.712-3.047 6.8.242-4.292.466-8.583.732-12.872.66-10.638-4.014-19.46-9.653-27.88-7.177-10.708-18.29-14.826-30.114-17.983-6.66-1.78-13.226-4.155-19.544-6.923-8.422-3.688-16.585-7.975-24.806-12.108-1.87-.94-3.526-2.312-5.653-3.734.328 1.897.875 3.41.8 4.89-.52 10.27 8.447 15.14 15.563 16.057 9.33 1.202 17.454 4.303 22.015 13.642 1.92 3.93 5.31 7.116 7.682 10.863 2.874 4.54 5.52 9.237 8.013 14 4.668 8.92 2.604 21.44-5.085 28.696l1.354-11.813c-.387-.08-.773-.162-1.16-.243l-1.758 6.482-27.732 1.227c.693 3.04 1.664 6.195 2.098 9.42 1.198 8.932-5.063 14.493-10.014 20.373-2.44 2.9-6.38 4.49-9.354 7.013-1.62 1.375-2.636 3.463-4.046 5.397-3.544-.323-7.452-.68-11.917-1.09zM681.21 324.048l2.362 29.188c-9.122 1.937-18.498 3.563-27.646 6.033-4.144 1.118-7.806 3.975-11.758 5.894-.898.437-2.32.7-3.123.295-13.72-6.93-28.06-12.04-43.572-10.113-10.148 1.26-20.068 4.466-30.036 7.014-3.13.8-6.084 2.293-10.174 3.877-.83-5.57-1.74-11.05-2.443-16.557-.558-4.37-1.085-8.77-1.145-13.162-.02-1.33 1.304-3.528 2.46-3.89a995.74 995.74 0 0 1 32.63-9.55c5.835-1.605 11.767-2.89 17.696-4.11 11.745-2.42 23.454-1.952 35.237.167 7.747 1.393 15.647 1.93 23.475 2.883 5.5.67 10.995 1.39 16.038 2.03zM716.14 823.478v4.84c.312.094.625.187.937.278l1.278-5.432c7.536 4.46 12.97 10.636 15.03 19.117.68 2.79-.73 6.03-.83 9.077-.51 15.54-.67 31.095-1.415 46.623-.6 12.478-1.76 24.932-2.868 37.38-.58 6.512-3.786 10.39-8.875 11.52-7.474 1.657-15.11-4.148-15.244-11.903-.176-10.315-.042-20.636-.043-30.955 0-21.306-.007-42.612.003-63.92.002-3.822-.73-7.88.3-11.414 1.56-5.368 6.317-7.065 11.726-5.21zM598.94 1018.25c1.173-5.98.695-12.54 3.683-16.46 3.58-4.7 9.7-8.63 15.463-10.245 10.186-2.857 20.88-4.573 31.457-5.225 20.827-1.284 41.72-1.98 62.585-1.966 9.427.007 18.864 2.214 28.272 3.594 3.708.544 7.475 1.192 10.994 2.424 8.696 3.043 11.706 8.72 10.133 19.184-5.838-1.7-11.515-3.727-17.36-4.938-4.65-.963-9.503-1.25-14.27-1.283-19.64-.135-39.288-.388-58.917.084-9.685.23-19.37 1.693-28.99 3.063-8.754 1.246-17.53 2.683-26.083 4.874-5.655 1.45-10.93 4.38-16.966 6.892zM625.673 439.017c-3.238-13.413-.303-25.434 5.548-36.877 2.216-4.33 4.968-8.432 7.843-12.368 4.347-5.95 10.306-5.637 15.966-1.052.75.606 1.59 1.13 2.458 1.556 14.104 6.902 20.152 19.515 23.07 33.836 1.445 7.098-3.482 12.23-12.293 12.995-13.516 1.172-27.102 1.53-40.66 2.21-.632.03-1.28-.194-1.932-.3zM689.86 851.244c0 3.762-1.312 8.25.282 11.13 2.98 5.378 1.49 10.67 1.54 15.896.09 9.605-1.014 19.218-1.035 28.83-.02 8.558.84 17.116 1.15 25.68.224 6.224-3.544 10.387-8.58 12.708-4.673 2.152-10.148 2.874-14.325-1.523-3.132-3.298-5.867-6.877-5.644-12.043.306-7.103-.122-14.235.115-21.344.592-17.695 2.688-35.072 14.197-49.582 3.027-3.815 7.06-6.835 10.63-10.22l1.67.468zM577.59 444.402l-46.08 6.067c2.167-22.53 6.61-44.077 30.67-56.62 2.128 2.492 5.547 5.563 7.803 9.33 4.58 7.648 8.633 15.62 12.703 23.563 2.76 5.388 1.437 10.922-3.045 15.013-1.026.937-1.732 2.225-2.05 2.646zM481.582 403.845c4.597 3.31 9.688 5.607 12.798 9.492 6.716 8.392 12.104 17.782 10.796 29.24-.42 3.675-1.09 7.79-3.127 10.65-1.44 2.022-5.3 2.604-8.205 3.25-12.13 2.706-24.312 5.192-35.877 7.632-1.072-22.556 11.02-40.88 23.614-60.265zM726.278 387.19c21.343 14.532 32.264 33.1 31.884 52.177-2.73-.34-5.37-.795-8.03-.972-6.438-.428-12.88-.925-19.324-1.003-3.95-.048-7.194-.998-9.327-4.443-2.922-4.722-6.14-9.317-8.514-14.308-3.065-6.444.87-12.06 3.67-17.376 2.584-4.906 6.264-9.235 9.642-14.077zM755.363 977.972c-50.635-13.96-100.904-12.743-150.817 4.36.646-10.146 2.273-12.318 14.967-15.08 12.147-2.645 24.538-4.18 36.827-6.167 21.484-3.475 43.116-2.777 64.58-.743 10.312.978 20.416 4.854 30.42 8.03 4.91 1.558 5.235 3.456 4.023 9.6zM424.106 471.87c-4.174-7.167-8.986-14.05-12.33-21.582-3-6.755-4.592-14.174-6.39-21.403-.906-3.643 5.32-7.648 10.043-6.897 11.36 1.81 17.272 8.78 19.603 19.726 1.253 5.885 1.52 10.958-2.537 16.21-2.994 3.875-4.42 8.962-6.546 13.51-.615.144-1.23.29-1.844.435zM818.524 446.154c-3.123-.373-6.206-.685-9.27-1.12-6.555-.93-10.236-6.15-13.918-10.55-4.995-5.97-9.845-12.354-8.576-21.294.774-5.46 4.782-12.285 9.9-14.166.86-.316 2.522-.196 2.978.382 10.506 13.313 19.683 27.233 19.29 45.204-.01.47-.24.937-.404 1.544zM641.078 1091.52c-4.057-10.47-8.406-20.836-12.05-31.445-1.938-5.647-2.832-11.684-3.865-17.603-.982-5.624 1.217-8.8 6.044-9.525 5.47-.823 9.974 2.267 11.117 7.172 1.652 7.09 3.43 14.16 5.488 21.142 2.534 8.59 2.877 17.05-.742 25.366-.795 1.828-2.38 3.313-3.602 4.955a940.45 940.45 0 0 0-2.39-.064zM658.413 1041.955c0-9.914 2.36-11.67 9.65-9.155 7.042 2.43 9.618 8.183 11.4 14.922 3.083 11.664-.51 22.646-2.665 33.793-.296 1.53-1.526 2.92-2.46 4.28-1.54 2.24-3.215 2.19-4.668-.075-3.903-6.086-6.742-12.52-7.622-19.853-1.048-8.74-2.628-17.418-3.635-23.912zM660.72 1125.365c19.608 2.792 38.858 1.3 58.548-3.442-2.523 3.06-4.742 6.45-7.64 9.1-4.784 4.378-9.89 8.434-15.085 12.322-3.41 2.55-7.167 4.66-10.893 6.747-.745.417-2.442.232-3.038-.35-7.59-7.43-15.057-14.984-22.556-22.506.22-.624.442-1.247.663-1.87zM663.464 376.978c16.985-8.255 33.976-5.74 51.748-.796-8.45 8.42-18.338 14.872-22.143 27.634-8.073-11.065-17.158-20.68-29.606-26.838zM600.566 409.512c-.17-8.232-4.89-13.558-11.48-17.967-3.462-2.316-6.295-5.576-9.447-8.442 10.086-9.264 33.798-8.925 45.003-4.284-3.988 5.004-8.02 10.003-11.983 15.055-4.015 5.118-7.963 10.29-12.094 15.637zM787.998 381.108c-10.504 4.614-16.12 13.22-20.78 23.284l-23.747-28.567c15.9-4.23 30.202-.378 44.528 5.283zM518.574 418.935c-4.134-10.135-9.73-18.893-17.94-25.83 10.974-10.177 23.773-13.422 38.6-9.532-4.22 5.394-9.084 10.458-12.536 16.35-3.423 5.838-5.42 12.51-8.124 19.012zM693.598 1066.09c1.065-9.59 2.003-19.196 3.277-28.758.352-2.64 1.77-4.455 5.34-4.227 3.453.22 4.703 1.318 5.455 4.67 2.586 11.527 1.547 22.878-1.164 34.14-.79 3.283-2.53 6.378-4.096 9.426-1.416 2.76-3.384 2.906-5.456.504-2.405-2.786-2.755-4.705-3.356-15.754zM745.974 554.236h-9.044c.04-.436.083-.872.125-1.308l6.263.927c-2.498-1.94-4.48-3.152-6.038-4.77-2.516-2.613-5.218-5.234-6.96-8.346-1.382-2.472.177-5.187 3.06-5.665 7.93-1.32 15.908-2.447 23.908-3.232 3.975-.39 10.913 9.054 9.593 12.77-.338.954-1.78 1.784-2.89 2.15-5.286 1.74-10.658 3.227-15.93 5.007-.866.293-1.387 1.603-2.086 2.466zM642.564 1097.977c1.72-.092 3.166-.234 4.613-.236 14.22-.016 28.447.323 42.65-.132 8.69-.278 17.33-1.912 26.017-2.64 3.54-.296 7.18-.032 10.7.487.91.134 1.735 2.13 2.153 3.418.11.34-1.36 1.59-2.246 1.787-3.524.78-7.083 1.623-10.67 1.88-11.557.823-23.124 1.608-34.7 1.98-5.768.185-11.564-.772-17.35-.823-4.114-.036-8.23.753-12.354.855-4.314.108-7.472-1.74-8.812-6.575zM736.67 1051.15c.44 9.928-2.816 18.8-7.273 27.278-.863 1.64-3.096 2.562-4.697 3.814-.663-1.513-1.53-2.97-1.957-4.547-2.88-10.654.76-20.943 1.865-31.377.19-1.796-.105-3.798.603-5.348 1.057-2.31 2.36-5.05 4.37-6.248 2.64-1.574 5.625-1.82 5.54 3.293-.07 4.37.99 8.757 1.55 13.136zM643.763 920.297c.642 4.56 1.644 10.46 2.262 16.398.72 6.928-4.19 12.426-11.155 13.47-5.914.887-11.79 2.64-16.25-3.41-.368-.5-2.002-.066-3.787-.066 10.267-9.368 20.096-18.335 28.93-26.393zM552.553 611.674c-6.716 5.184-11.353 2.155-15.48-2.536-3.977-4.522-4.372-9.716-2.168-15.186 3.824-9.492 8.53-11.97 19.48-12.838-4.826 10.247-11.034 20.32-1.832 30.56zM580.676 576.39c.93 4.582 1.993 8.7 2.51 12.884.238 1.927.036 4.476-1.063 5.89-3.004 3.868-6.59 7.282-10.334 11.29-3.064-5.367-5.834-9.907-8.21-14.645-.513-1.02.13-2.874.706-4.132 1.147-2.51 2.41-5.022 4.026-7.24 1.057-1.452 2.665-3.018 4.3-3.416 2.8-.685 5.815-.496 8.064-.632zM449.96 427.147l-14.237-16.393c6.24-5.765 14.84-9.383 24.314-10.39l-10.076 26.783zM691.524 594.025c-2.907 2.33-5.554 5.14-8.776 6.89-6.83 3.706-14.042 6.707-20.92 10.332-2.045 1.078-3.79 3.065-5.177 4.993-4.787 6.667-9.356 13.49-14.11 20.4-4.084-2.872-3.697-4.896-1.443-7.855 2.54-3.338 4.218-7.33 6.307-11.02.397-.7.85-1.457 1.473-1.93 2.8-2.12 5.503-4.447 8.55-6.15 9.663-5.4 19.454-10.58 29.23-15.78 1.218-.647 2.643-.907 3.972-1.348.297.49.596.98.894 1.468zM727.65 597.247c2.175-4.277 3.978-8.487 6.43-12.278.85-1.315 3.668-2.6 4.96-2.14 3.094 1.102 5.935 3.087 8.61 5.075.78.58 1.333 2.857.847 3.526-2.826 3.895-5.97 7.562-9.1 11.225-.224.263-1.28.045-1.813-.224-3.184-1.603-6.327-3.288-9.935-5.183zM650.332 655.673c-8.257 1.63-15.085 2.98-21.904 4.325-1.61-6.258 2.194-11.34 8.834-12.997 1.52-2.966 2.74-5.354 3.964-7.742l1.56-.426 7.546 16.84zM677.82 644.578v4.274l-8.6.63c3.242-5.572 2.114-13.393 10.063-15.266 8.234-1.94 10.03 5.725 14.233 9.893-8.317 4.52-12.243 4.818-15.696.468zM835.227 391.04c-3.602 3.66-7.03 7.146-10.987 11.166l-10.07-12.783c6.77-4.917 15.13-3.826 21.057 1.617zM782.57 545.672c-3.416 3.728-6.66 7.63-10.296 11.13-3.33 3.206-6.98 6.112-10.71 8.854-1.097.808-2.938.603-4.44.86.407-1.375.386-3.224 1.293-4.045 4.172-3.773 8.644-7.212 12.92-10.875 1.636-1.4 3.393-2.982 1.107-5.335-.313-.322-.554-.962-.468-1.38.56-2.723 1.217-5.423 1.843-8.13.947 2.166 1.898 4.332 2.842 6.5.192.444.355.9.527 1.338a4867.5 4867.5 0 0 0 4.484-.548c.3.544.597 1.088.895 1.632zM706.917 641.298c1.033-3.388 1.947-7.107 6.84-7.21 4.32-.093 8.693-.25 11.335 4.153 2.41 4.018 2.12 7.904-.13 10.954l-18.045-7.896zM718.214 583.568c-6.034 4.478-7.393 13.4-16.667 13.642l4.945 2.12-.152 1.328-13.964 1.535-.778-1.826c9.126-4.89 12.25-18.293 26.616-16.8zM612.762 572.45c-6.667 4.34-12.17 7.927-18.24 11.878v-10.235c5.774-.52 11.443-1.03 18.24-1.644zM699.38 706.387c10.26-8.19 17.8-2.367 25.417 2.938-8.173-.946-16.347-1.89-25.416-2.938zM734.25 577.01c7.575-3.516 14.085-6.536 21.6-10.022-2.88 6.174-15.395 12.11-21.6 10.02zM741.714 839.37c-2.36-4.453-4.65-8.772-6.938-13.092l-3.276 3.207c7.15-1.457 11.578 2.684 10.214 9.886zM737.72 608.978l-12.61-6.9c3.978-1.002 6.85.424 12.61 6.9z"/></g></svg>