<svg xmlns="http://www.w3.org/2000/svg" width="1200" height="1200" viewBox="0 0 1200 1200"><g fill-rule="evenodd" clip-rule="evenodd"><path d="M1 1h1200v1200H1V1zm600.558 1169.543c163.99 0 327.978-.055 491.967.06 24.99.017 44.716-10.173 60.02-29.37 16.122-20.223 22.462-43.72 22.457-69.285-.037-172.988-.02-345.977-.02-518.965 0-139.157-.024-278.314.027-417.472.006-19.306-3.587-37.77-13.026-54.678-14.876-26.646-36.463-43.647-68.243-43.657-328.644-.1-657.287-.065-985.93-.054-22.71.002-41.316 9.16-56.042 26.117-18.092 20.833-25.12 45.555-25.114 72.795.056 311.98.04 623.957.022 935.936 0 12.55 1.446 24.84 5.23 36.87 12.786 40.654 41.257 61.705 83.686 61.705h484.966z"/><path fill="#FFF" d="M601.558 1170.543H116.592c-42.428 0-70.9-21.05-83.687-61.705-3.783-12.03-5.23-24.32-5.23-36.87.018-311.98.035-623.957-.02-935.936-.006-27.24 7.02-51.962 25.113-72.795C67.494 46.28 86.1 37.122 108.808 37.12c328.645-.01 657.29-.046 985.933.055 31.78.01 53.368 17.012 68.244 43.657 9.44 16.908 13.032 35.372 13.025 54.68-.053 139.156-.028 278.313-.027 417.47 0 172.99-.02 345.978.02 518.966.004 25.564-6.336 49.063-22.458 69.286-15.304 19.196-35.03 29.386-60.02 29.368-163.99-.114-327.978-.06-491.967-.06zm518.526-456.32l-1.362 1.508c-4.246-2.452-8.735-4.567-12.694-7.42-13.225-9.528-26.486-19.033-39.31-29.09-14.534-11.4-23.834-25.49-20.65-45.233 1.235-7.654 3.442-13.706 11.997-16.458 9.675-3.113 13.182-8.183 12.605-15.694-.587-7.64-4.068-13.898-9.91-18.937-8.62-7.44-19.327-12.67-24.928-23.405-.256-.49-3.35-.373-4.11.426-3.9 4.092-7.366 8.597-11.194 12.764-2.648 2.884-5.23 2.603-7.115-1.027-10.96-21.115-22.003-42.19-32.736-63.422-1.09-2.153-1.158-5.595-.252-7.86 6.123-15.292 12.926-30.314 18.956-45.643 9.748-24.78 18.917-49.785 28.634-74.576 5.04-12.86 7.888-26.13 8.88-39.813 1.996-27.53.415-54.92-3.7-82.187-2.68-17.744-7.197-34.933-16.634-50.37-18.884-30.892-42.283-58.005-68.87-82.562-23.57-21.77-51.882-33.088-82.68-39.098-13.034-2.543-26.27-4.404-39.503-5.442-8.484-.666-17.152.5-25.7 1.27-10.925.988-21.842 2.18-32.706 3.687-24.937 3.46-49.352 9.36-73.042 17.796-22.825 8.128-45.547 16.636-67.896 25.977-13.428 5.612-26.268 12.76-38.997 19.885-25.414 14.23-49.877 30.05-72.582 48.285-21.392 17.18-42.9 34.41-62.662 53.382-28.085 26.964-55.39 54.84-81.596 83.633-24.524 26.944-47.712 55.165-70.5 83.614-19.657 24.54-38.727 49.64-56.6 75.498a1981.8 1981.8 0 0 0-61.237 94.152c-27.15 44.475-51.442 90.59-74.342 137.396-15.5 31.684-30.548 63.594-45.392 95.592-10.095 21.763-18.26 44.286-24.285 67.553-4.682 18.083-8.617 36.238-6.687 55.118.22 2.147-.09 4.42.5 6.446 3.708 12.755 7.246 25.577 11.515 38.147 6.145 18.095 14.228 35.14 28.653 48.454 9.318 8.6 20.392 14.595 32.43 16.752 19.927 3.57 40.1 2.44 59.89-2.545 4.36-1.098 8.74-2.126 13.082-3.292 11.23-3.014 22.426-6.146 33.667-9.11 6.097-1.607 12.242-3.048 18.4-4.41 3.95-.872 6.154.786 7.167 4.846 2.216 8.878 4.598 17.726 7.245 26.486 5.894 19.51 14.18 37.727 29.698 51.697 1.614 1.453 4.107 2.817 6.153 2.762 13.258-.357 26.615 1.866 39.628-3.643 9.57-4.05 20.134-5.7 29.84-9.486 17.778-6.933 35.382-14.353 52.813-22.123 20.016-8.92 39.704-18.57 59.658-27.63 6.523-2.962 12.722-7.095 20.716-5.688 8.65 1.523 17.44 2.278 26.184 3.242 15.543 1.715 31.068 4.356 46.65 4.774 28.952.777 57.984 1.232 86.896-.088 21.696-.99 43.357-4.335 64.85-7.786 25.24-4.053 50.38-8.89 75.374-14.267 18.98-4.083 37.784-9.128 56.447-14.504 18.527-5.338 36.985-11.063 55.097-17.653 18.383-6.688 36.593-14.02 54.355-22.203 21.53-9.92 42.954-20.243 63.59-31.874 16.603-9.358 32.12-20.694 47.837-31.56 21.83-15.095 41.68-32.582 59.947-51.807 17.665-18.59 32.837-38.933 42.157-63.117 2.495-6.476 5.55-12.91 6.81-19.65 2.782-14.91-1.455-28.63-9.45-41.232-14.4-22.695-32.97-41.245-55.767-55.52-1.71-1.07-3.605-1.843-5.414-2.754l-.798 1.038c7.66 9.333 15.323 18.666 22.986 28z"/><path d="M1120.084 714.223l-22.988-28 .798-1.037c1.81.91 3.705 1.683 5.414 2.753 22.796 14.275 41.367 32.825 55.766 55.52 7.996 12.604 12.233 26.322 9.45 41.232-1.258 6.74-4.313 13.176-6.81 19.65-9.32 24.186-24.49 44.53-42.155 63.117-18.27 19.224-38.118 36.71-59.948 51.805-15.717 10.866-31.234 22.202-47.838 31.56-20.635 11.632-42.06 21.955-63.59 31.875-17.762 8.185-35.972 15.515-54.354 22.203-18.11 6.59-36.57 12.315-55.097 17.653-18.663 5.376-37.467 10.42-56.447 14.503-24.994 5.376-50.135 10.213-75.375 14.266-21.49 3.45-43.15 6.795-64.848 7.786-28.91 1.32-57.943.865-86.895.09-15.583-.42-31.108-3.06-46.65-4.775-8.744-.964-17.534-1.72-26.185-3.242-7.994-1.407-14.192 2.726-20.716 5.687-19.954 9.06-39.643 18.71-59.657 27.63-17.432 7.772-35.035 15.19-52.814 22.124-9.706 3.785-20.27 5.436-29.84 9.486-13.013 5.51-26.37 3.285-39.627 3.643-2.047.056-4.54-1.31-6.154-2.762-15.517-13.97-23.804-32.188-29.7-51.697-2.646-8.76-5.028-17.608-7.244-26.487-1.013-4.06-3.218-5.72-7.168-4.846-6.158 1.36-12.302 2.802-18.4 4.41-11.24 2.963-22.437 6.096-33.666 9.11-4.342 1.165-8.72 2.193-13.08 3.29-19.792 4.986-39.965 6.116-59.893 2.545-12.037-2.158-23.11-8.152-32.43-16.753-14.424-13.313-22.507-30.36-28.652-48.454-4.27-12.57-7.807-25.393-11.515-38.147-.59-2.025-.28-4.3-.5-6.445-1.93-18.88 2.006-37.034 6.688-55.117 6.024-23.267 14.19-45.79 24.285-67.553 14.844-31.998 29.89-63.908 45.393-95.592 22.9-46.806 47.19-92.92 74.342-137.396a1981.8 1981.8 0 0 1 61.236-94.152c17.875-25.857 36.944-50.957 56.602-75.498 22.788-28.45 45.976-56.67 70.5-83.614 26.205-28.792 53.51-56.67 81.597-83.633 19.762-18.972 41.27-36.2 62.66-53.382 22.706-18.235 47.17-34.057 72.583-48.285 12.73-7.126 25.57-14.272 38.997-19.885 22.35-9.34 45.07-17.85 67.896-25.977C717.746 95 742.162 89.1 767.1 85.64c10.864-1.507 21.78-2.697 32.706-3.685 8.548-.772 17.216-1.938 25.7-1.27 13.233 1.037 26.47 2.898 39.502 5.44 30.8 6.01 59.11 17.33 82.68 39.1 26.588 24.556 49.987 51.67 68.87 82.56 9.438 15.438 13.955 32.627 16.634 50.37 4.116 27.27 5.697 54.657 3.7 82.188-.99 13.683-3.84 26.953-8.88 39.813-9.716 24.79-18.885 49.797-28.632 74.576-6.03 15.328-12.833 30.35-18.956 45.644-.906 2.265-.837 5.706.252 7.86 10.733 21.23 21.775 42.306 32.736 63.42 1.885 3.63 4.467 3.912 7.115 1.028 3.828-4.167 7.293-8.672 11.194-12.763.762-.798 3.855-.914 4.11-.425 5.602 10.735 16.308 15.967 24.93 23.404 5.84 5.037 9.322 11.296 9.91 18.936.575 7.512-2.932 12.58-12.606 15.693-8.555 2.75-10.762 8.803-11.996 16.457-3.185 19.744 6.115 33.832 20.65 45.232 12.822 10.057 26.084 19.562 39.31 29.09 3.958 2.853 8.447 4.968 12.693 7.42.456-.502.91-1.004 1.364-1.507zm-344.15-193.52c29.75-1.17 50.724-2.1 71.707-2.73 4.436-.135 6.743-1.96 8.94-5.696 10.87-18.498 22.025-36.83 33.204-55.146 3.365-5.513 8.048-10.395 10.523-16.244 5.896-13.932 5.72-28.78 2.795-43.253-4.935-24.43-16.333-45.07-37.028-60.207-12-8.777-22.936-19.068-27.994-33.716-7.604-22.016-15.253-44.032-22.024-66.31-3.843-12.642-8.514-25.308-7.64-38.987.083-1.284-.952-2.862-1.882-3.95-4.86-5.686-9.47-11.66-14.875-16.79-13.27-12.586-26.77-24.944-40.533-36.983-3.623-3.17-8.326-5.856-12.953-6.894-3.89-.873-5.62-1.684-5.433-5.71.245-5.258-2.91-8-7.647-8.95-7.557-1.517-14.25.267-19.53 6.117-5.48 6.074-12.26 10.107-20.327 10.61-12.12.754-21.524 6.09-29.51 14.8-4.903 5.347-10.938 7.838-18.386 6.8-6.322-.883-11.91 1.783-14.325 7.622-3.16 7.646-6.763 15.482-7.846 23.55-3.874 28.87-6.928 57.854-9.91 86.835-.743 7.235-.287 14.63.077 21.93.19 3.818 2.152 7.13 6.178 8.287 4.18 1.2 8.044.136 10.976-3.052 2.35-2.553 4.435-5.39 6.357-8.285 4.232-6.374 7.326-13.858 12.676-19.04 5.777-5.6 7.137-11.53 6.81-18.744-.205-4.49-.368-9-.216-13.487.1-2.96.486-5.987 1.296-8.827 1.13-3.962 6.376-6.884 11.242-6.58 4.626.29 6.987 2.906 8.09 7.4 3.71 15.138.604 28.213-10.53 39.456-7.025 7.093-13.61 14.636-20.19 22.155-4.354 4.978-6.14 10.418-2.65 16.948 4.47 8.36 7.883 17.32 12.748 25.424 12.17 20.273 17.753 41.974 17.716 65.632-.032 19.626 1.105 39.29 2.595 58.87.958 12.593 4.807 24.645 13.62 34.236 11.895 12.943 25.348 23.102 44.205 22.944 19.478-.163 38.962-.037 49.674-.037zm267.222 64.31l-.748-1.472c-.77-.115-1.616-.5-2.298-.307-8.954 2.545-17.913 5.08-26.79 7.877-1.314.415-2.12 2.276-3.32 3.274-2.014 1.674-3.938 3.774-6.29 4.652-4.808 1.794-10.176 2.247-14.78 4.397-16.13 7.534-32.226 15.195-47.982 23.478-22.546 11.854-44.906 24.073-67.125 36.53-53.02 29.73-105.75 59.982-158.915 89.452-36.98 20.5-74.38 40.26-111.847 59.865-8.136 4.26-17.2 8.5-26.103 9.157-16.52 1.22-30.104 7.73-42.677 17.494-4.027 3.13-7.39 7.082-6.952 12.618.365 4.647-1.555 6.83-5.77 8.487-26.034 10.225-52.05 20.498-77.916 31.138-26.174 10.768-52.197 21.9-78.218 33.036-7.637 3.268-15.254 6.703-22.475 10.78-5.45 3.076-5.61 5.966-1.993 11.09 4.9 6.937 10 13.713 11.996 22.276.354 1.513 2.563 3.61 3.924 3.616 1.77.008 4.505-1.407 5.132-2.914 1.57-3.772 2.543-7.895 3.084-11.966.523-3.937.034-7.996.3-11.98.417-6.293 3.066-8.755 9.305-9.655 4.44-.64 9.055-1.063 13.198-2.626 28.484-10.752 57.092-21.235 85.2-32.91 19.022-7.898 37.33-17.526 55.877-26.55 4.058-1.975 7.595-4.626 8.472-9.788.28-1.657 2.166-3.415 3.765-4.403 4.38-2.706 8.864-5.334 13.57-7.394 3.12-1.366 7.526-4.47 9.9-.563 2.342 3.855-1.854 7.11-4.778 9.27-7.36 5.44-14.83 10.807-22.69 15.47-33.37 19.8-67.02 39.132-100.316 59.056-14.842 8.88-29.124 18.703-43.556 28.256-1.675 1.108-2.91 3.097-3.948 4.907a159.584 159.584 0 0 0-6.044 11.642c-.844 1.804-1.146 3.862-1.694 5.806 1.847-.186 3.987.173 5.49-.644 9.063-4.925 18.074-9.958 26.924-15.254 19.857-11.884 39.356-24.39 59.506-35.748 10.836-6.108 20.825-12.98 29.993-21.326 4.63-4.214 9.728-8.2 15.243-11.09 8.08-4.233 10.806-2.23 11.095 6.798.18 5.607 3.087 7.433 7.725 4.097 5.095-3.665 10.18-7.687 14.18-12.468 11.316-13.53 22.14-27.476 32.984-41.393 1.666-2.138 2.25-5.084 3.618-7.493 2.013-3.54 3.642-7.67 6.58-10.234 5.622-4.9 11.744-9.408 18.2-13.144 27.67-16.01 55.376-31.968 83.367-47.404 42.72-23.56 85.775-46.514 128.525-70.02 40.125-22.064 80.18-44.267 120-66.87 30.407-17.26 60.42-35.212 90.55-52.956 2.727-1.606 5.023-3.947 7.52-5.947zM652.73 970.965c.485.26.97.52 1.455.782-.327 1.807-.19 3.89-1.07 5.367-2.457 4.123-5.122 8.165-8.098 11.93-4.91 6.208-5.062 7.274.605 12.862 3.12 3.077 4 5.785.46 9.3-2.767 2.747-1.924 4.518 2.04 5.11 1.31.196 2.657.17 3.99.202 30.615.728 60.85-3.16 90.913-8.226 9.417-1.586 18.476-5.39 27.618-8.424 1.537-.51 2.66-2.27 3.975-3.452-1.256-.832-2.41-1.954-3.79-2.437-2.93-1.028-3.924-2.99-2.07-5.29 2.466-3.056 5.397-5.793 8.41-8.333 1.858-1.565 4.24-2.508 6.388-3.73-1.597-2.294-3.163-4.61-4.807-6.87-.583-.803-1.294-1.537-2.046-2.185-4.013-3.454-8.236-4.815-13.192-1.69-2.52 1.588-5.206 3.114-8.03 3.946-1.878.554-4.132-.172-6.218-.325.87-2.287 1.638-4.624 2.682-6.83.285-.602 1.418-.78 2.132-1.205 3.553-2.11 3.812-5.604.266-7.767-1.745-1.063-4.11-1.753-6.125-1.61-4.787.338-9.537 1.233-14.29 1.98-4.388.687-6.057-.667-5.344-4.467 1.063-5.674.215-7.07-5.293-8.22-2.276-.478-4.61-.907-6.924-.943-7.543-.12-12.836-3.768-15.405-10.598-2.14-5.694-3.354-11.74-4.89-17.655-.423-1.63-.525-3.346-.8-5.19-3.444.555-5.9 4.606-8.96.465-4.353-5.893-1.53-14.634 5.202-17.29 5.183-2.043 10.02-5.073 14.766-8.053 1.427-.897 2.034-3.097 3.018-4.698-1.813-.614-3.635-1.77-5.44-1.746-6.488.078-13.107-.16-19.424 1.047-9.645 1.84-19.357 4.323-25.346 13.34-2.096 3.154-5.08 6.972-1.7 10.333 3.67 3.65 6.952-.485 10.05-2.365 2.244-1.36 4.27-3.082 6.395-4.643l.922 1.31c-3.413 8.7-10.88 12.878-19.228 15.398-3.215.97-7.444.63-10.583-.65-5.697-2.325-5.646-2.82-6.184 3.553-.79 9.353-3.915 17.474-11.32 23.647-1.118.932-1.8 2.383-2.685 3.593l.88 1.342c1.724-.533 3.73-.67 5.12-1.668 6.076-4.358 12.002-8.928 17.922-13.5 3.026-2.337 5.776-5.068 8.958-7.152 1.203-.788 4.705-.474 4.732-.29.513 3.354 1.126 6.834.652 10.134-.195 1.355-2.858 2.417-4.48 3.49-1.618 1.074-3.563 1.747-4.976 3.026-8.254 7.484-13.252 17.078-16.618 27.468-1.02 3.15-.976 7.033-.155 10.26.536 2.112 3.1 4.624 5.204 5.144 1.782.438 4.394-1.463 6.29-2.816 1.726-1.23 2.982-3.115 4.443-4.71zm356.058-334.648c.23.587.463 1.173.694 1.76 3.177-1.227 6.52-2.145 9.487-3.76 3.643-1.982 7.37-4.124 10.35-6.948 6.727-6.38 13.11-13.13 19.374-19.966.938-1.025 1.197-3.89.437-4.897-.704-.937-3.453-1.164-4.848-.594-4.29 1.757-8.517 3.79-12.496 6.168-25.01 14.952-49.692 30.468-74.96 44.964-44.338 25.437-88.962 50.372-133.572 75.33-32.84 18.37-65.764 36.6-98.807 54.608-37.133 20.236-74.462 40.11-111.64 60.27-3.622 1.964-6.925 4.627-10.06 7.333-1.16 1.002-1.404 3.063-2.067 4.64 1.803.407 3.6 1.08 5.41 1.126 1.236.03 2.53-.736 3.735-1.287 4.842-2.215 9.736-4.332 14.473-6.756 45.2-23.133 90.494-46.083 135.496-69.594 22.87-11.948 45.3-24.758 67.747-37.495 33.885-19.227 67.77-38.462 101.35-58.207 22.82-13.417 45.072-27.797 67.703-41.54 3.733-2.265 8.114-3.462 12.195-5.153zM322.134 990.353l-1.477.11c-.2 1.18-.648 2.377-.564 3.535.68 9.39 15.987 24.675 25.473 25.535 4.23.383 8.64-2.647 9.913-6.812 1.478-4.835.3-7.16-4.882-9.975-1-.542-1.905-1.355-2.67-2.21-2.44-2.717-4.773-5.532-7.188-8.275-3.913-4.446-5.7-4.258-8.403.843-.312.588-.593 1.19-.874 1.794-1.543 3.31-3.348 3.337-5.454.48-1.256-1.7-2.582-3.352-3.876-5.024zm26.32-21.388c-2.62-2.76-4.586-4.828-6.55-6.896-1.126 1.136-3.41 2.878-3.186 3.312 1.41 2.71 3.383 5.126 5.17 7.64l4.567-4.057zm356.783 70.2c-1.583 1.102-2.803 1.95-4.022 2.8 1.822.963 3.574 2.447 5.49 2.7 1.234.163 2.708-1.48 4.074-2.315-1.73-.995-3.46-1.99-5.543-3.186zm39.03-1.358l.17-3.05c-2.852-.25-5.702-.59-8.56-.665-.525-.015-1.6 1.156-1.507 1.576.177.79.974 1.992 1.592 2.042 2.753.222 5.534.097 8.305.097z"/><path fill="#FFF" d="M775.934 520.703c-10.712 0-30.195-.126-49.677.036-18.857.156-32.31-10.002-44.205-22.945-8.813-9.592-12.662-21.644-13.62-34.235-1.49-19.58-2.627-39.245-2.596-58.872.037-23.658-5.545-45.358-17.716-65.632-4.865-8.104-8.28-17.063-12.747-25.424-3.49-6.53-1.705-11.97 2.65-16.948 6.578-7.52 13.164-15.063 20.19-22.156 11.134-11.243 14.238-24.318 10.528-39.455-1.1-4.495-3.462-7.112-8.088-7.4-4.866-.305-10.112 2.617-11.242 6.58-.81 2.84-1.196 5.865-1.296 8.825-.152 4.488.01 8.996.215 13.487.327 7.215-1.032 13.146-6.81 18.743-5.35 5.183-8.443 12.667-12.676 19.04-1.923 2.897-4.008 5.733-6.356 8.286-2.932 3.188-6.796 4.253-10.976 3.052-4.025-1.157-5.987-4.47-6.178-8.286-.364-7.3-.82-14.695-.076-21.93 2.98-28.98 6.035-57.967 9.908-86.836 1.083-8.067 4.685-15.903 7.846-23.55 2.415-5.84 8.003-8.505 14.325-7.623 7.447 1.04 13.482-1.45 18.386-6.798 7.985-8.71 17.39-14.046 29.51-14.8 8.066-.503 14.847-4.536 20.327-10.61 5.28-5.85 11.974-7.634 19.53-6.117 4.736.95 7.893 3.692 7.648 8.95-.188 4.026 1.542 4.837 5.433 5.71 4.628 1.037 9.33 3.725 12.954 6.894 13.765 12.038 27.264 24.396 40.532 36.983 5.405 5.128 10.016 11.104 14.875 16.79.93 1.087 1.966 2.665 1.884 3.95-.875 13.68 3.796 26.345 7.64 38.986 6.77 22.276 14.42 44.293 22.023 66.31 5.06 14.646 15.995 24.937 27.994 33.715 20.696 15.138 32.095 35.778 37.03 60.207 2.923 14.474 3.1 29.32-2.796 43.253-2.476 5.85-7.158 10.73-10.523 16.245-11.178 18.315-22.333 36.648-33.204 55.146-2.195 3.735-4.503 5.562-8.938 5.695-20.98.633-41.954 1.564-71.704 2.733zm-122.26-227.89c-5.59 4.336-7.895 10.89-4.888 15.806 2.982 4.877 6.884 9.332 10.988 13.353 5.897 5.777 9.23 5.527 14.51-.746 6.004-7.135 11.66-14.563 17.458-21.872 17.745-22.38 40.045-36.8 69.017-39.694 11.27-1.125 22.523-2.425 33.77-3.775 1.324-.16 2.548-1.15 3.818-1.754-.588-1.115-.986-2.397-1.795-3.32-5.707-6.516-11.45-13-17.292-19.394-1.557-1.705-3.488-3.068-6.403-5.585 0 3.653-.156 5.563.026 7.438.94 9.64-2.68 14.688-12.24 16.78-10.504 2.303-20.558.37-30.264-3.666-4.68-1.945-6.946-5.567-5.66-10.843.236-.972.604-1.975.54-2.938-.083-1.226-.546-2.426-.845-3.637-1.328.423-3.478.49-3.84 1.33-1.465 3.403-2.696 6.984-3.384 10.62-.415 2.198.608 4.637.44 6.928-.094 1.263-1.095 3.145-2.095 3.462-.995.315-2.996-.637-3.68-1.635-1.386-2.024-1.878-4.676-3.32-6.642-1.03-1.402-2.996-2.856-4.57-2.886-1.237-.023-3.125 1.865-3.666 3.303-1.996 5.298-1.156 10.607 1.718 15.33 3.193 5.248 7.6 5.8 12.724 2.324 3.702-2.512 7.417-5.063 11.383-7.095 1.407-.72 3.572.037 5.392.12-1.004 1.53-1.706 3.434-3.06 4.532-10.59 8.59-21.464 16.833-31.89 25.613-3.695 3.112-6.664 3.29-10.11.427-3.072-2.55-5.908-5.396-9.055-7.844-5.193-4.04-8.517-4.046-11.858-.388-3.31 3.622-3.05 6.96 1.36 11.85 2.896 3.21 6.466 5.848 9.1 9.234 1.422 1.827 2.544 4.96 2.002 7.035-1.4 5.362-9.107 10.254-13.87 9.672-4.814-.59-8.63-5.898-9.16-12.81-.128-1.66-.027-3.343-.224-4.99-.13-1.068-.606-2.097-1.078-3.644zm78.384 224.396c25.138-1.982 50.198-4.597 73.857-14.042 7.983-3.187 15.523-7.542 23.086-11.69 2.808-1.54 4.62-4.656 2.503-7.64-3.436-4.85-7.444-9.31-11.468-13.7-.73-.794-2.688-.46-4.08-.65-.05 1.53-.572 3.247-.05 4.547 1.106 2.762 2.75 5.31 4.187 7.94 2.94 5.38 2.246 7.97-3.135 11.01a26.915 26.915 0 0 1-5.02 2.204c-5.485 1.752-6.804.232-5.943-5.563.7-4.714 1.22-9.62.663-14.304-.474-3.982-2.905-7.595-7.55-8.3-4.454-.675-7.08 2.217-9.403 5.417-2.547 3.51-2.535 7.108-.205 10.718 2.077 3.22 4.36 6.318 6.246 9.646 2.742 4.84 1.23 8.684-4.233 9.75-4.363.855-8.94 1.015-13.4.862-5.2-.178-6.267-2.713-3.674-7.284 1.718-3.03 3.645-6.022 4.805-9.272 1.865-5.227-1.965-11.675-7.51-13.417-3.963-1.244-8.622 1.978-10.102 7.49-.716 2.667-.712 5.57-.725 8.37-.01 2.317.625 4.637.633 6.956.014 3.858-2.103 6.687-5.84 6.887-4.4.236-9.182.31-13.224-1.142-10.305-3.7-11.64-10.1-4.52-18.267.22-.25.674-.508.65-.724-.194-1.838.203-4.42-.85-5.367-4.25-3.834-9.145-1.793-10.285 4.784-1.787 10.324-2.804 20.782-4.07 31.19-.368 3.024 1.268 4.306 4.188 4.074 1.496-.117 2.983-.32 4.47-.485zm124.528-42.994c-.02.008 1.13-.082 1.693-.704 3.75-4.143 8.847-8.007 7.33-14.415-1.476-6.23-7.21-6.484-12.438-7.095-1.255-.147-2.4-1.245-3.595-1.906.78-1.184 1.32-2.678 2.38-3.5 5.28-4.09 9.37-3.732 16.435.525 1.75 1.057 4.812 2.008 6.116 1.183 1.482-.938 2.734-4.24 2.222-5.96-1.683-5.642-4.008-11.126-6.493-16.482-1.442-3.11-4.283-6.245-7.76-4.508-2.13 1.063-3.428 4.814-4.067 7.597-.94 4.087-1.857 8.31-6.22 9.423-6.77 1.73-10.277 5.477-10.75 12.46-.213 3.164-1.795 5.31-5.66 4.41-4.185-.972-5.205 1.436-4.24 4.837a17.867 17.867 0 0 0 3.136 6.12c3.067 3.85 4.903 3.57 7.24-.69 2.285-4.165 5.416-5.19 8.766-1.793 2.517 2.553 3.7 6.425 5.904 10.5zm-111.42-290.498c-8.473-.1-12.84 4.054-10.525 8.616 5.617 11.074 14.32 18.7 26.81 20.902 2.305.407 5.896-.897 7.304-2.673 1.22-1.538 1.22-5.713-.04-7.25-4.55-5.55-9.572-10.81-15-15.5-2.734-2.36-6.724-3.263-8.547-4.095zM725.32 461.38l-.577-1.795c-3.454-.986-6.89-2.044-10.368-2.943-6.03-1.56-8.514.093-10.198 6.065-.69 2.453-1.6 5.22-3.313 6.94-4.71 4.72-5.08 4.7-.458 9.547 3.613 3.79 7.374 7.618 12.933 10.092 0-1.62.145-2.156-.03-2.55-.402-.9-.925-1.756-1.465-2.588-5.143-7.93-4.707-10.123 3.206-15.607 1.36-.94 2.86-1.687 4.21-2.642 2.057-1.452 4.043-3.005 6.06-4.517zm-29.97-197.19c.13-4.932-1.46-8.485-5.783-9.952-3.76-1.275-6.855.407-9.02 3.553-3.102 4.51.205 8.047 2.49 11.205 1.645 2.274 4.674 3.55 7.086 5.27 1.703-2.872 3.444-5.723 5.076-8.636.293-.526.138-1.303.15-1.44zm58.584-31.272l-.178.008c.17 2.473.16 4.975.556 7.41.405 2.495 1.955 3.412 4.295 1.987 4.893-2.98 6.604-9.96 3.285-14.694-1.3-1.855-3.546-3.047-5.36-4.54-.866 2.118-1.863 4.196-2.54 6.373-.33 1.056-.058 2.298-.058 3.455zm34.512-26.687c-2.374 1.202-3.732 1.89-5.092 2.576.702 1.234 1.108 2.896 2.16 3.623 3.262 2.247 6.668 4.347 10.233 6.055 1.214.582 3.065-.168 4.627-.31-.174-1.693.29-4.234-.633-4.93-3.556-2.68-7.56-4.767-11.294-7.014zm-90.032-19.18c1.05 1.78 1.5 3.41 2.548 4.028.78.46 2.93.02 3.438-.724 1.91-2.8 3.58-5.807 4.92-8.918.35-.807-.53-2.772-1.395-3.288-.82-.49-2.886-.227-3.485.482-2.178 2.574-3.97 5.474-6.026 8.42zm46.908 57.935c1.244-6.22-.956-10.22-3.38-14.11-.326-.52-1.673-.964-2.144-.706-.727.397-1.633 1.497-1.547 2.185.583 4.62 1.898 8.937 7.072 12.63zM1043.156 585.013c-2.496 2-4.792 4.342-7.52 5.948-30.13 17.745-60.144 35.697-90.55 52.957-39.822 22.604-79.876 44.806-120 66.87-42.75 23.506-85.806 46.46-128.526 70.02-27.99 15.437-55.698 31.395-83.368 47.403-6.455 3.735-12.577 8.242-18.198 13.144-2.94 2.563-4.568 6.694-6.58 10.234-1.37 2.41-1.953 5.355-3.62 7.492-10.843 13.917-21.667 27.863-32.983 41.393-3.998 4.78-9.084 8.803-14.18 12.47-4.637 3.335-7.545 1.51-7.724-4.098-.29-9.026-3.015-11.03-11.095-6.798-5.514 2.89-10.612 6.876-15.243 11.09-9.168 8.345-19.157 15.218-29.993 21.326-20.15 11.357-39.648 23.864-59.506 35.748-8.85 5.297-17.86 10.33-26.924 15.255-1.503.816-3.644.458-5.49.644.548-1.944.85-4.003 1.694-5.807 1.854-3.958 3.87-7.85 6.044-11.643 1.038-1.81 2.273-3.8 3.948-4.907 14.432-9.553 28.714-19.375 43.556-28.256 33.296-19.924 66.945-39.255 100.316-59.055 7.86-4.664 15.33-10.032 22.69-15.47 2.924-2.16 7.12-5.415 4.778-9.27-2.374-3.908-6.78-.804-9.9.562-4.706 2.06-9.19 4.688-13.57 7.394-1.6.988-3.483 2.746-3.765 4.402-.877 5.162-4.414 7.813-8.472 9.788-18.546 9.023-36.854 18.65-55.876 26.55-28.11 11.675-56.717 22.158-85.2 32.91-4.145 1.563-8.76 1.985-13.2 2.626-6.238.9-8.888 3.362-9.306 9.655-.264 3.983.226 8.043-.298 11.98-.54 4.07-1.515 8.192-3.085 11.965-.627 1.507-3.362 2.922-5.132 2.914-1.36-.007-3.57-2.105-3.924-3.617-1.996-8.563-7.095-15.34-11.995-22.277-3.618-5.123-3.456-8.013 1.992-11.09 7.22-4.076 14.838-7.512 22.475-10.78 26.02-11.134 52.044-22.268 78.218-33.034 25.865-10.64 51.882-20.913 77.915-31.138 4.216-1.656 6.136-3.84 5.77-8.487-.436-5.536 2.926-9.49 6.953-12.618 12.572-9.767 26.157-16.276 42.677-17.495 8.902-.656 17.968-4.898 26.104-9.157 37.465-19.606 74.864-39.365 111.846-59.865 53.164-29.47 105.894-59.724 158.915-89.45 22.22-12.46 44.58-24.68 67.126-36.53 15.757-8.283 31.852-15.944 47.983-23.48 4.603-2.15 9.97-2.603 14.778-4.396 2.352-.878 4.276-2.98 6.29-4.652 1.2-.998 2.006-2.86 3.32-3.274 8.877-2.797 17.836-5.33 26.79-7.876.682-.194 1.528.19 2.298.308.252.49.5.98.75 1.47zM652.73 970.965c-1.462 1.596-2.718 3.48-4.44 4.71-1.897 1.353-4.51 3.254-6.29 2.815-2.105-.52-4.67-3.03-5.205-5.144-.82-3.227-.866-7.108.155-10.26 3.366-10.39 8.364-19.983 16.618-27.468 1.412-1.28 3.357-1.952 4.977-3.025 1.62-1.074 4.283-2.136 4.48-3.49.473-3.3-.14-6.78-.653-10.136-.027-.183-3.53-.497-4.732.29-3.182 2.085-5.932 4.816-8.958 7.154-5.92 4.572-11.846 9.142-17.922 13.5-1.39.997-3.396 1.135-5.12 1.668l-.88-1.342c.884-1.21 1.566-2.66 2.684-3.593 7.406-6.174 10.53-14.295 11.32-23.647.54-6.372.487-5.878 6.185-3.553 3.138 1.28 7.367 1.62 10.58.65 8.35-2.52 15.815-6.697 19.23-15.398l-.923-1.31c-2.124 1.56-4.15 3.28-6.396 4.644-3.096 1.88-6.38 6.015-10.05 2.364-3.38-3.36-.394-7.18 1.702-10.333 5.988-9.016 15.7-11.498 25.346-13.34 6.316-1.205 12.936-.968 19.423-1.046 1.808-.022 3.63 1.132 5.443 1.746-.983 1.602-1.59 3.802-3.018 4.697-4.746 2.98-9.583 6.01-14.766 8.054-6.732 2.656-9.556 11.397-5.202 17.29 3.06 4.142 5.515.09 8.96-.464.273 1.844.376 3.56.8 5.19 1.534 5.913 2.748 11.96 4.89 17.654 2.568 6.83 7.86 10.478 15.403 10.598 2.315.036 4.648.466 6.925.942 5.508 1.15 6.356 2.547 5.293 8.22-.713 3.8.956 5.154 5.344 4.467 4.753-.745 9.503-1.64 14.29-1.98 2.014-.142 4.38.548 6.124 1.612 3.546 2.16 3.287 5.656-.266 7.766-.714.424-1.847.604-2.132 1.206-1.044 2.205-1.81 4.542-2.68 6.83 2.084.152 4.338.878 6.216.324 2.824-.832 5.51-2.358 8.03-3.947 4.956-3.125 9.18-1.764 13.192 1.69.752.647 1.463 1.382 2.045 2.184 1.645 2.26 3.21 4.577 4.808 6.872-2.146 1.222-4.53 2.164-6.387 3.73-3.013 2.54-5.944 5.276-8.41 8.333-1.854 2.297-.858 4.26 2.07 5.287 1.38.482 2.534 1.604 3.79 2.437-1.314 1.183-2.438 2.942-3.975 3.452-9.143 3.033-18.2 6.838-27.618 8.424-30.063 5.064-60.298 8.953-90.914 8.226-1.332-.03-2.68-.006-3.99-.202-3.963-.593-4.806-2.363-2.038-5.11 3.54-3.515 2.66-6.223-.46-9.3-5.668-5.588-5.516-6.654-.606-12.863 2.975-3.763 5.64-7.805 8.097-11.928.88-1.478.743-3.56 1.07-5.367l-1.457-.78zm61.67-17.128l.663.853 4.88-3.79c-1.484-1.5-2.83-4.08-4.48-4.293-4.664-.602-9.53-.774-14.18-.126-8.263 1.153-12.112 7.78-9.58 15.698.4 1.252 1.638 2.237 2.487 3.346.978-.985 2.37-1.797 2.866-2.984 4.284-10.22 4.235-10.24 15.365-8.936l1.98.233zm-39.933 13.412c-.8-2.088-.982-3.236-1.603-4.053-2.057-2.715-5.94-5.302-5.954-7.954-.013-2.628 3.892-5.22 5.91-7.95.603-.818.643-2.055.94-3.1-1.188-.193-2.64-.922-3.52-.488-3.69 1.814-7.423 3.682-10.742 6.08-5.66 4.088-5.662 6.515-.225 10.68 2.744 2.1 5.762 3.908 8.847 5.474 1.58.8 3.577.775 6.347 1.31z"/><path fill="#FFF" d="M1008.788 636.317c-4.08 1.69-8.462 2.888-12.194 5.153-22.63 13.742-44.884 28.122-67.703 41.54-33.58 19.745-67.464 38.98-101.348 58.207-22.448 12.737-44.876 25.547-67.747 37.495-45.002 23.51-90.297 46.46-135.496 69.594-4.737 2.424-9.632 4.54-14.474 6.756-1.204.55-2.5 1.318-3.734 1.288-1.812-.045-3.608-.72-5.41-1.125.662-1.578.906-3.64 2.066-4.64 3.135-2.707 6.438-5.37 10.06-7.335 37.178-20.157 74.507-40.032 111.64-60.27 33.043-18.007 65.966-36.236 98.807-54.608 44.61-24.957 89.234-49.893 133.57-75.33 25.27-14.495 49.953-30.01 74.962-44.962 3.98-2.38 8.205-4.41 12.496-6.168 1.395-.57 4.144-.343 4.85.594.76 1.008.5 3.872-.438 4.897-6.263 6.837-12.647 13.587-19.373 19.965-2.98 2.824-6.708 4.966-10.352 6.95-2.966 1.613-6.31 2.53-9.487 3.758l-.695-1.76zm5.35-6.87c7.208-.553 17.355-8.207 17.262-12.724-5.89.384-16.117 7.736-17.26 12.724zM322.134 990.353c1.294 1.673 2.62 3.323 3.875 5.024 2.105 2.857 3.91 2.83 5.453-.48.28-.602.563-1.205.874-1.793 2.704-5.1 4.49-5.29 8.403-.843 2.414 2.744 4.746 5.56 7.187 8.277.766.854 1.672 1.667 2.67 2.21 5.182 2.812 6.36 5.14 4.882 9.975-1.274 4.164-5.685 7.194-9.914 6.812-9.485-.86-24.793-16.146-25.473-25.535-.084-1.16.363-2.355.564-3.535l1.477-.112zM348.455 968.965c-2.22 1.97-3.393 3.013-4.567 4.056-1.786-2.513-3.758-4.93-5.17-7.64-.225-.433 2.06-2.175 3.186-3.312 1.964 2.07 3.93 4.137 6.55 6.897zM705.237 1039.164c2.083 1.197 3.813 2.19 5.542 3.186-1.367.834-2.84 2.48-4.075 2.315-1.916-.253-3.668-1.737-5.49-2.7l4.022-2.8zM744.267 1037.807c-2.77 0-5.552.125-8.305-.097-.618-.05-1.415-1.25-1.592-2.042-.094-.42.98-1.59 1.507-1.576 2.857.076 5.708.416 8.56.666l-.17 3.05z"/><path d="M653.674 292.813c.473 1.547.95 2.575 1.077 3.646.197 1.647.097 3.33.224 4.99.53 6.91 4.347 12.22 9.162 12.81 4.762.582 12.468-4.31 13.87-9.672.54-2.074-.58-5.208-2.003-7.036-2.634-3.387-6.204-6.024-9.1-9.233-4.41-4.892-4.67-8.23-1.36-11.852 3.342-3.658 6.665-3.65 11.858.388 3.147 2.448 5.983 5.293 9.055 7.844 3.447 2.863 6.416 2.686 10.112-.427 10.425-8.78 21.3-17.022 31.888-25.613 1.354-1.1 2.057-3.002 3.06-4.532-1.818-.083-3.983-.84-5.39-.12-3.967 2.032-7.682 4.583-11.384 7.094-5.124 3.477-9.53 2.924-12.723-2.323-2.874-4.725-3.714-10.034-1.72-15.332.542-1.438 2.43-3.326 3.667-3.303 1.574.03 3.54 1.483 4.57 2.886 1.442 1.967 1.935 4.618 3.32 6.643.684.998 2.685 1.95 3.68 1.635 1-.317 2-2.2 2.094-3.462.17-2.29-.854-4.73-.438-6.93.688-3.634 1.92-7.215 3.385-10.62.36-.838 2.51-.905 3.84-1.328.298 1.21.76 2.41.844 3.637.063.963-.305 1.966-.54 2.937-1.287 5.275.98 8.897 5.658 10.843 9.706 4.037 19.76 5.97 30.265 3.667 9.56-2.094 13.18-7.142 12.24-16.78-.184-1.876-.027-3.785-.027-7.438 2.915 2.517 4.847 3.88 6.404 5.585 5.84 6.394 11.585 12.877 17.292 19.393.81.923 1.207 2.205 1.795 3.32-1.27.605-2.494 1.596-3.818 1.755-11.247 1.35-22.5 2.65-33.772 3.776-28.972 2.896-51.27 17.314-69.017 39.694-5.796 7.31-11.453 14.737-17.458 21.872-5.28 6.273-8.61 6.523-14.51.746-4.103-4.02-8.005-8.477-10.987-13.354-3.006-4.92-.7-11.473 4.89-15.81zM732.06 517.21c-1.488.165-2.976.367-4.47.485-2.92.23-4.556-1.05-4.188-4.073 1.267-10.41 2.283-20.867 4.07-31.19 1.14-6.577 6.035-8.618 10.287-4.784 1.05.948.653 3.53.85 5.367.02.216-.434.474-.652.724-7.12 8.167-5.785 14.566 4.52 18.266 4.042 1.45 8.823 1.378 13.223 1.142 3.74-.2 5.855-3.028 5.843-6.888-.008-2.32-.643-4.64-.633-6.956.013-2.8.01-5.703.725-8.37 1.48-5.513 6.14-8.734 10.102-7.49 5.545 1.742 9.375 8.19 7.51 13.417-1.16 3.25-3.087 6.243-4.806 9.273-2.592 4.57-1.526 7.106 3.675 7.284 4.46.152 9.037-.008 13.4-.86 5.464-1.068 6.976-4.912 4.233-9.752-1.886-3.327-4.17-6.427-6.247-9.646-2.33-3.61-2.34-7.208.206-10.72 2.322-3.2 4.95-6.09 9.403-5.415 4.644.704 7.075 4.316 7.55 8.3.556 4.683.035 9.59-.664 14.303-.86 5.795.458 7.314 5.944 5.562a27.01 27.01 0 0 0 5.02-2.203c5.38-3.04 6.075-5.63 3.134-11.012-1.438-2.63-3.08-5.178-4.188-7.94-.52-1.3.002-3.017.052-4.545 1.392.188 3.35-.145 4.08.65 4.022 4.39 8.03 8.85 11.467 13.698 2.116 2.984.305 6.1-2.502 7.64-7.563 4.15-15.103 8.505-23.086 11.69-23.66 9.445-48.722 12.06-73.857 14.042zM856.586 474.216c-2.204-4.074-3.387-7.946-5.905-10.5-3.35-3.396-6.48-2.372-8.765 1.794-2.337 4.26-4.173 4.54-7.24.69a17.903 17.903 0 0 1-3.137-6.12c-.964-3.402.057-5.81 4.24-4.837 3.866.898 5.448-1.247 5.662-4.412.472-6.98 3.98-10.73 10.748-12.458 4.363-1.114 5.28-5.336 6.22-9.424.64-2.782 1.938-6.533 4.067-7.597 3.478-1.736 6.318 1.4 7.76 4.51 2.486 5.356 4.812 10.84 6.494 16.483.512 1.72-.74 5.02-2.223 5.96-1.305.824-4.365-.127-6.116-1.183-7.062-4.258-11.154-4.615-16.434-.525-1.06.822-1.6 2.316-2.38 3.5 1.195.66 2.34 1.76 3.595 1.906 5.23.61 10.964.864 12.44 7.096 1.516 6.408-3.58 10.272-7.332 14.415-.562.624-1.713.714-1.692.706zM745.167 183.718c1.823.832 5.813 1.734 8.545 4.095 5.43 4.692 10.45 9.952 15 15.502 1.26 1.536 1.26 5.71.04 7.25-1.406 1.774-4.998 3.08-7.304 2.672-12.488-2.202-21.19-9.828-26.808-20.902-2.313-4.564 2.053-8.718 10.527-8.617zM725.32 461.38c-2.018 1.513-4.003 3.066-6.06 4.52-1.353.953-2.85 1.7-4.21 2.642-7.914 5.484-8.35 7.678-3.207 15.607.54.83 1.063 1.687 1.465 2.588.176.393.03.93.03 2.55-5.56-2.475-9.32-6.304-12.934-10.093-4.622-4.846-4.252-4.827.458-9.548 1.715-1.72 2.622-4.486 3.313-6.94 1.685-5.972 4.17-7.623 10.198-6.064 3.478.9 6.914 1.957 10.368 2.943.196.598.387 1.196.58 1.795z"/><path d="M695.35 264.19c-.012.137.144.913-.15 1.44-1.632 2.912-3.373 5.763-5.076 8.635-2.412-1.72-5.44-2.995-7.087-5.27-2.284-3.158-5.59-6.696-2.49-11.204 2.165-3.145 5.262-4.827 9.02-3.552 4.323 1.467 5.912 5.02 5.782 9.953zM753.934 232.918c0-1.157-.27-2.4.057-3.455.68-2.177 1.676-4.255 2.542-6.373 1.814 1.493 4.06 2.685 5.36 4.54 3.32 4.734 1.607 11.715-3.285 14.693-2.34 1.425-3.89.508-4.295-1.988-.396-2.435-.387-4.937-.556-7.41.06 0 .118-.004.178-.007zM788.446 206.23c3.733 2.247 7.737 4.336 11.296 7.016.924.695.46 3.236.633 4.93-1.562.142-3.413.892-4.627.31-3.565-1.708-6.972-3.808-10.232-6.056-1.053-.727-1.46-2.39-2.16-3.623l5.09-2.576zM698.414 187.05c2.056-2.946 3.848-5.846 6.025-8.42.6-.708 2.664-.972 3.484-.48.864.515 1.743 2.48 1.396 3.287a53.413 53.413 0 0 1-4.92 8.918c-.51.743-2.658 1.185-3.44.724-1.046-.62-1.495-2.25-2.546-4.03zM745.322 244.985c-5.174-3.693-6.49-8.01-7.07-12.63-.086-.69.82-1.788 1.547-2.187.47-.258 1.816.186 2.142.707 2.424 3.89 4.624 7.892 3.38 14.11zM714.4 953.837l-1.978-.233c-11.13-1.304-11.08-1.284-15.365 8.936-.497 1.188-1.89 2-2.866 2.984-.85-1.108-2.086-2.094-2.486-3.346-2.532-7.92 1.317-14.545 9.58-15.697 4.65-.647 9.516-.475 14.18.127 1.65.212 2.995 2.793 4.48 4.292l-4.88 3.79-.663-.853zM674.467 967.25c-2.77-.535-4.768-.51-6.347-1.312-3.085-1.565-6.103-3.374-8.847-5.475-5.438-4.164-5.437-6.59.225-10.68 3.32-2.397 7.052-4.265 10.74-6.08.882-.433 2.334.296 3.522.49-.298 1.044-.337 2.28-.94 3.1-2.02 2.73-5.923 5.32-5.91 7.95.013 2.65 3.897 5.238 5.954 7.953.62.818.802 1.966 1.603 4.053zM1014.14 629.447c1.144-4.988 11.37-12.34 17.26-12.724.092 4.517-10.054 12.172-17.26 12.724z"/></g></svg>