<svg xmlns="http://www.w3.org/2000/svg" width="1200" height="1200" viewBox="0 0 1200 1200"><g fill-rule="evenodd" clip-rule="evenodd"><path d="M1 1h1200v1200H1V1zm76.56 1162.467v-6.527c0-19.166-.013-38.333.003-57.5.005-6.406.742-7.1 7.244-7.1l261.995.016c6.852 0 6.847 0 6.847-6.89-.002-321.328-.01-642.656.06-963.984.002-4.7.05-9.752 1.676-14.033 3.682-9.706 9.494-18.13 18.934-23.333 4.244-2.34 9.22-3.768 12.735-6.883 2.68-2.374 4.13-2.643 7.042-1.164 1.373.698 3.48.082 5.23-.127 2.453-.292 4.885-1.103 7.325-1.104 137.664-.056 275.33-.028 412.993-.124 5.6-.004 11.106 3.597 16.826.39.45-.252 1.757.847 2.564 1.453 1.283.962 2.39 2.757 3.732 2.926 3.317.42 5.4 2.394 8.023 4.116 13.59 8.93 19.668 21.6 19.788 37.41.146 19.332-.104 38.668.168 57.997.033 2.35 1.757 5.177 3.55 6.89 2.72 2.593 6.196 4.39 9.336 6.547 14.855 10.212 29.726 20.402 44.55 30.66 8.142 5.635 16.224 11.356 24.296 17.09 12.26 8.71 24.785 17.086 36.616 26.346 6.702 5.244 13.316 11.237 18.07 18.192 7.848 11.48 12.102 24.625 12.1 38.844-.012 117.164-.007 234.328-.007 351.493 0 32.367 4.087 64.254 12.578 95.443 4.053 14.89 9.234 29.532 14.848 43.92 8 20.505 17.176 40.55 25.28 61.017 8.42 21.26 16.688 42.607 23.983 64.267 3.82 11.342 8.23 22.834 7.57 35.293-.12 2.285.447 4.644.94 6.916 1.206 5.583 3.056 10.777 2.246 16.985-.49 3.768-.743 7.643-1.792 11.386-1.56 5.572-2.346 11.54-4.905 16.61-3.992 7.91-8.637 15.637-14.036 22.647-5.83 7.567-12.898 14.138-21.545 18.703-4.696 2.48-9.03 6.017-13.997 7.504-4.857 1.455-7.856 8.11-14.256 5.145-.45-.21-1.388.805-2.16 1.075a90.383 90.383 0 0 1-5.6 1.76c-1.65.462-3.848.273-4.91 1.3-3.215 3.102-6.573 2.054-10.082 1.187-1.56-.385-3.15-.837-4.74-.885-4.125-.126-8.257-.104-12.385-.018-1.628.033-3.33.152-4.857.66-3.456 1.15-6.584 2.443-9.566-1.354-.917-1.168-3.592-1.09-5.493-1.296-1.085-.12-2.448.834-3.314.454-5.786-2.532-11.354-5.592-17.214-7.925-17.34-6.904-31.306-18.28-43.093-32.42-8.274-9.923-14.127-21.196-17.23-33.88-6.768-27.672-7.237-56.065-9.032-84.215-1.884-29.536-1.995-59.21-2.123-88.83-.142-32.8.557-65.606.924-98.41.27-24.15.738-48.3.862-72.45.157-30.65.063-61.302.063-91.953 0-11.014 1.246-9.855-10.33-10.058-4.118-.07-5.403 1.353-5.4 5.55.108 171.997.107 343.994.11 515.99 0 7.165-.045 7.165 7.126 7.164 79.832-.01 159.664.018 239.496-.116 4.9-.01 6.358 1.688 6.316 6.392-.176 20-.077 40-.078 60v5.304c1.273-.075 1.823.033 2.236-.157 1.51-.69 3.02-1.41 4.45-2.25 22.06-12.954 35.32-32.656 41.545-56.88 2.82-10.977 4.107-22.646 4.115-34.004.213-311.16.157-622.322.21-933.483.003-15.463-2.08-30.458-7.73-44.91-14.35-36.706-41.195-55.14-80.407-55.14-325.66 0-651.322.032-976.983-.06-26.554-.006-47.192 11.01-62.79 31.938-15.105 20.27-20.5 43.456-20.49 68.458.11 246.495.067 492.99.067 739.487 0 64.665.118 129.33-.06 193.996-.068 25.39 5.882 48.752 21.457 69.148 7.34 9.608 16.132 17.602 28.476 23.39zm532.91-781.412c51.154 0 102.31.024 153.463-.013 18.135-.013 31.197-9.48 31.202-26.8.017-64.485.098-128.97-.18-193.454-.02-5.035-1.62-10.67-4.228-14.966-6.223-10.248-17.01-12.207-27.898-12.272-35.492-.213-70.984-.072-106.477-.072-65.317 0-130.636-.112-195.954.06-19.603.053-33.507 9.334-32.466 31.815.73 15.796.14 31.652.14 47.482 0 46.655-.154 93.313.207 139.966.044 5.487 1.868 11.587 4.704 16.296 6.218 10.325 17.027 11.933 28.022 11.944 49.822.053 99.643.023 149.464.015zm259.33 114.81c8.753.606 17.764.33 26.357 2.09 7.72 1.583 15.91-2.008 23.21 2.826 4.952 3.282 10.817 5.4 15.23 9.24 7.846 6.825 10.404 16.258 10.2 26.487-.457 23.126-.85 46.254-1.374 69.38-.446 19.792-1.14 39.58-1.53 59.375-.334 16.818-.46 33.64-.56 50.463-.214 36.817-.88 73.644-.368 110.452.476 34.255 2.13 68.495 3.506 102.732.355 8.782 1.258 17.584 2.56 26.28 1.765 11.792 4.55 23.438 6.15 35.25 1.21 8.937 4.78 16.623 11.013 22.645 5.078 4.907 9.758 11.623 18.636 10.035.547-.1 1.348 1.058 1.987 1.675.68.656 1.664 2.068 1.9 1.947 4.102-2.09 7.05 1.64 10.574 1.893 2.106.15 4.31-.91 6.452-1.48 1.182-.312 2.31-.924 3.502-1.078 3.445-.445 7.134-.104 10.312-1.238 3.51-1.253 6.4-4.136 9.832-5.72 14.127-6.52 18.2-21.417 16.88-31.096a209.65 209.65 0 0 0-7.965-35.308c-5.445-17.046-11.852-33.807-18.404-50.47-6.976-17.738-15.12-35.026-21.812-52.863-9.312-24.814-17.98-49.81-23.89-75.81-4.98-21.896-6.863-44.022-8.296-66.19-1.255-19.414-.472-38.957-.687-58.44-.25-22.635-.605-45.27-.915-67.902-.368-26.957-.946-53.915-1.055-80.874-.177-43.655-.04-87.312-.045-130.968 0-6.55-.266-6.82-6.667-6.823-19.996-.01-39.99-.018-59.987 0-8.363.008-8.354.037-8.352-8.287.008-29.993.03-59.986-.053-89.98-.003-1.574-.64-3.36-1.54-4.658-.864-1.248-2.457-1.99-3.728-2.956-3.34-2.54-6.68-5.084-11.076-8.432.003 83.624.003 165.75.003 247.803z"/><path fill="#FFF" d="M77.56 1163.467c-12.344-5.787-21.137-13.78-28.474-23.39-15.575-20.395-21.525-43.757-21.456-69.146.176-64.664.06-129.33.06-193.995 0-246.496.042-492.992-.067-739.487-.01-25.002 5.384-48.19 20.49-68.457 15.596-20.927 36.234-31.942 62.79-31.936 325.66.09 651.32.06 976.982.06 39.212 0 66.06 18.433 80.407 55.14 5.65 14.45 7.733 29.446 7.73 44.91-.053 311.16.003 622.32-.21 933.482-.008 11.357-1.295 23.027-4.115 34.005-6.225 24.224-19.485 43.926-41.545 56.88-1.432.84-2.94 1.56-4.45 2.25-.413.19-.963.083-2.236.158v-5.305c0-20-.098-40 .078-60 .042-4.703-1.416-6.4-6.316-6.39-79.832.133-159.664.105-239.495.115-7.17 0-7.127 0-7.127-7.163-.002-171.997 0-343.994-.11-515.99-.002-4.198 1.283-5.622 5.402-5.55 11.575.2 10.33-.957 10.33 10.057 0 30.65.094 61.303-.064 91.953-.124 24.15-.593 48.3-.863 72.45-.366 32.804-1.064 65.61-.923 98.41.128 29.62.24 59.294 2.123 88.83 1.795 28.15 2.265 56.543 9.033 84.216 3.102 12.684 8.954 23.957 17.228 33.88 11.788 14.14 25.753 25.516 43.094 32.42 5.86 2.332 11.428 5.392 17.214 7.924.866.38 2.23-.573 3.313-.454 1.902.207 4.577.128 5.494 1.296 2.982 3.798 6.11 2.506 9.566 1.355 1.526-.508 3.23-.627 4.857-.66 4.128-.088 8.26-.11 12.386.017 1.588.048 3.18.5 4.74.885 3.508.866 6.866 1.914 10.082-1.188 1.062-1.025 3.258-.837 4.91-1.298a89.047 89.047 0 0 0 5.6-1.76c.77-.272 1.708-1.286 2.16-1.077 6.398 2.965 9.397-3.69 14.255-5.146 4.968-1.487 9.3-5.025 13.997-7.504 8.646-4.565 15.716-11.136 21.544-18.703 5.4-7.01 10.045-14.738 14.037-22.647 2.56-5.07 3.345-11.038 4.905-16.61 1.05-3.742 1.3-7.617 1.792-11.385.81-6.208-1.04-11.402-2.247-16.986-.492-2.273-1.06-4.632-.938-6.917.658-12.46-3.752-23.95-7.572-35.293-7.295-21.66-15.564-43.008-23.983-64.267-8.104-20.467-17.28-40.512-25.28-61.018-5.613-14.387-10.795-29.03-14.848-43.92-8.49-31.188-12.578-63.075-12.578-95.442 0-117.165-.006-234.33.006-351.494.002-14.22-4.252-27.364-12.1-38.845-4.754-6.955-11.368-12.948-18.07-18.192-11.83-9.26-24.355-17.636-36.616-26.345-8.072-5.734-16.154-11.456-24.297-17.09-14.823-10.26-29.693-20.45-44.55-30.66-3.14-2.16-6.615-3.955-9.334-6.55-1.795-1.71-3.52-4.537-3.552-6.89-.27-19.328-.02-38.664-.168-57.996-.12-15.81-6.197-28.48-19.79-37.41-2.62-1.723-4.705-3.696-8.022-4.116-1.342-.17-2.45-1.964-3.732-2.927-.807-.607-2.113-1.706-2.563-1.454-5.72 3.207-11.228-.394-16.826-.39-137.664.096-275.33.068-412.993.123-2.44 0-4.872.81-7.325 1.103-1.752.21-3.858.825-5.23.127-2.912-1.48-4.363-1.21-7.043 1.164-3.516 3.115-8.49 4.542-12.735 6.883-9.44 5.204-15.252 13.627-18.934 23.332-1.625 4.28-1.674 9.33-1.675 14.032-.07 321.328-.063 642.656-.062 963.983 0 6.89.006 6.89-6.846 6.89-87.332-.004-174.663-.01-261.995-.015-6.503 0-7.24.693-7.245 7.1-.016 19.167-.004 38.334-.003 57.5l-.002 6.527zm-5.595-167.294l.87.646L313.48 632.197c-43.925 13.963-86.438 27.477-129.96 41.31l129.958-277.343-109.96 24.275c26.804-90.52 53.32-180.065 79.974-270.07l-147.49-29.188L91.01 498.275h62.502L71.028 753.783l74.954-21.792-74.017 264.183z"/><path fill="#FFF" d="M610.47 382.06c-49.82.003-99.642.033-149.463-.02-10.995-.012-21.805-1.62-28.022-11.944-2.836-4.71-4.66-10.81-4.703-16.295-.36-46.652-.206-93.31-.206-139.965 0-15.83.59-31.687-.14-47.482-1.042-22.48 12.862-31.763 32.464-31.814 65.318-.174 130.637-.062 195.954-.062 35.492 0 70.984-.14 106.476.072 10.89.065 21.676 2.024 27.898 12.272 2.608 4.297 4.207 9.93 4.23 14.966.275 64.483.194 128.97.178 193.454-.005 17.32-13.067 26.787-31.202 26.8-51.156.037-102.31.013-153.464.017zM869.8 496.865V249.062c4.395 3.348 7.734 5.89 11.075 8.432 1.27.967 2.863 1.708 3.73 2.956.9 1.3 1.535 3.084 1.54 4.66.083 29.992.06 59.985.052 89.978-.003 8.324-.012 8.295 8.352 8.287 19.995-.018 39.99-.01 59.986 0 6.4.003 6.666.273 6.667 6.823.004 43.656-.132 87.313.045 130.968.108 26.96.687 53.917 1.055 80.875.31 22.635.666 45.27.915 67.902.215 19.484-.568 39.027.687 58.44 1.433 22.17 3.317 44.295 8.295 66.19 5.91 26 14.58 50.996 23.89 75.81 6.693 17.838 14.837 35.126 21.812 52.863 6.553 16.664 12.96 33.425 18.404 50.47a209.65 209.65 0 0 1 7.965 35.31c1.32 9.678-2.752 24.576-16.88 31.095-3.43 1.584-6.322 4.467-9.83 5.72-3.18 1.133-6.867.792-10.313 1.237-1.193.154-2.32.766-3.502 1.08-2.144.568-4.346 1.628-6.45 1.478-3.524-.253-6.474-3.982-10.574-1.893-.236.12-1.222-1.29-1.9-1.947-.64-.617-1.44-1.773-1.988-1.675-8.878 1.588-13.558-5.128-18.636-10.035-6.233-6.02-9.803-13.708-11.013-22.646-1.6-11.812-4.386-23.458-6.15-35.25-1.302-8.696-2.205-17.498-2.56-26.28-1.376-34.238-3.03-68.48-3.505-102.733-.51-36.81.154-73.635.37-110.452.097-16.822.224-33.645.557-50.463.392-19.794 1.085-39.583 1.53-59.376.524-23.125.918-46.253 1.376-69.38.204-10.228-2.354-19.66-10.2-26.487-4.413-3.84-10.278-5.958-15.23-9.24-7.3-4.833-15.49-1.242-23.21-2.824-8.597-1.76-17.607-1.484-26.36-2.09z"/><path d="M71.965 996.173l74.017-264.184c-25.11 7.3-49.538 14.4-74.954 21.79 27.632-85.596 54.935-170.17 82.482-255.507H91.008c15.02-125.89 29.967-251.15 44.995-377.093 49.234 9.743 98.083 19.41 147.49 29.19-26.654 90.003-53.17 179.55-79.976 270.068l109.96-24.275L183.52 673.506l129.96-41.31C232.71 754.58 152.772 875.7 72.835 996.818l-.87-.645z"/></g></svg>