<svg xmlns="http://www.w3.org/2000/svg" width="1200" height="1200" viewBox="0 0 1200 1200"><g fill-rule="evenodd" clip-rule="evenodd"><path d="M1201 1201H1V1h1200v1200zm-599.267-30.457c163.49 0 326.978.01 490.467-.042 5.312 0 10.717-.112 15.92-1.053 20.586-3.718 36.26-15.19 48.257-31.922 13.856-19.324 19.613-41.177 19.61-64.755-.014-127.325-.006-254.65-.005-381.974 0-184.82-.026-369.642.037-554.462.005-19.47-3.427-38.1-12.897-55.213-15.84-28.623-39.213-44.176-73.06-44.15-326.81.238-653.62.15-980.432.126-23.49-.002-42.582 9.302-57.62 27.04-17.605 20.763-24.366 45.213-24.36 72.07.06 311.813.044 623.625.014 935.437 0 12.897 1.45 25.536 5.388 37.85 12.82 40.095 41.376 61.05 83.214 61.05h485.467z"/><path fill="#FFF" d="M601.733 1170.543H116.267c-41.838 0-70.393-20.955-83.214-61.05-3.938-12.313-5.39-24.952-5.388-37.85.03-311.812.045-623.624-.014-935.436-.004-26.858 6.756-51.31 24.36-72.072 15.038-17.737 34.13-27.04 57.622-27.04 326.81.025 653.62.113 980.433-.126 33.846-.025 57.218 15.527 73.06 44.15 9.47 17.115 12.9 35.744 12.895 55.214-.063 184.82-.037 369.64-.037 554.462 0 127.324-.01 254.648.005 381.974.003 23.578-5.754 45.43-19.61 64.755-11.996 16.73-27.67 28.204-48.258 31.922-5.202.94-10.607 1.052-15.92 1.054-163.49.053-326.977.043-490.467.043zm2.743-1086.38H84.03c-3 0-6.002.06-9-.022-3.658-.1-5.26 1.122-5.256 5.244.116 112.488.11 224.977.11 337.465-.002 228.643-.01 457.286-.02 685.93 0 6.224.83 7.02 7.353 7.02 349.797-.01 699.595-.02 1049.393-.005 13.277 0 11.623.725 11.623-11.936-.002-335.967-.002-671.933-.002-1007.898 0-3-.04-6 .01-9 .108-6.813.126-6.806-6.817-6.806-175.65 0-351.3 0-526.947.008z"/><path d="M604.476 84.16c175.648-.004 351.297-.004 526.946-.005 6.943 0 6.926-.008 6.816 6.807-.048 3-.008 6-.008 9 0 335.965 0 671.93.002 1007.896 0 12.66 1.654 11.937-11.623 11.936-349.8-.015-699.597-.005-1049.394.004-6.52 0-7.353-.795-7.353-7.02.01-228.643.018-457.286.02-685.93 0-112.488.006-224.977-.11-337.465-.004-4.122 1.598-5.345 5.256-5.243 2.997.083 5.998.023 8.998.023 173.483 0 346.965 0 520.448-.003zM884.44 734.88v.048c48.165 0 96.33-.005 144.494.006 6.476.002 7.757-1.268 7.756-7.947L1036.668 480l.002-7.5c-.002-4.23-1.707-6.27-6.346-6.265-94.66.103-189.323.086-283.985.12-14.385.005-12.677 1.08-12.67-12.39.044-85.163.022-170.326.023-255.488 0-2.667.006-5.333.026-8 .026-3.603-1.554-5.688-5.344-5.718-1.5-.012-3-.036-4.5-.036H467.39c-12.49 0-12.556 0-12.558 12.118-.018 87.33-.017 174.658.015 261.987.002 6.58-.813 7.538-7.356 7.537-72.16-.01-144.323-.015-216.484-.023-17.5-.003-35-.04-52.498-.005-5.336.01-6.457 1.268-6.375 6.52.08 5.162.15 10.327.148 15.49-.03 80.163-.06 160.324-.146 240.485-.005 4.53 2.005 6.174 6.406 6.142 16.832-.122 33.665-.06 50.497-.06 72.996-.014 145.992-.01 218.99-.077 4.25-.004 6.955.688 6.947 5.943-.127 86.328-.13 172.657-.174 258.985-.002 3.828-.03 7.663-.244 11.483-.308 5.504.506 6.448 6.02 6.448 86.33-.01 172.66-.018 258.988-.02 14.124 0 14.13.008 14.126-14.187-.024-87.828-.025-175.656-.152-263.485-.007-4.59 2.242-5.16 5.91-5.157 48.33.05 96.662.033 144.993.033z"/><path fill="#FFF" d="M884.44 734.88c-48.33 0-96.66.018-144.99-.03-3.67-.005-5.92.565-5.912 5.156.127 87.83.128 175.657.152 263.486.004 14.194-.002 14.186-14.126 14.186-86.33.004-172.658.012-258.987.02-5.515 0-6.328-.943-6.02-6.446.213-3.82.24-7.655.243-11.483.045-86.33.047-172.658.174-258.986.008-5.256-2.696-5.947-6.948-5.943-72.997.07-145.993.064-218.99.077-16.832.002-33.665-.062-50.496.06-4.4.033-6.41-1.61-6.406-6.14.086-80.162.117-160.323.147-240.485.003-5.164-.068-10.33-.147-15.492-.08-5.25 1.04-6.51 6.375-6.52 17.5-.035 35 .002 52.498.005 72.162.01 144.323.014 216.485.023 6.545 0 7.36-.956 7.357-7.538-.03-87.33-.032-174.658-.015-261.987.002-12.118.066-12.118 12.558-12.118h256.487c1.5 0 3 .024 4.5.035 3.79.03 5.37 2.115 5.342 5.718-.022 2.667-.027 5.333-.027 8 0 85.162.02 170.325-.023 255.487-.007 13.47-1.715 12.396 12.67 12.39 94.66-.033 189.323-.017 283.984-.12 4.64-.004 6.344 2.036 6.346 6.265l-.002 7.5c.008 82.33.016 164.658.022 246.988 0 6.68-1.28 7.95-7.756 7.947-48.164-.01-96.33-.006-144.493-.006v-.05z"/></g></svg>