<svg xmlns="http://www.w3.org/2000/svg" width="1200" height="1200" viewBox="0 0 1200 1200"><g fill-rule="evenodd" clip-rule="evenodd"><path d="M1 1h1200v1200H1V1zm73.75 494.937c-.628.03-1.257.06-1.886.088-1.163-2.52-2.06-5.213-3.55-7.523-2.395-3.714-4.12-7.38-3.74-12.04.13-1.608-1.54-3.45-2.587-5.053-2.918-4.466-9.092-7.973-3.923-14.69.527-.684.334-2.48-.203-3.338-4.824-7.703-3.674-16.583-4.084-24.838-.346-6.98-2.814-11.458-7.614-15.863-2.018-1.85-3.027-5.197-3.675-8.05-.98-4.312-1.51-8.77-1.747-13.193-.417-7.8-3.092-16.943.01-23.084 3.66-7.253 5.015-15.18 8.902-22.137.562-1.007 1.45-1.825 2.122-2.777 1.436-2.038 3.218-3.94 4.168-6.19 3.206-7.595 5.27-15.808 9.374-22.848 3.878-6.65 1.097-10.354-3.13-14.5-.583-.57-.977-1.343-1.43-2.04-1.766-2.71-.956-4.683 2.114-4.982 3.495-.342 3.86-2.26 3.812-5.104-.115-6.794.162-13.6-.162-20.38-.065-1.37-2.122-2.617-3.193-3.974-1.282-1.623-3.446-3.25-3.54-4.968-.215-3.924.307-7.96 1.052-11.852 1.895-9.898-2.265-16.176-12.033-18.226-2.856-.6-5.66-1.88-8.238-3.3-7.42-4.08-13.876-.603-13.876 7.677-.005 279.66-.056 559.323.18 838.983.01 11.507 1.44 23.36 4.425 34.453 11.315 42.03 41.222 64.353 84.57 64.353h972.48c2 0 4-.004 6-.002 20.02.03 37.006-7.372 51.063-21.393 19.882-19.83 29.084-44.424 29.395-72.013.542-48.327.11-96.663.272-144.995.015-4.28-1.43-5.842-5.475-6.407-4.303-.602-4.76-3.955-2.786-7.512 2.74-4.935 6.185-10.553 6.054-15.798-.337-13.553 3.46-27.574-3.172-40.114 1.328-1.987 3.07-3.48 3.338-5.2.906-5.81 1.762-11.698 1.792-17.56.18-35.166.13-70.332.14-105.498.002-1.75-.144-3.498-.22-5.247-.376.41-.75.823-1.126 1.234-5.387-2.087-11.002-3.737-16.09-6.396-4.21-2.202-7.802-5.595-11.865-8.607 1.37-3.12 7.16-4.476 9.8-.895 3.033 4.113 6.963 3.54 10.768 3.222 2.835-.237 5.567-1.695 8.523-2.67v-20.793c-4.86-1.67-7.498-5.302-6.31-10.367.98-4.186-.32-6.88-2.782-9.914-3.475-4.282-2.27-15.332 2.188-16.45 7.62-1.91 7.132-7.152 7.13-12.71-.01-45.333 0-90.666-.017-135.998 0-1.556-.193-3.112-.3-4.74-2.38 1.523-4.44 3.96-6.334 3.838-5.064-.326-7.503 1.583-8.216 6.388-.068.457-.892.803-2.253 1.947-.295-2.1-.24-3.473-.72-4.626-.497-1.206-1.35-2.95-2.318-3.153-3.47-.724-6.96-.836-9.34 2.79-1.732 2.64-4.3 4.853-5.512 7.68-1.15 2.68-2.196 6.392-1.21 8.8 2.155 5.274 4.942 10.62 8.698 14.845 9.23 10.384 14.23 21.766 12.822 35.95-.503 5.076-2.743 7.834-6.813 10.017-1.49.8-3.003 1.906-3.97 3.257-2.105 2.935-3.744 6.205-5.852 9.14-.547.76-2.12.785-3.222 1.148-.21-1.197-1.015-2.78-.53-3.528 2.718-4.19 1.965-6.413-3.176-6.925-.608-.062-1.313-.977-1.648-1.656-3.302-6.666-6.437-13.438-14.204-16.21-.497-.178-.73-1.03-1.14-1.525-1.107-1.34-2.242-2.654-3.366-3.98-1.062 1.985-2.587 3.863-3.075 5.98-.694 3.015-.472 6.228-.92 9.315-.882 6.052-2.332 12.09 1.773 17.658.652.885 1.29 2.2 1.133 3.19-.78 4.946 2.4 8.097 5.5 10.562 8.745 6.954 13.51 15.508 12.993 26.824-.052 1.098.41 2.268.825 3.33 1.96 5.02 3.987 10.015 5.99 15.02l-.7 1.03c-.92-.79-1.965-1.475-2.73-2.393-1.67-2.003-2.77-5.025-4.865-6.02-5.066-2.404-7.554-6.433-9.65-11.22-1.434-3.276-4.323-6.128-.83-9.856.52-.553.3-2.428-.245-3.248-4.323-6.51-4.764-15.42-12.317-19.958-.533-.32-.806-1.455-.81-2.214-.046-6.32.36-12.666-.07-18.955-.528-7.67-1.5-15.33-2.73-22.923-.98-6.066-2.585-12.036-4.032-18.02-.284-1.176-.862-2.75-1.762-3.175-.904-.428-2.54.075-3.558.675-1.1.647-1.713 2.092-2.79 2.81-2.154 1.437-4.48 2.614-6.734 3.898-1.132-2.6-2.458-5.14-3.305-7.83-.356-1.134.07-2.675.535-3.877 1.246-3.22.326-5.634-1.836-8.2-1.496-1.778-2.065-4.32-3.143-6.473-.878-1.756-1.585-3.744-2.91-5.1-3.022-3.092-6.196-5.635-5.897-10.844.267-4.652-4.065-7.514-7.56-5.77-2.94 1.464-5.814 3.056-8.67 4.566-6.512-3.823-8.863-2.286-9.865 5.376-.315 2.422-2.53 4.675-4.13 6.818-.837 1.122-2.506 1.637-3.308 2.772-6.07 8.596-11.4 17.813-18.253 25.716-3.672 4.234-7.944 6.857-4.13 13.005.528.852.155 2.29.127 3.454-.157 6.486-.27 12.975-.546 19.457-.088 2.11-.152 4.425-1.03 6.262-2.118 4.43-4.626 8.684-7.157 12.898-.834 1.39-2.223 2.445-3.358 3.654-1.193-1.525-2.8-2.886-3.49-4.612-1.193-2.992-1.72-6.242-2.705-9.327-2.096-6.555-4.315-13.068-6.466-19.605-2.062-6.27-4.2-12.514-6.11-18.83a163.212 163.212 0 0 1-3.36-13.11c-1.602-7.478-2.963-15.007-4.5-22.5-.853-4.16-1.854-8.288-2.79-12.43-5.673 7.304-12.4 8.004-13.545 1.31-1.3-7.61-4.84-12.55-10.012-17.25-.69-.627-.887-1.77-1.398-2.62-2.232-3.713-4.83-6.708-9.853-6.147-2.747.307-5.566-.092-8.333.105-5.54.395-10.55-.783-15.82-2.808-5.627-2.16-12.014-2.346-17.713-3.332-.422-.814-.628-1.09-.715-1.398-.625-2.245-.58-5.59-2.018-6.437-1.425-.84-4.307 1.14-6.595 1.325-2.98.242-6.747 1.05-8.854-.36-4.762-3.19-10.376-5.784-12.385-12.16-1.08-3.425-2.985-6.71-5.103-9.636-1.086-1.5-3.58-3.02-5.216-2.81-1.937.248-4.5 1.975-5.268 3.728-1.994 4.55-2.11 9.16 1.308 13.61 2.583 3.363 5.117 7.148 6.256 11.15 1.852 6.508 1.363 6.646 8.427 4.935.23 1.252.63 2.484.66 3.727.173 7.266 1.233 8.52 8.378 7.586 2.31-.302 4.713-2.147 6.466-3.896 2.37-2.363 4.152-5.314 6.937-9.01 1.07 3.077 1.938 4.833 2.276 6.686 1.017 5.565 3.015 9.597 9.77 9.788 4.295.123 8.333 7.87 6.596 11.935-2.05 4.788-1.962 10.543-6.458 14.283-.567.472-.26 1.904-.532 2.84-.533 1.844-.765 3.982-1.88 5.404-2.51 3.2-6.503 5.6-8.013 9.13-1.958 4.578-4.935 6.01-9.23 7.11-2.52.647-5.872 2.45-6.69 4.568-3.616 9.343-13.618 9.875-19.946 15.36-4.267 3.7-11.02 2.39-14.965 7.993-2.79 3.964-7.38 1.58-8.655-3.154-2.046-7.598-4.75-15.018-7.175-22.513-.162-1.146 1.52-3.086 1.148-4.477-.832-3.116-2.46-6.1-4.17-8.887-3.778-6.17-8.173-11.993-11.587-18.35-1.798-3.35-2.103-7.512-3-11.326-.373-1.584-.146-3.415-.85-4.8-5.4-10.606-11.023-21.1-16.447-31.696-2.715-5.303-5.437-6.128-11.123-2.76 4.918 12.5 10.146 24.94 14.654 37.634 1.987 5.595 7.225 10.063 5.67 17.002-1.12 4.993.378 9.462 4.356 13.05 1.157 1.044 2.212 2.76 2.37 4.267 1.625 15.513 14.077 24.405 22.124 35.916 1.902 2.722 4.122 4.478 4.034 8.29-.132 5.713 4.17 11.32 8.167 10.63 5.057-.87 9.987-2.71 14.825-4.524 3.846-1.442 7.435-3.556 11.205-5.22 2.667-1.176 3.73-.29 4.09 2.786 1.063 9.085-1.92 17.56-4.884 25.587-4.315 11.69-10.355 22.76-15.94 33.955-1.825 3.658-4.323 7.042-6.89 10.25-1.907 2.386-4.83 3.995-6.59 6.458-4.906 6.877-8.815 14.563-14.314 20.89-4.852 5.582-5.854 12.522-8.98 18.65-1.753 3.44-2.365 7.56-2.99 11.453-1.39 8.654 1.56 16.864 2.966 25.24 1.356 8.075 2.732 16.174 3.487 24.32.552 5.948-.315 12.027.225 17.978.6 6.615-2.88 11.692-7.463 14.252-8.353 4.665-12.628 12.495-18.454 19.186-4.107 4.718-3.533 9.963-2.064 15.045 3.95 13.677 1.038 21.23-7.56 27.4-3.532 2.534-4.487 5.888-4.95 10.23-.655 6.147-1.705 12.775-4.653 18.04-5.473 9.77-12.938 18.408-18.636 28.07-4.87 8.262-13.06 8.646-20.638 10.323-4.42.98-8.928.438-13.427 2.693-3.29 1.65-8.704 4.11-11.59-1.004-1.87-3.31-2.97-7.562-2.893-11.36.176-8.74-2.488-16.853-5.844-24.396-5.466-12.286-8.67-25.157-9.46-38.193-.703-11.632-5.604-21.6-8.608-32.304-1.29-4.594-4.563-8.956-4.687-13.485-.294-10.83-1.67-21.812 3.205-32.392 2.77-6.012 3.954-12.797 5.455-19.325.444-1.932-.232-4.238-.798-6.26-1.263-4.52-4.996-8.65-1.563-13.816.497-.748-.355-2.48-.742-3.71-.44-1.397-1.2-2.702-1.577-4.113-1.647-6.192-2.576-12.665-4.966-18.548-2.695-6.635-6.69-12.74-10.095-19.09-1.608-3.003-3.23-6.005-4.675-9.087-.376-.8-.495-2.113-.09-2.824 4.692-8.244 4.055-17.26 4.055-26.214 0-9.93-1.237-11.232-11.2-11.228-8.62.005-8.795.053-11.14-8.384-1.2-4.32-3.85-5.594-7.963-6.023-8.48-.886-15.517 1.758-22.027 7.08-2.213 1.81-5.753 3.57-8.29 3.12-8.428-1.496-16.662-2.953-24.322 2.163-2.778 1.855-4.33.922-6.373-1.074-3.977-3.887-8.563-7.19-12.28-11.293-3.95-4.358-8.848-8.888-10.364-14.19-2.647-9.258-6.688-17.054-13.505-23.742-2.135-2.094-4.292-5.142-4.584-7.946-.777-7.453-2.854-14.587-.324-22.655 2.437-7.773 1.574-16.682 1.552-25.09-.016-5.763-1.116-11.52-1.62-17.287-.08-.927.15-2.125.706-2.826 5.415-6.822 3.65-16.942 10.612-23.054.398-.35.243-1.278.46-1.896.902-2.565 1.586-5.25 2.836-7.638 2.124-4.06 4.53-7.98 7.003-11.84.756-1.18 1.97-2.36 3.243-2.866 7.296-2.897 14.26-12.156 13.646-19.78-.684-8.48 3.316-15.07 9.135-19.54 5.276-4.053 8.11-8.88 10.42-14.54 1.956-4.798-1.193-14.726-4.97-14.546-5.938.283-8.7-1.483-8.05-7.588.03-.286-.212-.63-.392-.905-2.366-3.62-1.905-7.18-.05-10.88 3.18-6.34 3.876-12.905 2.055-19.893-.456-1.747.447-4.792 1.803-5.818 1.542-1.168 4.293-.96 6.514-.936 1.587.017 3.158 1.01 4.75 1.054 5.163.146 10.333.11 15.498.04 5.274-.072 7.915-3.074 8.217-8.46.605-10.852-2.737-19.527-12.715-24.987-.92-.505-1.91-2.164-1.73-3.064.202-1.03 1.53-2.145 2.63-2.608 1.138-.48 2.632-.47 3.89-.24 3.867.708 7.596 1.453 7.03-4.44 5.075-.647 10.872 1.028 12.98-4.875 1.477-4.137 4.524-5.747 7.894-7.614 4.012-2.225 7.348-4.864 6.756-10.52-.402-3.834 3.01-5.07 6.257-5.79 3.068-.682 6.145-1.338 9.186-2.128 3.09-.803 3.894-2.876 2.8-5.747-.65-1.708-1.475-3.35-2.14-5.053-2.755-7.05.52-13.958 8.317-16.23 0 1.598-.193 3.013.05 4.348.295 1.62.613 3.437 1.562 4.678.924 1.213 2.906 2.736 3.976 2.45 1.513-.407 3.5-2.237 3.68-3.662.265-2.098-.712-4.436-1.48-6.556-.73-2.01-2.09-3.795-2.786-5.812-2.248-6.493-4.382-7.093-9.382-2.388-1.09 1.025-1.957 2.32-3.14 3.202-.986.736-2.32 1.54-3.44 1.463-3.94-.275-7.788-5.087-7.665-9.063.046-1.465.18-3.06-.3-4.39-3.535-9.81-1.43-16.835 7.336-22.618 2.004-1.322 4.715-2.576 6.945-2.35 4.79.492 8.29-1.07 9.192-5.866 1.047-5.564 3.495-10 7.25-14.352 2.53-2.933 8.48-5.523 4.34-11.918 2.94-1.557 5.613-3.13 8.415-4.425 10.17-4.693 20.063-10.51 32.115-7.313 1.45.385 3.49-.725 5.034-1.556 5.02-2.7 8.21-1.977 11.558 2.625 1.026 1.41 2.32 3.073 3.845 3.597 7.686 2.642 15.524 4.83 23.232 7.41 4.63 1.548 9.31 3.16 13.616 5.413 3.504 1.832 3.12 4.066.05 6.397-4.755 3.61-9.612 4.518-15.33 2.375-2.545-.954-5.558-.664-8.358-.938.75 2.235 1.192 4.642 2.328 6.66 1.355 2.41 2.987 4.878 5.094 6.588 1.755 1.424 4.37 1.788 6.046 2.413l-1.812-5.478c2.147.056 4.297.07 6.44.2.44.026.855.485 1.283.744 2.887 1.75 4.157.61 4.84-2.405 1.348-5.948 3.612-7.538 9.83-7.58 2.48-.02 5.003-.26 3.633-3.957-1.18-3.184-2.334-6.378-4.137-11.313 3.627 1.02 6.098 1.38 8.184 2.474.797.417.828 2.502 1.002 3.853.22 1.715.23 3.457.332 5.188 1.996-.635 4.147-.984 5.96-1.962 5.505-2.973 10.827-6.29 16.36-9.207.91-.48 3.17-.073 3.695.69 1.66 2.413 3.03 1.905 5.43.986 5.233-2.004 10.735-3.307 15.972-4.85l-3.118-4.952c3.368.95 6.204 2.558 8.91 2.366 8.614-.61 15.495 3.757 22.89 6.828 1.412.588 3.288.06 4.95.045-.856-1.694-1.448-3.612-2.638-5.027-1.533-1.823-4.04-2.935-5.258-4.893-3.84-6.173.006-12.283.763-18.414.09-.73.852-1.38 1.324-2.1 1.937 1.167 3.268 2.592 4.723 2.73 4.915.47 7.273 2.633 6.704 7.776-.09.818 1.037 2.34 1.84 2.53.81.19 2.33-.62 2.812-1.43 1.14-1.905 1.848-4.07 3.077-6.937.81 1.828 1.375 3.247 2.06 4.606.723 1.438 1.244 3.28 2.436 4.1 1.23.848 3.162.68 4.787.955-.187-1.3.01-2.842-.633-3.853-1.704-2.686-.65-3.722 1.98-3.854 2.947-.148 5.91-.034 9.238-.034-.246-1.294-.28-2.445-.688-3.447-2.03-5.02-1.818-5.368 3.74-5.427 1.667-.018 3.415.318 4.974-.09 1.18-.308 2.96-1.476 3.026-2.37.368-4.89 4.668-5.955 7.64-6.518 8.03-1.52 16.262-2.187 24.443-2.605 4.02-.205 6.563-1.743 8.49-5 2.757-4.66 13.748-5.96 18.278-2.668 2.238 1.626 5.2 2.576 7.972 3.073 5.02.9 10.252.794 15.182 1.987 2.432.59 4.39 3.14 6.562 4.805-1.87 2.155-3.625 4.43-5.665 6.41-.89.865-2.76.834-3.454 1.76-.546.727.027 2.296.103 3.49 2.92-.535 6.732-.103 8.573-1.806 3.975-3.677 5.21-4.072 9.492-1.156 2.388 1.626 5.538 2.268 8.437 2.978 4.074.998 8.203 1.932 12.363 2.37 4.59.482 9.262.65 13.848.3.963-.073 1.706-3.006 2.835-5.165 5.173 1.24 11.018 1.592 15.775 4.047 5.746 2.965 10.443 7.9 15.83 11.64 5.678 3.94 8.022 3.152 10.05-2.045 4.648.295 9.024.742 13.407.813 6.824.11 6.833-.006 7.295-6.693 1.067-.136 2.2-.465 3.306-.39 7.773.532 15.543 1.098 23.303 1.785 1.256.11 2.438.928 3.68 1.342 6.8 2.266 13.587 4.565 20.428 6.69.933.29 2.146-.325 3.507-.573 0-8.27.09-16.252-.02-24.232-.246-18.085-4.124-35.368-12.984-51.18-14.813-26.433-36.225-43.568-67.784-43.58-328.994-.136-657.987-.098-986.98.02-6.243.003-12.696.838-18.69 2.55-27.713 7.92-44.195 27.6-54.58 53.388-9.65 23.967-7.08 49.083-6.947 73.97 0 .27.348.54.86 1.29 3.94-1.242 8.14-2.392 12.21-3.89 6.05-2.228 11.953-4.86 18.025-7.024 5.81-2.07 11.63-3.39 17.117 1.327 1.22 1.048 3.448.93 5.216 1.327 2.72.61 5.42 1.37 8.17 1.764 5.237.748 10.625 2.272 15.728 1.65 6.218-.756 10.827 1.668 15.76 4.368 1.43.782 3.404 1.214 4.985.95 4.456-.747 9.288-3.627 13.15-2.595 7.444 1.99 13.448-1.02 19.96-2.77 2.63-.706 5.434-2.023 7.943-1.644 5.296.804 10.434 2.614 15.67 3.877 5.372 1.295 10.952 1.967 16.104 3.838 2.378.864 3.956 3.934 5.896 6.002l-.864 2.514c6.3-.555 14.135 1.032 18.56-2.14 7.688-5.51 13-6.958 20.378-.15 4.517 4.167 16.564.542 20.28-4.31 1.877-2.45 5.08-5.222 7.826-5.383 5.178-.305 7.673-2.423 11.063-6.317 7.52-8.64 15.055-17.66 27.012-24.063-2.98-1.43-5.013-2.8-7.25-3.36-2.042-.512-4.332.05-6.46-.242-1.152-.158-3.188-1.54-3.14-1.653 1.163-2.734 1.9-6.42 4.063-7.766 2.82-1.754 6.687-.465 7.22 3.526.548 4.084 3.195 4.65 5.917 4.085 1.13-.234 1.674-3.202 2.524-4.907.834-1.67 1.356-4.17 2.684-4.735 1.355-.577 3.537.712 5.325 1.284.425.136.704.69 1.078 1.02 5.214 4.602 17.657 1.423 20.586-5.608-.943.06-2.022.456-2.4.102-2.476-2.32-5.726-4.42-6.94-7.334-1.502-3.604 1.49-5.048 5.017-5.453 1.47-.17 2.73-1.72 4.202-2.384 2.58-1.163 5.178-2.72 7.9-3.062 7.22-.91 14.557-.907 21.757-1.912 10.905-1.522 21.443-5.106 32.753-4.444 10.297.604 20.658.067 30.99.072 1.34 0 2.676.236 4.747.434-1.162.894-1.492 1.33-1.91 1.442-11.13 2.97-22.226 6.1-33.427 8.78-7.742 1.852-14.715 5.103-20.883 10.002-8.564 6.804-18.285 9.16-29.066 8.95-4.885-.096-9.806 1.21-14.695 1.98-1.07.167-2.076.76-3.11 1.158l1.242 1.62c6.636 1.474 14.36-1.8 20.66 4.517-1.44.878-2.467 2.03-3.526 2.063-9.292.287-18.594.54-27.885.384-1.902-.03-4.248-1.392-5.568-2.872-3.544-3.973-4.632-4.264-6.884.398-1.118 2.314-.702 5.37-1.118 9.428-2.13 1.216-5.626 3.377-9.28 5.225-1.865.943-4.31.895-5.98 2.042-4.378 3.005-4.27 14.016.42 18.262 2.698 2.44 3.497 4.455 1.802 7.704-.567 1.087-.134 2.694-.158 4.063 1.526-.074 3.417.4 4.512-.326 3.59-2.38 7.205-4.895 10.176-7.97 1.65-1.708 2.038-4.634 2.995-7.01-1.78-.573-3.523-1.323-5.344-1.68-3.647-.712-5.238-6.146-2.01-9.027 4.44-3.96 7.064-10.406 14.18-10.974 1.643-.13 3.253-.64 4.878-.973v4.423c2.68-.946 5.568-2.683 8.554-2.872 6.65-.423 13.357-.187 20.03.076 1.092.043 2.228 1.5 3.165 2.476 2.56 2.66 4.742 5.768 7.6 8.034 2.964 2.35 6.58 3.86 9.848 5.842 3.664 2.222 4.847 4.9 2.493 9.127-2.663 4.78-1.766 4.998 3.067 7.403 3.513 1.748 6.486 5.063 8.828 8.31.54.747-2.165 4.433-3.982 6.107-1.754 1.616-4.194 2.737-6.525 3.368-1.116.302-2.9-.77-3.967-1.7-.927-.81-1.006-2.586-1.93-3.404-1.232-1.095-2.92-1.677-4.413-2.48-.82 1.824-2.517 3.78-2.26 5.438.383 2.482 2.384 4.67 3.22 7.144.56 1.654.834 3.787.262 5.35-.81 2.204-2.52 4.08-4.02 6.36l-8.49-4.866c.457 2.94 1.13 4.58.807 5.99-.283 1.23-2.252 3.267-2.52 3.126-4.404-2.31-10.2-3.9-12.637-7.64-5.886-9.03-5.233-9.377-15.362-7.36-1.13.225-2.76-.622-3.67-1.485-.34-.32.45-2.345 1.186-3.193 2.04-2.356 4.323-2.623 7.563-1.704 2.41.684 5.9-.17 8.103-1.59 3.007-1.94 5.472-4.89 7.746-7.744 1.745-2.19 3.628-4.83 3.86-7.415.103-1.165-3.66-2.677-5.895-4.184.87-4.642-3.907-9.333-9.14-8.413-3.71.652-7.512.805-11.203 1.53-1.312.26-2.984 1.285-3.518 2.42-1.85 3.924-2.935 8.23-4.985 12.027-1.103 2.044-3.342 3.84-5.49 4.875-4.057 1.954-8.417 3.278-13.946 5.35 3.098 3.324 5.713 5.737 7.79 8.547.875 1.18.616 3.2.873 4.838-1.358-.1-3.037.275-4.02-.385-3.702-2.49-6.54-2.16-9.65 1.195-.87.94-3.674.087-5.59.056.053-1.585-.072-3.205.227-4.742.182-.938 1.015-1.75 1.556-2.618l-.872-1.12c-7.018 3.892-14.123 7.634-21.02 11.73-4.11 2.438-7.815 5.546-11.834 8.15-6.918 4.48-14.883 7.703-18.965 15.538-.723 1.387-.678 3.4-.397 5.024.336 1.944 1.935 3.8 1.87 5.656-.134 3.837.89 5.698 5.017 6.438 2.69.483 5.167 2.623 7.543 4.298 5.322 3.747 9.183 9.846 16.704 9.995 2.782.056 3.675 1.005 2.466 4.16-1.283 3.348-1.36 7.157-1.965 10.765.956.6.544.874.182 1.202-3.75 3.4-.358 6.35 1.146 8.754 1.868 2.987 3.73.15 5.65-1.06 5.905-3.728 5.06-10.29 6.104-15.627.8-4.09 2.425-6 5.68-7.755 4.37-2.357 8.652-4.93 12.727-7.766 2.964-2.064 4.735-9.644 2.87-12.858-1.683-2.898-.724-4.755.744-7.23 2.496-4.208 4.95-8.56 6.547-13.156 3.082-8.875 2.88-8.997 12.19-8.853 1.334.02 2.737.283 3.99-.035 4.72-1.198 7.346 1.167 9.693 4.867 2.827 4.456 3.498 8.357 3.09 13.522-.17 2.18 1.22 5.163 2.906 6.587 1.308 1.104 4.72 1.208 6.252.248 3.442-2.153 6.304-5.24 9.39-7.958 1.024-.9 2.018-1.837 3.95-3.602 2.16 8.35 3.118 15.508 2.662 22.98-.174 2.866.532 6.023 1.714 8.653.886 1.97 3.096 3.403 4.854 4.914 6.29 5.4 7.514 14.34 4.097 21.897-1.67 3.696-1.633 8.296-1.77 12.506-.084 2.59 1.362 4.617 4.57 4.963 1.05.113 2.643 1.71 2.762 2.768.368 3.265.438 6.63.063 9.89-.32 2.782-1.69 5.083-5.29 4.218-5.546-1.332-11.063-2.85-16.67-3.836-3.546-.624-4.557-1.836-2.56-4.825 1.568-2.345 3.697-4.322 5.213-6.695 2.39-3.74 4.474-7.676 6.688-11.528l-1.544-1.372c-3.774 1.434-7.45 3.64-11.345 4.14-7.87 1.005-15.858 1.197-23.807 1.51-5.964.23-8.41 1.952-9.46 7.777 1.75.27 3.485.65 5.238.787 3.337.26 5.21 1.127 3.096 4.94-1.44 2.6-2.384 5.474-3.56 8.22-2.17 5.078.895 10.603 6.262 10.044 3.99-.415 7.785-2.723 12.538-4.515 1.307 1.358.798 3.395-1.826 4.95-7.273 4.31-14.575 8.58-21.986 12.644-1.06.58-2.98.306-4.123-.295-.544-.287-.268-2.27-.234-3.48.022-.78.278-1.557.555-2.98-1.583 0-2.928-.343-3.983.063-4.012 1.542-8.205 2.882-11.823 5.12-6.24 3.857-11.437 8.687-11.087 17.09.044 1.068-1.296 2.748-2.39 3.212-4.352 1.847-9.04 2.97-13.243 5.075-2.363 1.185-4.082 3.716-5.984 5.74-1.82 1.935-3.512 3.99-5.238 6.01-1.215 1.424-2.77 2.708-3.52 4.352-2.527 5.54-6.157 10.773-5.24 17.425.125.904-.936 2.132-1.707 2.972-3.142 3.423-6.02 7.232-9.665 10.022-8.372 6.407-15.752 13.577-22.045 22.112-4.32 5.858-4.04 11.897-3.732 18.445.354 7.507.082 15.05-.12 22.572-.028 1.025-1.226 2.02-1.882 3.028-.982-.777-2.25-1.37-2.903-2.364-3.798-5.804-3.96-12.32-2.75-18.786.752-4.03-.23-7.178-3.462-9.076-3.888-2.283-8.183-3.894-12.377-5.612-.792-.324-1.936.204-2.916.35-2.282.336-4.665.376-6.82 1.096-2.67.892-5.094 2.49-7.73 3.517-2.12.825-4.86 2.36-6.524 1.664-7.305-3.052-12.163-2.613-18.01 2.6-3.603 3.213-7.183 6.462-10.928 9.505-5.288 4.297-7.37 9.725-7.68 16.52-.25 5.517-1.934 10.98-3.112 16.436-.842 3.902-3.072 7.91-2.593 11.598.745 5.733 3.08 11.304 5.083 16.818 2.455 6.764 7.953 11.22 12.64 9.872 4.377-1.26 8.506-3.437 12.672-5.365 3.316-1.535 4.985-4.146 4.9-7.957-.114-5.243 4.008-7.55 7.788-9.36 1.89-.907 4.943-.216 7.062.698.61.264.135 3.913-.416 5.848-2.882 10.136-5.99 20.207-8.87 30.343-.23.805.486 2.65 1.05 2.782 3.514.816 7.68 2.716 10.56 1.568 6.13-2.444 8.942 1.67 12.53 4.51.742.588 1.03 2.364.814 3.453-1.792 9.1-4.004 18.238-1.71 27.48 1.14 4.592 3.187 9.06 5.458 13.24 1.627 2.992 4.276 3.45 7.6 1.278 5.293-3.46 10.084-2.426 13.805 1.824 1.537 1.755 3.705 2.956 5.586 4.41 1.77-2.35 3.612-4.65 5.266-7.078.413-.606-.034-1.78.36-2.42 2.023-3.284 3.702-6.998 6.432-9.575 3.568-3.37 7.98-5.854 12.1-8.62.712-.478 1.762-.455 2.657-.664.11 1.012.383 2.038.29 3.03-.116 1.234-.534 2.44-.82 3.656l2.69 2.047c1.23-3.006 2.46-6.012 3.692-9.018l1.24 2.745c2.754 2.087 5.284 4.64 8.335 6.114 2.43 1.174 5.793.423 8.223 1.6 6.567 3.182 12.915 3.77 19.38-.268.988 1.85 1.5 3.51 2.56 4.668 4.347 4.754 8.89 9.328 13.297 14.03 1.23 1.31 2.462 2.71 3.3 4.278 4.79 8.97 11.14 15.29 22.354 14.163 1.392-.14 3.056.3 4.282 1.01 8.174 4.722 12.037 12.287 13.95 21.23 1.202 5.612 2.85 11.133 4.37 16.675.16.58.815 1.028 1.247 1.533 2.442 2.855 4.888 5.71 7.567 8.84 4.51-1.337 16.21 3.21 17.71 7.857 1.563 4.85 5.297 6.054 9.45 6.634 2.78.387 5.677.298 8.485.04 4.148-.382 7.477.937 10.318 3.892 4.584 4.767 8.772 10.066 13.96 14.06 6.467 4.98 8.426 11.768 6.61 18.42-2.714 9.938-7.308 19.393-11.437 28.908-3.044 7.016-8.646 13.26-5.573 21.843.302.843-.126 1.952-.233 2.936-.717 6.58-1.43 13.16-2.165 19.738-.22 1.964-.425 3.936-.786 5.875-.624 3.356-1.952 6.692-1.943 10.035.022 8.905-3.57 15.765-10.694 20.785-5.69 4.01-11.666 7.605-17.374 11.587-6.495 4.53-11.588 9.896-10.13 18.842.37 2.273.02 4.658.064 6.99.145 7.71-1.746 14.52-8.27 19.413-.747.562-1.38 1.535-1.643 2.44-1.092 3.75-1.72 7.66-3.08 11.3-2.008 5.36-4.035 10.808-6.904 15.724-3.034 5.198-4.116 4.933-9.08 1.63-2.074-1.38-4.608-2.07-6.934-3.072-.515.61-1.03 1.224-1.543 1.836 1.967 3.65 4 7.27 5.878 10.965 1.09 2.144 2.865 4.474 2.73 6.617-.62 9.665-3.917 13.47-13.684 14.672-6.063.746-6.715 1.107-6.02 7.3.48 4.256-2.6 8.053-6.88 7.74-3.847-.282-5.104 1.66-4.48 4.685.522 2.534 2.14 4.857 3.365 7.226.703 1.36 2.55 2.942 2.24 3.88-1.87 5.66.416 12.392-5.006 17.318-1.332 1.21-.77 5.537.17 7.94 1.103 2.815 3.612 5.066 5.428 7.62.734 1.033 1.95 2.375 1.745 3.316-1.247 5.752-2.52 11.536-4.41 17.1-1.67 4.915-.957 9.16 1.9 13.2 4.81 6.8 9.788 13.364 18.622 15.443 2.318.546 2.923 2.557.56 3.902-2.21 1.26-4.904 2.82-7.193 2.56-4.82-.55-9.798-1.576-14.19-3.56-6.475-2.924-12.688-6.575-16.327-13.257-1.502-2.76-3.494-5.246-5.065-7.972-3.21-5.568-6.136-11.307-9.47-16.8-2.196-3.614-4.303-6.952-2.475-11.47.462-1.144.098-3.567-.74-4.13-4.434-2.97-3.433-7.153-3.35-11.363.05-2.508-.828-5.034-1.396-8.14 7.406-1.936 3.255-7.384 3.114-10.56-2.816-2.185-6.035-3.403-6.376-5.176-1.24-6.444-1.445-13.084-2.2-19.632-.278-2.406-.553-4.984-1.606-7.098-3.645-7.316-3.52-14.934-2.763-22.758.875-9.046 1.47-18.12 2.084-27.188.086-1.27-.325-2.603-.645-3.87-1.32-5.22-3.715-10.394-3.866-15.637-.676-23.575 1.13-47.23-2.318-70.71-.495-3.37-1.094-7.28-3.104-9.76-4.418-5.454-9.95-9.985-14.683-15.206-3.97-4.378-9.85-6.605-11.835-13.373-2.442-8.323-6.615-16.15-10.2-24.123-3.804-8.465-7.8-16.844-11.7-25.267-1.384-2.988-2.135-6.516-4.21-8.894-5.99-6.86-7.293-18.337-2.008-25.393 1.74-2.322 1.297-3.682-.063-6.094-1.567-2.78-2.896-6.59-2.296-9.54 2.167-10.638 7.15-20.11 13.325-29.096 2.286-3.326 3.565-7.774 4.01-11.852 1.1-10.112.3-20.2-4.133-29.55-.876-1.848-3.648-4.024-5.37-3.884-1.605.13-3.313 2.97-4.337 4.946-.753 1.454-.478 3.44-.576 4.385-4.74-2.032-8.772-3.716-12.755-5.51-.712-.32-1.273-1.046-1.813-1.665-3.39-3.88-6.873-7.688-10.05-11.736-1.037-1.32-1.16-3.325-1.855-4.952-2.502-5.866-4.966-11.754-7.722-17.5-.418-.874-2.287-1.097-3.518-1.526-4.473-1.562-9.43-2.352-13.302-4.838-3.44-2.208-6.017-6.057-8.372-9.584-3.39-5.08-8.277-8.167-11.79-5.784-3.906 2.65-7.037 2.032-10.553-.16-2.953-1.844-6.198-3.276-8.95-5.368-7.764-5.9-15.545-11.813-22.9-18.202-3.504-3.043-4.36-7.117-2.814-12.208 1.267-4.172 1.268-9.283.08-13.484-1.118-3.96-4.874-7.096-6.835-10.92-3.078-6-10.18-10.51-7.184-18.966.448-1.265-.49-3.346-1.345-4.694-5.15-8.108-8.305-16.743-8.678-26.48-.054-1.426-3.37-2.726-5.176-4.082-.89 1.33-2.623 2.73-2.52 3.98.375 4.558 1.025 9.154 2.182 13.577 3.434 13.126 7.203 26.164 10.71 39.27.43 1.59.062 3.386.062 5.084zM689.523 385.64c.36-1.792.422-2.904.81-3.888 2.746-6.936 1.808-10.884-4.028-15.6-2.572-2.078-5.394-3.846-8.006-5.878-5.817-4.52-10.843-9.65-12.71-17.13-1.058-4.236-6.554-5.858-9.98-2.96-2.02 1.71-4.15 3.323-5.946 5.247-2.112 2.265-3.918 2.387-6.465.564-3.585-2.564-10.463.063-10.23 4.306.36 6.494-4.305 8.36-8.012 11.484-4.594 3.872-7.662 8.863-7.968 14.897-.345 6.813-7.143 15.378-13.9 17.022-2.652.646-5.093 2.126-7.688 3.067-3.996 1.448-3.528 4.89-2.537 7.468.564 1.47 3.437 2.352 5.434 2.89 2.208.596 4.666.914 6.902.584 2.255-.332 4.627-1.243 6.486-2.556 2.683-1.894 4.602-5.467 7.466-6.377 5.56-1.768 11.547-2.19 17.36-3.147 1.78-.293 3.595-.407 5.354-.783 2.996-.64 5.935-1.59 8.95-2.1 2.93-.497 5.953-.984 8.88-.76 2.24.17 6.135 1.207 6.29 2.29.735 5.1 3.846 10.462.1 15.515-2.424 3.268-1.664 5.77 1.18 8.115 2.454 2.02 4.708 5.306 7.42 5.745 4.003.647 7.005 1.474 9.756 4.768 2.446 2.928 5.897 5.177 9.244 7.15 4.27 2.517 8.808 4.636 13.396 6.523 1.237.508 3.547.048 4.504-.867.938-.897 1.57-3.44.968-4.395-2.597-4.116-.11-7.24 2.198-9.553 3.116-3.123 7.433-4.805 11.906-2.528 8.2 4.17 16.206 8.733 24.452 12.81 1.615.797 4.002.393 5.95.062 2.138-.363 4.146-1.7 6.27-1.873 3.975-.324 8.062.33 11.963-.293 2.336-.372 5.61-1.885 6.4-3.756 4.23-10.015 8.912-20.096 7.2-31.453-.308-2.047-1.457-4.642-3.05-5.598-1.172-.703-3.786.66-5.605 1.45-3.24 1.408-5.825 5.543-10.087 2.037-3.726-3.066-7.448-4.727-9.89.154-4.47-1.812-8.384-3.25-12.143-5.02-.988-.466-1.99-1.884-2.14-2.98-.897-6.547-4.81-12.354-4.343-19.328.122-1.826-2.285-4.23-4.118-5.558-.648-.47-3.056 1.463-4.644 2.328-1.236.673-2.38 1.604-3.69 2.033-1.51.493-3.16.562-4.748.814.638 1.6 1.128 3.282 1.957 4.776.8 1.44 1.832 2.798 2.967 4 2.226 2.356 2.335 4.62.182 7.055-.768.867-1.362 1.884-2.09 2.79-1.188 1.48-2.422 2.928-3.637 4.39-1.348-1.775-3.78-3.526-3.822-5.33-.09-3.967-2.12-6.09-4.968-8.024-3.91-2.654-6.37-6.832-5.268-11.01 1.51-5.723-1.296-8.645-4.675-11.978-7.875-7.767-18.108-13.493-21.504-25.214-.387-1.337-3.112-2.21-4.916-2.803-.586-.193-2.462 1.23-2.433 1.85.19 3.875-.608 8.798 1.435 11.4 6.874 8.76 12.41 19.033 24.152 24.093-5.595 1.173-7.332 3.336-5.193 8.35 1.538 3.607-1.986 8.677-7.1 10.71zm24.764-141.257c1.04.916 1.778 1.945 2.77 2.346 1.502.605 4.262 1.493 4.59 1 1.14-1.718 1.732-3.948 1.974-6.048.098-.85-1.23-1.876-1.937-2.8-2.36-3.08-1.7-5.164 2.1-5.78 2.276-.37 4.658-.046 6.974-.25 2.615-.228 5.367-.292 7.75-1.22 1.374-.533 2.137-2.635 3.173-4.03-1.414-.988-2.925-2.933-4.228-2.802-5.977.6-12.06 1.223-17.782 2.925-4.745 1.41-8.958-.393-9.308-5.436-.148-2.154.408-4.473-.2-6.458-2.15-7.033.96-11.347 6.578-14.99 2.44-1.58 4.41-3.994 6.275-6.29.67-.823.797-2.554.413-3.588-.218-.586-1.98-.842-3.04-.822-2.473.047-4.944.535-7.41.502-3.176-.044-4.72 1.202-4.415 4.454.382 4.094-1.688 6.498-5.297 8.048-5.51 2.366-8.71 7.067-9.644 12.542-.606 3.56-2.673 8.272 2.38 11.168 4.853 2.78 4.82 4.36.765 8.42-3.356 3.36-7.298 6.367-5.13 12.39.566 1.575-1.103 4.466-2.498 6.114-2.024 2.39-4.732 4.198-7.586 6.627-.68-.24-2.19-1.33-3.42-1.073-1.705.358-3.738 1.377-4.638 2.76-.954 1.467-.746 3.69-1.046 5.583 1.493-.118 2.985-.278 4.482-.34.975-.04 2.207-.305 2.893.163 4.918 3.355 8.742.098 12.896-1.788 1.69-.766 4.668-1.842 5.368-1.125 5.054 5.17 8.395.597 12.06-1.753 2.164-1.387 3.035-3 1.274-5.794-2.67-4.23-1.48-8.86 2.865-12.657zm70.746 87.586c2.047-2.56 4.245-5.03 6.075-7.75.618-.92.58-2.535.29-3.694-.135-.53-1.642-1.105-2.454-1.017-4.77.525-10.256 6.068-10.498 10.92-.173 3.474-1.05 5.862-4.98 5.94-3.836.077-6.25-2.174-6.35-5.605-.132-4.588-2.473-7.092-6.316-6.115-2.817.716-5.744 3.555-7.272 6.22-2.574 4.49-4.336 9.513-5.943 14.472-1.133 3.497-2.148 7.306-1.916 10.89.207 3.203 12.236 7.71 15.418 6.293 2.706-1.205 5.263-3.218 8.066-3.622 4.427-.64 10.353-2.056 13.255.09 7.494 5.54 15.433 3.968 23.347 3.91 1.69-.01 4.215-1.86 4.807-3.442.56-1.5-.388-4.195-1.573-5.612-6.745-8.068-13.12-16.64-23.394-20.76-.116-.05-.153-.287-.563-1.12zm78.007 63.55c1.802 0 3.88.54 5.387-.154 1.48-.682 3.658-3.24 3.334-3.908-2.978-6.126-.275-14.11-6.67-19.183-2.996-2.376-3.113-5.306 1.265-7.194 1.16-.5 2.7-2.77 2.385-3.515-.726-1.71-2.318-3.95-3.864-4.22-2.652-.46-3.842-1.38-4.127-3.94-.085-.75-.562-1.58-1.1-2.138-3.175-3.29-6.515-6.424-9.616-9.778-2.867-3.102-1.743-6.092 2.196-7.48 2.054-.726 5.38-2.413 5.348-3.588-.084-3.035-.98-6.652-2.89-8.9-3.592-4.232-6.42-3.79-9.434-.136-2.683 3.25-5.822 6.126-8.495 9.385-1.924 2.344-5.054 5.266-4.747 7.54.613 4.548 2.64 9.193 5.138 13.13 3.245 5.11 7.58 9.52 11.29 14.353.67.873.937 2.358.8 3.49-.31 2.55-.626 5.204-1.59 7.55-2.663 6.487-2.368 10.93 4.873 14.923 3.523 1.94 6.29 4.31 10.517 3.763zm35.34-225.705c-.715 4-1.28 7.628-2.044 11.217-.33 1.554-1.064 3.022-1.615 4.53 1.787.544 3.693 1.726 5.32 1.42 1.15-.218 2.066-2.372 2.812-3.806.583-1.12.595-2.528 1.12-3.69 1.925-4.273-.867-8.966-5.59-9.67zm277.273 202.54c-8.714 8.053-8.727 10.113 0 13.858v-13.86zM889.87 157.894c.73 3.024 1.07 5.63 2.103 7.926.28.626 3.598.867 3.903.342 2.19-3.762-.534-7.997-6.005-8.268z"/><path fill="#FFF" d="M74.75 495.937c0-1.697.366-3.493-.058-5.077-3.51-13.106-7.277-26.145-10.71-39.27-1.158-4.424-1.808-9.02-2.183-13.58-.104-1.248 1.628-2.648 2.52-3.978 1.806 1.356 5.12 2.656 5.175 4.08.373 9.74 3.528 18.374 8.677 26.482.856 1.35 1.793 3.43 1.345 4.694-2.997 8.456 4.106 12.967 7.184 18.966 1.962 3.824 5.718 6.96 6.837 10.92 1.187 4.2 1.186 9.313-.08 13.484-1.546 5.09-.69 9.165 2.812 12.208 7.354 6.39 15.136 12.3 22.9 18.202 2.75 2.092 5.997 3.524 8.95 5.367 3.516 2.193 6.646 2.812 10.553.16 3.513-2.382 8.4.706 11.79 5.785 2.356 3.527 4.933 7.376 8.373 9.584 3.872 2.486 8.83 3.276 13.302 4.838 1.23.43 3.1.652 3.518 1.525 2.756 5.747 5.22 11.635 7.722 17.5.694 1.628.818 3.633 1.855 4.953 3.177 4.048 6.66 7.855 10.05 11.736.54.62 1.1 1.346 1.812 1.666 3.982 1.793 8.014 3.477 12.755 5.51.098-.944-.178-2.932.576-4.386 1.024-1.978 2.73-4.816 4.336-4.946 1.722-.14 4.495 2.036 5.37 3.884 4.434 9.35 5.233 19.438 4.133 29.55-.444 4.077-1.724 8.525-4.01 11.852-6.172 8.984-11.156 18.458-13.324 29.097-.6 2.948.73 6.758 2.297 9.54 1.36 2.41 1.803 3.77.063 6.093-5.285 7.056-3.982 18.533 2.007 25.393 2.076 2.377 2.827 5.904 4.21 8.893 3.9 8.423 7.897 16.802 11.702 25.267 3.582 7.972 7.756 15.8 10.198 24.123 1.985 6.768 7.866 8.995 11.834 13.374 4.732 5.22 10.265 9.752 14.683 15.205 2.01 2.48 2.61 6.39 3.104 9.762 3.446 23.48 1.642 47.134 2.317 70.71.15 5.242 2.547 10.417 3.865 15.635.32 1.268.73 2.6.645 3.87-.615 9.068-1.21 18.142-2.085 27.188-.757 7.824-.882 15.44 2.763 22.758 1.053 2.113 1.328 4.69 1.606 7.098.756 6.548.96 13.188 2.2 19.633.342 1.772 3.56 2.99 6.377 5.176.14 3.176 4.292 8.624-3.115 10.56.57 3.105 1.447 5.632 1.397 8.14-.085 4.21-1.086 8.393 3.35 11.364.836.562 1.2 2.985.738 4.128-1.828 4.52.28 7.856 2.474 11.472 3.334 5.492 6.26 11.23 9.47 16.8 1.572 2.726 3.564 5.213 5.066 7.972 3.64 6.68 9.852 10.332 16.327 13.256 4.393 1.983 9.37 3.01 14.19 3.56 2.29.262 4.982-1.3 7.194-2.56 2.36-1.347 1.757-3.357-.562-3.903-8.834-2.08-13.812-8.644-18.622-15.444-2.857-4.04-3.57-8.285-1.9-13.2 1.89-5.564 3.163-11.348 4.41-17.1.204-.94-1.01-2.283-1.745-3.316-1.814-2.554-4.324-4.805-5.426-7.62-.94-2.403-1.503-6.73-.172-7.94 5.422-4.927 3.137-11.66 5.006-17.317.31-.938-1.537-2.52-2.24-3.88-1.226-2.368-2.843-4.69-3.365-7.226-.623-3.022.634-4.966 4.48-4.685 4.28.313 7.36-3.483 6.88-7.74-.695-6.19-.044-6.553 6.02-7.3 9.768-1.203 13.065-5.007 13.684-14.672.137-2.144-1.64-4.474-2.73-6.618-1.878-3.696-3.91-7.314-5.877-10.965l1.542-1.836c2.325 1.003 4.86 1.693 6.935 3.073 4.963 3.302 6.045 3.567 9.08-1.632 2.868-4.916 4.895-10.364 6.902-15.725 1.36-3.64 1.988-7.55 3.08-11.3.264-.904.896-1.878 1.644-2.44 6.522-4.892 8.413-11.7 8.27-19.41-.045-2.334.305-4.72-.065-6.992-1.46-8.945 3.634-14.31 10.13-18.842 5.707-3.98 11.685-7.578 17.372-11.587 7.124-5.022 10.717-11.88 10.694-20.786-.01-3.343 1.32-6.68 1.943-10.035.36-1.94.565-3.912.785-5.876.735-6.578 1.448-13.16 2.165-19.74.107-.982.535-2.092.233-2.935-3.073-8.583 2.53-14.828 5.573-21.844 4.13-9.516 8.723-18.97 11.437-28.908 1.815-6.652-.144-13.44-6.61-18.42-5.188-3.993-9.376-9.293-13.96-14.06-2.842-2.955-6.17-4.273-10.318-3.893-2.81.26-5.704.348-8.484-.04-4.153-.58-7.887-1.785-9.45-6.634-1.5-4.647-13.2-9.193-17.71-7.856-2.68-3.13-5.125-5.984-7.568-8.84-.432-.505-1.088-.952-1.247-1.533-1.52-5.54-3.168-11.062-4.37-16.675-1.913-8.942-5.776-16.508-13.95-21.23-1.227-.708-2.89-1.147-4.28-1.008-11.215 1.127-17.564-5.193-22.355-14.163-.838-1.568-2.07-2.968-3.3-4.278-4.406-4.702-8.95-9.276-13.298-14.03-1.06-1.158-1.57-2.818-2.558-4.668-6.466 4.036-12.814 3.45-19.38.268-2.43-1.177-5.793-.426-8.224-1.6-3.05-1.477-5.582-4.028-8.336-6.115l-1.24-2.745-3.69 9.018-2.692-2.048c.288-1.217.706-2.422.82-3.655.094-.993-.178-2.02-.288-3.03-.895.208-1.944.185-2.658.664-4.118 2.765-8.53 5.25-12.1 8.62-2.73 2.576-4.408 6.29-6.43 9.573-.395.64.052 1.814-.36 2.42-1.655 2.43-3.496 4.73-5.267 7.078-1.882-1.453-4.05-2.654-5.586-4.41-3.72-4.25-8.51-5.282-13.806-1.823-3.323 2.172-5.972 1.714-7.6-1.28-2.27-4.178-4.317-8.646-5.457-13.24-2.293-9.24-.08-18.378 1.71-27.478.216-1.09-.07-2.865-.814-3.453-3.587-2.84-6.4-6.953-12.53-4.51-2.878 1.148-7.045-.75-10.56-1.567-.562-.13-1.28-1.978-1.05-2.782 2.882-10.135 5.99-20.206 8.87-30.342.55-1.935 1.026-5.584.417-5.848-2.12-.914-5.17-1.605-7.062-.7-3.78 1.813-7.9 4.12-7.786 9.362.083 3.812-1.585 6.422-4.9 7.957-4.168 1.928-8.296 4.105-12.674 5.364-4.686 1.347-10.184-3.108-12.64-9.872-2-5.515-4.337-11.085-5.082-16.818-.48-3.688 1.75-7.695 2.593-11.597 1.18-5.457 2.863-10.92 3.114-16.435.31-6.797 2.392-12.225 7.68-16.52 3.744-3.044 7.324-6.293 10.928-9.506 5.847-5.213 10.705-5.65 18.01-2.6 1.664.694 4.403-.84 6.524-1.665 2.635-1.024 5.06-2.624 7.73-3.516 2.154-.72 4.537-.76 6.82-1.097.98-.145 2.123-.673 2.915-.35 4.195 1.72 8.49 3.33 12.378 5.613 3.233 1.898 4.215 5.047 3.46 9.076-1.208 6.467-1.046 12.982 2.752 18.786.65.995 1.92 1.587 2.904 2.364.656-1.01 1.854-2.003 1.88-3.028.204-7.522.476-15.065.122-22.573-.31-6.548-.588-12.587 3.732-18.445 6.293-8.535 13.673-15.705 22.045-22.112 3.646-2.79 6.523-6.6 9.665-10.023.77-.84 1.832-2.067 1.707-2.972-.917-6.65 2.713-11.884 5.24-17.425.75-1.644 2.304-2.928 3.52-4.352 1.726-2.02 3.42-4.075 5.238-6.01 1.903-2.024 3.622-4.556 5.984-5.74 4.204-2.106 8.89-3.23 13.243-5.075 1.094-.463 2.435-2.143 2.39-3.21-.35-8.403 4.847-13.233 11.087-17.092 3.618-2.237 7.81-3.577 11.823-5.12 1.056-.404 2.4-.06 3.984-.06-.276 1.422-.532 2.197-.555 2.98-.034 1.21-.31 3.19.234 3.477 1.144.6 3.064.876 4.123.295 7.41-4.064 14.713-8.333 21.986-12.643 2.624-1.556 3.133-3.593 1.826-4.952-4.754 1.792-8.548 4.1-12.54 4.515-5.366.56-8.43-4.966-6.26-10.044 1.175-2.746 2.118-5.62 3.56-8.22 2.112-3.813.24-4.68-3.096-4.94-1.753-.14-3.487-.517-5.24-.788 1.053-5.825 3.498-7.546 9.462-7.778 7.948-.312 15.936-.504 23.808-1.51 3.895-.498 7.57-2.705 11.345-4.14l1.544 1.373c-2.214 3.853-4.298 7.788-6.688 11.528-1.516 2.374-3.645 4.352-5.213 6.697-1.997 2.99-.986 4.2 2.56 4.825 5.607.986 11.124 2.504 16.67 3.836 3.6.865 4.97-1.436 5.29-4.217.375-3.26.305-6.625-.063-9.89-.12-1.057-1.71-2.654-2.763-2.768-3.207-.346-4.653-2.373-4.57-4.963.138-4.21.1-8.81 1.77-12.507 3.418-7.56 2.195-16.496-4.096-21.898-1.758-1.51-3.968-2.943-4.853-4.914-1.182-2.63-1.888-5.786-1.714-8.65.456-7.475-.503-14.634-2.662-22.982-1.932 1.765-2.925 2.7-3.948 3.602-3.087 2.718-5.948 5.805-9.39 7.958-1.534.96-4.945.855-6.253-.248-1.69-1.424-3.077-4.408-2.906-6.587.407-5.165-.264-9.066-3.09-13.522-2.35-3.7-4.975-6.064-9.695-4.866-1.253.318-2.656.057-3.99.035-9.312-.146-9.108-.023-12.19 8.852-1.597 4.596-4.05 8.948-6.546 13.156-1.468 2.476-2.427 4.332-.745 7.23 1.865 3.215.095 10.795-2.87 12.857-4.074 2.835-8.357 5.408-12.728 7.766-3.254 1.756-4.88 3.666-5.68 7.755-1.042 5.338-.198 11.9-6.103 15.626-1.92 1.212-3.783 4.05-5.65 1.062-1.505-2.405-4.895-5.354-1.147-8.754.362-.328.773-.603-.182-1.202.605-3.607.683-7.417 1.966-10.764 1.21-3.156.316-4.105-2.466-4.16-7.52-.15-11.382-6.25-16.704-9.996-2.377-1.675-4.853-3.814-7.543-4.298-4.125-.74-5.15-2.602-5.017-6.438.065-1.855-1.533-3.712-1.87-5.656-.28-1.623-.326-3.638.396-5.024 4.082-7.835 12.047-11.06 18.965-15.54 4.02-2.603 7.726-5.71 11.834-8.15 6.897-4.094 14.003-7.836 21.02-11.727l.873 1.12c-.54.867-1.374 1.68-1.556 2.617-.3 1.537-.174 3.157-.228 4.742 1.916.03 4.72.884 5.59-.056 3.11-3.355 5.948-3.687 9.65-1.195.982.66 2.66.286 4.02.386-.257-1.638.002-3.657-.872-4.838-2.078-2.81-4.693-5.223-7.79-8.547 5.528-2.07 9.89-3.395 13.946-5.35 2.147-1.034 4.387-2.83 5.49-4.874 2.05-3.797 3.137-8.104 4.985-12.028.532-1.134 2.205-2.16 3.517-2.418 3.69-.727 7.492-.88 11.202-1.53 5.232-.92 10.01 3.77 9.14 8.412 2.233 1.507 5.998 3.02 5.894 4.185-.23 2.584-2.114 5.225-3.86 7.415-2.273 2.854-4.738 5.805-7.745 7.744-2.203 1.42-5.694 2.273-8.104 1.59-3.24-.92-5.523-.652-7.562 1.704-.735.85-1.526 2.872-1.187 3.193.91.863 2.54 1.71 3.67 1.485 10.13-2.017 9.478-1.67 15.363 7.36 2.438 3.738 8.232 5.33 12.636 7.64.27.14 2.237-1.896 2.52-3.126.325-1.41-.35-3.05-.807-5.99l8.49 4.866c1.5-2.28 3.21-4.156 4.02-6.36.572-1.563.298-3.695-.262-5.35-.836-2.474-2.837-4.66-3.22-7.144-.257-1.656 1.438-3.613 2.26-5.437 1.493.802 3.18 1.384 4.414 2.478.923.818 1.002 2.594 1.93 3.403 1.064.93 2.85 2.003 3.966 1.7 2.33-.63 4.77-1.75 6.526-3.367 1.817-1.674 4.52-5.36 3.982-6.106-2.342-3.246-5.315-6.562-8.828-8.31-4.833-2.405-5.73-2.623-3.067-7.403 2.355-4.225 1.172-6.904-2.492-9.126-3.268-1.98-6.884-3.493-9.847-5.842-2.857-2.267-5.04-5.373-7.6-8.034-.938-.976-2.073-2.433-3.166-2.476-6.672-.264-13.378-.5-20.03-.075-2.984.19-5.872 1.926-8.553 2.872v-4.424c-1.624.334-3.234.842-4.876.973-7.117.566-9.74 7.014-14.18 10.973-3.23 2.88-1.638 8.315 2.008 9.027 1.82.356 3.564 1.106 5.344 1.68-.957 2.376-1.346 5.302-2.995 7.01-2.97 3.075-6.586 5.59-10.175 7.97-1.095.727-2.986.252-4.513.327.024-1.37-.41-2.977.158-4.063 1.695-3.25.896-5.264-1.8-7.704-4.69-4.246-4.8-15.257-.422-18.262 1.67-1.146 4.115-1.1 5.98-2.043 3.654-1.848 7.15-4.01 9.28-5.225.416-4.06 0-7.113 1.118-9.428 2.252-4.662 3.34-4.37 6.884-.398 1.32 1.48 3.666 2.84 5.568 2.872 9.29.156 18.593-.097 27.886-.384 1.06-.032 2.085-1.186 3.527-2.063-6.3-6.316-14.024-3.044-20.66-4.517-.414-.54-.83-1.08-1.243-1.62 1.035-.398 2.04-.992 3.11-1.16 4.89-.77 9.812-2.074 14.697-1.98 10.78.21 20.502-2.145 29.066-8.95 6.168-4.897 13.14-8.15 20.883-10.002 11.2-2.68 22.296-5.81 33.428-8.778.418-.11.748-.55 1.91-1.442-2.07-.197-3.408-.433-4.746-.434-10.333-.005-20.694.53-30.99-.072-11.31-.662-21.85 2.922-32.754 4.444-7.2 1.005-14.538 1.003-21.757 1.912-2.723.343-5.32 1.898-7.9 3.062-1.473.664-2.734 2.214-4.203 2.383-3.527.405-6.52 1.85-5.016 5.453 1.214 2.914 4.464 5.013 6.94 7.334.377.354 1.456-.04 2.398-.102-2.93 7.03-15.372 10.21-20.586 5.61-.374-.33-.653-.886-1.078-1.022-1.788-.572-3.97-1.86-5.325-1.284-1.327.566-1.85 3.064-2.684 4.735-.852 1.704-1.395 4.672-2.525 4.907-2.722.566-5.37 0-5.916-4.085-.536-3.99-4.4-5.28-7.222-3.525-2.163 1.347-2.9 5.03-4.062 7.766-.048.113 1.987 1.495 3.14 1.654 2.127.293 4.417-.27 6.46.242 2.236.56 4.27 1.93 7.25 3.36-11.958 6.402-19.492 15.424-27.014 24.062-3.39 3.895-5.885 6.013-11.063 6.317-2.748.16-5.95 2.93-7.826 5.38-3.717 4.854-15.764 8.48-20.28 4.312-7.377-6.808-12.69-5.36-20.38.15-4.424 3.172-12.26 1.585-18.56 2.14.29-.838.577-1.676.865-2.514-1.94-2.068-3.52-5.138-5.897-6-5.153-1.872-10.732-2.544-16.105-3.84-5.235-1.262-10.373-3.072-15.67-3.876-2.508-.38-5.313.938-7.94 1.644-6.514 1.75-12.52 4.76-19.962 2.77-3.862-1.03-8.694 1.85-13.15 2.595-1.58.266-3.556-.166-4.985-.948-4.933-2.7-9.54-5.124-15.76-4.367-5.102.62-10.49-.903-15.727-1.65-2.75-.395-5.45-1.154-8.17-1.765-1.768-.396-3.997-.28-5.215-1.327-5.486-4.716-11.306-3.398-17.117-1.328-6.07 2.163-11.975 4.797-18.025 7.024-4.07 1.497-8.27 2.646-12.208 3.89-.514-.75-.86-1.02-.86-1.292-.134-24.886-2.704-50.002 6.947-73.97C45.318 67.373 61.8 47.69 89.514 39.772c5.993-1.71 12.446-2.546 18.688-2.548 328.994-.12 657.987-.157 986.98-.022 31.56.013 52.97 17.148 67.784 43.582 8.86 15.81 12.738 33.094 12.985 51.18.11 7.98.02 15.963.02 24.23-1.36.25-2.574.865-3.506.575-6.84-2.126-13.63-4.426-20.427-6.692-1.242-.414-2.425-1.23-3.68-1.342-7.76-.688-15.53-1.253-23.303-1.785-1.104-.075-2.238.254-3.306.39-.462 6.688-.47 6.803-7.295 6.693-4.383-.07-8.76-.517-13.407-.812-2.027 5.197-4.372 5.985-10.05 2.044-5.387-3.74-10.084-8.674-15.83-11.64-4.758-2.454-10.603-2.807-15.775-4.045-1.128 2.16-1.87 5.092-2.834 5.165-4.586.352-9.26.183-13.848-.3-4.16-.438-8.29-1.372-12.363-2.37-2.898-.71-6.05-1.352-8.437-2.978-4.283-2.916-5.518-2.52-9.492 1.156-1.84 1.702-5.654 1.27-8.574 1.807-.075-1.195-.648-2.765-.103-3.492.694-.925 2.562-.894 3.454-1.76 2.04-1.98 3.795-4.254 5.665-6.41-2.173-1.663-4.13-4.214-6.563-4.804-4.93-1.192-10.16-1.086-15.182-1.986-2.77-.497-5.733-1.447-7.97-3.073-4.53-3.29-15.522-1.992-18.28 2.668-1.927 3.258-4.47 4.796-8.49 5-8.18.42-16.413 1.086-24.443 2.606-2.97.563-7.27 1.63-7.64 6.517-.066.897-1.845 2.064-3.025 2.373-1.56.407-3.307.07-4.973.09-5.56.058-5.77.407-3.74 5.426.405 1 .44 2.152.687 3.445-3.328 0-6.29-.114-9.238.034-2.63.132-3.684 1.168-1.98 3.853.643 1.01.447 2.554.634 3.854-1.625-.276-3.556-.107-4.787-.955-1.192-.82-1.714-2.66-2.438-4.1-.684-1.36-1.25-2.778-2.06-4.607-1.23 2.868-1.938 5.032-3.077 6.938-.482.808-2.002 1.62-2.813 1.428-.802-.187-1.93-1.71-1.838-2.528.57-5.144-1.79-7.306-6.704-7.776-1.455-.14-2.786-1.563-4.723-2.73-.473.72-1.233 1.368-1.323 2.1-.757 6.13-4.604 12.24-.763 18.413 1.22 1.957 3.726 3.068 5.26 4.892 1.188 1.415 1.78 3.333 2.638 5.027-1.663.013-3.54.542-4.952-.046-7.394-3.07-14.274-7.438-22.888-6.828-2.707.19-5.543-1.415-8.91-2.366l3.117 4.95c-5.236 1.545-10.738 2.848-15.973 4.852-2.397.92-3.77 1.427-5.43-.987-.524-.762-2.784-1.17-3.696-.688-5.532 2.918-10.854 6.234-16.36 9.207-1.812.978-3.963 1.327-5.96 1.963-.1-1.73-.11-3.473-.33-5.188-.175-1.353-.206-3.438-1.003-3.855-2.086-1.094-4.557-1.453-8.184-2.474 1.802 4.937 2.955 8.13 4.136 11.314 1.37 3.697-1.154 3.938-3.633 3.956-6.218.043-8.482 1.633-9.83 7.58-.683 3.016-1.953 4.157-4.84 2.407-.427-.26-.842-.718-1.282-.744-2.143-.13-4.292-.145-6.44-.2l1.813 5.478c-1.676-.624-4.29-.988-6.046-2.412-2.106-1.71-3.738-4.178-5.094-6.59-1.136-2.017-1.578-4.423-2.328-6.658 2.8.274 5.813-.016 8.36.938 5.716 2.143 10.573 1.235 15.328-2.375 3.07-2.33 3.454-4.565-.05-6.397-4.307-2.252-8.984-3.865-13.615-5.414-7.708-2.578-15.547-4.768-23.232-7.41-1.523-.522-2.818-2.186-3.845-3.595-3.348-4.602-6.537-5.324-11.556-2.625-1.544.83-3.584 1.94-5.034 1.556-12.053-3.197-21.946 2.62-32.115 7.313-2.802 1.295-5.474 2.87-8.415 4.426 4.14 6.395-1.81 8.985-4.34 11.918-3.755 4.352-6.203 8.787-7.25 14.352-.9 4.795-4.4 6.358-9.192 5.867-2.23-.228-4.94 1.026-6.946 2.35-8.767 5.782-10.87 12.81-7.337 22.618.48 1.33.347 2.925.3 4.39-.122 3.977 3.726 8.788 7.665 9.063 1.12.078 2.455-.727 3.44-1.463 1.184-.883 2.05-2.177 3.14-3.202 5-4.705 7.135-4.105 9.383 2.388.697 2.017 2.058 3.802 2.786 5.812.768 2.12 1.744 4.458 1.48 6.556-.18 1.425-2.168 3.255-3.68 3.66-1.07.288-3.053-1.235-3.978-2.447-.948-1.24-1.267-3.058-1.562-4.678-.243-1.336-.05-2.75-.05-4.35-7.8 2.273-11.072 9.18-8.317 16.23.665 1.703 1.488 3.346 2.14 5.054 1.094 2.87.29 4.944-2.8 5.747-3.042.79-6.118 1.447-9.187 2.128-3.248.72-6.66 1.957-6.257 5.79.59 5.657-2.745 8.297-6.758 10.52-3.37 1.868-6.417 3.48-7.895 7.615-2.107 5.903-7.904 4.228-12.98 4.876.566 5.892-3.162 5.146-7.028 4.44-1.26-.23-2.754-.24-3.892.238-1.1.463-2.428 1.58-2.63 2.61-.18.9.81 2.56 1.73 3.063 9.978 5.46 13.32 14.137 12.714 24.99-.302 5.384-2.942 8.386-8.217 8.458-5.165.07-10.335.105-15.498-.04-1.592-.045-3.163-1.037-4.75-1.054-2.22-.023-4.972-.232-6.513.936-1.355 1.026-2.26 4.07-1.803 5.818 1.822 6.987 1.126 13.552-2.054 19.893-1.855 3.7-2.316 7.26.05 10.88.18.275.423.62.393.906-.653 6.104 2.11 7.87 8.048 7.588 3.776-.18 6.926 9.748 4.97 14.547-2.31 5.66-5.144 10.487-10.42 14.54-5.818 4.47-9.818 11.06-9.136 19.54.613 7.624-6.35 16.883-13.646 19.78-1.273.505-2.487 1.687-3.244 2.867-2.474 3.858-4.88 7.78-7.003 11.838-1.25 2.387-1.935 5.072-2.836 7.638-.218.618-.063 1.547-.46 1.896-6.963 6.11-5.198 16.23-10.613 23.053-.556.7-.786 1.9-.705 2.826.504 5.768 1.604 11.523 1.62 17.286.022 8.408.885 17.316-1.552 25.09-2.53 8.067-.453 15.2.324 22.654.292 2.805 2.45 5.853 4.584 7.947 6.817 6.688 10.858 14.484 13.506 23.74 1.517 5.305 6.415 9.834 10.364 14.192 3.718 4.102 8.304 7.405 12.28 11.292 2.043 1.996 3.595 2.93 6.374 1.074 7.66-5.116 15.895-3.66 24.323-2.162 2.536.45 6.076-1.313 8.29-3.122 6.51-5.32 13.545-7.965 22.025-7.08 4.114.43 6.764 1.704 7.964 6.024 2.344 8.437 2.52 8.39 11.138 8.384 9.964-.005 11.2 1.297 11.2 11.228 0 8.953.64 17.97-4.054 26.214-.405.71-.286 2.024.09 2.823 1.446 3.082 3.066 6.084 4.675 9.087 3.403 6.35 7.4 12.455 10.095 19.09 2.39 5.883 3.318 12.355 4.966 18.548.376 1.41 1.136 2.716 1.577 4.114.387 1.228 1.24 2.96.742 3.71-3.433 5.165.3 9.296 1.563 13.814.565 2.022 1.242 4.33.798 6.26-1.5 6.53-2.685 13.314-5.455 19.326-4.875 10.58-3.498 21.562-3.204 32.393.123 4.53 3.397 8.892 4.687 13.485 3.004 10.705 7.905 20.672 8.61 32.305.788 13.036 3.992 25.907 9.458 38.193 3.356 7.543 6.02 15.656 5.845 24.396-.076 3.8 1.022 8.05 2.892 11.36 2.887 5.112 8.3 2.652 11.59 1.003 4.5-2.257 9.008-1.715 13.428-2.694 7.578-1.678 15.767-2.062 20.64-10.323 5.697-9.662 13.162-18.3 18.635-28.07 2.948-5.265 3.998-11.893 4.653-18.04.463-4.343 1.418-7.696 4.95-10.23 8.598-6.17 11.51-13.724 7.56-27.4-1.47-5.082-2.044-10.327 2.063-15.045 5.826-6.69 10.102-14.52 18.454-19.186 4.583-2.56 8.063-7.637 7.463-14.252-.54-5.95.327-12.03-.225-17.98-.755-8.145-2.13-16.243-3.487-24.32-1.406-8.374-4.355-16.584-2.965-25.238.625-3.894 1.237-8.013 2.99-11.452 3.126-6.13 4.128-13.07 8.98-18.65 5.5-6.328 9.408-14.014 14.315-20.89 1.76-2.464 4.682-4.073 6.59-6.458 2.565-3.21 5.063-6.593 6.89-10.25 5.584-11.196 11.624-22.267 15.94-33.957 2.962-8.027 5.945-16.502 4.884-25.587-.36-3.075-1.424-3.962-4.09-2.785-3.772 1.663-7.36 3.776-11.206 5.22-4.838 1.814-9.77 3.652-14.824 4.524-3.998.69-8.3-4.918-8.167-10.632.088-3.81-2.132-5.567-4.034-8.29-8.047-11.51-20.5-20.403-22.124-35.916-.16-1.508-1.214-3.224-2.37-4.268-3.98-3.588-5.478-8.057-4.358-13.05 1.556-6.938-3.682-11.407-5.668-17.002-4.51-12.693-9.736-25.133-14.654-37.633 5.687-3.37 8.408-2.544 11.122 2.76 5.424 10.596 11.047 21.09 16.446 31.697.704 1.384.478 3.215.85 4.8.898 3.813 1.203 7.977 3 11.325 3.415 6.355 7.81 12.178 11.59 18.35 1.708 2.787 3.336 5.77 4.168 8.886.37 1.39-1.31 3.33-1.148 4.477 2.426 7.495 5.13 14.915 7.175 22.512 1.276 4.734 5.864 7.118 8.655 3.154 3.946-5.605 10.698-4.293 14.966-7.993 6.328-5.486 16.33-6.02 19.945-15.36.818-2.12 4.17-3.922 6.69-4.568 4.296-1.104 7.272-2.534 9.23-7.11 1.51-3.53 5.503-5.932 8.013-9.132 1.115-1.422 1.347-3.56 1.88-5.403.27-.937-.035-2.37.532-2.84 4.496-3.74 4.41-9.496 6.457-14.284 1.737-4.062-2.3-11.81-6.595-11.933-6.756-.19-8.754-4.223-9.77-9.788-.34-1.854-1.207-3.61-2.277-6.687-2.784 3.695-4.567 6.646-6.936 9.01-1.753 1.75-4.156 3.595-6.466 3.896-7.145.934-8.205-.32-8.378-7.587-.03-1.242-.43-2.475-.66-3.727-7.063 1.712-6.575 1.573-8.427-4.935-1.14-4-3.673-7.786-6.256-11.15-3.417-4.45-3.302-9.06-1.308-13.61.768-1.753 3.33-3.48 5.267-3.728 1.636-.21 4.13 1.31 5.216 2.81 2.117 2.926 4.023 6.212 5.103 9.637 2.01 6.375 7.623 8.97 12.385 12.158 2.107 1.41 5.876.604 8.855.36 2.288-.185 5.17-2.165 6.595-1.324 1.437.848 1.393 4.19 2.018 6.437.087.31.293.585.716 1.4 5.7.985 12.086 1.17 17.712 3.33 5.27 2.025 10.28 3.203 15.82 2.81 2.768-.198 5.587.2 8.334-.106 5.022-.56 7.62 2.435 9.853 6.147.512.852.71 1.994 1.398 2.62 5.173 4.7 8.713 9.642 10.012 17.25 1.144 6.695 7.872 5.995 13.545-1.31.936 4.143 1.938 8.27 2.79 12.432 1.537 7.492 2.898 15.02 4.5 22.5.943 4.41 2.055 8.796 3.36 13.11 1.91 6.315 4.05 12.56 6.11 18.83 2.15 6.535 4.37 13.05 6.466 19.603.985 3.085 1.512 6.335 2.706 9.327.688 1.727 2.295 3.087 3.488 4.612 1.136-1.21 2.524-2.265 3.358-3.654 2.53-4.215 5.04-8.47 7.157-12.898.878-1.837.942-4.15 1.03-6.262.275-6.482.39-12.97.547-19.457.028-1.165.4-2.603-.126-3.454-3.815-6.148.457-8.772 4.128-13.006 6.853-7.903 12.183-17.12 18.253-25.716.802-1.136 2.47-1.65 3.31-2.772 1.597-2.144 3.812-4.396 4.13-6.818 1-7.662 3.353-9.2 9.865-5.376 2.855-1.51 5.73-3.103 8.668-4.567 3.495-1.742 7.827 1.12 7.56 5.772-.298 5.21 2.876 7.752 5.898 10.844 1.325 1.356 2.032 3.345 2.91 5.1 1.077 2.154 1.646 4.695 3.143 6.473 2.16 2.567 3.08 4.982 1.835 8.2-.466 1.203-.892 2.744-.535 3.88.847 2.688 2.173 5.228 3.305 7.828 2.255-1.283 4.58-2.46 6.734-3.897 1.076-.718 1.69-2.162 2.79-2.81 1.018-.6 2.652-1.103 3.557-.675.9.425 1.478 2 1.762 3.175 1.446 5.983 3.05 11.953 4.032 18.02 1.23 7.592 2.2 15.253 2.728 22.922.433 6.29.025 12.635.07 18.955.005.76.277 1.894.81 2.214 7.555 4.537 7.995 13.45 12.318 19.958.545.82.765 2.695.246 3.248-3.494 3.73-.604 6.58.83 9.855 2.096 4.788 4.583 8.816 9.65 11.22 2.096.996 3.195 4.02 4.864 6.022.766.918 1.812 1.603 2.73 2.394l.7-1.03c-2.003-5.005-4.03-10-5.99-15.02-.415-1.063-.877-2.232-.826-3.33.518-11.316-4.248-19.87-12.993-26.824-3.1-2.465-6.28-5.615-5.5-10.562.155-.99-.48-2.306-1.134-3.19-4.105-5.567-2.655-11.606-1.774-17.658.45-3.088.227-6.3.922-9.315.488-2.116 2.014-3.994 3.075-5.978 1.123 1.324 2.258 2.64 3.364 3.98.41.493.644 1.347 1.14 1.524 7.77 2.772 10.903 9.544 14.205 16.21.335.68 1.04 1.594 1.647 1.655 5.14.513 5.894 2.734 3.176 6.926-.484.747.32 2.33.53 3.528 1.103-.363 2.676-.388 3.223-1.148 2.107-2.935 3.746-6.205 5.85-9.14.97-1.352 2.48-2.46 3.972-3.258 4.07-2.183 6.31-4.94 6.813-10.017 1.408-14.184-3.59-25.565-12.82-35.95-3.757-4.224-6.544-9.57-8.7-14.843-.985-2.41.062-6.12 1.21-8.802 1.212-2.826 3.78-5.04 5.514-7.68 2.38-3.625 5.87-3.513 9.338-2.788.97.202 1.82 1.947 2.32 3.153.477 1.153.423 2.526.718 4.627 1.36-1.145 2.185-1.49 2.253-1.947.713-4.805 3.15-6.714 8.216-6.388 1.894.122 3.953-2.314 6.333-3.838.106 1.628.3 3.185.3 4.74.015 45.332.007 90.665.017 135.997 0 5.56.49 10.803-7.13 12.713-4.46 1.117-5.664 12.167-2.19 16.45 2.463 3.034 3.765 5.728 2.783 9.913-1.188 5.065 1.448 8.696 6.31 10.367v20.794c-2.955.974-5.687 2.432-8.522 2.67-3.804.316-7.733.89-10.766-3.223-2.64-3.58-8.43-2.227-9.8.895 4.063 3.012 7.654 6.404 11.866 8.607 5.087 2.66 10.702 4.31 16.09 6.396l1.124-1.234c.077 1.748.223 3.497.222 5.246-.01 35.166.04 70.332-.14 105.497-.03 5.862-.887 11.75-1.793 17.56-.268 1.723-2.01 3.214-3.338 5.2 6.633 12.54 2.835 26.563 3.172 40.115.13 5.245-3.314 10.863-6.055 15.8-1.975 3.556-1.517 6.91 2.786 7.51 4.046.566 5.49 2.13 5.475 6.407-.162 48.332.27 96.668-.272 144.995-.31 27.59-9.512 52.184-29.394 72.013-14.058 14.02-31.043 21.422-51.063 21.394-2-.002-4 .002-6 .002h-972.48c-43.348 0-73.255-22.323-84.57-64.355-2.987-11.094-4.415-22.946-4.425-34.453-.237-279.66-.186-559.322-.18-838.983 0-8.28 6.456-11.758 13.874-7.678 2.58 1.42 5.382 2.7 8.238 3.3 9.768 2.05 13.928 8.327 12.032 18.226-.745 3.89-1.267 7.928-1.052 11.852.094 1.718 2.258 3.345 3.54 4.968 1.072 1.356 3.128 2.604 3.193 3.975.324 6.78.046 13.585.162 20.38.048 2.844-.317 4.76-3.812 5.103-3.07.3-3.88 2.272-2.115 4.982.454.697.847 1.47 1.43 2.04 4.228 4.146 7.01 7.85 3.13 14.5-4.104 7.04-6.166 15.253-9.373 22.847-.95 2.25-2.732 4.153-4.168 6.19-.67.952-1.56 1.77-2.122 2.777-3.887 6.956-5.24 14.884-8.903 22.137-3.1 6.14-.426 15.284-.01 23.083.237 4.422.77 8.882 1.748 13.193.648 2.853 1.658 6.2 3.675 8.05 4.8 4.406 7.268 8.886 7.614 15.864.41 8.255-.74 17.135 4.084 24.838.537.857.73 2.654.203 3.34-5.17 6.716 1.005 10.223 3.923 14.687 1.048 1.604 2.72 3.444 2.587 5.054-.38 4.657 1.345 8.324 3.74 12.038 1.49 2.31 2.387 5.003 3.55 7.523.627-.035 1.255-.064 1.883-.093zm362.647-331.645c-10.602 8.093-12.398 18.837-11.236 30.404.68 6.755 1.684 13.518 3.19 20.13.602 2.636 2.612 5.215 4.604 7.195 1.913 1.904 4.76 2.828 6.964 4.49 3.7 2.79 8.064 2.753 10.523-.757 5.517-7.876 12.082-15.352 15.868-24.018 4.267-9.766 12.9-10.725 20.653-14.035 4.384-1.87 9.723-2.636 13.04-5.65 9.888-8.976 22.08-12.934 34.025-17.62 2.448-.96 4.737-2.65 7.254-3.058 7.85-1.274 7.993-1.1 7.834-9.225-.09-4.54 1.084-8.124 5.307-10.444 2.02-1.11 4-2.48 5.577-4.134.904-.95 1.714-3.043 1.267-4.038-1.714-3.82-.155-7.086 2.428-8.905 3.76-2.646 2.737-4.69.993-7.764-2.725-4.802-1.708-6.55 3.7-8.04 2.07-.572 4.14-1.335 6.017-2.363 4.352-2.387 8.584-4.988 12.864-7.502l-.563-1.472c-1.624.247-3.24.598-4.873.72-3.444.26-7.606 1.71-10.198.31-5.112-2.76-9.974-5.522-15.837-6.447-5.327-.84-10.56-3.246-15.837-3.256-12.098-.022-24.192 1.12-36.298 1.528-4.833.163-9.582-.205-13.72 3.14-1.18.954-3.095 1.28-4.704 1.378-7.124.432-14.306.274-21.382 1.075-12.748 1.442-25.436 3.418-37.886 5.134-.566 7.088-1.714 8.858-5.71 9.55-6.028 1.045-12.088 1.92-18.09 3.09-1.913.374-3.687 1.462-5.524 2.223 1.472 1.824 2.6 4.652 4.476 5.29 6.563 2.233 13.29 4.4 20.126 5.306 9.23 1.22 15.282 8.034 13.565 17.093-.412 2.177-1.668 4.194-2.603 6.443l7.564 5.116c-3.6 1.17-6.08 1.498-7.998 2.713-2.88 1.825-1.474 4.25 4.625 6.397zm424.543 594.97c-2.58 4.666-4.447 9.11-7.257 12.848-3.426 4.56-6.964 9.642-11.668 12.5-8.536 5.188-11.376 12.166-7.89 21.902 1.257 3.505 1.812 8.426.298 11.538-4.256 8.746-6.234 17.55-5.92 27.27.172 5.37 3.414 8.42 6.187 12.004.455.59 2.13.644 3.08.376 7.734-2.177 9.612-8.91 11.297-15.43 1.512-5.85 2.265-11.897 3.37-17.854 1.118-6.032 2.213-12.07 3.415-18.086.354-1.774.78-3.62 1.617-5.197 3.43-6.467.26-15.175 6.99-20.503.204-.16.243-.63.23-.95-.247-6.637 1.676-13.618-3.75-20.418zM207.646 149.058c.468.33.936.657 1.404.985-.818 2.906-1.55 5.84-2.477 8.712-.92 2.846-3.567 5.512-.312 8.556 5.14 4.807 8.668 5.69 13.276 3.29 2.042-1.065 4.123-2.543 6.297-2.772 4.985-.522 10.045-.604 15.06-.435 2.36.08 4.796.894 7 1.833 3.796 1.617 11.108-2.61 10.022-6.433-1.607-5.648-.957-10.736.754-16.084.366-1.147-.583-3.548-1.595-4.066-1-.514-3.244.2-4.232 1.13-1.527 1.44-2.215 3.76-3.718 5.238-.895.882-2.88 1.52-4.008 1.148-4.286-1.414-8.496-3.127-12.58-5.056-1.75-.827-3.902-2.16-4.52-3.78-1.746-4.583-4.478-6.728-9.456-6.09-2.29.294-4.654.014-6.983.06-4.03.078-6.928 1.71-9.746 4.914-2.955 3.36-7.32 5.462-10.988 8.223-1.223.922-2.193 2.18-3.278 3.283 1.477 1.307 3.073 3.818 4.406 3.686 3.416-.342 6.785-1.682 10.035-2.97 2.01-.795 3.77-2.226 5.64-3.372zm940.91 541.107c-1.893-3.284-3.452-6.27-5.288-9.075-1.26-1.927-2.59-4.1-4.45-5.28-3.082-1.95-5.437-3.482-2.137-7.195.377-.424-.028-1.953-.52-2.652-1.045-1.48-2.3-2.843-3.62-4.09-4.707-4.442-9.69-8.614-14.125-13.31-1.957-2.07-2.245-5.855-4.336-7.636-5.152-4.386-10.85-8.15-16.486-11.926-.845-.565-2.554.157-3.862.284.59 1.016 1.105 2.086 1.786 3.038 3.095 4.324 6.237 8.615 9.36 12.92.766 1.056 1.29 2.53 2.32 3.105 4.175 2.337 6.353 5.863 7.85 10.333 2.4 7.167 7.465 14.09 7.64 21.207.287 11.733 7.456 18.82 13.643 26.8 1.436 1.852 4.803 2.204 7.28 3.246 1.25-3.076 2.877-6.063 3.646-9.254.857-3.563.935-7.312 1.3-10.515zM612.69 235.435l-.73-.654c-1.52.96-2.925 2.374-4.58 2.79-4.913 1.238-7.772 4.37-8.865 9.058-.584 2.504-.45 5.176-.624 7.772-.428 6.4.48 7.563 6.46 9.64 1.263.437 2.494 1.845 3.11 3.112 2.367 4.87.133 7.854-4.225 9.313-.14 1.77.29 3.91-.444 4.445-4.725 3.435-1.662 5.49 1.24 7.432l-4.864 6.813 1.138 1.2c1.196-.325 2.713-.293 3.532-1.033 3.688-3.328 8.054-3.564 12.62-3.284 5.11.313 10.36.827 9.95-6.903-.028-.556.572-1.18.96-1.715 1.864-2.572.92-4.086-1.62-5.545-1.595-.917-3.168-2.373-4.028-3.975-2.894-5.386-4.87-11.364-8.36-16.295-2.478-3.506-2.596-5.506.232-8.404 1.66-1.7 1.636-4.072-1.072-4.632-5.504-1.137-4.306-3.294-1.437-6.205.754-.763 1.086-1.94 1.61-2.927zm-389.046-109.53c3.702 2.003 6.807 3.643 9.872 5.354 3.547 1.98 6.95 4.273 10.643 5.92 1.356.604 3.417-.05 5.068-.48 5.4-1.4 10.69-3.813 16.154-4.27 9.528-.798 9.573-.312 5.293-8.444-.118-.223-.573-.268-.87-.396-4.288 2.628-9.31 6.007-13.434 5.135-4.115-.87-10.674-2.88-9.33-11.804-8.572 3.293-15.97 6.134-23.396 8.984zm325.683 79.998c6.106-2.502 11.004-4.87 16.135-6.5 4.25-1.35 5.75-4.386 4.87-7.91-.917-3.673-4.335-3.138-7.773-3.174-7.482-.08-15.424 5.65-22.653-1.373-.495-.48-3.667 1.794-5.594 2.786.99 1.18 1.91 2.43 2.992 3.52 1.398 1.41 3.026 2.6 4.378 4.05 2.597 2.787 5.07 5.69 7.644 8.6zM207.057 496.3l-.936 2.56c3.757 2.018 7.378 4.363 11.302 5.974 5.405 2.218 8.857 5.463 8.87 11.69.006 3.05 1.613 5.256 4.922 4.915 3.856-.397 7.692-1.166 11.47-2.053 1.236-.29 2.266-1.452 3.39-2.215-.927-1.138-1.712-2.44-2.81-3.376-1.793-1.523-4.123-2.515-5.637-4.246-4.755-5.435-9.262-11.01-17.607-10.33-1.052.087-2.15-.76-3.265-1-3.222-.688-6.464-1.286-9.7-1.92zm390.91-233.078c-7.527-2.845-7.484-2.81-11.863 2.363-.674.796-1.9 1.315-2.962 1.56-4.37 1.012-4.406 3.518-3.138 7.16.58 1.665.043 3.85-.398 5.7-.43 1.8-1.385 3.474-2.11 5.203 2.588.104 5.42.942 7.714.172 6.304-2.117 11.81-5.268 9.855-13.647-.173-.74.917-1.71 1.22-2.637.637-1.957 1.142-3.958 1.683-5.874zM275.164 530.886c-4.467-9.763-6.243-10.957-15.28-10.976-1-.003-2 .05-2.994-.022-2.882-.215-4.407.898-4.285 3.977.128 3.227-1.814 4.634-4.697 5.525-1.578.487-2.897 1.81-4.333 2.757.2.583.397 1.166.596 1.75 2.228 0 4.533-.36 6.66.1 2.14.464 4.035 2.032 6.174 2.534.97.23 2.887-.655 3.312-1.544 1.94-4.052 5.41-3.84 8.956-3.805 1.746.018 3.495-.166 5.89-.294zm-1.832-385.028l-2.174.39c2.592 2.225 5.116 6.154 7.792 6.26 3.653.147 8.066-1.89 10.91-4.4 1.817-1.605 1.39-5.755 1.968-8.763-2.084.067-4.17.12-6.253.208-1.32.056-2.663.038-3.95.286-1.064.204-2.235.535-3.052 1.19-1.846 1.486-3.505 3.205-5.24 4.828zm743.404 452.82c-.194 1.41-.623 2.658-.484 3.84.55 4.71 1.207 9.412 1.983 14.09.188 1.133.98 2.165 1.493 3.243 1.028-.705 2.36-1.196 3.034-2.152 3.71-5.266.66-15.427-6.026-19.02zM312.266 114.93l.09-1.87c-4.16-1.1-8.293-2.318-12.5-3.193-.798-.166-2.05.88-2.747 1.67-.287.324.125 1.93.588 2.14 3.12 1.42 6.255 3.044 9.563 3.694 1.454.285 3.325-1.56 5.006-2.44zM1161.2 520.286c-2.962 1.98-4.92 4.43-4.046 8.164.125.532 2.152 1.286 2.672.955 3.222-2.054 4.204-4.95 2.4-8.52-.063-.122-.277-.17-1.025-.6zM322.45 109.16l-3.072-.07c-.22 2.274-.58 4.552-.545 6.822.008.513 1.36 1.302 2.164 1.4.527.065 1.67-.86 1.69-1.38.09-2.25-.13-4.513-.237-6.772zm-46.453 4.027c-.49-.71-.98-1.422-1.472-2.133-2.52 1.747-5.04 3.495-7.562 5.242l1.374 1.99 7.66-5.1z"/><path fill="#FFF" d="M689.523 385.64c5.114-2.034 8.64-7.105 7.103-10.708-2.14-5.015-.4-7.178 5.193-8.35-11.742-5.06-17.28-15.334-24.153-24.093-2.043-2.605-1.245-7.527-1.434-11.403-.03-.62 1.847-2.042 2.433-1.85 1.804.595 4.53 1.467 4.917 2.804 3.396 11.722 13.63 17.448 21.504 25.215 3.38 3.333 6.184 6.255 4.674 11.978-1.102 4.178 1.358 8.355 5.27 11.01 2.848 1.936 4.877 4.06 4.967 8.024.04 1.805 2.475 3.556 3.822 5.33 1.214-1.46 2.447-2.908 3.637-4.39.727-.905 1.32-1.922 2.09-2.79 2.152-2.433 2.043-4.697-.183-7.055-1.135-1.2-2.168-2.558-2.967-4-.83-1.493-1.32-3.176-1.957-4.775 1.59-.253 3.238-.32 4.748-.815 1.312-.43 2.454-1.36 3.69-2.033 1.588-.866 3.995-2.798 4.643-2.33 1.834 1.33 4.24 3.732 4.12 5.56-.468 6.974 3.444 12.78 4.34 19.327.15 1.097 1.153 2.515 2.142 2.98 3.76 1.77 7.673 3.208 12.144 5.02 2.44-4.88 6.163-3.22 9.89-.155 4.26 3.506 6.846-.63 10.086-2.036 1.82-.79 4.434-2.154 5.605-1.45 1.593.955 2.742 3.55 3.05 5.598 1.712 11.357-2.97 21.438-7.2 31.453-.79 1.87-4.064 3.384-6.4 3.756-3.9.622-7.988-.03-11.962.293-2.125.173-4.133 1.51-6.27 1.873-1.95.33-4.336.734-5.95-.064-8.247-4.075-16.252-8.638-24.453-12.81-4.474-2.275-8.79-.594-11.906 2.53-2.31 2.312-4.795 5.436-2.198 9.552.603.956-.03 3.497-.968 4.394-.957.915-3.267 1.375-4.504.867-4.59-1.89-9.126-4.008-13.396-6.525-3.347-1.973-6.798-4.222-9.244-7.15-2.75-3.293-5.753-4.12-9.756-4.767-2.712-.44-4.966-3.725-7.42-5.745-2.844-2.344-3.603-4.848-1.18-8.115 3.746-5.053.636-10.414-.1-15.514-.155-1.084-4.05-2.12-6.29-2.292-2.927-.224-5.95.264-8.88.76-3.016.512-5.954 1.46-8.95 2.1-1.76.377-3.574.49-5.354.784-5.813.956-11.802 1.38-17.36 3.146-2.864.91-4.783 4.483-7.466 6.377-1.86 1.312-4.23 2.223-6.486 2.555-2.236.33-4.694.012-6.903-.584-1.996-.537-4.868-1.42-5.433-2.89-.99-2.577-1.46-6.02 2.537-7.468 2.596-.94 5.036-2.42 7.69-3.067 6.756-1.644 13.554-10.21 13.898-17.02.306-6.035 3.374-11.026 7.968-14.898 3.707-3.125 8.372-4.99 8.013-11.484-.234-4.243 6.644-6.87 10.228-4.306 2.548 1.823 4.354 1.7 6.466-.563 1.795-1.924 3.927-3.538 5.946-5.246 3.427-2.9 8.923-1.277 9.98 2.96 1.867 7.478 6.893 12.607 12.71 17.13 2.61 2.03 5.433 3.8 8.005 5.878 5.836 4.715 6.774 8.663 4.03 15.6-.392.98-.452 2.092-.814 3.883zm-9.647 1.84l-.596 1.394 8.09 3.43c.642-5.43-.226-5.908-7.494-4.824zM714.287 244.383c-4.345 3.796-5.534 8.428-2.866 12.656 1.762 2.792.89 4.406-1.272 5.793-3.666 2.35-7.007 6.924-12.06 1.753-.7-.717-3.68.36-5.368 1.125-4.153 1.887-7.978 5.145-12.896 1.79-.686-.47-1.918-.203-2.893-.164-1.496.062-2.988.222-4.48.34.3-1.893.09-4.116 1.045-5.583.9-1.383 2.933-2.4 4.64-2.76 1.227-.258 2.738.833 3.418 1.073 2.854-2.43 5.562-4.238 7.585-6.627 1.396-1.65 3.064-4.54 2.498-6.115-2.168-6.022 1.773-9.03 5.13-12.39 4.056-4.06 4.088-5.64-.765-8.42-5.052-2.896-2.985-7.607-2.38-11.168.934-5.475 4.136-10.176 9.645-12.542 3.61-1.55 5.68-3.954 5.297-8.048-.304-3.252 1.24-4.498 4.414-4.454 2.467.033 4.938-.455 7.41-.502 1.06-.02 2.823.237 3.04.823.385 1.034.258 2.765-.412 3.59-1.865 2.294-3.836 4.707-6.275 6.288-5.62 3.645-8.73 7.958-6.578 14.99.607 1.986.05 4.305.2 6.458.35 5.043 4.562 6.847 9.307 5.436 5.72-1.702 11.805-2.325 17.78-2.925 1.304-.132 2.814 1.812 4.23 2.8-1.037 1.397-1.8 3.498-3.173 4.03-2.384.93-5.136.993-7.75 1.222-2.316.203-4.698-.12-6.976.248-3.798.617-4.46 2.702-2.098 5.782.708.923 2.035 1.95 1.938 2.8-.24 2.1-.833 4.33-1.975 6.048-.327.492-3.087-.396-4.59-1.002-.99-.4-1.727-1.43-2.768-2.345zM785.033 331.97c.41.83.447 1.07.562 1.115 10.273 4.122 16.648 12.692 23.395 20.76 1.186 1.418 2.134 4.114 1.573 5.614-.592 1.58-3.115 3.43-4.807 3.442-7.914.057-15.853 1.63-23.348-3.912-2.902-2.145-8.828-.73-13.255-.09-2.804.405-5.36 2.418-8.066 3.623-3.182 1.416-15.21-3.09-15.42-6.292-.23-3.584.784-7.393 1.917-10.89 1.607-4.96 3.37-9.98 5.943-14.47 1.528-2.667 4.455-5.506 7.272-6.222 3.843-.977 6.184 1.527 6.315 6.115.1 3.432 2.514 5.683 6.35 5.606 3.932-.08 4.808-2.47 4.98-5.943.242-4.85 5.727-10.394 10.498-10.92.813-.09 2.32.485 2.453 1.017.29 1.16.33 2.775-.29 3.693-1.828 2.72-4.026 5.193-6.073 7.752zM863.04 395.52c-4.226.548-6.994-1.823-10.518-3.766-7.24-3.992-7.536-8.436-4.872-14.924.963-2.345 1.278-5 1.588-7.55.138-1.13-.128-2.616-.8-3.49-3.71-4.83-8.044-9.24-11.288-14.353-2.498-3.936-4.524-8.58-5.138-13.13-.307-2.273 2.823-5.195 4.746-7.538 2.673-3.26 5.813-6.135 8.495-9.386 3.014-3.653 5.842-4.097 9.435.135 1.91 2.248 2.805 5.865 2.89 8.9.03 1.175-3.295 2.862-5.35 3.587-3.938 1.39-5.062 4.38-2.195 7.48 3.102 3.354 6.44 6.49 9.615 9.778.54.56 1.016 1.387 1.1 2.137.285 2.56 1.475 3.48 4.127 3.942 1.546.27 3.14 2.508 3.864 4.22.315.743-1.225 3.014-2.386 3.515-4.378 1.888-4.26 4.817-1.266 7.193 6.396 5.072 3.692 13.057 6.672 19.183.324.667-1.855 3.227-3.334 3.908-1.507.696-3.584.155-5.386.155zM898.38 169.815c4.726.704 7.518 5.397 5.592 9.67-.524 1.163-.536 2.57-1.12 3.69-.745 1.435-1.662 3.59-2.812 3.806-1.626.308-3.532-.874-5.318-1.42.55-1.506 1.285-2.975 1.615-4.528.762-3.59 1.328-7.218 2.044-11.217zM1175.653 372.354v13.86c-8.726-3.745-8.714-5.806 0-13.86zM889.87 157.894c5.472.27 8.196 4.507 6.006 8.268-.306.525-3.622.284-3.903-.34-1.032-2.297-1.37-4.903-2.102-7.928z"/><path d="M437.397 164.292c-6.1-2.146-7.505-4.572-4.623-6.397 1.918-1.215 4.397-1.542 8-2.713l-7.565-5.116c.934-2.25 2.19-4.267 2.603-6.443 1.717-9.06-4.336-15.872-13.565-17.094-6.836-.906-13.563-3.073-20.126-5.307-1.875-.638-3.004-3.466-4.476-5.29 1.838-.76 3.61-1.85 5.523-2.222 6.002-1.17 12.062-2.045 18.09-3.09 3.996-.69 5.144-2.462 5.71-9.55 12.45-1.717 25.138-3.692 37.886-5.135 7.076-.8 14.258-.644 21.382-1.075 1.61-.098 3.523-.424 4.704-1.378 4.138-3.345 8.887-2.977 13.72-3.14 12.105-.407 24.2-1.55 36.298-1.528 5.277.01 10.51 2.415 15.837 3.255 5.863.924 10.725 3.686 15.837 6.446 2.592 1.4 6.754-.05 10.198-.31 1.633-.122 3.25-.473 4.873-.72l.563 1.472c-4.28 2.514-8.513 5.115-12.864 7.502-1.876 1.028-3.947 1.79-6.017 2.362-5.408 1.49-6.425 3.24-3.7 8.04 1.744 3.074 2.767 5.118-.993 7.765-2.583 1.82-4.142 5.084-2.428 8.905.447.995-.362 3.088-1.267 4.037-1.577 1.653-3.558 3.023-5.577 4.133-4.223 2.32-5.396 5.905-5.307 10.444.16 8.124.016 7.95-7.835 9.225-2.516.408-4.805 2.098-7.253 3.06-11.945 4.685-24.138 8.643-34.024 17.62-3.318 3.013-8.657 3.778-13.04 5.648-7.754 3.31-16.387 4.27-20.653 14.035-3.786 8.666-10.352 16.142-15.867 24.018-2.46 3.51-6.824 3.547-10.523.757-2.204-1.662-5.05-2.586-6.964-4.49-1.99-1.98-4.002-4.56-4.603-7.195-1.508-6.61-2.512-13.374-3.19-20.13-1.164-11.566.633-22.31 11.234-30.403zM861.94 759.262c5.426 6.8 3.503 13.78 3.75 20.418.014.32-.025.79-.228.95-6.73 5.327-3.56 14.035-6.992 20.502-.837 1.577-1.263 3.423-1.617 5.197-1.202 6.015-2.297 12.053-3.415 18.085-1.105 5.957-1.858 12.004-3.37 17.855-1.685 6.518-3.563 13.252-11.298 15.43-.95.267-2.624.212-3.08-.377-2.77-3.585-6.014-6.633-6.187-12.005-.313-9.72 1.665-18.522 5.92-27.27 1.515-3.11.96-8.032-.296-11.537-3.487-9.735-.647-16.713 7.89-21.9 4.703-2.86 8.24-7.942 11.667-12.5 2.81-3.737 4.675-8.182 7.256-12.848zM207.646 149.058c-1.872 1.146-3.63 2.577-5.64 3.373-3.25 1.29-6.62 2.63-10.036 2.97-1.333.133-2.93-2.38-4.406-3.686 1.085-1.104 2.055-2.36 3.278-3.282 3.667-2.76 8.034-4.862 10.99-8.223 2.816-3.204 5.713-4.837 9.745-4.916 2.33-.045 4.69.235 6.984-.06 4.98-.637 7.71 1.508 9.458 6.092.617 1.618 2.768 2.952 4.52 3.78 4.082 1.928 8.292 3.64 12.58 5.055 1.125.372 3.112-.266 4.007-1.147 1.502-1.48 2.19-3.798 3.718-5.237.988-.93 3.23-1.645 4.232-1.13 1.012.518 1.96 2.918 1.594 4.064-1.712 5.348-2.362 10.436-.755 16.084 1.087 3.822-6.226 8.05-10.02 6.433-2.207-.94-4.642-1.753-7-1.833-5.016-.17-10.077-.088-15.062.435-2.174.228-4.254 1.705-6.297 2.77-4.608 2.4-8.137 1.518-13.275-3.288-3.254-3.044-.607-5.71.313-8.556.928-2.87 1.66-5.806 2.477-8.712l-1.404-.986zM1148.557 690.165c-.365 3.203-.443 6.952-1.302 10.515-.77 3.19-2.397 6.178-3.646 9.254-2.48-1.042-5.846-1.395-7.28-3.245-6.187-7.98-13.355-15.068-13.643-26.802-.175-7.118-5.24-14.04-7.64-21.207-1.497-4.47-3.675-7.995-7.85-10.332-1.03-.576-1.555-2.05-2.32-3.105-3.123-4.305-6.266-8.596-9.36-12.92-.68-.952-1.195-2.022-1.786-3.038 1.31-.127 3.02-.85 3.863-.283 5.638 3.775 11.334 7.54 16.485 11.926 2.09 1.78 2.38 5.565 4.336 7.637 4.434 4.694 9.418 8.866 14.124 13.308 1.32 1.248 2.576 2.61 3.62 4.09.493.7.898 2.23.522 2.653-3.3 3.713-.945 5.244 2.136 7.196 1.86 1.18 3.19 3.353 4.45 5.28 1.838 2.804 3.397 5.79 5.29 9.073zM612.69 235.436c-.524.986-.856 2.164-1.61 2.927-2.868 2.91-4.066 5.068 1.438 6.205 2.708.56 2.732 2.93 1.072 4.633-2.828 2.9-2.71 4.9-.23 8.405 3.487 4.93 5.465 10.91 8.358 16.295.86 1.602 2.434 3.058 4.028 3.975 2.54 1.46 3.484 2.973 1.62 5.545-.388.535-.988 1.16-.96 1.715.41 7.73-4.84 7.217-9.95 6.903-4.566-.28-8.932-.044-12.62 3.284-.82.74-2.336.708-3.532 1.032l-1.138-1.2 4.865-6.812c-2.902-1.94-5.965-3.997-1.24-7.432.736-.535.307-2.674.445-4.445 4.357-1.46 6.592-4.443 4.224-9.313-.616-1.268-1.848-2.675-3.11-3.113-5.98-2.076-6.888-3.24-6.46-9.64.175-2.597.04-5.27.625-7.772 1.094-4.688 3.952-7.82 8.864-9.057 1.655-.416 3.06-1.83 4.58-2.79.243.22.486.437.73.656zM223.644 125.904c7.426-2.85 14.824-5.69 23.396-8.982-1.344 8.923 5.215 10.934 9.33 11.804 4.125.872 9.147-2.507 13.435-5.135.297.13.752.174.87.397 4.28 8.133 4.234 7.646-5.293 8.444-5.463.458-10.752 2.87-16.154 4.272-1.65.428-3.71 1.083-5.07.478-3.692-1.646-7.095-3.938-10.642-5.92-3.065-1.712-6.17-3.352-9.872-5.356zM549.327 205.903c-2.574-2.91-5.047-5.813-7.645-8.6-1.352-1.45-2.98-2.64-4.378-4.05-1.08-1.09-2-2.34-2.992-3.52 1.927-.993 5.1-3.27 5.594-2.787 7.23 7.022 15.17 1.294 22.652 1.372 3.438.036 6.856-.5 7.773 3.175.88 3.523-.62 6.56-4.87 7.91-5.13 1.63-10.026 3.998-16.133 6.5zM207.056 496.3c3.234.634 6.477 1.232 9.7 1.92 1.114.24 2.212 1.087 3.264 1 8.345-.68 12.853 4.896 17.607 10.33 1.514 1.73 3.844 2.723 5.636 4.246 1.1.935 1.884 2.238 2.81 3.376-1.124.763-2.153 1.926-3.388 2.215-3.78.887-7.615 1.655-11.47 2.052-3.31.34-4.917-1.866-4.923-4.916-.013-6.228-3.464-9.473-8.87-11.69-3.923-1.61-7.545-3.956-11.3-5.974.31-.853.623-1.707.934-2.56z"/><path d="M597.968 263.222c-.54 1.916-1.046 3.917-1.684 5.874-.303.928-1.393 1.896-1.22 2.637 1.953 8.38-3.552 11.53-9.855 13.647-2.294.77-5.127-.067-7.714-.172.725-1.73 1.68-3.403 2.11-5.202.44-1.852.978-4.036.397-5.7-1.27-3.644-1.23-6.15 3.138-7.16 1.064-.245 2.29-.765 2.963-1.56 4.38-5.173 4.336-5.21 11.865-2.364zM275.163 530.886c-2.396.128-4.145.313-5.892.295-3.546-.033-7.016-.246-8.955 3.806-.425.89-2.343 1.772-3.312 1.545-2.14-.5-4.034-2.07-6.174-2.533-2.128-.46-4.433-.1-6.66-.1-.2-.584-.397-1.167-.596-1.75 1.436-.946 2.756-2.27 4.333-2.757 2.882-.892 4.825-2.3 4.697-5.525-.122-3.078 1.403-4.19 4.284-3.977.993.073 1.996.02 2.994.022 9.038.02 10.813 1.213 15.28 10.976zM273.33 145.858c1.736-1.623 3.394-3.343 5.24-4.827.818-.655 1.99-.986 3.052-1.19 1.288-.25 2.63-.23 3.95-.287 2.084-.088 4.17-.14 6.254-.208-.58 3.008-.15 7.157-1.97 8.762-2.842 2.51-7.255 4.548-10.908 4.402-2.676-.107-5.2-4.037-7.792-6.263l2.175-.39zM1016.734 598.678c6.685 3.593 9.735 13.754 6.026 19.02-.673.956-2.006 1.447-3.034 2.153-.514-1.077-1.306-2.11-1.493-3.242a293.124 293.124 0 0 1-1.983-14.09c-.14-1.182.29-2.43.484-3.84zM312.266 114.93c-1.68.88-3.552 2.726-5.005 2.44-3.307-.65-6.442-2.275-9.562-3.693-.463-.21-.875-1.816-.59-2.14.7-.79 1.95-1.837 2.748-1.67 4.207.874 8.34 2.092 12.5 3.19l-.09 1.874zM1161.2 520.285c.75.43.963.478 1.025.6 1.805 3.57.822 6.467-2.4 8.52-.52.332-2.546-.422-2.67-.955-.874-3.734 1.083-6.184 4.046-8.165zM322.45 109.16c.107 2.26.326 4.522.236 6.773-.02.518-1.162 1.444-1.69 1.38-.802-.1-2.155-.89-2.163-1.4-.035-2.272.326-4.55.545-6.823l3.072.07zM275.997 113.187l-7.66 5.1c-.46-.663-.917-1.327-1.375-1.99l7.562-5.242c.492.71.982 1.42 1.473 2.132zM679.876 387.48c7.268-1.085 8.136-.605 7.493 4.822-2.816-1.193-5.453-2.31-8.09-3.43.2-.462.398-.927.596-1.392z"/></g></svg>