<svg xmlns="http://www.w3.org/2000/svg" width="1200" height="1200" viewBox="0 0 1200 1200"><g fill-rule="evenodd" clip-rule="evenodd"><path d="M1 1201V1h1200v1200H1zM588.205 37.113c-.195 1.588-.383 2.716-.465 3.85-2.635 36.62-8.05 72.812-17.293 108.362-34.41 132.342-105.473 241.432-210.435 328.375-95.444 79.06-205.2 126.888-327.506 146.076-4.288.673-4.884 2.37-4.882 6.084.077 147.33.09 294.66.03 441.992-.007 16.683 2.315 32.91 9.488 48.03 14.464 30.488 36.64 50.607 72.343 50.615 328.16.075 656.322.024 984.483.087 24.594.005 44.064-10.114 59.23-28.922 16.353-20.283 22.806-43.917 22.8-69.667-.032-172.83-.016-345.66-.016-518.49 0-139.33-.025-278.662.026-417.993.008-19.31-3.585-37.773-13.024-54.683-15.832-28.36-39.1-43.93-72.75-43.864-165.164.32-330.328.146-495.492.146h-6.537zM27.688 585.71c1.277-.152 1.926-.186 2.557-.312 55.765-11.086 109.28-28.953 160.532-53.536 189.194-90.746 325.32-264.604 357.658-468.908 1.338-8.45 2.42-16.938 3.68-25.84-8.104 0-15.42.145-22.727-.07-3.047-.088-3.888 1.152-4.404 3.913-22.222 118.704-75.197 221.95-157.543 309.948-90.75 96.98-201.475 160.184-330.17 192.257-9.57 2.385-9.582 2.333-9.582 12.48v30.067z"/><path fill="#FFF" d="M588.205 37.113h6.537c165.164 0 330.328.175 495.492-.146 33.65-.065 56.918 15.505 72.75 43.863 9.44 16.91 13.032 35.374 13.024 54.683-.052 139.33-.027 278.662-.026 417.993 0 172.83-.017 345.66.017 518.49.004 25.75-6.448 49.384-22.803 69.667-15.165 18.808-34.636 28.927-59.23 28.922-328.16-.063-656.32-.012-984.482-.087-35.702-.008-57.88-20.127-72.343-50.616-7.172-15.12-9.495-31.347-9.488-48.03.06-147.33.046-294.66-.03-441.99-.002-3.716.594-5.412 4.882-6.085 122.307-19.19 232.06-67.017 327.506-146.077 104.962-86.943 176.024-196.033 210.436-328.375 9.244-35.55 14.658-71.74 17.293-108.36.082-1.136.27-2.264.465-3.852zM816.44 512.43l.036.868c19.923 1.596 39.896 2.744 59.75 4.952 12.17 1.354 24.44 3.384 36.152 6.85 11.655 3.45 13.516 11.094 5.22 19.868-6.69 7.075-14.367 13.47-22.442 18.93-16.96 11.466-34.543 22-51.728 33.14-15.428 10-30.03 21.04-41.576 35.602-11.73 14.792-18.65 31.588-16.527 50.478 3.78 33.61 16.917 63.047 45.94 82.244 17.255 11.414 35.945 21.01 54.865 29.465 23.044 10.3 46.728 19.778 73.036 16.724.815-.094 1.663.06 2.493.124 25.496 2.01 49.044 10.77 71.648 21.902 18.58 9.15 19.948 21.133 4.07 34.592-11.014 9.336-23.398 17.038-34.942 25.77-8.348 6.316-17.567 12.07-24.23 19.914-20.388 24.01-39.15 49.316-53.62 77.485-8.265 16.088-14.784 32.77-16.076 51.07-1.3 18.43 4.134 34.058 19.93 44.65 7.835 5.254 16.072 10.236 24.75 13.85 38.38 15.98 78.717 21.846 120.065 21.75 26.638-.06 49.168-10.46 68.68-27.947 3.402-3.05 6.14-6.998 8.59-10.904 1.93-3.073.93-6.146-3-6.717-5.72-.833-11.567-1.8-17.285-1.46-17.556 1.045-33.58 7.588-49.598 14.344-6.437 2.714-13.62 4.424-20.587 4.948-13.47 1.014-26.44-2.532-39.092-6.882-23.65-8.128-45.52-19.505-64.85-35.6-10.25-8.535-14.527-19.06-11.038-31.94 2.247-8.296 4.964-16.63 8.754-24.312 12.362-25.064 29.488-46.684 49.822-65.765 19.36-18.165 37.9-37.05 52.782-59.185 6.813-10.133 12.634-20.772 15.125-32.91 2.685-13.086-1.395-23.333-12.317-30.817-14.724-10.088-30.644-17.535-48.286-20.69-17.854-3.19-35.767-6.1-53.7-8.81-49.072-7.415-88-31.194-116.11-72.132-3.755-5.466-6.474-12.04-8.077-18.498-2.73-10.995.737-21.433 5.577-31.318 7.074-14.443 17.58-26.233 29.3-37.01 18.132-16.676 38.834-29.645 59.916-42.212 10.496-6.256 20.423-13.757 29.562-21.873 4.437-3.938 7.604-10.247 9.343-16.08 3.38-11.335-2.07-20.906-10.06-28.137-9.706-8.784-20.645-16.197-30.963-24.316-9.258-7.285-20.05-10.13-31.463-11.48-32.43-3.828-64.922-2.478-97.333-.364-9.652.63-14.963-1.495-20.92-9.672-27.13-37.255-62.35-65.397-103.005-86.83-30.545-16.1-62.91-21.036-96.87-15.038-24.77 4.375-47.803 13.11-67.807 28.745-20.4 15.944-24.607 30.06-16.715 54.825 18.597 58.344 75.288 101.503 136.873 104.347 37.642 1.738 74.485-2.78 110.427-14.055 16.56-5.195 32.72-11.387 45.964-23.293 1.042-.94 3.03-1.124 4.585-1.142 8.986-.102 17.973-.05 26.96-.05z"/><path fill="#FFF" d="M27.688 585.71v-30.07c0-10.145.013-10.093 9.58-12.478 128.697-32.073 239.422-95.278 330.173-192.257 82.347-87.997 135.322-191.244 157.544-309.948.517-2.76 1.357-4 4.404-3.912 7.307.214 14.623.07 22.727.07-1.26 8.9-2.342 17.39-3.68 25.84-32.34 204.303-168.464 378.16-357.658 468.907-51.252 24.583-104.768 42.45-160.532 53.536-.63.126-1.28.16-2.557.31z"/><path d="M816.44 512.43c-8.985 0-17.973-.054-26.957.05-1.555.017-3.543.202-4.585 1.14-13.244 11.906-29.405 18.098-45.964 23.293-35.94 11.275-72.785 15.793-110.427 14.055-61.585-2.844-118.276-46.003-136.873-104.347-7.893-24.764-3.685-38.88 16.715-54.824 20.003-15.635 43.035-24.37 67.806-28.745 33.96-5.997 66.325-1.06 96.87 15.04 40.656 21.432 75.875 49.574 103.006 86.83 5.956 8.176 11.267 10.3 20.918 9.67 32.41-2.113 64.902-3.463 97.333.366 11.414 1.348 22.205 4.193 31.463 11.48 10.317 8.118 21.257 15.53 30.964 24.315 7.99 7.23 13.438 16.803 10.06 28.138-1.74 5.833-4.907 12.142-9.344 16.08-9.14 8.116-19.065 15.617-29.562 21.873-21.082 12.567-41.784 25.537-59.917 42.214-11.718 10.775-22.225 22.565-29.3 37.01-4.84 9.885-8.307 20.322-5.576 31.317 1.605 6.458 4.323 13.033 8.077 18.5 28.112 40.937 67.04 64.716 116.11 72.132 17.935 2.71 35.847 5.617 53.7 8.81 17.644 3.154 33.564 10.602 48.287 20.69 10.923 7.484 15.002 17.73 12.316 30.817-2.49 12.137-8.312 22.776-15.125 32.91-14.882 22.135-33.423 41.02-52.782 59.184-20.334 19.08-37.46 40.7-49.823 65.765-3.79 7.682-6.507 16.015-8.754 24.31-3.49 12.883.79 23.406 11.04 31.94 19.328 16.096 41.196 27.473 64.848 35.6 12.652 4.35 25.62 7.897 39.092 6.883 6.967-.524 14.15-2.234 20.587-4.948 16.018-6.756 32.042-13.3 49.598-14.344 5.72-.34 11.565.628 17.286 1.46 3.93.57 4.93 3.644 3 6.717-2.45 3.906-5.188 7.854-8.59 10.904-19.512 17.487-42.042 27.888-68.68 27.95-41.35.094-81.685-5.77-120.066-21.752-8.677-3.613-16.914-8.596-24.75-13.85-15.795-10.593-21.23-26.22-19.93-44.65 1.293-18.3 7.813-34.982 16.077-51.07 14.47-28.17 33.232-53.477 53.62-77.485 6.662-7.845 15.882-13.598 24.23-19.913 11.544-8.733 23.93-16.436 34.942-25.77 15.877-13.46 14.508-25.442-4.07-34.593-22.605-11.132-46.153-19.893-71.65-21.902-.83-.065-1.678-.218-2.493-.123-26.31 3.055-49.992-6.424-73.036-16.724-18.92-8.456-37.61-18.05-54.865-29.465-29.022-19.197-42.16-48.633-45.94-82.244-2.123-18.89 4.8-35.687 16.528-50.48 11.547-14.562 26.148-25.6 41.576-35.6 17.184-11.14 34.768-21.675 51.727-33.142 8.075-5.46 15.752-11.854 22.44-18.93 8.298-8.773 6.438-16.418-5.218-19.867-11.712-3.465-23.982-5.495-36.153-6.85-19.854-2.207-39.827-3.355-59.75-4.95l-.036-.87z"/></g></svg>