<svg xmlns="http://www.w3.org/2000/svg" width="1200" height="1200" viewBox="0 0 1200 1200"><g fill-rule="evenodd" clip-rule="evenodd"><path d="M1 1201V1h1200v1200H1zm600.517-30.457c163.988 0 327.978-.056 491.966.06 24.986.017 44.725-10.144 60.035-29.337 16.127-20.217 22.487-43.712 22.482-69.277-.035-167.323-.018-334.646-.018-501.968 0-144.824-.024-289.647.026-434.47.007-19.306-3.575-37.77-13.01-54.684-14.863-26.655-36.44-43.68-68.22-43.69-328.643-.104-657.287-.067-985.93-.058-22.71 0-41.323 9.136-56.056 26.086-18.1 20.825-25.145 45.544-25.14 72.785.055 311.98.04 623.958.022 935.937 0 12.55 1.433 24.84 5.218 36.872 12.798 40.683 41.244 61.743 83.655 61.743h484.97z"/><path fill="#FFF" d="M601.517 1170.543H116.55c-42.412 0-70.857-21.06-83.655-61.744-3.785-12.034-5.22-24.324-5.218-36.873.016-311.98.032-623.957-.022-935.936-.005-27.24 7.04-51.96 25.14-72.784C67.528 46.256 86.14 37.12 108.85 37.12c328.644-.01 657.288-.047 985.932.058 31.778.01 53.355 17.035 68.22 43.69 9.434 16.914 13.016 35.378 13.01 54.683-.052 144.824-.027 289.647-.027 434.472 0 167.322-.018 334.645.018 501.967.005 25.564-6.355 49.06-22.482 69.276-15.31 19.193-35.048 29.354-60.034 29.336-163.992-.115-327.98-.06-491.97-.06zM581.55 53.106c-1.645 3.357-2.82 5.887-4.108 8.357-2.323 4.45-5.646 8.624-6.873 13.35-2.23 8.57-3.267 17.457-4.725 26.224-.816 4.912-1.158 9.924-2.28 14.76-1.963 8.467-4.56 16.787-6.504 25.257-1.18 5.137-1.3 10.516-2.483 15.65-2.306 10.005-5.22 19.87-7.49 29.88-1.17 5.155-1.124 10.588-2.308 15.74-1.717 7.47-4.304 14.74-6.046 22.206-1.748 7.49-2.82 15.138-4.362 22.68-1.668 8.156-3.566 16.266-5.31 24.406-1.127 5.27-2.16 10.562-3.227 15.846-1.038 5.146-1.988 10.31-3.115 15.437-.957 4.352-2.682 8.617-3.022 13.002-.364 4.674-1.29 8.846-2.982 13.314-2.806 7.41-4.348 15.413-5.48 23.302-.837 5.842.237 11.84-3.676 17.192-1.243 1.7-.537 4.826-.727 7.3-.266 3.47.714 7.854-1.035 10.236-5.404 7.36-3.94 16.384-7.076 24.322-3.193 8.085-3.668 17.25-5.26 25.957-.566 3.093-.647 6.293-1.42 9.326-2.06 8.102-4.574 16.09-6.503 24.22-.987 4.16-2.584 6.383-7.3 6.173-16.47-.733-32.95-1.134-49.423-1.747-20.62-.77-41.232-1.717-61.854-2.414a7899.538 7899.538 0 0 0-74.293-2.188c-13.322-.325-26.66-.023-39.98-.438-20.294-.632-40.572-1.7-60.774-3.916-3.635-.398-7.385.06-10.97-.54-4.965-.83-9.247.012-11.53 4.61-1.584 3.192-2.256 6.94-2.803 10.52-.615 4.033 5.01 10.293 9.063 10.88 9.6 1.396 19.35 2.262 28.724 4.6 8.778 2.19 8.833 2.033 8.122 10.29-1.7 19.74-3.73 39.456-5.928 59.148-4.12 36.902-8.493 73.775-12.686 110.67-4.136 36.4-8.143 72.813-12.273 109.214a66047.91 66047.91 0 0 1-13.65 119.123 6460.088 6460.088 0 0 1-6.333 53.017c-.14 1.13-1.228 3.075-1.86 3.07-5.697-.05-9.76 2.2-12.102 7.475-.13.293-1.06.152-1.363.463-.814.833-2.123 1.843-2.067 2.707.075 1.165 1.17 2.313 1.96 3.372.893 1.198 2.684 2.224 2.79 3.44 1.32 14.966 9.266 22.12 25.732 25.864 2.064.47 3.95 1.68 5.958 2.45 4.433 1.698 8.773 4.096 13.368 4.802 5.53.85 11.324.664 16.938.174 9.9-.864 19.824-1.877 29.603-3.597 14.448-2.54 28.78-5.752 43.16-8.68 2.89-.59 5.78-1.17 8.667-1.782 8.487-1.8 17.064-3.27 25.43-5.528 6.978-1.883 13.71-4.69 20.55-7.093 7.134-2.508 14.303-4.923 21.385-7.57 4.155-1.555 8.196-3.43 12.243-5.26 4.432-2.007 8.81-4.134 13.215-6.2 7.646-3.582 15.433-6.897 22.91-10.803 10.153-5.3 20.022-11.138 30.1-16.585 9.785-5.29 19.974-9.895 29.446-15.682 10.105-6.174 19.773-13.12 29.287-20.196 15.108-11.234 30.163-22.566 44.787-34.418 9.278-7.52 18.027-15.762 26.456-24.235 5.77-5.8 11.885-6.196 19.052-4.032 4.37 1.32 8.85 2.362 13.344 3.16 10.61 1.883 13.45 6.313 10.697 17.004-1.066 4.14-2.318 8.276-2.874 12.495-2.24 17-4.24 34.033-6.327 51.055-1.43 11.646-2.9 23.29-4.263 34.943-1.597 13.66-2.99 27.346-4.664 40.997-2.346 19.13-4.858 38.238-7.32 57.354-.997 7.734-1.905 15.484-3.123 23.185-.887 5.616-2.97 10.555-8.94 12.837-1.274.487-2.55 1.775-3.18 3.02-5.016 9.913-1.573 27.252 5.67 36.162 4.896 6.023 11.448 7.254 17.92 9.454 5.788 1.968 11.617 3.88 17.223 6.293 1.79.77 3.01 4.502 4.338 4.42 5.383-.33 11.68 3.153 15.995-3.198.637-.94 2.678-1.04 4.11-1.3 8.908-1.608 18.046-2.397 26.696-4.89 13.877-3.995 27.448-9.06 41.113-13.77 3.823-1.318 7.49-3.084 11.297-4.46 5.163-1.865 10.538-3.214 15.56-5.39 8.573-3.718 17.063-7.672 25.37-11.948 13.11-6.75 26.578-13.016 38.92-20.993 18.54-11.984 36.696-24.677 54.163-38.17 17.175-13.27 33.715-27.443 49.732-42.097 13.218-12.093 25.445-25.297 37.776-38.325 10.217-10.795 20.154-21.87 29.824-33.158 8.268-9.652 15.835-19.902 23.978-29.665 7.814-9.37 14.883-19.098 17.464-31.3.786-3.718.616-7.632 1.298-11.38 1.414-7.776-.502-10.972-8.348-12.865-5.92-1.43-11.828-3.002-17.828-3.97-4.36-.704-9.034-1.386-12.58 2.62-3.086 3.49-6.266 6.897-9.325 10.41-11.66 13.39-23.17 26.91-34.98 40.166-6.08 6.827-12.643 13.227-19.056 19.753-1.23 1.252-2.78 2.195-4.18 3.28-.772-1.67-2.178-3.33-2.208-5.017-.145-7.977.077-15.96.187-23.94.605-44.312 1.548-88.623 1.646-132.937.034-15.634 3.805-30.444 6.706-45.508.436-2.262 1.427-4.416 1.882-6.676 1.847-9.165 3.44-18.384 5.4-27.524 2.338-10.91 5.032-21.743 7.415-32.644.986-4.517 1.313-9.183 2.385-13.675 1.858-7.786 4.168-15.463 6.092-23.233 1.652-6.676 2.997-13.427 4.55-20.128.445-1.924 1.353-3.753 1.682-5.688 1.598-9.393 2.666-18.896 4.688-28.192 2.52-11.575 5.863-22.97 8.698-34.48 1.023-4.155 1.455-8.454 2.428-12.625.892-3.816 2.426-7.493 3.188-11.33 1.697-8.53 2.738-17.205 4.696-25.67 2.285-9.88 5.267-19.595 7.93-29.386.128-.475.046-1.002.134-1.49 1.598-8.88 2.99-17.807 4.868-26.628 2.438-11.444 5.257-22.81 7.928-34.203a2685.14 2685.14 0 0 1 3.992-16.767c.727-3.01 1.59-5.99 2.224-9.02.37-1.772.19-3.668.634-5.412 2.51-9.855 5.412-19.62 7.646-29.538 2.517-11.167 4.46-22.463 6.668-33.7 1.14-5.792 2.133-11.62 3.51-17.357 2.268-9.433 4.924-18.772 7.176-28.208 2.937-12.308 5.702-24.656 8.414-37.016 1.2-5.47 1.94-11.042 3.178-16.503.72-3.18 2.194-6.184 2.992-9.352.917-3.64 1.368-7.395 2.198-11.06.512-2.257 1.552-4.4 2.01-6.662 1.99-9.82 3.352-19.8 5.892-29.47 2.93-11.15 5.755-22.224 4.672-33.845-.797-8.56-4.825-12.264-12.856-13.48-8.346-1.267-16.89-1.316-25.357-1.664-9.088-.373-15.544 5.263-16.722 14.264-.744 5.692-3.42 7.987-9.085 7.226-12.15-1.632-24.272-3.486-36.41-5.213-10.105-1.437-20.23-2.742-30.32-4.272-3.918-.595-7.765-1.652-11.646-2.49-2.4-.518-4.79-1.13-7.213-1.502-3.76-.576-7.562-.89-11.32-1.483-5.353-.847-10.662-1.993-16.028-2.748a4175.925 4175.925 0 0 0-42.274-5.703c-13.755-1.793-27.484-4.035-41.3-5.034-10.925-.79-21.966-.074-32.952.114-19.3.332-38.596.82-57.896 1.153-21.15.364-42.303.645-63.454.92-3.705.047-5.86-1.813-6.344-5.59-.732-5.724-3.29-10.386-8.163-13.673a6.168 6.168 0 0 1-1.68-1.727c-2.6-4.025-5.576-4.23-8.573-.494-2.167 2.7-4.13 2.868-6.396-.016-.887-1.13-2.416-2.354-3.728-2.443-4.453-.3-8.938-.114-13.032-.114z"/><path d="M581.55 53.106c4.094 0 8.58-.187 13.03.115 1.312.09 2.84 1.314 3.73 2.444 2.264 2.884 4.228 2.717 6.395.017 2.997-3.734 5.975-3.53 8.572.495a6.167 6.167 0 0 0 1.68 1.727c4.872 3.287 7.43 7.95 8.163 13.674.483 3.776 2.64 5.636 6.344 5.588 21.15-.274 42.304-.555 63.454-.92 19.3-.332 38.596-.82 57.896-1.152 10.986-.188 22.027-.904 32.95-.114 13.817 1 27.547 3.24 41.302 5.034 14.1 1.837 28.194 3.722 42.274 5.703 5.366.755 10.675 1.9 16.03 2.748 3.757.593 7.558.907 11.32 1.483 2.423.372 4.81.984 7.212 1.503 3.88.836 7.728 1.894 11.645 2.488 10.09 1.53 20.216 2.835 30.32 4.273 12.14 1.728 24.26 3.582 36.41 5.214 5.667.762 8.342-1.533 9.086-7.226 1.178-9 7.634-14.637 16.722-14.264 8.467.348 17.012.397 25.357 1.663 8.03 1.218 12.06 4.922 12.856 13.48 1.083 11.622-1.743 22.695-4.672 33.846-2.54 9.67-3.902 19.648-5.892 29.47-.458 2.263-1.498 4.405-2.01 6.662-.83 3.665-1.28 7.42-2.198 11.06-.798 3.168-2.272 6.172-2.992 9.352-1.237 5.46-1.978 11.033-3.178 16.504-2.712 12.36-5.478 24.71-8.414 37.017-2.252 9.436-4.908 18.775-7.175 28.208-1.378 5.736-2.372 11.565-3.51 17.358-2.21 11.236-4.152 22.532-6.67 33.7-2.233 9.916-5.135 19.682-7.645 29.538-.444 1.745-.264 3.642-.634 5.412-.634 3.03-1.497 6.01-2.224 9.02a2550.565 2550.565 0 0 0-3.992 16.767c-2.67 11.394-5.49 22.758-7.928 34.202-1.88 8.82-3.27 17.747-4.868 26.627-.088.488-.006 1.016-.135 1.49-2.66 9.79-5.643 19.506-7.928 29.384-1.958 8.466-3 17.14-4.696 25.672-.763 3.836-2.297 7.513-3.188 11.33-.973 4.17-1.404 8.47-2.428 12.625-2.835 11.51-6.18 22.904-8.698 34.48-2.022 9.297-3.09 18.8-4.688 28.192-.33 1.935-1.236 3.764-1.682 5.687-1.553 6.7-2.897 13.45-4.55 20.127-1.924 7.77-4.233 15.447-6.092 23.232-1.07 4.49-1.398 9.157-2.385 13.674-2.383 10.9-5.077 21.734-7.416 32.644-1.96 9.14-3.554 18.36-5.4 27.524-.455 2.26-1.446 4.414-1.883 6.676-2.9 15.063-6.672 29.874-6.706 45.508-.097 44.313-1.04 88.625-1.645 132.938-.11 7.98-.33 15.963-.188 23.94.03 1.685 1.436 3.345 2.207 5.017 1.4-1.085 2.95-2.028 4.18-3.28 6.414-6.527 12.978-12.927 19.058-19.754 11.81-13.256 23.318-26.777 34.98-40.166 3.06-3.513 6.238-6.92 9.325-10.41 3.545-4.006 8.22-3.324 12.58-2.62 6 .968 11.907 2.54 17.827 3.97 7.846 1.894 9.762 5.09 8.348 12.864-.682 3.75-.512 7.663-1.298 11.382-2.58 12.2-9.65 21.93-17.464 31.3-8.143 9.762-15.71 20.012-23.978 29.664-9.67 11.287-19.607 22.363-29.823 33.158-12.332 13.028-24.56 26.232-37.777 38.325-16.018 14.653-32.558 28.828-49.732 42.096-17.466 13.493-35.622 26.186-54.16 38.17-12.344 7.977-25.812 14.243-38.922 20.992-8.308 4.276-16.797 8.23-25.37 11.947-5.02 2.176-10.396 3.524-15.56 5.39-3.806 1.376-7.474 3.142-11.297 4.46-13.664 4.71-27.235 9.775-41.11 13.77-8.65 2.492-17.79 3.28-26.697 4.89-1.433.26-3.474.36-4.11 1.3-4.315 6.35-10.612 2.868-15.994 3.198-1.33.08-2.55-3.65-4.34-4.42-5.604-2.415-11.434-4.326-17.223-6.294-6.47-2.2-13.022-3.43-17.92-9.455-7.242-8.91-10.685-26.25-5.668-36.162.63-1.245 1.903-2.533 3.178-3.02 5.97-2.283 8.054-7.222 8.94-12.837 1.218-7.7 2.126-15.45 3.122-23.184 2.463-19.115 4.976-38.224 7.32-57.354 1.675-13.65 3.068-27.336 4.665-40.997 1.362-11.654 2.834-23.297 4.262-34.943 2.086-17.02 4.088-34.054 6.327-51.055.556-4.22 1.808-8.354 2.873-12.495 2.752-10.69-.088-15.12-10.697-17.004-4.495-.798-8.975-1.84-13.344-3.16-7.167-2.164-13.28-1.77-19.052 4.033-8.43 8.475-17.178 16.718-26.456 24.236-14.624 11.852-29.68 23.184-44.787 34.418-9.513 7.075-19.18 14.022-29.286 20.196-9.473 5.787-19.66 10.393-29.446 15.682-10.077 5.447-19.946 11.284-30.1 16.585-7.478 3.905-15.264 7.22-22.91 10.804-4.406 2.066-8.783 4.193-13.215 6.2-4.047 1.83-8.088 3.705-12.243 5.26-7.082 2.647-14.25 5.062-21.386 7.57-6.84 2.402-13.57 5.21-20.55 7.092-8.364 2.257-16.94 3.73-25.43 5.53-2.885.61-5.776 1.192-8.667 1.78-14.38 2.93-28.71 6.14-43.16 8.68-9.78 1.72-19.703 2.733-29.603 3.598-5.614.49-11.406.677-16.938-.174-4.595-.706-8.935-3.104-13.368-4.803-2.007-.77-3.894-1.98-5.958-2.45-16.466-3.743-24.41-10.897-25.73-25.864-.108-1.217-1.9-2.242-2.793-3.44-.788-1.06-1.884-2.208-1.96-3.373-.055-.864 1.253-1.874 2.068-2.707.303-.31 1.232-.17 1.363-.463 2.342-5.273 6.405-7.525 12.1-7.476.634.007 1.722-1.937 1.862-3.068a6416.776 6416.776 0 0 0 6.333-53.017c4.58-39.704 9.144-79.41 13.65-119.123 4.13-36.4 8.137-72.814 12.273-109.214 4.192-36.895 8.566-73.768 12.686-110.67 2.198-19.692 4.227-39.408 5.928-59.148.71-8.257.656-8.1-8.122-10.29-9.375-2.338-19.123-3.204-28.724-4.6-4.052-.587-9.68-6.847-9.063-10.88.548-3.58 1.22-7.328 2.805-10.52 2.282-4.6 6.564-5.44 11.528-4.61 3.586.6 7.336.142 10.97.54 20.203 2.217 40.48 3.284 60.776 3.916 13.316.415 26.655.113 39.978.438 24.768.604 49.532 1.35 74.293 2.188 20.622.697 41.235 1.646 61.855 2.414 16.473.613 32.954 1.014 49.422 1.747 4.717.21 6.313-2.014 7.3-6.174 1.93-8.13 4.444-16.118 6.504-24.22.772-3.032.854-6.232 1.42-9.325 1.592-8.706 2.066-17.872 5.26-25.957 3.136-7.938 1.672-16.96 7.076-24.322 1.75-2.382.77-6.768 1.035-10.237.19-2.474-.516-5.6.728-7.3 3.913-5.352 2.84-11.35 3.677-17.192 1.13-7.89 2.673-15.893 5.48-23.302 1.692-4.47 2.617-8.64 2.98-13.314.342-4.385 2.066-8.65 3.023-13.003 1.127-5.127 2.077-10.292 3.115-15.438 1.065-5.284 2.1-10.575 3.228-15.846 1.743-8.14 3.642-16.25 5.31-24.406 1.542-7.542 2.614-15.188 4.362-22.68 1.742-7.466 4.33-14.735 6.045-22.206 1.184-5.152 1.137-10.585 2.308-15.74 2.27-10.01 5.185-19.875 7.49-29.88 1.184-5.135 1.305-10.514 2.484-15.65 1.943-8.47 4.54-16.79 6.504-25.257 1.12-4.836 1.463-9.848 2.28-14.76 1.457-8.767 2.494-17.652 4.723-26.224 1.228-4.726 4.55-8.898 6.873-13.35 1.29-2.47 2.465-5 4.11-8.357zM843.32 908.27v-43.307c.003-10.83.007-21.658.013-32.487 0-3.22-1.102-5.982-4.766-5.396-10.38 1.66-20.654 3.995-31.047 5.558-11.606 1.744-23.302 2.9-34.95 4.375-6.42.813-12.83 1.704-19.23 2.647-7.99 1.177-15.968 2.442-23.95 3.672-1.305.2-2.612.392-3.912.627-6.622 1.196-13.225 2.515-19.868 3.58-4.743.76-9.563 1.04-14.307 1.803-4.067.652-8.176 1.377-12.064 2.673-1.952.65-4.617 2.408-4.956 4.073-1.246 6.11-1.668 12.392-2.364 18.612-.203 1.815-.194 3.658-.445 5.465-1.247 9.007-2.626 17.995-3.807 27.01-.97 7.403-1.683 14.84-2.585 22.253-1.222 10.028-2.527 20.046-3.77 30.07-.327 2.634-.5 5.286-.846 7.915-1.104 8.354-2.28 16.697-3.373 25.052-.28 2.14-.304 4.31-.543 6.455-1.21 10.833-2.487 21.66-3.66 32.495-.25 2.31.012 4.676-.266 6.98-1.323 11.004-2.89 21.98-4.085 33-.654 6.025 1.963 7.978 7.785 6.002 16.08-5.455 32.48-10.176 48.067-16.802 18.49-7.86 36.47-17.007 54.264-26.372 10.465-5.51 20.3-12.283 30.125-18.92 14.648-9.895 28.838-20.477 43.625-30.15 7.2-4.713 9.27-10.233 9.2-18.79-.17-20.798 1.147-41.607 1.716-58.095zm-389.4-63.565c0-4.667.248-9.35-.06-13.996-.418-6.288-1.14-12.564-1.967-18.813-.548-4.138-3.1-6.37-7.36-6.795-2.445-.243-4.88-.81-7.256-1.467-5.393-1.49-10.703-3.292-16.124-4.66-9.096-2.297-18.25-4.363-27.383-6.508-9.322-2.188-18.675-4.25-27.97-6.554-13.416-3.325-26.687-7.33-40.22-10.07-10.46-2.12-20.21-7.54-31.275-6.79-.455.03-.927-.333-1.403-.473-6.458-1.894-12.863-4.016-19.397-5.597-5.588-1.354-11.552-1.42-16.948-3.243-8.538-2.884-11.788-2.025-13.022 6.65-2.145 15.074-2.04 30.397-5.335 45.403-1.408 6.41-.56 13.28-1.305 19.877-1.49 13.19-3.437 26.327-5.058 39.503-.445 3.62.236 7.475-.713 10.915-2.77 10.035-3.856 20.182-3.754 30.547.027 2.768-.907 5.53-1.194 8.318-1.036 10.04-2.112 20.08-2.875 30.142-.193 2.556 1.29 4.442 4.465 3.794 9.706-1.98 19.45-3.776 29.123-5.908 12.23-2.694 24.44-5.487 36.583-8.54 10.384-2.608 20.774-5.294 30.955-8.585 10.464-3.383 20.844-7.15 30.965-11.445 17.157-7.282 34.37-14.538 51.018-22.884 15-7.52 29.344-16.367 43.778-24.963 1.856-1.104 3.424-4.157 3.566-6.407.455-7.125.17-14.3.168-21.453zM258.235 664.87c1.44-.862 2.22-1.705 3.064-1.78 34.84-3.078 69.687-6.074 104.53-9.11 25.388-2.21 50.766-4.526 76.16-6.626 3.75-.31 5.073-1.908 5.643-5.454.967-6.02 2.475-11.957 3.79-17.92 1.488-6.756 3.094-13.485 4.506-20.256 2.356-11.3 4.353-22.682 6.965-33.922 2.3-9.896 5.523-19.58 7.794-29.48 1.87-8.158 3.11-16.474 4.328-24.763 1.842-12.556 1.726-12.298-11.32-12.504-34.613-.547-69.223-1.37-103.834-2.05-10.662-.21-21.324-.395-31.987-.454-16.33-.092-32.66-.064-48.99-.087-2.396-.003-4.55-.127-4.925 3.352-1.53 14.178-3.297 28.33-4.976 42.49-.53 4.462-1.078 8.92-1.58 13.383-1.338 11.857-2.656 23.717-3.98 35.575-.24 2.14-.44 4.285-.716 6.42-1.163 9.013-2.27 18.034-3.547 27.03-1.087 7.668-2.02 15.385-3.688 22.933-1.358 6.15-.692 10.658 2.76 13.223zm291.57-5.49L659.56 164.548c-2.172-.234-3.62-.423-5.077-.544-13.278-1.106-26.562-2.147-39.834-3.32-7.567-.67-10.236 1.645-10.5 9.415-.094 2.825.636 6.104-.538 8.394-5.1 9.95-4.64 21.168-7.787 31.584-3.793 12.552-5.878 25.62-8.698 38.466-1.402 6.386-2.84 12.764-4.183 19.162-1.38 6.574-2.592 13.185-4.03 19.745-.52 2.38-1.752 4.617-2.188 7.006-1.74 9.534-2.948 19.178-5.015 28.636-2.136 9.784-5.275 19.345-7.55 29.103-3.17 13.61-5.952 27.31-8.88 40.974-1.41 6.586-2.795 13.178-4.144 19.777-.718 3.515-1.285 7.06-2.005 10.574-1.673 8.17-3.214 16.372-5.147 24.48-2.33 9.767-5.234 19.398-7.482 29.182-3.062 13.33-5.712 26.755-8.603 40.125-.52 2.398-1.448 4.707-2 7.1-1.066 4.612-1.986 9.258-2.993 13.884-.384 1.765-.932 3.495-1.25 5.27-1.614 9.02-2.9 18.113-4.832 27.066-2.384 11.057-5.374 21.98-7.943 33-2.77 11.87-5.118 23.843-8.104 35.657-1.953 7.73-.18 10.606 7.6 11.995 13.628 2.43 27.18 5.29 41.428 8.103zM713.45 168.953l-87.657 376.673c2.658 0 4.473.024 6.287-.004 14.328-.224 28.66-.737 42.983-.546 5.267.07 6.924-1.745 8.025-6.677 23.987-107.337 48.165-214.63 72.307-321.934 3.207-14.255 6.423-28.508 9.72-43.136l-51.665-4.375zm199.6 16.82l-78.59 354.284c17.398-.548 34.02-1.238 50.647-1.494 5.108-.08 7.37-1.693 6.99-6.947-.12-1.682.873-3.435 1.312-5.167.955-3.772 1.99-7.53 2.796-11.334 1.97-9.28 3.81-18.588 5.76-27.87.2-.954.896-1.793 1.195-2.737a78.902 78.902 0 0 0 1.542-5.57c1.027-4.32 1.992-8.652 2.992-12.978.403-1.746 1.3-3.522 1.17-5.222-.912-11.895 5.38-22.274 6.908-33.66.78-5.828 2.618-11.506 3.706-17.302 1.634-8.695 3.02-17.437 4.54-26.152.08-.465.345-.97.675-1.31 3.366-3.447 3.323-7.785 3.316-12.156-.002-1.64-.323-3.89.577-4.816 4.255-4.388 3.55-9.732 3.717-15.018.05-1.57.97-3.103 1.412-4.675.93-3.295 1.952-6.572 2.672-9.914.934-4.342 1.41-8.786 2.442-13.102 1.862-7.793 4.236-15.47 5.94-23.294 1.955-8.97 3.26-18.082 5.123-27.074 2.67-12.887 5.56-25.728 8.412-38.576.96-4.324 2.183-8.59 3.12-12.92 2.15-9.94 4.198-19.904 6.396-30.376-18.623-1.572-36.474-3.08-54.767-4.623zm-45.82-3.842c-15.91-1.344-31.342-2.416-46.71-4.076-5.01-.54-6.426 1.144-7.425 5.713-24.202 110.71-48.56 221.385-72.877 332.068-1.975 8.99-3.856 18-5.62 26.248 14.5 0 28.48-.24 42.447.123 5.228.136 6.937-1.72 8.078-6.67 18.35-79.615 36.932-159.175 55.452-238.75 8.825-37.915 17.632-75.835 26.656-114.656zm-71.42 532.497c8.5 2.003 16.393 3.976 24.34 5.704 7.786 1.694 15.61 3.226 23.45 4.653 3.63.66 6.14-.78 6.91-4.674.89-4.477 1.758-8.962 2.853-13.39 1.543-6.24 3.505-12.383 4.898-18.653 2.896-13.02 5.495-26.108 8.324-39.145.41-1.886 1.756-3.582 2.084-5.468 1.45-8.314 2.628-16.676 4.02-25 .82-4.91 1.866-9.782 2.794-14.674 1.284-6.77 3.007-13.495 3.69-20.324.592-5.928-3.298-7.827-9.147-6.04-5.432 1.66-11.115 2.932-16.764 3.347-7.625.562-15.328.312-22.986.065-3.62-.116-5.227.934-6.028 4.67-5.202 24.238-10.675 48.42-16.034 72.624-4.095 18.5-8.153 37.008-12.403 56.305zM774.21 581.674c-.945-.343-1.4-.65-1.857-.652-14.47-.054-28.942-.183-43.408.068-1.325.022-3.413 2.304-3.785 3.86-3.12 13.092-5.927 26.258-8.82 39.402-4.68 21.26-9.36 42.518-14.02 63.78-.53 2.41-1.497 4.915 2.328 5.776 13.55 3.054 27.068 6.237 41.217 9.515 9.542-40.993 18.943-81.366 28.344-121.75zm-178.06 91.258c3.024-.38 5.486-1.213 7.78-.884 7.16 1.028 14.263 2.445 21.37 3.804 11.306 2.16 11.516 2.228 13.405-9.105 4.708-28.236 9.173-56.514 13.823-84.76.47-2.85-.163-4.305-3.155-4.926-8.137-1.687-16.227-3.603-24.338-5.417-3.297-.738-5.43.254-6.177 3.833-1.053 5.04-2.315 10.034-3.485 15.05L596.15 672.93zm-82.704 151.423c-2.908 0-4.994-.45-6.69.17-1.004.367-1.85 2.396-1.932 3.728-.086 1.395.83 2.85 1.31 4.28 1.253-.598 2.864-.894 3.68-1.86 1.31-1.56 2.1-3.563 3.632-6.318z"/><path fill="#FFF" d="M843.32 908.27c-.568 16.49-1.885 37.3-1.715 58.097.07 8.556-2 14.076-9.2 18.788-14.788 9.675-28.978 20.257-43.625 30.15-9.826 6.638-19.66 13.412-30.125 18.92-17.793 9.366-35.774 18.513-54.264 26.373-15.586 6.626-31.987 11.347-48.066 16.8-5.822 1.977-8.44.024-7.786-6.002 1.195-11.018 2.762-21.995 4.085-33 .277-2.304.016-4.67.266-6.98 1.172-10.835 2.448-21.66 3.66-32.494.24-2.146.263-4.316.543-6.455 1.094-8.354 2.27-16.698 3.373-25.052.347-2.63.52-5.28.845-7.914 1.245-10.024 2.55-20.042 3.772-30.07.902-7.412 1.616-14.85 2.585-22.253 1.18-9.015 2.56-18.003 3.807-27.01.25-1.807.242-3.65.445-5.465.695-6.22 1.117-12.502 2.363-18.613.34-1.666 3.004-3.424 4.955-4.074 3.89-1.296 7.997-2.02 12.064-2.673 4.743-.762 9.563-1.044 14.307-1.804 6.643-1.065 13.245-2.384 19.867-3.58 1.3-.236 2.607-.427 3.913-.628 7.98-1.23 15.96-2.495 23.948-3.672 6.4-.943 12.812-1.835 19.23-2.647 11.65-1.475 23.345-2.63 34.95-4.375 10.394-1.563 20.668-3.896 31.048-5.558 3.664-.586 4.767 2.177 4.766 5.396-.006 10.83-.01 21.658-.012 32.487v43.308zM453.92 844.704c0 7.155.287 14.33-.166 21.455-.143 2.25-1.71 5.302-3.566 6.406-14.435 8.596-28.78 17.443-43.778 24.963-16.648 8.345-33.86 15.6-51.018 22.883-10.12 4.296-20.5 8.063-30.965 11.445-10.18 3.29-20.57 5.977-30.954 8.586-12.144 3.052-24.355 5.845-36.583 8.54-9.672 2.13-19.417 3.926-29.123 5.906-3.174.648-4.658-1.238-4.464-3.794.762-10.063 1.84-20.102 2.875-30.142.287-2.787 1.222-5.55 1.194-8.318-.103-10.365.985-20.512 3.754-30.547.95-3.44.268-7.297.713-10.916 1.62-13.176 3.565-26.313 5.057-39.503.746-6.596-.103-13.466 1.305-19.876 3.295-15.006 3.19-30.33 5.335-45.403 1.235-8.675 4.485-9.533 13.022-6.65 5.395 1.824 11.36 1.89 16.947 3.244 6.534 1.58 12.938 3.703 19.397 5.597.476.14.948.505 1.403.474 11.066-.75 20.816 4.67 31.276 6.79 13.53 2.74 26.803 6.745 40.22 10.07 9.294 2.303 18.646 4.365 27.97 6.554 9.133 2.145 18.286 4.21 27.382 6.507 5.42 1.37 10.73 3.172 16.124 4.66 2.374.657 4.81 1.225 7.254 1.468 4.26.426 6.813 2.657 7.36 6.795.83 6.25 1.55 12.524 1.967 18.812.308 4.645.06 9.328.06 13.994zM258.235 664.87c-3.452-2.564-4.118-7.07-2.76-13.223 1.668-7.548 2.602-15.265 3.69-22.932 1.275-8.997 2.383-18.02 3.546-27.03.276-2.136.478-4.28.717-6.42 1.324-11.86 2.642-23.72 3.98-35.576.502-4.464 1.05-8.922 1.58-13.383 1.68-14.16 3.445-28.313 4.976-42.49.375-3.48 2.53-3.355 4.925-3.353 16.33.022 32.66-.005 48.99.087 10.663.06 21.325.245 31.987.455 34.61.68 69.22 1.503 103.834 2.05 13.045.206 13.16-.052 11.32 12.503-1.218 8.29-2.46 16.604-4.33 24.762-2.27 9.902-5.494 19.585-7.794 29.48-2.61 11.24-4.608 22.622-6.966 33.923-1.412 6.77-3.018 13.5-4.507 20.255-1.314 5.964-2.822 11.9-3.79 17.92-.568 3.547-1.892 5.146-5.64 5.455-25.397 2.1-50.774 4.415-76.16 6.627-34.845 3.035-69.693 6.03-104.533 9.11-.845.075-1.623.918-3.065 1.78zM549.804 659.38c-14.25-2.812-27.8-5.673-41.428-8.104-7.78-1.39-9.554-4.266-7.6-11.995 2.984-11.813 5.333-23.787 8.102-35.657 2.57-11.02 5.56-21.942 7.943-33 1.932-8.952 3.22-18.044 4.834-27.066.317-1.773.865-3.504 1.25-5.268 1.006-4.627 1.926-9.272 2.99-13.885.554-2.393 1.483-4.7 2.002-7.1 2.89-13.37 5.54-26.795 8.604-40.125 2.248-9.783 5.153-19.415 7.482-29.182 1.934-8.107 3.475-16.31 5.148-24.48.72-3.514 1.287-7.06 2.005-10.573 1.35-6.6 2.734-13.19 4.145-19.778 2.927-13.665 5.71-27.364 8.88-40.974 2.273-9.758 5.413-19.318 7.55-29.103 2.066-9.458 3.274-19.102 5.015-28.636.437-2.39 1.668-4.625 2.19-7.007 1.437-6.56 2.648-13.17 4.028-19.745 1.344-6.398 2.78-12.776 4.183-19.162 2.82-12.846 4.905-25.914 8.698-38.466 3.148-10.416 2.688-21.633 7.787-31.584 1.175-2.29.445-5.568.54-8.394.263-7.77 2.932-10.084 10.498-9.416 13.272 1.174 26.556 2.215 39.834 3.32 1.456.122 2.905.31 5.077.545L549.803 659.38zM713.452 168.952l51.665 4.376c-3.297 14.628-6.513 28.88-9.72 43.136-24.142 107.303-48.32 214.597-72.307 321.934-1.102 4.932-2.76 6.747-8.025 6.677-14.323-.19-28.655.322-42.983.547-1.814.028-3.63.004-6.287.004l87.657-376.674zM913.053 185.77l54.77 4.624c-2.197 10.472-4.246 20.436-6.396 30.376-.937 4.33-2.16 8.596-3.12 12.92-2.85 12.85-5.742 25.69-8.41 38.576-1.863 8.992-3.17 18.104-5.123 27.074-1.705 7.824-4.08 15.5-5.94 23.294-1.032 4.315-1.51 8.76-2.443 13.102-.72 3.342-1.74 6.62-2.67 9.913-.444 1.57-1.362 3.103-1.413 4.674-.168 5.285.538 10.63-3.717 15.018-.9.928-.58 3.177-.576 4.816.007 4.37.05 8.71-3.316 12.157-.33.34-.594.844-.675 1.31-1.52 8.715-2.906 17.456-4.54 26.15-1.087 5.797-2.924 11.475-3.705 17.303-1.527 11.386-7.82 21.766-6.908 33.66.13 1.7-.767 3.476-1.17 5.22-1 4.326-1.965 8.66-2.992 12.978a78.902 78.902 0 0 1-1.542 5.57c-.3.945-.995 1.784-1.195 2.737-1.95 9.283-3.79 18.59-5.76 27.87-.806 3.806-1.84 7.563-2.795 11.335-.438 1.732-1.432 3.485-1.31 5.167.377 5.254-1.884 6.868-6.993 6.947-16.628.256-33.25.946-50.647 1.494 26.252-118.354 52.378-236.13 78.588-354.285zM867.233 181.93c-9.024 38.82-17.83 76.74-26.655 114.657-18.52 79.574-37.103 159.134-55.452 238.748-1.142 4.952-2.85 6.807-8.078 6.67-13.966-.36-27.948-.122-42.447-.122 1.765-8.248 3.647-17.258 5.62-26.248 24.318-110.684 48.676-221.36 72.878-332.068 1-4.57 2.416-6.253 7.425-5.713 15.368 1.66 30.8 2.732 46.71 4.076zM795.813 714.427c4.25-19.297 8.308-37.805 12.403-56.304 5.36-24.205 10.832-48.386 16.033-72.624.8-3.737 2.408-4.787 6.027-4.67 7.658.245 15.36.495 22.986-.066 5.648-.415 11.332-1.687 16.764-3.347 5.85-1.787 9.738.112 9.146 6.04-.683 6.83-2.405 13.556-3.69 20.324-.927 4.893-1.973 9.765-2.793 14.675-1.392 8.324-2.57 16.686-4.02 25-.327 1.886-1.674 3.582-2.083 5.468-2.83 13.036-5.43 26.123-8.324 39.145-1.394 6.27-3.355 12.413-4.898 18.653-1.095 4.43-1.963 8.914-2.852 13.39-.772 3.893-3.28 5.335-6.91 4.674-7.84-1.428-15.665-2.96-23.45-4.652-7.948-1.73-15.84-3.702-24.34-5.705zM774.21 581.674l-28.347 121.75c-14.148-3.277-27.668-6.46-41.217-9.515-3.825-.862-2.857-3.368-2.33-5.777 4.662-21.263 9.343-42.52 14.022-63.78 2.894-13.145 5.7-26.31 8.82-39.4.372-1.56 2.46-3.84 3.785-3.862 14.466-.25 28.938-.12 43.408-.067.46 0 .915.308 1.86.65zM596.15 672.932c6.46-27.69 12.84-55.05 19.224-82.407 1.17-5.015 2.433-10.01 3.485-15.05.747-3.578 2.88-4.57 6.176-3.832 8.11 1.814 16.2 3.73 24.338 5.418 2.992.622 3.624 2.077 3.155 4.926-4.65 28.247-9.116 56.524-13.824 84.76-1.89 11.334-2.1 11.267-13.405 9.106-7.106-1.358-14.21-2.775-21.368-3.804-2.295-.33-4.757.503-7.782.884zM513.446 824.355c-1.532 2.755-2.32 4.757-3.634 6.317-.814.967-2.426 1.263-3.68 1.86-.478-1.43-1.395-2.886-1.31-4.28.082-1.332.93-3.36 1.934-3.728 1.696-.62 3.782-.17 6.69-.17z"/></g></svg>