<svg xmlns="http://www.w3.org/2000/svg" width="479" height="671" viewBox="0 0 479 671"><g fill-rule="evenodd" clip-rule="evenodd"><path d="M1 336.63C1 226.156 1.025 115.68.893 5.204.888 1.47 1.813.91 5.295.913c156.8.1 313.6.1 470.397.003 3.448-.002 4.418.51 4.416 4.275-.12 220.952-.12 441.904-.01 662.856.003 3.518-.82 4.043-4.144 4.04-156.966-.1-313.932-.11-470.897.047-4.137.004-4.11-1.48-4.11-4.574C1.01 557.25 1 446.94 1 336.63zm458.994-.114c0-103.995-.03-207.99.105-311.983.005-4.48-1.028-5.646-5.597-5.642-142.325.136-284.65.134-426.978.006-4.5-.004-5.63 1.057-5.63 5.605.126 207.656.125 415.313.006 622.97 0 4.48 1.027 5.645 5.594 5.64 142.326-.134 284.652-.133 426.978-.005 4.5.005 5.637-1.057 5.63-5.605-.14-103.662-.108-207.323-.108-310.984z"/><path fill="#FDFDFD" d="M459.994 336.516c0 103.66-.033 207.322.11 310.983.006 4.548-1.13 5.61-5.63 5.604-142.327-.128-284.653-.13-426.98.005-4.566.004-5.595-1.16-5.592-5.642.12-207.656.12-415.313-.005-622.968-.002-4.55 1.13-5.61 5.63-5.605 142.325.128 284.65.13 426.977-.005 4.568-.005 5.602 1.16 5.596 5.642-.137 103.994-.106 207.99-.106 311.984zm-356.89 84.047c-4.833 0-9.686.275-14.49-.087-3.883-.292-4.6 1.102-4.59 4.742.123 53.325.128 106.65-.01 159.974-.01 3.822 1.05 4.65 4.728 4.64 48.992-.124 97.984-.135 146.976.014 4.015.012 4.937-1.11 4.923-4.992-.142-43.492-.098-86.985-.104-130.478.97-1.55 1.892-3.132 2.916-4.645 17.732-26.167 38.48-49.77 61.117-71.76 22.97-22.312 47.484-42.82 73.018-62.118 2.678-2.023 3.768-3.808 2.894-7.423-1.797-7.44-2.455-15.08-2.582-22.776-.342-20.643 4.69-40.23 11.576-59.422 4.418-12.314 8.397-24.807 13.936-36.7.52 1.752 1.203 3.475 1.53 5.262.737 4.033 2.667 5.836 7.093 5.383 4.618-.473 9.323-.026 13.986-.147 1.675-.044 4.298 1.006 4.707-1.432.467-2.78 1.776-6.675-.62-8.42-5.137-3.738-6.582-9.174-7.88-14.54-3.002-12.402-7.046-24.576-8.533-37.324-.053-.453-.137-1.29-.23-1.294-4.646-.17-4.02-5.35-6.892-7.212-2.23-1.445-1.41-2.688.252-4.197 5.95-5.41 9.715-12.164 11.677-19.944 3.528-13.99 3.667-28.07.177-42.015-3.964-15.838-13.16-22.664-29.522-22.713-9.498-.03-18.998-.063-28.496.05-1.64.02-4.23-1.166-4.764 1.25-.62 2.813-1.774 6.915.485 8.53 5.685 4.063 5.206 9.716 5.315 15.257.214 10.83.128 21.663.126 32.495-.004 25.663.01 51.327-.096 76.99-.018 4.117.747 9.25-2.546 11.85-4.716 3.722-3.702 7.913-3.237 12.433-5.47 6.898-11.05 13.71-16.39 20.708-47.65 62.442-90.436 128.166-131.544 195.02-1.12 1.82-1.947 3.872-3.788 5.173l-33.417-.042c-.678-1.5-1.48-2.956-2.017-4.506-11.956-34.55-23.87-69.113-35.852-103.653-.603-1.742-.595-3.883-2.593-5.196-14.95 33.333-29.803 66.56-44.805 99.72-1.314 2.906-.195 3.713 2.13 4.69 5.5 2.31 10.85 4.94 15.442 8.86zM121.948 120.9c.128 12.675.592 23.676 2.13 34.563 1.75 12.38 4.163 24.676 11.736 35.11 10.9 15.02 31.05 15.486 42.773 1.093 5.246-6.44 8.467-13.93 10.417-21.89 7.406-30.22 7.112-60.697 2.392-91.233-1.558-10.08-4.53-19.796-10.682-28.17-11.1-15.11-31.057-15.4-42.632-.704-4.274 5.427-7.1 11.6-9.198 18.13-5.723 17.826-6.555 36.267-6.936 53.1zm167.78-.385h.097c0 6.996.082 13.993-.018 20.987-.19 13.316.584 26.646-.537 39.95-.275 3.255-1.23 5.98-4.168 8.063-3.137 2.223-1.305 5.84-1.398 8.814-.064 2.073 2.024 1.732 3.482 1.733 17.49.008 34.98-.06 52.468.07 2.844.02 3.236-1.178 3.28-3.547.237-12.322.585-24.642.93-36.96.058-1.996-.065-4.186-2.664-3.58-2.573.597-6.61-2.668-7.622 2.545-.854 4.404-1.544 8.845-2.566 13.208-2.897 12.365-4.075 13.08-16.763 13.227-3.562.04-4.375-.948-4.336-4.404.19-16.654.338-33.318-.064-49.965-.124-5.16 1.605-6.006 6.11-5.7 3.68.248 4.913 2.478 5.697 5.24.768 2.704 1.344 5.526 1.494 8.324.244 4.506 3.38 3.39 6.028 3.57 3.52.24 3.042-2.184 3.043-4.327.004-13.492.01-26.984-.005-40.477-.002-2.1.58-4.52-2.984-4.4-2.974.098-6.12-.663-6.143 4.036a23.918 23.918 0 0 1-2.293 10.15c-2.01 4.237-6.044 2.996-9.28 2.7-3.023-.278-1.406-3.25-1.426-4.882-.16-12.99-.09-25.983-.09-38.976 0-9.964.005-9.753 10.2-9.937 5.003-.09 7.97 2.023 9.31 6.498 1.33 4.443 2.604 8.957 3.274 13.53.826 5.628 4.873 2.336 7.385 2.964 2.91.726 3.036-1.548 3.027-3.73-.04-9.994-.182-19.992.067-29.98.093-3.687-1.263-4.427-4.617-4.398-16.655.144-33.313.034-49.97.114-1.654.008-4.256-1.113-4.78 1.267-.618 2.8-1.765 6.836.52 8.512 5.595 4.102 5.214 9.745 5.26 15.292.147 18.156.056 36.312.056 54.468zm-206.27 31.35l-1.06-.045c-2.712-19.09-5.487-38.17-8.112-57.27-1.38-10.05-2.73-20.115-3.642-30.215-.452-4.993-1.023-10.138 4.75-13.612 2.377-1.43 1.016-5.596.606-8.42-.33-2.27-2.733-1.318-4.236-1.334a1405.88 1405.88 0 0 0-24.984-.01c-1.68.013-4.335-.843-4.486 1.728-.163 2.772-1.81 6.33.963 8.353 3.973 2.9 4.98 6.963 5.626 11.22 6.406 42.246 12.803 84.494 19.024 126.77 1.81 12.297 1.548 12.215 13.66 12.13 2.788-.02 3.698-1 4.137-3.477 1.363-7.69 2.87-15.353 4.333-23.023 7.007-36.723 13.957-73.456 21.097-110.152.992-5.098 1.94-10.254 7.038-13.74 2.34-1.6 1.004-5.6.586-8.412-.33-2.217-2.71-1.374-4.24-1.394-6.163-.078-12.326-.063-18.49-.01-1.548.013-3.972-.623-3.964 1.734.01 2.783-1.894 6.593 1.03 8.238 3.96 2.23 4.514 5.555 4.696 9.177.174 3.474.11 7.032-.45 10.454-2.924 17.878-6.034 35.725-9.093 53.58-1.582 9.247-3.192 18.488-4.79 27.73zM248.1 119.52c0-19.325-.053-38.65.088-57.974.012-1.787-1.732-4.745 1.545-5.368 2.98-.565 6.14-.203 7.916 2.87.984 1.705 1.68 3.6 2.33 5.472 1.7 4.905 2.354 10.067 2.802 15.17.502 5.742 4.548 2.77 7.06 3.316 3.175.69 3.375-1.517 3.362-3.95-.06-11.326-.14-22.656.042-33.982.054-3.333-1.054-4.228-4.29-4.208a4867.64 4867.64 0 0 1-61.972-.004c-3.32-.02-4.28 1.022-4.226 4.274.177 10.492.065 20.99.066 31.484 0 6.616.002 6.49 6.41 6.512 2.615.008 3.948-.47 3.96-3.454.01-2.636.55-5.296 1.094-7.896.916-4.376 1.534-8.866 4.05-12.744 2.062-3.18 5.358-3.58 8.42-2.765 2.424.645 1.13 3.428 1.136 5.188.09 26.49.068 52.977.06 79.465-.006 12.327.062 24.656-.118 36.98-.07 4.8-.323 9.41-5.797 12.22-2.746 1.41-1.014 5.48-.88 8.28.108 2.3 2.508 1.633 4.058 1.642 8.33.047 16.66.074 24.99-.022 1.647-.02 4.174 1.045 4.666-1.483.526-2.7 1.41-7.183-.312-8.06-8.188-4.17-6.252-11.53-6.36-17.99-.297-17.652-.102-35.314-.102-52.973z"/><path fill="#EB1D25" d="M403.406 189.53c-5.534 11.895-9.514 24.387-13.932 36.7-6.885 19.19-11.918 38.78-11.576 59.423.127 7.695.785 15.338 2.582 22.775.874 3.615-.216 5.4-2.894 7.423-25.533 19.3-50.047 39.808-73.02 62.12-22.638 21.987-43.384 45.592-61.116 71.76-1.024 1.513-1.945 3.095-2.916 4.645-5.018 7.35-9.893 14.785-13.722 22.85-18.063 31.02-30.086 64.513-40.36 98.72-2 3.83-2.06 8.446-4.793 12.55l-5.787-12.528c-3.667-9.945-7.41-19.863-10.988-29.84-9.065-25.285-15.823-51.36-25.93-76.282-5.25-12.945-11.273-25.514-21.004-35.87-4.15-5.353-8.987-9.95-14.847-13.41-4.594-3.92-9.942-6.55-15.445-8.863-2.324-.977-3.443-1.783-2.13-4.69 15.002-33.16 29.856-66.386 44.806-99.72 1.998 1.314 1.99 3.455 2.594 5.198 11.98 34.54 23.896 69.104 35.852 103.653.536 1.55 1.34 3.007 2.02 4.507.648 4.77 2.593 9.118 4.354 13.527l7.813 23.42c4.96-8.69 9.15-16.03 13.338-23.37 3.034-4.28 6.097-8.543 7.913-13.534 1.84-1.302 2.667-3.354 3.786-5.174 41.11-66.855 83.895-132.578 131.543-195.02 5.34-6.997 10.922-13.81 16.392-20.708 8.483.092 16.97.216 25.453.268 7.115.043 7.184-.094 6.72-7.26-.088-1.365-.104-2.566-1.52-3.378-3.65-2.093-4.34-5.72-4.46-9.462-.126-3.988.007-7.984.026-11.977l12.61-13.093c2.88 11.547 5.758 23.093 8.636 34.64z"/><path d="M382.16 167.982c-.02 3.992-.152 7.988-.026 11.977.12 3.74.81 7.368 4.46 9.46 1.416.813 1.432 2.014 1.52 3.38.464 7.165.396 7.302-6.72 7.26-8.484-.053-16.97-.177-25.454-.27-.465-4.52-1.48-8.71 3.237-12.433 3.293-2.6 2.528-7.73 2.546-11.85.106-25.662.092-51.326.097-76.99.002-10.832.088-21.666-.126-32.495-.11-5.54.37-11.194-5.314-15.257-2.26-1.615-1.105-5.717-.485-8.53.532-2.416 3.123-1.23 4.763-1.25 9.498-.113 18.998-.08 28.496-.05 16.363.05 25.56 6.875 29.522 22.714 3.49 13.943 3.352 28.022-.176 42.014-1.962 7.78-5.727 14.535-11.677 19.945-1.66 1.51-2.483 2.75-.252 4.196 2.872 1.86 2.246 7.043 6.894 7.212.093.003.177.84.23 1.294 1.486 12.748 5.53 24.922 8.53 37.323 1.3 5.367 2.745 10.803 7.882 14.542 2.396 1.744 1.087 5.64.62 8.42-.41 2.437-3.032 1.387-4.706 1.43-4.663.122-9.368-.324-13.986.148-4.426.453-6.355-1.35-7.093-5.383-.326-1.787-1.01-3.51-1.53-5.263-2.88-11.548-5.76-23.095-8.638-34.642-.436-2.104-.788-4.23-1.324-6.307-1.033-4.008-1.927-8.07-4.013-11.727-1.34-2.346-3.482-3.146-5.93-2.723-2.828.49-1.42 2.93-1.433 4.406-.088 9.817.034 19.632.088 29.446zm18.797-80.892c.206-7.862-.204-15.672-3.165-23.062-2.575-6.428-6.483-8.56-13.253-8.09-1.886.13-2.583.545-2.577 2.532.062 19.308.056 38.614.007 57.922-.005 1.885.537 2.483 2.517 2.603 6.53.395 10.864-2.226 13.447-8.82 2.908-7.424 3.12-15.247 3.023-23.085zM121.948 120.9c.38-16.833 1.212-35.274 6.937-53.1 2.098-6.53 4.923-12.703 9.198-18.13 11.575-14.698 31.53-14.407 42.632.704 6.15 8.373 9.124 18.088 10.682 28.17 4.72 30.535 5.015 61.014-2.392 91.233-1.95 7.96-5.172 15.448-10.417 21.89-11.724 14.393-31.874 13.925-42.773-1.093-7.573-10.436-9.986-22.732-11.736-35.11-1.54-10.888-2.003-21.89-2.132-34.564zm20.81-1.892c.157 11.66.073 23.34 1.425 34.94 1.077 9.24 2.066 18.554 6.545 26.975 1.694 3.187 3.922 5.953 7.952 5.962 4.107.008 6.13-2.97 7.768-6.147 3.246-6.303 4.628-13.17 5.45-20.114 3.087-26.09 2.818-52.205-.094-78.28-.92-8.244-2.137-16.577-6.774-23.78-3.875-6.02-9.613-6.064-13.692-.233-2.216 3.17-3.442 6.797-4.377 10.53-4.132 16.488-3.935 33.336-4.2 50.148zM103.104 420.563c5.86 3.462 10.696 8.06 14.848 13.41-5.493.05-10.99.254-16.478.087-2.804-.085-3.65.732-3.644 3.592.085 44.967.087 89.933-.004 134.9-.005 2.863.828 3.56 3.605 3.545 24.814-.126 49.63-.107 74.443-.13l5.786 12.526c2.733-4.103 2.79-8.718 4.792-12.55 12.482.03 24.963.01 37.442.14 2.313.023 3.137-.52 3.127-3.007-.132-31.95-.157-63.9-.21-95.853 3.83-8.063 8.705-15.5 13.723-22.85.007 43.493-.037 86.986.105 130.48.014 3.882-.908 5.003-4.923 4.99-48.992-.147-97.984-.137-146.976-.012-3.677.01-4.737-.817-4.728-4.64.137-53.324.132-106.648.008-159.974-.008-3.64.708-5.034 4.59-4.742 4.81.364 9.662.09 14.494.09zM289.73 120.515c0-18.155.09-36.312-.058-54.466-.045-5.548.336-11.19-5.258-15.293-2.285-1.676-1.14-5.712-.52-8.512.523-2.38 3.125-1.26 4.78-1.267 16.655-.08 33.313.03 49.97-.114 3.353-.028 4.71.712 4.617 4.398-.248 9.988-.107 19.986-.066 29.98.01 2.183-.116 4.456-3.027 3.73-2.512-.63-6.56 2.663-7.385-2.964-.67-4.574-1.944-9.088-3.274-13.53-1.34-4.476-4.307-6.59-9.31-6.5-10.195.185-10.2-.026-10.2 9.938 0 12.992-.07 25.985.09 38.976.02 1.63-1.598 4.604 1.426 4.88 3.236.298 7.27 1.54 9.28-2.7a23.925 23.925 0 0 0 2.293-10.148c.02-4.7 3.17-3.938 6.144-4.037 3.565-.117 2.983 2.3 2.985 4.4.014 13.493.01 26.985.006 40.478 0 2.144.477 4.566-3.042 4.327-2.647-.18-5.784.936-6.027-3.57-.15-2.8-.726-5.62-1.493-8.324-.784-2.764-2.018-4.993-5.696-5.242-4.505-.305-6.234.54-6.11 5.7.402 16.647.254 33.312.064 49.967-.04 3.456.774 4.444 4.335 4.404 12.687-.146 13.864-.86 16.762-13.227 1.022-4.363 1.712-8.804 2.566-13.207 1.01-5.213 5.05-1.948 7.622-2.546 2.6-.604 2.722 1.585 2.665 3.58-.346 12.32-.693 24.64-.93 36.96-.045 2.37-.438 3.567-3.28 3.547-17.49-.128-34.98-.062-52.47-.07-1.457 0-3.546.34-3.48-1.733.093-2.974-1.74-6.59 1.397-8.813 2.938-2.082 3.893-4.81 4.168-8.064 1.12-13.303.346-26.633.537-39.95.1-6.993.018-13.99.018-20.986-.033-.002-.065-.002-.096-.002zM83.458 151.865c1.598-9.243 3.207-18.484 4.79-27.73 3.06-17.855 6.17-35.702 9.095-53.58.56-3.422.623-6.98.45-10.453-.183-3.622-.736-6.948-4.696-9.177-2.925-1.646-1.02-5.455-1.03-8.238-.01-2.357 2.415-1.722 3.964-1.735 6.164-.052 12.327-.067 18.49.01 1.53.02 3.91-.822 4.24 1.395.418 2.813 1.753 6.813-.586 8.412-5.097 3.485-6.046 8.642-7.038 13.74-7.14 36.695-14.09 73.43-21.097 110.15-1.465 7.672-2.97 15.335-4.334 23.024-.44 2.477-1.35 3.457-4.137 3.477-12.113.086-11.852.168-13.66-12.13-6.223-42.274-12.62-84.522-19.025-126.77-.645-4.256-1.654-8.32-5.626-11.218-2.774-2.023-1.127-5.58-.964-8.353.15-2.572 2.806-1.717 4.486-1.73a1405.88 1405.88 0 0 1 24.984.01c1.502.016 3.907-.936 4.236 1.334.41 2.824 1.77 6.99-.606 8.42-5.773 3.475-5.202 8.62-4.75 13.612.913 10.1 2.26 20.165 3.642 30.215 2.625 19.102 5.4 38.182 8.113 57.27.35.016.704.03 1.058.045zM248.1 119.52c0 17.658-.194 35.32.103 52.974.108 6.46-1.828 13.82 6.36 17.99 1.722.876.838 5.36.312 8.06-.492 2.527-3.02 1.464-4.667 1.482-8.33.097-16.66.07-24.99.022-1.548-.01-3.948.657-4.058-1.643-.133-2.8-1.865-6.868.88-8.278 5.474-2.81 5.727-7.422 5.797-12.22.18-12.325.112-24.654.117-36.98.01-26.49.03-52.977-.06-79.465-.005-1.76 1.29-4.544-1.136-5.188-3.06-.814-6.357-.416-8.42 2.765-2.515 3.877-3.133 8.367-4.05 12.743-.543 2.6-1.084 5.26-1.094 7.896-.01 2.982-1.345 3.46-3.96 3.453-6.407-.02-6.41.104-6.41-6.512 0-10.494.112-20.99-.065-31.483-.056-3.252.904-4.296 4.225-4.274 20.656.136 41.314.13 61.972.004 3.236-.02 4.344.875 4.29 4.208-.18 11.326-.103 22.656-.042 33.983.013 2.433-.188 4.64-3.36 3.95-2.514-.55-6.56 2.425-7.062-3.318-.447-5.102-1.102-10.264-2.803-15.17-.648-1.87-1.345-3.766-2.33-5.47-1.777-3.074-4.936-3.437-7.916-2.87-3.277.622-1.533 3.58-1.545 5.367-.143 19.322-.09 38.647-.09 57.972zM175.155 434.176c-1.76-4.41-3.707-8.76-4.354-13.527l33.418.04c-1.814 4.993-4.878 9.256-7.914 13.535l-21.15-.05z"/><path fill="#FDFDFD" d="M175.875 575.966c-24.814.023-49.63.005-74.442.13-2.777.016-3.61-.68-3.605-3.545.09-44.966.09-89.932.004-134.898-.005-2.86.84-3.677 3.644-3.592 5.487.167 10.984-.036 16.478-.086 9.73 10.356 15.753 22.925 21.003 35.87 10.108 24.923 16.866 50.997 25.93 76.282 3.577 9.977 7.32 19.895 10.988 29.84zM226.813 477.224c.052 31.95.077 63.902.21 95.853.01 2.485-.814 3.03-3.127 3.007-12.48-.13-24.96-.108-37.442-.14 10.273-34.207 22.296-67.698 40.36-98.72zM382.16 167.982c-.054-9.814-.176-19.63-.088-29.443.014-1.478-1.396-3.917 1.433-4.407 2.447-.424 4.59.377 5.93 2.723 2.086 3.657 2.98 7.72 4.013 11.728.536 2.078.89 4.203 1.324 6.307l-12.612 13.092zM175.155 434.176c7.05.016 14.1.032 21.15.05l-13.337 23.37-7.813-23.42zM400.96 87.088c.095 7.84-.118 15.663-3.026 23.088-2.583 6.594-6.917 9.214-13.447 8.82-1.98-.12-2.52-.72-2.517-2.604.05-19.308.055-38.614-.007-57.922-.006-1.987.69-2.402 2.576-2.533 6.77-.47 10.677 1.663 13.252 8.09 2.96 7.39 3.37 15.2 3.17 23.06zM142.752 119.008c.273-16.812.076-33.66 4.208-50.15.935-3.732 2.162-7.36 4.377-10.528 4.08-5.83 9.817-5.785 13.692.232 4.637 7.204 5.853 15.537 6.773 23.78 2.912 26.076 3.18 52.19.094 78.28-.822 6.946-2.204 13.813-5.45 20.115-1.637 3.177-3.66 6.155-7.768 6.147-4.03-.01-6.258-2.775-7.953-5.962-4.48-8.42-5.468-17.735-6.545-26.976-1.35-11.6-1.267-23.278-1.43-34.938z"/></g></svg>