<svg id="Layer_1" xmlns="http://www.w3.org/2000/svg" viewBox="0 0 77.8 77.8"><style>.st0{fill:#FFF;stroke:#000;stroke-miterlimit:10}.st1{fill:#020202}.st2{fill:#FFF}.st3,.st4{stroke:#FFF;stroke-miterlimit:10}.st4{fill:#020202}.st5{fill:none;stroke:#FFF;stroke-linecap:round}.st5,.st6{stroke-miterlimit:10}.st6,.st7{stroke:#000;stroke-width:2}.st7{fill:#FFF}.st7,.st8{stroke-miterlimit:10}.st8{fill:none;stroke:#FFF;stroke-width:.75;stroke-linecap:round}.st9{fill:#010101}.st10,.st11{clip-path:url(#SVGID_2_)}.st11{stroke-width:.75}.st11,.st12{fill:none;stroke:#000;stroke-miterlimit:10}.st12{stroke-width:.5}.st12,.st13{clip-path:url(#SVGID_2_)}.st13{fill:#FFF}.st14{stroke:#000}.st14,.st15{clip-path:url(#SVGID_2_);fill:none;stroke-width:.25;stroke-miterlimit:10}.st15{stroke:#FFF}.st16{clip-path:url(#SVGID_4_)}.st17{stroke:#FFF;stroke-width:3;stroke-miterlimit:10}</style><path class="st0" d="M69.8 76.9H8c-3.9 0-7.1-3.2-7.1-7.1V8C.9 4.1 4.1.9 8 .9h61.8c3.9 0 7.1 3.2 7.1 7.1v61.8c0 3.9-3.2 7.1-7.1 7.1z"/><path class="st3" d="M37.8 62.8l10.5-.3c.8 0 1.4.6 1.4 1.3 0 .8-.6 1.4-1.3 1.4l-10.5.3c-.8 0-1.5-.7-1.4-1.5.1-.6.6-1.1 1.3-1.2z"/><path class="st4" d="M39 37.5c-2.2 1.2-6 6-6.2 7-.2 1.1-3 7.4-3.5 8.5-.5 1.1-2.5 6.9-3.2 8.6-.5 1.1-2.6 6-4.1 9.4-.7 1.5.5 3.3 2.1 3.3h9c1.1 0 2.1-.8 2.3-2 .6-3.9 2-12.4 2.2-12.8.4-.6 4.1-3 5-5.1 1-2.1.7-2.5 1.7-2.6s2.4.7 2.7 1.2c.4.5 0 1.6 0 1.6s1 0 1.6-.8c.3-.5.4-1.6.2-2.6-.1-.7-.7-1.5-.9-1.7-.5-.5-3-.8-3.5-1-.5-.1 3-.5 3.6-.1.6.4.8 3.5 1.2 2.6 1.6-3.5.4-5.4-1.1-5.8-.9-.2-4.8.5-5.1.7-.4.1 3.3-1.2 3.9-1.2.6 0 2.2.5 2.6.8s.2-1.8-1-2.6c-1.5-1-3-1-3.7-1-1.4.1-4.3 1.3-5.4 1.4-1.1.1-.6-2 .7-3.3s5.6-3.5 7-3.4c1.4.1.7-.6-.2-.9-2.4-.8-5.8.6-7.9 1.8z"/><path class="st1" d="M48.5 37.1c0 .9.3 1.7-.3 2.4s-1.1.7-1.3 1.1c-.1.2 0 1.1 0 1.1s-.9-.7-3-.4c-2.1.3-4 1.1-4.5 1.1-.6-.1 2.1-3.3 4.6-4.4 2.1-1.1 4.5-1.5 4.5-.9zM44 52.3c-.9.5 0 1.4-1.7 3.4-1.8 2-3.7 3.5-3.9 3.8s-.3 2.8-.2 2.9c.1.1 7.8-.2 9.4-.3.2 0 .3-.2.3-.3v-.7c0-.1-.1-.2-.2-.2-.2-.1-1 0-1 0s-.2-7.2-.2-7.3c-.4-.7-1.4-1.9-2.5-1.3zM43.3 73.1c-.8.1-1.1-.1-1.8-.5-.9-.5-1.9-1.8-2.3-4.2s-.1-2.5-.1-2.5l4-.1 4-.1s.3.1.1 2.5c-.2 2.4-1.1 3.8-2 4.4-.7.4-1 .5-1.9.5z"/><path class="st1" d="M55.2 31.9c0-.3-.2-.9-.7-1.2-.9-.6-1.7-.9-1.7-.9v-2.1c.2-.1 1.2-.5 1.1-1.1-.1-.5-.9-1-1.3-1.1-.4-.1-.8.1-1.6.1s-1-1-1.9-1c-.9 0-.9.2-1.8.6-.4.2-.4.3-.9 0-.7-.4-1.1-.7-2-.7-.4 0-1.2.6-1.6.7-.4.1-1.2-.8-2.1-.7-.3 0-1.1.7-1.3.9-.7.7-1.7-1.4-3.1 0-.5.6-.7.7-1.2.5-.4-.2-1-.9-2-.6-.7.2-1 .8-1.6.9-.4.1-1-.5-1.9-.1-.7.2-1 1.1-1.3 1.3-.5.2-.8-.3-1.8-.2-.6.1-1.8 1.1-1.7 1.9.1.8 1 1.2 1 1.2v2s-.7.4-.8.5c-.5.5-.7 1.6-.6 2.3.1.5.5.5.7.6.3.2 0 .4.7 1 1.4 1.3 5.8 2 6.8 2.5.9.4 1 1.8 1.7 1.7.6-.1 1.7-1.6 2.2-2.1 1.6-1.4 2.4-1.8 2.9-2.1 2.2-1.2 3.5-1.3 5.3-1.6 1.1-.2 2.2 0 3.1.6 1.1.7.9 1.9 2.2 1.9 1.3 0 4.3-2.1 4.9-3.3.3-.5.1-1 .1-1.4 0-.4.3-.1.2-1zM26.3 14.4c.4.9 1.1 2.5 2.3 2.9 1.2.4 1.5.7 1.7 1.4.1.4 0 .8.3 1.2.4.8 2.1 1.2 2.3 1.6.6 1 1.6 1.3 1.9 1.5v.9c0 .2 1.3-.4 4.5-.6 2-.1 4.1.1 5.2.3v-1.2s.4-.2 1.4-1c1.1-.7 1.2-3.7.9-4.8-.3-1.1-2.1-2.9-4.5-3.4s-2-1.6-2.5-2.9c-.4-1.2-.8-1.3-1.3-.4-.5.7-1.1 1.2-1.7 2.3-.3.6-.6 2.1-.3 2.7.3.6 1.6 1.1 2.1 1.3 1.3.4 2.4.6 2.9 1.5.4.8.2 2.1-.3 2.7-.9 1.1-1.4 1.2-2 1.3-.4.1 1.1-.7 1.2-1.3.2-.9.2-1.4-.5-2.4-.6-.8-3.7-2.1-4.4-2.4-.7-.3-2.8-1.3-2.8-1.3s.7.2 2.2-.1c1.5-.3 1.3-2.9 1.3-2.9-.1-.8-.5-1.8-.8-1.4-.5.6-.2 1.5-1.5 1.9-.8.3-2.5.4-3.7.1-1.2-.3-1.5-1-2.8-1.9-1.3-.9-2.9-.9-3.5-1.3S22.8 7.2 21.5 7c-1.3-.2-.9.3-.7.6.3.5.8 1.8.8 2.4 0 .6.9 1.9 1.6 2.3.7.5 2.8 1.4 3.1 2.1z"/><path class="st5" d="M25.6 30.2c3.2-1.3 7.5-2.6 13.3-3.1 6.1-.5 11.2.2 14.7.9M24.6 32.7c3.4-1.4 8.2-2.8 14.5-3.4 6.7-.6 12.2.2 16 1"/></svg>