<svg id="Layer_1" xmlns="http://www.w3.org/2000/svg" viewBox="0 0 78 77.8"><style>.st0{fill:#FFF;stroke:#000;stroke-miterlimit:10}.st1{fill:#020202}.st2{fill:#FFF}.st3,.st4{stroke:#FFF;stroke-miterlimit:10}.st4{fill:#020202}.st5{fill:none;stroke:#FFF;stroke-linecap:round}.st5,.st6{stroke-miterlimit:10}.st6,.st7{stroke:#000;stroke-width:2}.st7{fill:#FFF}.st7,.st8{stroke-miterlimit:10}.st8{fill:none;stroke:#FFF;stroke-width:.75;stroke-linecap:round}.st9{fill:#010101}.st10,.st11{clip-path:url(#SVGID_2_)}.st11{stroke-width:.75}.st11,.st12{fill:none;stroke:#000;stroke-miterlimit:10}.st12{stroke-width:.5}.st12,.st13{clip-path:url(#SVGID_2_)}.st13{fill:#FFF}.st14{stroke:#000}.st14,.st15{clip-path:url(#SVGID_2_);fill:none;stroke-width:.25;stroke-miterlimit:10}.st15{stroke:#FFF}.st16{clip-path:url(#SVGID_4_)}.st17{stroke:#FFF;stroke-width:3;stroke-miterlimit:10}</style><path class="st0" d="M70.1 76.9H8.3c-3.9 0-7.1-3.2-7.1-7.1V8C1.2 4.1 4.4.9 8.3.9h61.8c3.9 0 7.1 3.2 7.1 7.1v61.8c0 3.9-3.2 7.1-7.1 7.1z"/><path class="st1" d="M58 40.9l-15.6 5.8c-2 .7-4.2.7-6.2 0l-15.6-5.8s-.5 1.6 0 6.2c1.3 12.1 17.1 12 18.7 11.9 1.6 0 17.4.2 18.7-11.9.5-4.5 0-6.2 0-6.2z"/><path d="M39.4 33.1c-.5 0-.4.1-.7-.1L18 38.3l17.6 6.6c2.4.9 5.1.9 7.6 0l28-10.6c1.6-.6 1.6-2.8 0-3.4L43.1 20.4c-2.4-.9-5.1-.9-7.5 0L7.4 30.9c-1.6.6-1.6 2.8 0 3.4l7.2 2.7v4.9c-.5.3-.8.8-.8 1.4 0 .5.2.8.5 1.1v3.4h.2L13 63.6s.5 1 2.4 1 2.4-1 2.4-1l-1.5-15.7h.1v-3.4c.3-.3.5-.7.5-1.2 0-.6-.3-1.1-.8-1.4v-4.3l21.1-5.3c-.2-.2-.3-.5-.3-.7 0-.1.1-.4.2-.5.2.7 1.1 1.2 2.3 1.2s2.1-.5 2.3-1.2v.6c-.1.8-1.1 1.4-2.3 1.4z"/></svg>