<svg id="Layer_1" xmlns="http://www.w3.org/2000/svg" viewBox="0 0 77.8 77.8"><style>.st0{fill:#FFF;stroke:#000;stroke-miterlimit:10}.st1{fill:#020202}.st2{fill:#FFF}.st3,.st4{stroke:#FFF;stroke-miterlimit:10}.st4{fill:#020202}.st5{fill:none;stroke:#FFF;stroke-linecap:round}.st5,.st6{stroke-miterlimit:10}.st6,.st7{stroke:#000;stroke-width:2}.st7{fill:#FFF}.st7,.st8{stroke-miterlimit:10}.st8{fill:none;stroke:#FFF;stroke-width:.75;stroke-linecap:round}.st9{fill:#010101}.st10,.st11{clip-path:url(#SVGID_2_)}.st11{stroke-width:.75}.st11,.st12{fill:none;stroke:#000;stroke-miterlimit:10}.st12{stroke-width:.5}.st12,.st13{clip-path:url(#SVGID_2_)}.st13{fill:#FFF}.st14{stroke:#000}.st14,.st15{clip-path:url(#SVGID_2_);fill:none;stroke-width:.25;stroke-miterlimit:10}.st15{stroke:#FFF}.st16{clip-path:url(#SVGID_4_)}.st17{stroke:#FFF;stroke-width:3;stroke-miterlimit:10}</style><path class="st0" d="M69.8 76.9H8c-3.9 0-7.1-3.2-7.1-7.1V8C.9 4.1 4.1.9 8 .9h61.8c3.9 0 7.1 3.2 7.1 7.1v61.8c0 3.9-3.2 7.1-7.1 7.1z"/><path d="M70.3 66.1H57.7V36h1.4s-.6 20.4 0 24.7c.6 4 4.1 5.2 6.7 5.3 4.5.1 5.6-3.5 5-7.2-.8-4.9-5-9.9-5-13.1s.6-22.6 0-24.9c-.5-1.8-5.9-5.7-8.2-7.2V9.8c0-1.4-1.2-2.6-2.6-2.6H31c-1.4 0-2.6 1.2-2.6 2.6v56.3H15.7c-.6 0-1.1.5-1.1 1.1v3.6c0 .6.5 1.1 1.1 1.1h54.6c.6 0 1.1-.5 1.1-1.1v-3.6c.1-.6-.4-1.1-1.1-1.1zm-12.6-48c.5.2 1.1.6 1.1 1.4v4.3h3.9V45c0 4.6 4.6 12 4.9 14.1.3 2.1-.2 3.6-2.7 3.5-2.6-.2-2.6-4.6-2.6-4.6s-1.1-9.4-.2-22c.2-2.4.6-3.2-1.1-3.3-1.7-.1-3.5 0-3.5 0V18.1zm-2.9 4.4c0 .7-.6 1.3-1.3 1.3H32.6c-.7 0-1.3-.6-1.3-1.3V12c0-.7.6-1.3 1.3-1.3h20.9c.7 0 1.3.6 1.3 1.3v10.5z"/><path d="M13.4 21.6l9.6-1.5-9.6 20.5 9.6-2.5L5.9 63.8 11 44.6 4.4 46z"/></svg>