<svg id="Layer_1" xmlns="http://www.w3.org/2000/svg" viewBox="0 0 77.8 77.8"><style>.st0{fill:#FFF;stroke:#000;stroke-miterlimit:10}.st1{fill:#020202}.st2{fill:#FFF}.st3,.st4{stroke:#FFF;stroke-miterlimit:10}.st4{fill:#020202}.st5{fill:none;stroke:#FFF;stroke-linecap:round}.st5,.st6{stroke-miterlimit:10}.st6,.st7{stroke:#000;stroke-width:2}.st7{fill:#FFF}.st7,.st8{stroke-miterlimit:10}.st8{fill:none;stroke:#FFF;stroke-width:.75;stroke-linecap:round}.st9{fill:#010101}.st10,.st11{clip-path:url(#SVGID_2_)}.st11{stroke-width:.75}.st11,.st12{fill:none;stroke:#000;stroke-miterlimit:10}.st12{stroke-width:.5}.st12,.st13{clip-path:url(#SVGID_2_)}.st13{fill:#FFF}.st14{stroke:#000}.st14,.st15{clip-path:url(#SVGID_2_);fill:none;stroke-width:.25;stroke-miterlimit:10}.st15{stroke:#FFF}.st16{clip-path:url(#SVGID_4_)}.st17{stroke:#FFF;stroke-width:3;stroke-miterlimit:10}</style><path class="st0" d="M69.8 76.9H8c-3.9 0-7.1-3.2-7.1-7.1V8C.9 4.1 4.1.9 8 .9h61.8c3.9 0 7.1 3.2 7.1 7.1v61.8c0 3.9-3.2 7.1-7.1 7.1z"/><path d="M29.2 9.2c2.5.9 3.7 2.7 4.1 5.2.1.6.2 1.1.2 1.8 0 .2-.2.4-.4.3-.9-.4-2.9-1.3-3.8-1.9-1.3-.8-1.7-2.2-1.9-3.7-.1-.6-.1-1.3-.1-2 0-.2.2-.4.4-.3.4.3 1.1.5 1.5.6zM9.6 40.4c.8-.7 1.8-1.1 2.9-1 .9.1 1.9.2 2.8.3.2 0 .3.3.2.5-1.7 2.7-4 3.6-7 2.8-.3-.1-.6-.2-.9-.2 0-.1 1.3-1.8 2-2.4zM39.5 28.8c.8-1.9 2-3.6 3.9-4.5 1-.5 2.1-.8 3.1-1.1-1 .6-2.2 1-3.1 1.7-1.7 1.3-2.4 3.1-2.8 5.1-.7 3-.6 6.1-.4 9.1.1.9.1 1.7.2 2.8.5-.7 1-1.3 1.4-1.9 1.7-2.5 3.8-4.5 6.1-6.4 1.1-1 2.2-2.1 3.1-3.3 1.3-1.7 1.6-3.8.9-5.8 0-.1-.1-.3-.1-.4l.1-.1c1.1 2.6 1 5.1-.5 7.8 3.3-1 6.3-.8 9.4.3-7.3-2-11.9 1.6-15.4 7.4 2.3-.7 4.6-1.2 7-.8 2.4.4 4.4 1.5 6.3 3l-.6-.3c-.8-.6-1.7-1.1-2.7-1.4-3-.9-5.9-.5-8.5.9-3.6 1.8-5 5-5.5 8.6-.6 4.2-.4 8.4-.2 12.6.1 2.8.6 6.2 1.4 8.7.1.5-.2.9-.7.9h-9.4c-.6 0-.9-.7-.4-1.1 2.6-2.3 4.1-5.4 4.6-8.4.4-2.2.5-4.5-.1-6.7-.8-3.1-2.7-4.7-5.9-5.1-2.7-.3-5.2.4-7.4 1.9-.2.1-.4.2-.7.3 1.9-1.5 3.9-2.6 6.3-3 2.4-.4 4.7 0 7.1.9-1.7-3.2-3.3-6.2-5.9-8.6-1.4-1.3-2.9-2.3-4.7-2.9-2.3-.7-4.5-.5-6.8.1-.2 0-.3.1-.5 0 3.1-1.1 6.3-1.4 9.4-.4-.2-1.2-.5-2.4-.6-3.7-.1-1.3.3-2.4 1-3.5-.1.6-.3 1.1-.4 1.7-.5 3.1.8 5.6 3.7 7.1 2.9 1.5 5.2 3.9 6.4 6.9.1.3.1.3.4.6v-.5c0-5.3-.2-10.5-.4-15.7 0-.5-.1-.9-.3-1.4-1.7-3.6-3.7-4.4-9-4.8-2.3-.2-7.5.5-7.4.5 3.9-1.1 12.5-2.4 16.3 1.4-.4-2.9-1.2-5.1-3.2-7.1-2.1-2.1-4.7-3.4-8.4-5.2 6.3 1.9 9.1 3.9 10.9 5.5 2.3 2.1 2.3 4.5 2.9 7.5 0 .2.1.4.1.6-.1 0-.1.1 0 .2z"/><path d="M44.5 13.5c1.8 4.3-.2 9.3-4.6 11.5-.2.1-.4 0-.4-.2-.5-2.1-.7-4.2-.1-6.2.7-2.5 2.7-3.9 4.8-5.2 0-.1.3 0 .3.1zM36.7 41.8c0 .2-.2.4-.4.3-2.2-.9-4.2-1.9-5.6-3.7-1.4-1.9-1.5-4.2-1.4-6.6 0-.2.2-.3.4-.3 2.1.7 4 1.5 5.3 3.3 1.5 2.1 1.6 4.4 1.7 7zM54.6 48.6c1-.3 3.2-.8 4.4-.5.6.2 2 1.4 2.7 2 .1.1.1.4 0 .5-1.5.9-3.7 1-5.1.2-.8-.5-1.5-1-2.2-1.7-.1-.2 0-.4.2-.5zM25.4 37.2c-1.1-.2-2.2-.3-3.3-.5-3.5-.5-5.5-3.4-6.2-6.4 0-.2.1-.4.3-.4 1.1 0 4.3.1 5.8 1.1 2.1 1.4 2.9 3.6 3.8 5.8 0 .2-.2.5-.4.4zM42.3 36.9c-.2.1-.4 0-.4-.2-.1-.8-.2-1.6-.3-2.3v-1c-.3-3.1 1.1-5.4 3.6-7.1.5-.3.9-.6 1.4-1 .2-.1.4 0 .5.1 1.6 4.4-.4 9.4-4.8 11.5zM44.8 50.2c-.1-.2-.1-.4.1-.5 1.2-.5 2.4-.7 3.6-.9 2-.3 3.7.3 5.1 1.6.6.6 1.2 1.2 1.8 1.9.1.2.1.4-.1.5-1.9.7-3.7 1.3-5.6.8-2-.4-3.5-1.8-4.9-3.4zM20.6 43.3c5.6-2 8.4-.7 11.8 3.7.1.2 0 .4-.2.5-1.1.2-3.9.7-5.2.8-1.4.1-2.7-.6-3.7-1.5s-1.8-1.9-2.8-2.9c-.1-.3-.1-.5.1-.6zM53.9 30.2c-.2 0-.4-.2-.3-.4.3-1.1 1.3-3.8 1.8-4.9.4-1 1.3-1.7 2.2-2.2 1.5-.8 3.1-1.3 4.8-1.4.2 0 .4.2.3.3-.8 5.5-3 7.6-8.8 8.6zM50.3 35.3c.7-.4 1.5-.8 2.2-1.1 1.4-.6 2.8-1.2 4.4-1.1 2.3.2 4 1.4 5.8 2.8.2.1.1.4 0 .5-1.8 1.2-3.6 2.3-5.7 2.3-2.6 0-4.7-1.5-6.7-2.9v-.5zM31 51.4c.2 0 .3.2.3.4-.7 4.7-5.1 8.1-9.8 7.6-.2 0-.3-.2-.3-.3.5-4.5 5.3-8.3 9.8-7.7zM35.9 29.9c-2.9 2-7 1.3-9.4-1.7-.1-.1-.1-.3.1-.4 2.8-2 7.4-1.2 9.4 1.7 0 .1 0 .3-.1.4zM35.6 10c3.5 2.8 3.8 5.2 2.2 9.3-.1.2-.3.3-.5.1-1.3-1.1-2.3-2.4-2.9-3.9-.7-1.8-.1-3.6.7-5.4.1-.2.3-.2.5-.1zM9.8 35.8c3.8-2.2 6-1.9 9.5 1.1.2.1.1.4-.1.5-1.1.5-3.8 1.5-5.1 1.4-1.8-.2-3.1-1.3-4.4-2.5-.2-.2-.1-.4.1-.5zM20.7 40c0 3.4-3.5 6.6-7.1 6.5-.2 0-.3-.2-.3-.3.2-3.5 3.1-6.2 7.1-6.5.2 0 .3.1.3.3zM25.4 18.1c4.5-.5 8.2 1.9 9 5.8 0 .2-.1.3-.2.4-3.8.9-8.3-2-9.1-5.8 0-.2.1-.4.3-.4zM53.4 24.7c-2.1-3-1.5-6.8 1.4-9.5.1-.1.3-.1.4 0 2.1 2.5 1.4 7.2-1.4 9.5-.1.2-.3.2-.4 0zM59.3 29.9c-.1-.1-.1-.4 0-.5 2.6-2.2 5.7-2.4 8.5-.5.4.2.7.5 1 .7.1.1.2.3.1.4-2.1 2.5-6.8 2.4-9.6-.1zM51.4 45.7c1.9-2.5 3.7-3 7.2-1.8.2.1.3.3.1.5-.8.9-1.7 1.6-2.7 2.1-1.5.8-3 .3-4.5-.3-.1-.1-.2-.3-.1-.5zM13.9 27.2c1.7-2.2 3.2-2.6 6.2-1.6.2.1.3.3.1.5-.6.8-1.4 1.4-2.3 1.8-1.3.6-2.6.2-3.9-.2-.2-.1-.2-.4-.1-.5zM15.9 48.3c3.7-2.3 6.1-1.9 9.4 1.1.1.1.1.4 0 .5-2.9 2.2-6.6 1.8-9.5-1.1-.1-.1-.1-.4.1-.5zM68.5 40.3c-3.5 2.5-5.9 2.4-9.5-.2-.2-.1-.2-.4 0-.5 1.4-.9 2.8-1.6 4.4-1.8 2-.2 3.6.8 5.1 2 .2.2.2.4 0 .5zM53.2 41.8c-2.3 3.7-4.5 4.4-8.9 3.4-.2 0-.3-.3-.2-.5.9-1.4 2-2.5 3.4-3.3 1.8-1 3.6-.6 5.5-.1.2.1.3.4.2.5zM21.7 9.3c3 .3 4.2 1.6 4.8 4.6 0 .2-.1.4-.3.4-2.5.1-4.4-1.7-4.9-4.6 0-.2.2-.4.4-.4zM51 17.1c.1 2.8-2.6 5.5-5.7 5.6-.2 0-.3-.2-.3-.4.2-1.3.7-2.6 1.5-3.7 1-1.3 2.5-1.6 4.1-1.9.3.1.4.2.4.4zM25.8 26.4c-.5 2-2.9 3.3-5.1 2.9-.2 0-.3-.3-.2-.4.4-.9 1-1.7 1.8-2.3 1-.7 2.1-.7 3.2-.6.2 0 .3.2.3.4zM66.2 47.5c-3.5.2-5.1-1-6.4-4.4-.1-.2.1-.4.3-.4 3.5-.1 5.4 1.1 6.4 4.4 0 .2-.1.4-.3.4zM21.1 52.9c-2.2 2.9-4.1 3.6-7.4 2.5-.2-.1-.3-.3-.2-.5 1.9-3 4-3.5 7.4-2.5.3.1.4.4.2.5zM16.6 21c4.1-1.9 6.5-1.2 9.6 2.2.1.1.1.4-.1.5-3 1.9-7.7.8-9.6-2.3-.1-.1 0-.3.1-.4zM25.7 16.4c-1.3 1.3-3.7 1.4-5.2.1-.1-.1-.1-.4 0-.5.7-.5 1.5-.9 2.4-1 1.1-.2 2 .3 2.8.9.1.1.2.3 0 .5z"/><path d="M40.2 48.2s1.4-.7 4.3-1.4c3-.7 7.2.3 8.9.8 0 0-1.2-.3-4.5-.3-2.9 0-5.2 1.2-6.8 2.8-1.6 1.6-2.5 3.3-2.5 3.3l.6-5.2z"/></svg>