<svg id="Layer_1" xmlns="http://www.w3.org/2000/svg" viewBox="0 0 78 77.8"><style>.st0{fill:#FFF;stroke:#000;stroke-miterlimit:10}.st1{fill:#020202}.st2{fill:#FFF}.st3,.st4{stroke:#FFF;stroke-miterlimit:10}.st4{fill:#020202}.st5{fill:none;stroke:#FFF;stroke-linecap:round}.st5,.st6{stroke-miterlimit:10}.st6,.st7{stroke:#000;stroke-width:2}.st7{fill:#FFF}.st7,.st8{stroke-miterlimit:10}.st8{fill:none;stroke:#FFF;stroke-width:.75;stroke-linecap:round}.st9{fill:#010101}.st10,.st11{clip-path:url(#SVGID_2_)}.st11{stroke-width:.75}.st11,.st12{fill:none;stroke:#000;stroke-miterlimit:10}.st12{stroke-width:.5}.st12,.st13{clip-path:url(#SVGID_2_)}.st13{fill:#FFF}.st14{stroke:#000}.st14,.st15{clip-path:url(#SVGID_2_);fill:none;stroke-width:.25;stroke-miterlimit:10}.st15{stroke:#FFF}.st16{clip-path:url(#SVGID_4_)}.st17{stroke:#FFF;stroke-width:3;stroke-miterlimit:10}</style><path class="st0" d="M70.1 76.9H8.3c-3.9 0-7.1-3.2-7.1-7.1V8C1.2 4.1 4.4.9 8.3.9h61.8C74 .9 77.2 4 77.2 8v61.8c0 3.9-3.2 7.1-7.1 7.1z"/><path d="M55.1 24.7c-1.1.5-2.3 1.1-3.4 1.7-3.9 2.3-5.3 6.2-3.4 10.2.7 1.4.7 1.4-.5 2.6l-.1.1c-2.1 2.1-4.5 3.9-7.3 4.9-1.3.5-2.7.6-4 .9-2 .5-3.1 2.2-2.9 4.3.1.9.3 1.7.4 2.6.5 2.8 1 5.7 1.5 8.5.3 1.7 1.4 3.1 2 4.7.3.8.2 1.3-.6 1.6-.7.3-1.5.6-2.2.8-3.1 1.1-6.2 2.3-9.3 3.4-.6.2-1.1.5-1.4 1.1-.6 1.1-2.1 1.3-2.9.4-2.2-2.3-3.4-5-3.5-8.2-.1-2-.1-4.1-.2-6.1l-.3-9.3c-.1-2.5-1.3-3.8-3.8-4-1.2-.1-2.3.1-3.5.4-.6.1-1.3.1-1.5-.5-.2-.6.1-1.1.7-1.4.9-.5 1.3-1.2 1.5-2.2.2-1 0-1.9.2-2.9.1-1.2-.3-2.1-1-3-.3-.3-.5-.6-.8-1-.4-.5-.6-1.1-.2-1.7.3-.6.9-.7 1.5-.6.8.1 1.4-.1 1.8-.8.4-.8 1-1.2 1.7-1.6.5-.3.8-.6.8-1.2 0-1.3.6-1.6 1.7-.8.5.4.9.4 1.5.2 4.8-2 9.5-4.3 14.4-6.3 9.4-3.9 18.5-8.4 27.7-12.6.4-.2.6-.4.8-.9.5-1.8 1-2.2 2.3-2.2.5 0 1 .2 1.4.5.5.3.9.3 1.4 0 1.1-.5 1.4-.4 2.1.7.3.5.6 1.1.7 1.7.3 1.3.2 1.4-.9 1.9-.8.3-.9.7-.5 1.5l1.8 3.9c.5 1 .4 1.1-.6 1.6-.8.4-1.5.7-2.3 1.1-.6.3-1.1.5-1.1 1.3 0 .5-.4.6-.8.7-1.8.8-3.6 1.7-5.4 2.5-1.2.5-2.4 1-3.5 1.5zm-16.2 9.4c-1.2.6-1.3.7-.9 2 .7 2.1 2.3 3.1 4.4 3.4.2 0 .4 0 .6.1.2 0 .4.1.4.3 0 .2-.1.4-.3.5-.5.2-1 .2-1.5.2-1.9-.3-3.5-1.2-5-2.3-.4-.3-.5-.8-.7-1.2-.4-.9-.9-1.1-1.8-.7-1.1.5-1.9 1.3-2.2 2.4-.9 3 1.2 5.6 4.2 5.2 3.6-.4 6.9-1.7 9.5-4.3 1.1-1 1.5-2.3 1.1-3.8-.4-1.6-1.3-2.8-3-3.2-1.3-.3-2.4.2-3.4.7-.2.1-.3.1-.5.2-.3.2-.6.3-.9.5zM23.4 71c-.3-.7-.8-.3-1.2-.1-.4.2-1 .2-.7.9.2.6.8.7 1.3.5.6-.3.9-.7.6-1.3z"/></svg>