<svg xmlns="http://www.w3.org/2000/svg" width="1000" height="500" viewBox="0 0 1000 500"><path fill="#FFF" stroke="#000" stroke-miterlimit="10" d="M698.586 494.216H301.414c-25.064 0-45.63-20.565-45.63-45.63V51.414c0-25.064 20.565-45.63 45.63-45.63h397.172c25.064 0 45.63 20.565 45.63 45.63v397.172c0 25.064-20.566 45.63-45.63 45.63z"/><path d="M510.926 55.27c3.213 4.5 9.64 8.998 9.64 8.998 1.285.643 2.57 1.928 3.856 2.57l32.134 15.424c1.285.643 3.213 1.928 3.855 2.57l3.215 3.857c.643 1.284 1.285 3.212 1.928 4.498 0 0 7.712 22.494 12.21 34.705 3.856 10.283 10.283 29.563 10.283 29.563.643 1.285 1.286 3.213 1.286 4.5 0 0 1.928 6.426 3.855 10.925 1.285 2.57 3.214 5.142 5.784 6.427 4.5 1.928 10.927 5.142 10.927 5.142 1.285.642 2.57 1.284 3.855 1.284.643 0 1.285-3.213 1.285-4.5 0 0-.643-7.068-1.285-12.21-.643-3.213-.643-6.427-.643-8.997-.644-5.142-1.286-12.21-1.286-12.21 0-1.287-.643-3.214-.643-4.5l-.642-4.5c0-1.284-.643-3.212-.643-4.498l-1.286-9.64c0-1.286-.644-3.214-.644-4.5l-.643-4.5c0-1.284 0-3.212-.643-3.855s.643-2.57 1.928-1.928l6.428 2.57c8.354 3.857 16.71 7.07 25.706 9.64 7.07 1.93 19.28 4.5 19.28 4.5 1.285 0 3.214.643 4.5.643 0 0 3.855.643 7.068.643 2.57 0 5.142 0 8.354-.643 1.286 0 .643.643 1.93-.643 5.14-5.14 16.708-15.424 16.708-15.424l3.214-3.213 12.854-14.782c.643-1.285.643-1.928-.644-2.57 0 0-2.57-1.286-4.498-1.928s-3.214-.643-5.142-.643c-3.856 1.285-12.854 3.856-12.854 3.856-1.285.643-3.213 1.285-4.5 1.285 0 0-10.924 3.856-17.993 5.784h-2.572c-8.354-3.856-17.352-8.354-25.707-12.21-10.28-5.142-20.564-9.64-30.847-14.782-7.07-3.213-17.995-8.998-17.995-8.998-1.285-.643-3.213-1.285-3.856-1.928l-27.635-13.497c-1.285-.643-3.213-1.285-3.855-1.928l-9.64-4.5c-1.286-.643-3.214-1.285-4.5-1.928l-6.426-1.285c-2.57-.643-4.5-.643-4.5-.643-1.284 0-3.213 0-4.498.643l-7.712.643c-1.285.643-3.214 1.285-4.5 1.928 0 0-7.71 1.928-7.71 5.784.646 3.856 1.93 7.07 3.86 8.998z"/><path d="M599.614 57.198c7.07 3.213 13.496 6.427 19.923 9.64 3.856 1.928 8.354 3.856 12.21 5.784h2.57c10.927-7.07 21.21-13.496 32.135-20.565 1.93-1.286 1.93-2.57 0-3.856-5.142-2.57-10.282-5.14-15.424-7.07-1.285-.642-3.214-.642-4.5 0-14.78 5.143-29.56 10.284-44.986 15.425-1.285 0-1.285 0-1.928.643zM295.63 453.728c-1.928-8.997 3.213-17.995 12.21-19.923 22.494-5.142 62.983-16.067 88.047-32.776 6.427-4.5 95.116-59.127 103.47-64.27 80.978-49.484 131.106-70.05 176.736-59.768 16.71 3.855 25.707 17.995 16.71 45.63-14.14 44.987-28.92 82.905-39.204 106.684-10.283 23.78-6.428 46.272-6.428 46.272H300.77s-2.57-8.997-5.14-21.85z"/><path d="M339.974 405.527l18.638-10.926 1.285-32.775c0-6.427 3.213-12.21 8.355-16.066C393.96 327.763 471.08 276.35 500 258.353c64.91-39.846 103.47-19.28 103.47-19.28l4.5 10.926s-37.918-1.285-79.05 16.066c-37.917 16.067-139.46 93.83-139.46 93.83l-.643 10.283s120.18-80.335 149.743-91.903c35.347-14.78 55.27-14.78 73.907-14.78 5.142 0 20.565 2.57 20.565 2.57l-11.568-34.705c-1.928-6.427-7.07-12.21-14.14-14.14-14.138-4.498-41.13-9.64-75.834-1.284-44.987 10.925-149.743 90.617-181.234 115.68-5.14 4.5-8.354 10.927-8.354 17.354l-1.928 56.555zM403.6 274.422l-5.785-44.987c-1.285-17.995 17.353-24.422 28.278-27.635 25.707-7.07 33.42 5.784 33.42 5.784l7.71 26.992-63.624 39.846z"/><ellipse fill="#FFF" cx="593.188" cy="346.401" rx="12.211" ry="18.638"/><path fill="#FFF" d="M273.136 464.653c.643 3.213 41.13.643 37.918-16.71-1.928-7.712 16.71 9.64 40.488 16.71 22.494 6.427 43.06-9.64 40.488-17.995-3.213-8.998 24.42 17.995 40.49 17.995 16.065 0 31.49-6.427 34.703-17.995 3.214-10.926 22.493 17.995 48.2 17.995s29.563-12.21 31.49-20.565c1.93-8.355 28.922 20.565 46.916 20.565 17.994 0 25.706-10.283 25.706-23.78 0-3.212 31.49 23.78 43.06 23.138 11.567-.643 17.995-5.783 22.493-15.424 3.213-7.712 29.562 19.28 35.99 16.71 6.426-2.57-16.068 18.638-16.068 18.638H303.984l-30.848-19.28zM519.923 38.56c-.643-.642-3.856 2.57-.643 6.428 1.928 1.928 3.213 1.928 3.856 3.213.643.644-.644 2.57-.644 2.57s-1.928-.642-4.498-3.212c-1.286-1.285-2.57-3.213-2.57-5.14.642-3.215 4.5-3.857 4.5-3.857z"/><path d="M654.885 120.18s28.277-1.928 28.277 3.214c.643 5.14 0 19.28 0 25.064 0 1.286 0 2.57-1.285 2.57h-6.427c-.643 0-1.93-.642-1.93-1.284l-18.635-29.564z"/></svg>