<svg id="Layer_1" xmlns="http://www.w3.org/2000/svg" xmlns:xlink="http://www.w3.org/1999/xlink" viewBox="0 0 77.8 77.8"><style>.st0{fill:#FFF;stroke:#000;stroke-miterlimit:10}.st1{fill:#020202}.st2{fill:#FFF}.st3,.st4{stroke:#FFF;stroke-miterlimit:10}.st4{fill:#020202}.st5{fill:none;stroke:#FFF;stroke-linecap:round}.st5,.st6{stroke-miterlimit:10}.st6,.st7{stroke:#000;stroke-width:2}.st7{fill:#FFF}.st7,.st8{stroke-miterlimit:10}.st8{fill:none;stroke:#FFF;stroke-width:.75;stroke-linecap:round}.st9{fill:#010101}.st10,.st11{clip-path:url(#SVGID_2_)}.st11{stroke-width:.75}.st11,.st12{fill:none;stroke:#000;stroke-miterlimit:10}.st12{stroke-width:.5}.st12,.st13{clip-path:url(#SVGID_2_)}.st13{fill:#FFF}.st14{stroke:#000}.st14,.st15{clip-path:url(#SVGID_2_);fill:none;stroke-width:.25;stroke-miterlimit:10}.st15{stroke:#FFF}.st16{clip-path:url(#SVGID_4_)}.st17{stroke:#FFF;stroke-width:3;stroke-miterlimit:10}</style><path class="st0" d="M69.8 76.9H8c-3.9 0-7.1-3.2-7.1-7.1V8C.9 4.1 4.1.9 8 .9h61.8c3.9 0 7.1 3.2 7.1 7.1v61.8c0 3.9-3.2 7.1-7.1 7.1z"/><defs><path id="SVGID_1_" d="M66.9 75h-56c-3.9 0-7.1-3.2-7.1-7.1v-56C3.8 8 7 4.8 10.9 4.8h56c3.9 0 7.1 3.2 7.1 7.1v56c0 3.9-3.2 7.1-7.1 7.1z"/></defs><clipPath id="SVGID_2_"><use xlink:href="#SVGID_1_" overflow="visible"/></clipPath><path class="st10" d="M23 69.4h-4.2V9.6c0-1 .8-1.8 1.8-1.8H23v61.6z"/><path class="st10" d="M34.9 11H19V9.5c0-1 .8-1.7 1.7-1.7h12.4c1 0 1.7.8 1.7 1.7V11zM18.9 68.5h15.8l4.2 2.1c.7.3.4 1.4-.3 1.4H15.4c-.8 0-1-1-.4-1.4l3.9-2.1zM58.5 70.7H56V34.1c0-.9.7-1.7 1.7-1.7h.9v38.3z"/><path class="st10" d="M65.8 34.4H56v-.9c0-.6.5-1.1 1.1-1.1h7.5c.6 0 1.1.5 1.1 1.1v.9zM56.1 69.7h9.8l2.5 1.2c.5.2.3.9-.2.9H54c-.5 0-.7-.7-.2-.9l2.3-1.2zM-7.6 42.4l84.9 13.5v1.7l-84.9-8.7z"/><path class="st11" d="M74 54.1c-8.9-.2-14.9-15.5-16.4-19.6-.1-.3-.5-.3-.6 0-12.1 43.7-34.7-17-37.5-24.9-.1-.3-.5-.3-.6 0-2.6 6.8-21.1 52.7-44.4 13.6"/><path class="st13" d="M-7.6 43.4l84.9 12.7v.6L-7.6 45.5z"/><path class="st10" d="M34.8 69.4h-4.2V7.8H33c1 0 1.8.8 1.8 1.8v59.8zM65.8 70.7h-2.6V32.5h.9c.9 0 1.7.7 1.7 1.7v36.5z"/><path class="st12" d="M27.9 23.8v24.9M37.8 20.5v29.3M44.4 38v12.7M49.3 47.1v4.5M53.8 51.1l1 1M61.6 46.9v6.8M68.1 43.8v10.9M71.1 50l-.1 5.2M73.3 52.9v2.3"/><path class="st11" d="M77.3 55.2c-7.8-2-10.8-16.4-11.5-20 0-.2-.3-.2-.3 0-11.2 46.4-28.3-16.8-30.3-24.6-.1-.2-.4-.3-.5 0C32 17.5 9.9 69-14.1 22.7"/><path class="st12" d="M14.3 39.5v6.7M5.9 41.5v3"/><path class="st14" d="M.3 35.7v7.8M9 28.7v16.6M16.5 15.1v31.1M25.9 24.8v23.6M36.1 43.4v6.1M41.5 48.7v1.6M46.6 49.8v1.3M51.2 47.3v4.4M54.3 41.6v11M60.3 40.8v12.5M67.1 51.1v3.1"/><path class="st15" d="M77.3 54.7c-7.7-2-10.8-16.1-11.5-19.9 0-.2-.3-.2-.4 0-11 45.5-27.7-15.1-30.1-24.3-.1-.4-.6-.4-.7-.1-2.2 5.2-12.2 27.9-25.2 30.7-7.1 1.5-15.1-2.9-23.4-19"/></svg>