<svg id="Layer_1" xmlns="http://www.w3.org/2000/svg" viewBox="0 0 77.8 77.8"><style>.st0{fill:#FFF;stroke:#000;stroke-miterlimit:10}.st1{fill:#020202}.st2{fill:#FFF}.st3,.st4{stroke:#FFF;stroke-miterlimit:10}.st4{fill:#020202}.st5{fill:none;stroke:#FFF;stroke-linecap:round}.st5,.st6{stroke-miterlimit:10}.st6,.st7{stroke:#000;stroke-width:2}.st7{fill:#FFF}.st7,.st8{stroke-miterlimit:10}.st8{fill:none;stroke:#FFF;stroke-width:.75;stroke-linecap:round}.st9{fill:#010101}.st10,.st11{clip-path:url(#SVGID_2_)}.st11{stroke-width:.75}.st11,.st12{fill:none;stroke:#000;stroke-miterlimit:10}.st12{stroke-width:.5}.st12,.st13{clip-path:url(#SVGID_2_)}.st13{fill:#FFF}.st14{stroke:#000}.st14,.st15{clip-path:url(#SVGID_2_);fill:none;stroke-width:.25;stroke-miterlimit:10}.st15{stroke:#FFF}.st16{clip-path:url(#SVGID_4_)}.st17{stroke:#FFF;stroke-width:3;stroke-miterlimit:10}</style><path class="st0" d="M69.8 76.9H8c-3.9 0-7.1-3.2-7.1-7.1V8C.9 4.1 4.1.9 8 .9h61.8c3.9 0 7.1 3.2 7.1 7.1v61.8c0 3.9-3.2 7.1-7.1 7.1z"/><path d="M67.1 74.1H10.3c-3.6 0-6.5-2.9-6.5-6.6V10.2c0-3.6 2.9-6.6 6.5-6.6h56.8c3.6 0 6.5 2.9 6.5 6.6v57.4c0 3.6-2.9 6.5-6.5 6.5z"/><path class="st2" d="M5.5 34.8v-.2c-.2-.6-.5-1.2-.7-1.9-.1-.2-.1-.4-.1-.6 0-.1.1-.1.2-.2.1 0 .3.1.3.2 0 .5.2.9.5 1.3.1.1.1.2.1.2-.2.4.3.6.5.9.1.2.4.3.4.5.1.2.1.4 0 .6-.1.2 0 .4.2.6.5.3 1 .6 1.4.9l.6.3c.2.1.4.1.7 0 .2-.1.5 0 .7.3.1.2.3.4.5.5.2.1.6.2.8.2.1 0 .2 0 .2.1.2.3.3.6.5.8 0 .1.1.2.1.2l.6.6.1.1c.3.1.5.2.8.3v-.2c.1-.1.2-.2.3-.2.1 0 .3.1.3.2.3.4.3.9.3 1.4 0 .2-.1.4-.3.6-.4.4-.7.9-.8 1.4 0 .1 0 .3.1.5.1.1.1.2 0 .3-.3.3-.3.9.1 1.2.1.1.2.3.3.4.2.4.5.8.7 1.2.2.4.5.8.6 1.2.1.3.5.4.7.6.3.2.6.5.9.7.1.1.2.3.2.5.2 1.1.1 2.3.1 3.4 0 .2.2.5.2.7v.2c0 .4-.1.9-.1 1.3s-.1.7.2 1.1c.1.1.1.2.1.3 0 .3.1.6.1.9 0 .1.2.1.4.2 0 .2.3.4-.2.5 0 .1.1.3.1.4 0 .2-.1.4.2.5.1 0 .1.1 0 .2-.1.2 0 .4.2.5.2.3.4.5.6.8.1.1.2.2.3.4.2.3.6.5 1 .6.3.1.6.1.9.2.1 0 .3-.1.5-.1.1-.1.1-.2 0-.2-.6-.1-.9-.4-1.2-.7-.2-.2-.2-.4-.1-.6.1-.3.2-.5.3-.8 0 0-.1-.1-.1-.2-.1-.1-.3-.2-.3-.4-.1-.1-.1-.3 0-.4.3-.2.2-.6.3-.8 0 0-.1-.1-.1-.2-.1-.1-.2-.2-.2-.3 0-.1 0-.2.3-.2s.5-.2.4-.4c0-.3 0-.3.4-.3.6-.1.8-.2.9-.7 0-.1-.1-.2-.2-.3-.1-.2-.2-.4-.4-.5l.1-.1c.1 0 .3.1.4.1.3.2.4.2.6-.1.2-.2.3-.5.4-.8.1-.2.1-.4.2-.5l.1-.1c.4-.2.5-.6.5-.9v-.3c-.1-.4.2-.7.6-.9.4-.2.7-.4 1.1-.6.4-.2.7-.6.7-1 0-.2.1-.3.1-.5v-.3c0-.3.1-.6.1-.9v-.1c-.2-.4.2-.7.4-1 .3-.5.5-.9.7-1.4.1-.3 0-.6-.4-.9-.3-.2-.6-.4-.9-.7-.2-.1-.4-.2-.6-.2h-.5c-.3 0-.5-.1-.6-.3-.1-.2-.8-.4-1.1-.4-.2-.1-.3-.3-.5-.4 0 0-.1 0-.1-.1-.1-.3-.2-.5-.3-.8-.1-.4-.4-.8-.9-1-.1 0-.2-.1-.3 0-.7.1-1.1-.2-1.4-.7l-.2-.2c-.3-.2-.6-.4-.8-.7l-.2-.2c-.4.2-.8.2-1.2 0-.2-.1-.4 0-.5-.1-.2-.1-.4-.2-.5-.3l-.1-.1c-.1.1-.2.3-.2.4-.1 0-.1-.1-.2-.1 0-.1 0-.1.1-.2v-.1h-.2c-.3.1-.5.3-.8.4-.2.1-.3.3-.4.5v.1l-.3.3c-.1-.1-.3-.1-.4-.2-.2-.2-.5-.3-.9-.1-.2.1-.4.1-.5-.1-.1-.2-.3-.4-.3-.6-.1-.4 0-.9.1-1.3 0-.1 0-.1-.1-.2-.2-.1-.4-.3-.8-.2-.2.1-.4 0-.7-.1l-.1-.1c.2-.5.4-1 .6-1.4 0-.1.1-.3 0-.3s-.3-.1-.4 0c-.2.1-.5.2-.5.4s-.1.3-.3.4c-.3.1-.5.2-.8.3-.3.1-.6-.1-.8-.5-.1-.3-.3-.5-.3-.8 0-.2.1-.4.2-.6.1-.3.2-.5.2-.8 0-.3.2-.6.5-.8.2-.1.5-.3.7-.5.4-.2.7-.3 1.1-.1.1 0 .3 0 .4-.1.2 0 .3-.1.5-.2.1 0 .3 0 .4-.1h.2c.3.1.5.2.8.3.2.1.3.2.2.4-.1.3-.1.6.2.9 0 0 .1.1.2.1l.1-.1v-1.1c0-.3 0-.6.2-.9.4-.4.9-.8 1.4-1.1.2-.1.4-.3.6-.5l.1-.1c-.1-.3.2-.6.3-.8 0-.1.1-.1.2-.2l.3-.3c.1-.1.2-.2.4-.3.3-.1.6-.2.8-.2.1 0 .2-.1.2-.2 0-.4.3-.6.7-.8.2-.1.5-.2.7-.2h.3V27.4h.3c.5-.2.9-.4 1.4-.6.2-.1.2-.2.1-.2-.3.1-.5.2-.8.2-.3 0-.5-.2-.4-.5.1-.1.1-.3.2-.4.1-.2 0-.2-.2-.2h-.3c.1-.3.2-.4.6-.4.5 0 1 0 1.5-.1.2 0 .5-.1.7-.2 0 0 .1 0 .1.1-.1.2-.3.4-.4.6l-.3.3c-.1.1-.1.2.2.2.4 0 .7.1 1 .2.2 0 .3-.1.3-.2v-.5c0-.1-.1-.1-.2-.1-.2 0-.3-.1-.3-.2 0-.2 0-.4.1-.6.2-.4.1-.8-.3-1-.1-.1-.3-.1-.3-.2.5-.3.4-.4.5-.6 0-.4 0-.7-.2-1.1-.1.1-.2.1-.2.2-.2.1-.4.3-.6.4h-.4c-.1-.1-.2-.2-.2-.3 0-.2 0-.4-.2-.6-.1-.2-.3-.3-.6-.2h-.3c-.6 0-.6 0-.8.4-.1.2-.3.4-.4.6-.1.1-.2.2 0 .3.1.2 0 .5-.2.6-.3.1-.5.3-.8.4-.2.1-.3.2-.4.4-.1.3 0 .6-.4.7-.1.1-.2.2-.4 0-.1-.1-.3-.3-.1-.4v-.1c0-.2 0-.4.1-.5.1-.1 0-.2-.2-.2-.5 0-.7-.3-1.1-.5-.2-.1-.3-.2-.5-.2-.3 0-.3-.1-.3-.3 0-.1-.1-.2-.1-.3v-.2c.3-.4.8-.5 1.2-.7.3-.1.5-.3.7-.4.4-.2.9-.4 1.3-.6l.1.1-.1.1v.2h.4c.2-.2.4-.2.6-.1h.3c0-.1 0-.2-.1-.2-.1-.1-.3-.3-.5-.4l.9-.3c.1 0 .3-.1.3-.2l.3-.6c0-.1.1-.1.2-.1.2 0 .5 0 .7-.1.3 0 .6.2.6.4.1.1.4.1.4.2s-.1.3-.2.4c-.1.1-.3.3-.5.4-.1.1-.4.1-.5.1-.2 0-.3 0-.5.1 0 0-.1.1-.1.2.1 0 .2.1.2.1.6-.1.6-.1 1 .4.2.2.5.3.8.4 0 0 .1-.1.2-.1 0-.1 0-.1-.1-.3.2.1.4.2.5.2l.3-.3v-.3c-.1-.1-.2-.2-.2-.3 0-.1.1-.2.1-.3.1 0 .2.1.3.1.1 0 .1.1.1.2.1 0 .2.1.3.1.1 0 .3-.1.4-.2l.3-.3c-.1-.2-.3-.3-.6-.4-.3-.1-.4-.1-.2-.4.1-.2.1-.3-.2-.4l-.6-.3c-.2-.1-.3-.3-.5-.4-.1 0-.1-.1-.2-.1h-1.3c-.2 0-.4.1-.5.1v-.2H21c-.4 0-.6.3-.9.5-.2.1-.1.4.1.4.1 0 .2.1.3.1-.1.1-.1.3-.2.3-.2.1-.4.3-.6.4h-.3v-.2c.1-.2.1-.3-.1-.4-.3-.2-.3-.7 0-.9.1-.1.3 0 .4-.1.2-.1.4-.2.6-.2 0-.2 0-.3.1-.4.1-.2.2-.2.4 0 .1.1.2.1.4.1H23c.1 0 .1-.1.2-.1-.4-.3-.9-.1-1.3-.2l-.1-.1c.1 0 .1 0 .2-.1.3 0 .6-.1.9-.1.7 0 1.3-.1 1.8-.4.4-.2.8-.4 1.3-.5.7-.1 1.4-.3 2.1-.4l.1-.1h-2.3c-.7 0-1.4.1-2.1.2-.5 0-.9 0-1.4.1-.2 0-.3.1-.5.1-.1 0-.2.1-.3.1-.2 0-.4.1-.3.3.1.1.3.2.4.3h.2c-.2.3-1 .5-1.3.3l-.1-.1c-.1 0-.3-.1-.3-.1-.1 0-.1.1-.2.2s-.1.2-.2.2c-.2 0-.3 0-.4-.2 0-.2-.3-.2-.5-.2-.1.1-.2.2-.3.4 0 0 .1.1.2.1h.4c.1 0 .3.1.5.2-.8.3-1.2.7-1.7 1.2-.2.2-.4.3-.7.3-.2 0-.4.1-.5.3-.2.2-1 .4-1.3.2-.5-.3-.8-.3-1.3 0-.3.2-.8.1-1.2.1 0 0 0-.1.1-.1-.1-.1-.2-.2-.4-.3-.3-.1-.7-.1-1-.2-.3-.1-.7-.1-1-.2-.2 0-.3 0-.5.1-.4.1-.8.2-1.3.1-.2 0-.5.1-.8.1h-.3c-.3-.1-.6-.2-1-.2-.3 0-.7 0-1-.1-.2 0-.3-.1-.5-.1-.1 0-.3 0-.3-.1-.3-.2-.7-.2-1.1-.1-.4.1-.8.2-1.1.3-.3.1-.5.1-.8.2 0 0-.1 0-.1-.1 0-1.2-.2-2.4.4-3.5.7-1.2 1.7-2.2 3.4-2.6.4-.1.8-.1 1.2-.1h62.2c2 0 3.3.8 4.3 2.1.6.8.8 1.6.8 2.4v1.2H74c-.4-.1-.9-.2-1.3-.3-.1 0-.2-.1-.2-.1-.5 0-1-.1-1.5-.1h-.2c0 .3 0 .3-.5.3h-.8c-.1.2-.3.3-.6.1-.3-.2-.6-.4-1-.6-.3-.1-.7-.1-1-.2-.1.1-.1.2-.2.2h-.9c-.3 0-.5-.1-.8-.1-.2 0-.4-.1-.5-.1-.3-.1-.3-.1-.6.1-.1.1-.4.1-.5.1v-.2s.2 0 .2-.1c.1-.1.2-.2.4-.3-.1-.1-.3-.2-.4-.2-.3-.1-.6-.1-1-.1-.2 0-.4-.1-.5-.1-.3-.2-1-.1-1.2.1-.1.2-.3.2-.5.2-.5 0-1 .1-1.5.1-.2 0-.5.1-.5.3 0 0-.1.1-.2.1h-.3c-.3 0-.4 0-.2.3v.2h-.6c-.2 0-.2.1-.1.2v.2h-.3c-.1 0-.1-.1-.2-.2 0-.1-.1-.1-.1-.2-.1.1-.1.2-.2.3 0 0-.1.1-.2.1s-.1-.1-.1-.1c0-.2-.1-.3-.4-.4-.1 0-.2-.1-.3-.1l-.1.1c0 .3-.3.6 0 .9.1.1.2.1.3.2.1.1.1.2.2.2h-.3c-.5-.1-.9-.4-1.4-.3-.2 0-.4-.1-.6-.1l.2.2c-.3.1-.7.1-1 .2-.2 0-.2.1-.3 0 0 0-.2-.1-.2 0-.3.1-.7.3-1 .4-.1 0-.2.1-.4.1v-.2c0-.1 0-.2-.1-.2-.1-.1-.3-.1-.5-.1.1.2.2.4.3.5.1.2-.1.2-.2.2-.4 0-.5.1-.6.4 0 .1-.1.2-.3.1h-.5c0 .1.1.2.1.3-.1 0-.3 0-.4-.1l-.3-.3c-.1-.1-.1-.2-.1-.3h.5c.4.1.7.1 1-.1.2-.1.2-.2 0-.3l-.9-.3c-.5-.1-1-.2-1.5-.4-.1 0-.2-.1-.2-.2-.2-.2-.4-.3-.7-.1-.1 0-.2.1-.3.1-.8-.2-1.4.1-2 .4-.2.1-.3.1-.5.2.3.3-.1.4-.3.6-.2.2-.4.4-.5.7-.1.2-.3.3-.6.3-.1 0-.3 0-.4.1-.6.3-.7.6-.5 1.1v.2c0 .2.2.4.5.4.1 0 .2 0 .2-.1.1 0 .1-.1.2-.2.3-.2.4-.2.6.1 0 .1.1.2.2.3 0 .1.1.2.1.3 0 .1-.1.2-.2.2s-.2-.1-.2-.1c-.1-.1-.1-.1-.1-.2v-.2c-.5.1-.7.4-.5.8 0 .1.1.2.1.2.1.1 0 .2-.2.3-.2 0-.4.1-.6.1-.2 0-.4.1-.4.3 0 .3-.2.4-.4.5-.2.1-.4.2-.5.4-.1.3-.5.2-.8.2 0 .3-.2.2-.4.2h-.2c-.1 0-.2.1-.2.1l.1.1c.6.3.8.7.8 1.2 0 .3-.2.4-.5.4H37c-.1.1-.1.2-.1.3.1.3.1.6-.1.9-.1.2-.1.3 0 .5 0 .3.1.4.5.4.2 0 .4.5.3.7-.1.3-.3.5-.7.7-.4.2-.6.5-.6.9s-.4.8-.9.9c-.1 0-.2.1-.2.1-.2.2-.3.4-.4.6-.1.1-.1.2-.2.4v.1c-.4.3-.3.8-.7 1.1v.1c0 .3.1.6.1.8 0 .4.1.8-.1 1.2-.2.4 0 .7 0 1.1 0 .1.2.3.3.4.4.3.7.7.9 1.1.1.3.4.5.7.7.2.2.5.4.8.5.1.1.2.1.4.1.5-.2 1-.2 1.5-.1.2 0 .4-.1.5-.1.4-.3.9-.4 1.4-.3.3 0 .4.1.5.3.1.4.2.4.7.4.6 0 .7.1.7.5s0 .9-.3 1.3v.1c.1.1.2.3.3.4.2.3.5.6.6.9.2.3.2.6.3.9 0 .1.1.1.1.2s.1.1 0 .2c-.2.2 0 .4.1.7 0 .1.1.2.1.3l-.3.9c-.3.5-.2 1-.2 1.5 0 .2.2.4.3.6.2.5.5 1 .5 1.5.1.6.3 1.2.6 1.8.2.4.4.7.4 1.2 0 .2.1.4.2.5.2.2.5.1.7 0 .3-.1.6-.1.8-.1.5-.1 1-.1 1.3-.5.4-.5.8-.9 1.2-1.3.2-.2.3-.6.3-.9 0-.2.1-.4.3-.5.5-.3.7-.7.5-1.3-.1-.2-.1-.5.1-.7.4-.3.6-.7 1.2-.9.3-.1.5-.4.5-.7V47c0-.4-.1-.8-.2-1.2-.1-.4-.3-.8-.2-1.2 0-.2.1-.4.2-.5.2-.3.3-.6.6-.9.3-.3.6-.7.9-1 .1-.1.3-.2.4-.3.2-.2.3-.3.4-.5.4-.5.7-1.1 1-1.6.2-.4.4-.8.3-1.2 0-.1-.1-.2-.3-.1-.2.1-.5.2-.7.2-.3.1-.6.2-.9.2-.3 0-.5-.2-.5-.5 0-.2-.1-.3-.3-.4-.5-.5-1.3-1-1.4-1.7 0-.1-.1-.2-.1-.2-.3-.2-.3-.4-.3-.6.1-.3-.2-.5-.4-.8l-.9-1.8c.4-.2.5-.1.7.1.3.5.7 1 1 1.5 0 .1 0 .2.1.2.1.2.1.4.2.5.2.3.5.6.7.9.1.1.2.3.3.4 0 .1-.1.2-.1.2.2.4.3.7.5 1.1.1.2.4.3.5.2.2-.3.7-.2.9-.4.4-.3 1-.3 1.3-.7.1-.1.3-.2.4-.2.3-.1.5-.1.6-.3.1-.2.3-.3.5-.4.1-.1.1-.2.1-.3v-.1c.3-.2.3-.5.4-.7.1-.2-.1-.6-.4-.6-.4 0-.6-.2-.6-.5 0-.1-.1-.2-.1-.3l-.4.4c-.1.1-.3.2-.4.2-.4 0-.5 0-.5-.4v-.2c-.2.5-.2.5-.3.2-.1-.2-.2-.4-.4-.5-.2-.2-.2-.4-.1-.7 0-.1.2-.2.3-.2.1 0 .3.1.3.1.1.1.3.3.3.5.1.3.5.4.8.6.1.1.4 0 .6 0 .1 0 .3-.1.4-.1.1 0 .1.2.1.3v.1c.4 0 .8.1 1.1.2.3.1.6.2 1 .1h.5c.3 0 .5.1.6.3 0 0 0 .1.1.1.3.2.5.5.6.8.1.3.5.3.9-.1.1.2.1.4.2.6.1.4.2.7.3 1.1.1.2.1.4.2.6.1.3.3.6.4.9.1.3.3.6.4.9.1.1.1.3.2.4 0 .1.1.1.2.2.1-.1.2-.1.2-.2.2-.2.3-.4.5-.6.1-.1.1-.2.1-.3v-.9-.2c-.2-.3 0-.4.3-.6.4-.4.8-.8 1.1-1.2.1-.1.2-.1.2-.1l.3-.3c.1-.4.2-.4.6-.3.2-.1.4-.1.5-.2.2-.1.5.1.5.3 0 .2.2.4.4.5.1.1.1.2.2.2.1.1.1.2.2.3.1.1.2.2.1.4 0 .1-.1.1 0 .2s.1.2.2.4c.1-.1.3-.1.4-.2.1 0 .1-.1.2-.1s.2-.1.2 0c.1 0 .1.1.1.2l.3.9c.1.4.1.7.2 1.1v.9s0 .1.1.1c.5.2.5.6.8 1v.2c-.2.2 0 .3.1.5s.3.4.6.5c.1 0 .2.2.3.3 0 0 .1.1.2.1-.1-.2-.3-.5-.4-.7 0-.1-.1-.1-.1-.2 0-.5-.3-.9-.8-1.3-.2-.1-.4-.3-.3-.5 0 0 0-.1-.1-.2-.3-.3-.2-.6-.1-.8 0-.1 0-.3.1-.4 0-.1.1-.2.2-.3l.2.2s0 .1.1.1c.5.1.7.5.9.8l.1.1c.3 0 .4.1.2.3v.2c.1 0 .2 0 .2-.1.1-.1.2-.3.4-.4.1-.1.2-.1.3-.2.3-.1.4-.2.4-.5.1-.7-.2-1.2-.8-1.7-.2-.2-.4-.5-.5-.7-.1-.1 0-.3.1-.4.1-.1.2-.2.3-.4.2-.2.4-.2.6-.1.1 0 .1.1.1.2v.2l.1-.1c0-.2.2-.3.5-.3.1 0 .2-.1.4-.2v6.7c0 .3 0 .5-.4.6-.3.1-.4.6-.1.8.2.1.2.3.2.5-.1.2.1.4.4.5v1c-.2 0-.4.1-.5.1-.2 0-.5 0-.7-.2-.2-.2-.5-.1-.6 0 .3.1.5.3.7.4.3.1.7.2 1 .3l.1-.1v5.3c0 .3-.1.6-.1.8 0 .1-.1.2-.2.2.4.6.2 1.3.2 1.9 0 .3-.2.5-.4.8-.1.2-.1.3.2.4.3 0 .3.1.3.3v4.7c0 1.3-.6 2.5-1.9 3.4-.9.7-2 1-3.2 1H8.3c-2.7 0-4.6-1.1-5.3-3.1-.2-.5-.3-1.1-.3-1.6V22.2c0-.4.4-.6.9-.4 0 .2.2.2.3.3.6.1.9.4.8.9 0 .2-.1.4-.1.6 0 .1.1.2.2.2.1.1.2.1.2.2v1c0 .1 0 .2-.2.2s-.2.1-.1.2l.1.1c.3.2.4.4.2.7-.3.3-.4.7-.6 1.1l-.3.3-.1.1c-.2.3-.3.7-.6 1.1-.2.3 0 .7 0 1.1 0 .2 0 .4.1.6 0 .1.1.3.2.4.3.2.5.4.5.8s0 .8.3 1.2v.2c-.3.3.1.5.2.7l.2.2c0 .2.1.4.2.6.1.1.2.2.2.4.1-.2.2-.2.2-.2zm23.4-14.7c-.6.4-.7.9-.7 1.4 0 .3.1.6.2.9 0 .1.2.2.3.3.1.1.3.1.4.2.2.1.5.1.6 0 .3-.4.7-.7.9-1.1.3-.4.8-.5 1.2-.6.3-.1.6-.1.8-.3.6-.4 1.3-.6 2-.8.1 0 .3-.1.4-.1.5-.1.5-.1.5-.4 0-.2.1-.4.3-.5.1 0 .2-.1.3-.2.1 0 .1-.1.1-.2-.1-.2 0-.3.1-.4.2-.1.2-.2.1-.4-.2-.2-.1-.3.2-.4.1 0 .2-.1.4-.1.3-.1.5-.2.8-.3V17h-.3c-.2 0-.5.1-.6 0l-.9-.3c-.3 0-.6-.1-.9-.1-.7 0-1.4.1-2.2.1-.3 0-.6 0-.8.1-.1.2-.2.2-.3.2h-1.3c-.8.1-1.5.2-2.3.2 0 .3-.1.4-.3.4-.4 0-.7.1-1.1.1-.1 0-.2.1-.3.1.1.1.2.2.3.2.4.1.8.2 1.2.2.5.1.9.4.8.8 0 .1-.1.2-.2.3.1.1.3.1.5.2-.2.1-.4.1-.5.1-.1.3 0 .4.3.5zM54.2 47c-.2.2-.3.4-.4.6-.2.2-.4.4-.7.6-.5.2-.7.6-.5 1 .1.2.1.4 0 .5-.3.4-.4.8-.4 1.2 0 .2.2.4.4.5h.2c.5-.1.6-.4.7-.7.1-.3.1-.5.2-.8.1-.3.1-.5.2-.8 0-.1 0-.2.1-.2.2-.3 0-.7.4-.9 0-.4.1-.7-.2-1zm-39-27.6c.1.1.1.1 0 0 0 .2 0 .3-.1.4-.1.1-.2.2 0 .4.3.2.5.3.8.1.1 0 .2-.1.4-.1h.9c.1 0 .3 0 .4.1.2.1.7-.1.6-.3-.1-.3-.1-.5 0-.7 0-.1 0-.2-.1-.2h-.3c-.1.1-.1.2-.2.2s-.2.1-.2.1c-.3-.1-.5-.1-.7-.2-.1 0-.2-.1-.3-.2-.1-.2-.3-.3-.6-.3h-.4c-.2 0-.4.1-.6.2-.2.2-.4.2-.7.4-.1 0-.1.1-.2.1.1.1.2.2.3.2.2 0 .4-.1.6-.1.2.1.3 0 .4-.1zm56.1 24.5c-.1-.1-.2-.3-.3-.4-.1-.1-.2-.2-.3-.2-.2-.1-.3-.2-.1-.3v-.1l-.2-.2c-.3-.2-.6-.4-.8-.6-.1-.1-.1-.3-.3-.3-.3-.2-.6-.4-1-.5h-.2l.1.1.6.6.1.1c.2.1.4.3.5.5.1.3.4.6.5 1 0 .5.4.9.8 1.2.1.1.3.1.4.1.1-.1.2-.3.2-.4-.1-.3 0-.5 0-.6zM39.4 23.3c-.1 0-.1 0 0 0-.1 0-.2.1-.3.1-.3.1-.5.2-.5.4v.4c0 .3 0 .3.4.4.1 0 .1.1.2.1.1.2 0 .4-.3.4v.2c-.3.2-.1.2.1.3l-.3.3.1.1h.2c.2-.1.5-.2.8-.1.3 0 .6 0 .6-.3 0 0 0-.1.1-.1.1-.1.1-.2-.1-.3-.1 0-.2-.1-.2-.2-.2-.2-.3-.5-.5-.7-.1-.2-.2-.2 0-.4.1-.1.1-.2-.1-.2-.3-.1-.3-.1-.1-.3-.2 0-.2 0-.1-.1zm-23.2-4.9c.2.1.4.2.6.2l.6.3h.3c.3-.1.6-.2 1-.2.6 0 .6 0 .3-.4h-.1c-.3.1-.6.3-.8.2-.2 0-.6-.1-.6-.5-.4.1-.9.3-1.3.4zM35.6 22c.4-.1.7-.2 1-.3.3-.1.3-.2.3-.4-.1-.2-.3-.1-.5-.1-.4 0-.9.3-1.3-.1 0 0-.2.1-.3.1l.2.2c.1.1.2.1.3.2 0 .1.1.3.3.4zM15.2 35.1s0 .1-.1.1c.2.1.4.2.7.3.3.1.5.2.5.5 0 .1.1.2.3.2.2 0 .5-.1.7-.1.1 0 .1-.1.2-.1l-.2-.2c-.1-.1-.2-.1-.3-.2-.3-.2-.6-.5-1-.5h-.2c-.2.1-.4.1-.6 0zm23.3-10.5c-.4-.1-.4-.1-.7.1 0 0-.1.1-.2.1-.3 0-.3.2-.2.3v.3c0 .1-.1.2-.1.2h.5c.4-.1.7-.2.6-.6l.1-.1c-.1-.1 0-.2 0-.3zM19.3 36.7c-.3-.4-.4-.5-.9-.5h-.2c-.2 0-.3 0-.3.2 0 .1-.1.2-.3.2-.1 0-.2.1-.3.1v.1h.4c.1 0 .2.1.4.1.1 0 .2 0 .2-.1.1-.2.3-.2.5-.2.2.1.3.1.5.1zm-.2-17.4H19c.2.1.3.3.5.3s.5-.1.6-.2c.1-.1.1-.3.1-.4H19.6c-.1 0-.1 0-.2.1-.1 0-.1.1-.3.2zm44.3 20.5v.2c0 .2.1.4.1.6l.1.1c.1 0 .1-.1.2-.1.2-.2 0-.7-.4-.8zM21.5 17.9s0-.1 0 0c-.2-.1-.5-.2-.7-.2 0 0-.1 0-.2.1v.1c.2.1.4.1.6.2.1-.1.2-.2.3-.2zM72 36.2c-.2.1-.3.2-.2.4 0 0 .1.1.2 0s.2-.2 0-.4c.1 0 .1 0 0 0zM22.1 17.6h-.2v.3l.1.1s.1 0 .1-.1v-.3zm-2.8.2s-.1 0 0 0c-.2 0-.4.1-.5.1l.1.1c.1 0 .3-.1.4-.2z"/><path class="st2" d="M43.9 30.1c.3-.1.5-.3.4-.5-.1-.2 0-.3.3-.4-.7-.2-1-.7-1.4-1.1-.1-.1-.1-.3-.1-.5l.1-.1c.1 0 .3.1.3.1.2.5.8.8 1.3 1.1.2.2.4.3.3.5-.1.2.1.4.3.5.2.1.3.2.3.4 0 .1.1.2.2.2l.2-.2.1-.1c.1-.1.1-.2 0-.3l-.2-.2c0-.1-.1-.1-.1-.2h.3c.1 0 .1-.1.2-.1s.2-.1.3-.1c.1.1.3.2.2.3 0 .3.2.6.3.9l.1.1c.2.1.5.1.7.2.1-.2.4-.1.6 0 .3.2.4 0 .6-.1.1 0 .3-.1.3-.1.1 0 .2.2.2.3.1.5-.2 1-.4 1.4 0 .1-.2.2-.4.2h-.7c-.1 0-.2.1-.4.1h-.4l-1.5-.6c-.3-.1-.5 0-.7.1-.1.1-.3.2-.1.4 0 0 0 .2-.1.2s-.2.1-.3 0c-.3-.1-.5-.2-.8-.3-.2-.1-.4-.2-.5-.3-.2-.2-.3-.2-.6-.2-.2 0-.3-.2-.4-.3-.2-.1-.2-.2-.1-.4.2-.2 0-.5 0-.7 0 0-.2-.1-.4-.1h-.5c-.2 0-.4.1-.5.1h-.3c-.3 0-.7.1-1 .1-.2 0-.3.2-.4.3-.1.1-.3.1-.4.1h-.4c-.1 0-.3-.1-.3-.1-.1-.1-.1-.3.2-.3.2 0 .3-.1.5-.1.4-.1.8-.5.8-.8 0-.3.2-.5.5-.7.2-.1.5-.2.5-.5 0-.2.4-.3.6-.2.2.1.3.1.4 0 .1-.1.2-.2.4-.2.2-.1.5-.1.6.1.1.3.4.6.8.8.2.1.3.2.5.3.3.2.4.4.2.7-.1.2-.1.3-.2.3zm-.5.1c-.1 0-.1.1 0 0 .1.1.3.2.4.2 0-.2 0-.2-.4-.2zM45.4 23.7c-.3.2-.3.4-.2.6.1.1.1.2-.1.3-.2.1-.4.3-.7.1 0 0-.2 0-.3.1-.2.1-.5.2-.8.1h-.5c0-.1 0-.2.1-.3.1-.1.2-.1.3-.1h.2c.2-.1.3-.2.5-.3.1-.1.2-.2.1-.3-.1-.3.1-.4.3-.6.2-.2.2-.3 0-.4-.3-.1-.2-.3-.1-.5s.2-.5.6-.6c.2-.1.3-.2.3-.4 0-.1.1-.2.3-.2H46v.2c-.1.1-.2.2-.4.3-.3.2-.5.4-.4.7v.3c0 .2.3.3.6.2.3-.1.7-.1 1.1-.1.1 0 .2.1.3.1-.1.1-.1.2-.2.2s-.3 0-.5.1h-.4c-.2 0-.3.1-.1.3l.1.1c0 .1 0 .2-.1.3h-.3c-.2-.1-.2-.1-.3-.2zM49.6 27.7s.1.1 0 0c.6.2 1 .6 1.4 1 .1.1.1.2.1.3 0 .1-.2.2-.3.2-.5 0-.9.1-1.4-.2-.2-.1-.5 0-.8 0-.2 0-.3.1-.5.2s-.9-.1-.9-.3c0-.2 0-.3.1-.5s.2-.5.4-.7c.1-.1.3-.2.4-.3.2 0 .4.1.4.3 0 .2.1.3.4.3.2 0 .3-.1.3-.3 0-.2.3-.5.6-.5h.1v.2c0 .1-.2.2-.3.3zM54.3 30.6c-.3 0-.4-.1-.6-.2-.4-.2-.4-.4-.3-.7.1-.1.1-.2.1-.3v-.2c-.2-.2-.5-.4-.7-.6-.1-.2-.3-.4-.3-.6 0-.1.2-.2.3-.3.2-.1.3-.3.5-.4.2-.2.3-.2.6 0 .1.1.2.3.2.4 0 .1-.2.1-.3.2-.2.1-.3.2-.1.3.2.2.4.3.6.4l.1.1c0 .1.1.2.2.2s.2.1.2.2c0 0-.1.1-.1.2-.3.1-.3.2-.1.3.4.2.2.6.4.9l-.2.2c-.3-.1-.4-.1-.5-.1zM56.4 20.4c.3 0 .4.2.3.4 0 .1 0 .1-.1.2 0 .1-.1.2-.2.2s-.2 0-.3-.1c0-.1.1-.1.1-.2.1-.2.1-.3.2-.5zM72.9 29.5v.6c-.5-.1-.5-.2 0-.6zM55.9 19.8c.3 0 .5.2.4.4h-.2c-.2-.1-.2-.2-.2-.4z"/></svg>