<svg id="Layer_1" xmlns="http://www.w3.org/2000/svg" xmlns:xlink="http://www.w3.org/1999/xlink" viewBox="0 0 77.8 77.8"><style>.st0{fill:#FFF;stroke:#000;stroke-miterlimit:10}.st1{fill:#020202}.st2{fill:#FFF}.st3,.st4{stroke:#FFF;stroke-miterlimit:10}.st4{fill:#020202}.st5{fill:none;stroke:#FFF;stroke-linecap:round}.st5,.st6{stroke-miterlimit:10}.st6,.st7{stroke:#000;stroke-width:2}.st7{fill:#FFF}.st7,.st8{stroke-miterlimit:10}.st8{fill:none;stroke:#FFF;stroke-width:.75;stroke-linecap:round}.st9{fill:#010101}.st10,.st11{clip-path:url(#SVGID_2_)}.st11{stroke-width:.75}.st11,.st12{fill:none;stroke:#000;stroke-miterlimit:10}.st12{stroke-width:.5}.st12,.st13{clip-path:url(#SVGID_2_)}.st13{fill:#FFF}.st14{stroke:#000}.st14,.st15{clip-path:url(#SVGID_2_);fill:none;stroke-width:.25;stroke-miterlimit:10}.st15{stroke:#FFF}.st16{clip-path:url(#SVGID_4_)}.st17{stroke:#FFF;stroke-width:3;stroke-miterlimit:10}</style><path class="st0" d="M69.8 76.9H8c-3.9 0-7.1-3.2-7.1-7.1V8C.9 4.1 4.1.9 8 .9h61.8c3.9 0 7.1 3.2 7.1 7.1v61.8c0 3.9-3.2 7.1-7.1 7.1z"/><defs><path id="SVGID_3_" d="M67 73.9H10.5c-3.9 0-7.1-3.2-7.1-7.1V10.3c0-3.9 3.2-7.1 7.1-7.1H67c3.9 0 7.1 3.2 7.1 7.1v56.5c0 4-3.2 7.1-7.1 7.1z"/></defs><clipPath id="SVGID_2_"><use xlink:href="#SVGID_3_" overflow="visible"/></clipPath><g class="st10"><path class="st9" d="M62.1 67.8c-.1-3.6 4.9-6 2-8.3-1.5-1.1-3.2-2.5-4.4-4-2-2.5-.3-3.9 2-3.9 2 0 3.7-.3 3.7-1.8 0-2-2.2-2.7-3.9-3.7-.3-.2-.5-.5-.4-.8.2-.7 0-1.4-.1-1.7-.2-.4-.8-1.4-2.5-2.1-1.1-.4-5.1-1.5-5.7-.3-.8 1.8 1.9 5 3.6 5.9 1.1.6 1.8.6 2.6.4.3-.1.8-.5 1.5-.8h.5c.6.3 4.2 2 3.6 3.2-.4.9-3.8.8-4.5 1.1-4.3 1.5-1.1 5.5 1.2 7.1C63 59.3 65 60.5 64 62c-1.6 2.4-2.3 3.7-2.3 5.3 0 1.1.2 3 .4 3 .2.2.1-1.7 0-2.5z"/><circle class="st9" cx="18.3" cy="28.2" r="33.2"/><circle class="st17" cx="18.3" cy="28.2" r="30.8"/><circle class="st0" cx="28.4" cy="19.4" r="6.1"/><path class="st9" d="M63.4 49l-1.9-1.2c-.4-.3-.6-.8-.3-1.3l.1-.2c.3-.4.8-.6 1.3-.3l1.9 1.2c.4.3.6.8.3 1.3l-.1.2c-.3.5-.8.6-1.3.3z"/><circle class="st2" cx="28.4" cy="16.9" r="2"/></g><use xlink:href="#SVGID_3_" overflow="visible" fill="none" stroke="#FFF" stroke-miterlimit="10"/></svg>