<svg id="Layer_1" xmlns="http://www.w3.org/2000/svg" viewBox="0 0 77.8 77.8"><style>.st0{fill:#FFF;stroke:#000;stroke-miterlimit:10}.st1{fill:#020202}.st2{fill:#FFF}.st3,.st4{stroke:#FFF;stroke-miterlimit:10}.st4{fill:#020202}.st5{fill:none;stroke:#FFF;stroke-linecap:round}.st5,.st6{stroke-miterlimit:10}.st6,.st7{stroke:#000;stroke-width:2}.st7{fill:#FFF}.st7,.st8{stroke-miterlimit:10}.st8{fill:none;stroke:#FFF;stroke-width:.75;stroke-linecap:round}.st9{fill:#010101}.st10,.st11{clip-path:url(#SVGID_2_)}.st11{stroke-width:.75}.st11,.st12{fill:none;stroke:#000;stroke-miterlimit:10}.st12{stroke-width:.5}.st12,.st13{clip-path:url(#SVGID_2_)}.st13{fill:#FFF}.st14{stroke:#000}.st14,.st15{clip-path:url(#SVGID_2_);fill:none;stroke-width:.25;stroke-miterlimit:10}.st15{stroke:#FFF}.st16{clip-path:url(#SVGID_4_)}.st17{stroke:#FFF;stroke-width:3;stroke-miterlimit:10}</style><path class="st0" d="M69.8 76.9H8c-3.9 0-7.1-3.2-7.1-7.1V8C.9 4.1 4.1.9 8 .9h61.8c3.9 0 7.1 3.2 7.1 7.1v61.8c0 3.9-3.2 7.1-7.1 7.1z"/><path class="st6" d="M39.7 56.5l-.8-.9.4-.3.8.8 4.6-4.5-.6-.6.4-.3.6.6 4.6-4.5-.3-.3.4-.3.3.3 4.8-4.7C49.7 36 41.3 26.6 39.5 24.5c-1.5-1.8-6.6-7.8-14.2-8.7C10.8 14 5.4 29 10.6 37.1c2.9 4.6 16 16.9 24.1 24.3l5-4.9z"/><path class="st7" d="M19.1 51.3c-1.3-1.3-1.4-3.2-.3-4.5 0 0 16.9-19.1 19.5-22.2 1.5-1.8 6.5-7.8 14.1-8.8 14.3-1.9 19.9 13.1 14.7 21.3-3.4 5.5-21.7 22.6-28.1 28.4-1.2 1.1-3.1 1.1-4.4 0l-.2-.2c-1.3-1.2-1.4-3.2-.1-4.5l4.7-5-.4-.3-6.5 6.8c-1.2 1.3-3.2 1.4-4.5.1-1.3-1.2-1.4-3.2-.1-4.5l6.3-6.6-.4-.3-6 6.3c-1.2 1.3-3.2 1.4-4.5.1-1.3-1.2-1.4-3.2-.1-4.5l5.9-6.2-.4-.3-4.6 4.8c-1.3 1.3-3.3 1.3-4.6.1z"/><path d="M52.9 52.8l-1.1-1.2c-1-1-1-2.7.1-3.7 1-1 2.7-1 3.7.1l1.1 1.2c1 1 1 2.7-.1 3.7-1 1-2.7.9-3.7-.1zM43 36.7l-10-7.9c-1.1-1.2-.3-4.6.9-5.8 1.2-1.1 3-1.1 4.2.1l9.1 9.5c1.1 1.2 1.1 3-.1 4.2-1.1 1.1-3 1.1-4.1-.1zM49.8 57.9l-2.3-2.4c-1-1-1-2.7.1-3.7 1-1 2.7-1 3.7.1l2.3 2.4c1 1 1 2.7-.1 3.7s-2.7 1-3.7-.1zM45.3 61.6L43 59.2c-1-1-1-2.7.1-3.7 1-1 2.7-1 3.7.1l2.3 2.4c1 1 1 2.7-.1 3.7-1 .9-2.7.9-3.7-.1zM40.2 64.4L39 63.3c-1-1-1-2.7.1-3.7 1-1 2.7-1 3.7.1l1.1 1.2c1 1 1 2.7-.1 3.7-1 .9-2.6.9-3.6-.2z"/><path class="st8" d="M30.1 28.7c2.6.7 2.8 0 6.3 3.3"/></svg>